<?xml version="1.0" encoding="UTF-8" standalone="no"?>
<!-- Created with Inkscape (http://www.inkscape.org/) -->

<svg
   version="1.1"
   id="svg2"
   width="734.66669"
   height="774.66669"
   viewBox="0 0 734.66669 774.66669"
   xml:space="preserve"
   xmlns="http://www.w3.org/2000/svg"
   xmlns:svg="http://www.w3.org/2000/svg"><defs
     id="defs12" /><g
     id="layer1">
     <path
       fill="#000"
       d="m 62.050437,701.69235 c -21.676062,-5.35796 -23.137635,-5.85149 -23.740082,-8.01631 -0.353083,-1.26877 -0.683485,-11.97987 -0.734226,-23.80246 l -0.09226,-21.49561 2.367257,0.90003 c 7.355747,2.79665 42.562296,10.33811 55.891559,11.97231 4.299655,0.52715 8.160235,1.30113 8.579065,1.71996 1.01798,1.01798 -0.66635,5.66672 -9.69967,26.77107 -4.192364,9.79452 -8.038966,17.77498 -8.548007,17.73434 -0.50904,-0.0406 -11.319677,-2.64313 -24.023639,-5.78333 z"
       id="path257" />
       <path
       id="path244"
       d="m 38.984375,648.94727 -1.482422,3.43359 0.07422,17.49219 c 0.05074,11.82258 0.381292,22.53396 0.734375,23.80273 0.602446,2.16482 2.064194,2.65767 23.740234,8.01563 12.70395,3.14019 23.514398,5.74455 24.023438,5.78515 0.50904,0.0406 4.356468,-7.93986 8.548828,-17.73437 9.033312,-21.10433 10.717192,-25.75351 9.699222,-26.77149 -0.0219,-0.0219 -0.0906,-0.0485 -0.13086,-0.0723 l -4.494143,-1.06446 C 98.479,661.6272 97.165659,661.42452 95.742188,661.25 82.412938,659.6158 47.207302,652.07399 39.851562,649.27734 Z" />
       <path
       id="path246"
       fill="#00f"
       d="m 37.517578,656.01562 0.04883,11.70704 60.341797,14.29101 c 1.925966,-4.56268 3.336945,-8.00375 4.369135,-10.66211 z" />
       <path
       id="path248"
       fill="#0ff"
       d="m 37.53125,659.42578 0.02148,5.00781 61.607422,14.5918 c 0.704057,-1.68631 1.328668,-3.20719 1.876958,-4.56055 z" />
       <path
       id="path250"
       fill="#00f"
       d="m 37.640625,676.2832 c 0.06167,4.66916 0.162786,8.65818 0.287109,11.76368 l 51.945313,12.30078 c 1.400328,-2.98334 3.007074,-6.53515 4.736328,-10.57422 z" />
       <path
       id="path252"
       fill="#0ff"
       d="m 37.691406,679.70117 c 0.03313,1.79263 0.07138,3.49055 0.115235,5.03125 l 53.441406,12.65625 c 0.638285,-1.4052 1.313488,-2.9486 2.005859,-4.52929 z" />
       </g><g
     id="layer2">
     <path
       fill="#000"
       d="m 642.77674,698.54699 c -2.23639,-4.96587 -6.68251,-15.06183 -9.88028,-22.43548 -5.75143,-13.26205 -5.79187,-13.41492 -3.75035,-14.1763 1.13508,-0.42332 15.86975,-3.44581 32.74372,-6.71663 16.87397,-3.27083 31.34691,-6.2029 32.16209,-6.51571 1.33536,-0.51243 1.48215,1.77483 1.48215,23.09555 v 23.6643 l -3.47073,0.92953 c -1.9089,0.51124 -12.21697,3.03707 -22.90681,5.61295 -10.68985,2.57588 -20.08353,4.88305 -20.87486,5.12703 -1.07288,0.33079 -2.47288,-1.85258 -5.50493,-8.58524 z"
       id="path269" />
       <path
       id="path287"
       d="m 694.40234,649.82227 -0.86718,0.33007 c -7.35575,2.79665 -42.56139,10.33846 -55.89063,11.97266 -1.42347,0.17452 -2.73682,0.3772 -3.95508,0.58398 l -4.49414,1.06446 c -0.0403,0.0238 -0.10896,0.0504 -0.13086,0.0723 -0.5057,0.50571 -0.33907,1.91885 1.0586,5.78907 0.73797,1.75661 1.56454,3.68899 2.77343,6.47656 3.19777,7.37364 7.64448,17.46968 9.88086,22.43555 3.03205,6.73265 4.43103,8.91672 5.50391,8.58593 0.79133,-0.24398 10.18516,-2.55107 20.875,-5.12695 10.68983,-2.57588 20.99735,-5.10204 22.90625,-5.61328 l 2.30273,-0.61719 c 0.39857,-0.37471 0.58183,-0.76066 0.71094,-1.22461 0.16733,-0.60129 0.32721,-3.43069 0.45703,-7.38672 v -15.36523 c 0,-10.98103 -0.0415,-16.8638 -0.26172,-19.96485 z" />
       <path
       id="path289"
       fill="#00f"
       d="m 695.45312,656.98828 -64.23242,15.21094 c 0.55355,1.28928 0.94553,2.22823 1.67578,3.91211 0.88317,2.03645 1.92699,4.40898 2.92774,6.69531 l 59.69922,-14.13867 c -0.006,-4.81049 -0.0209,-8.91094 -0.0703,-11.67969 z" />
       <path
       id="path291"
       fill="#0ff"
       d="m 695.49414,660.38672 -62.94726,14.90625 c 0.14471,0.33387 0.19691,0.46626 0.3496,0.81836 0.49057,1.13119 1.09011,2.48777 1.62696,3.71875 l 60.98828,-14.44531 c -0.005,-1.6526 -0.006,-3.65989 -0.0176,-4.99805 z" />
       <path
       id="path293"
       fill="#00f"
       d="m 695.5332,677.20898 -56.31054,13.33399 c 1.33107,3.01275 2.68695,6.07712 3.55468,8.00391 0.42935,0.95335 0.81795,1.79361 1.18555,2.57031 l 51.49609,-12.19531 c 0.0278,-0.69393 0.0489,-1.5873 0.0742,-2.36719 z" />
       <path
       id="path295"
       fill="#0ff"
       d="M 695.5332,680.61523 640.5918,693.625 c 0.67934,1.52971 1.50249,3.39671 2.01172,4.5293 l 52.92968,-12.53516 z" />
       </g><g
     id="layer3">
     <path
       id="path129"
       d="m 196.46875,618.71484 0.60742,3.23633 c 0.33388,1.77975 3.14299,11.25573 6.24414,21.05664 3.10117,9.80091 5.83976,18.75701 6.08399,19.90235 l 0.44336,2.08203 h 59.58789 59.58984 v -23.13867 -23.13868 h -66.2793 z m 210.30078,0 v 23.13868 23.13867 h 59.63477 c 55.99044,0 59.66429,-0.10039 60.125,-1.6211 2.24305,-7.40389 11.66601,-42.49386 11.66601,-43.44336 0,-0.98706 -12.17785,-1.21289 -65.71289,-1.21289 z" />
       <path
       id="path317"
       d="m 196.46875,618.71484 0.60742,3.23633 c 0.33388,1.77975 3.143,11.25574 6.24414,21.05664 3.10117,9.8009 5.83976,18.75701 6.08399,19.90235 l 0.44336,2.08203 h 59.58789 59.58984 v -23.13867 -23.13868 h -66.2793 z m 210.30078,0 v 23.13868 23.13867 h 59.63477 c 55.99038,0 59.66429,-0.10039 60.125,-1.6211 2.24304,-7.40388 11.66601,-42.49386 11.66601,-43.44336 0,-0.98705 -12.1779,-1.21289 -65.71289,-1.21289 z" />
       <path
       id="path319"
       fill="#00f"
       d="m 198.2168,626.06836 c 0.77862,2.7772 1.84199,6.34009 3.30859,11.0957 h 127.5 v -11.0957 z m 208.55273,0 v 11.0957 H 533.75 c 1.08852,-4.06926 2.16479,-8.11069 2.93945,-11.0957 z" />
       <path
       id="path321"
       fill="#0ff"
       d="m 199.11328,629.29883 c 0.40264,1.36061 0.9716,3.1641 1.45313,4.74805 h 128.45898 v -4.74805 z m 207.65625,0 v 4.74805 h 127.80664 c 0.4413,-1.66021 0.87361,-3.28499 1.25781,-4.74805 z" />
       <path
       id="path323"
       fill="#00f"
       d="m 204.01172,645.26758 c 1.66799,5.30798 2.47018,8.01461 3.39258,11.09765 h 121.62109 v -11.09765 z m 202.75781,0 v 11.09765 H 528.4668 c 0.91404,-3.24899 1.84991,-6.62211 3.0664,-11.09765 z" />
       <path
       id="path325"
       fill="#0ff"
       d="m 205,648.5 c 0.65335,2.10034 0.935,3.05726 1.45117,4.74805 H 329.02539 V 648.5 Z m 201.76953,0 v 4.74805 h 122.55859 c 0.44485,-1.60237 0.81191,-2.91972 1.3125,-4.74805 z" />
       </g><g
     id="layer4">
     </g></svg>
