<?xml version="1.0" encoding="UTF-8" standalone="no"?>
<!-- Created with Inkscape (http://www.inkscape.org/) -->

<svg
   version="1.1"
   id="svg2"
   width="734.66669"
   height="774.66669"
   viewBox="0 0 734.66669 774.66669"
   xml:space="preserve"
   xmlns="http://www.w3.org/2000/svg"
   xmlns:svg="http://www.w3.org/2000/svg"><defs
     id="defs12" /><g
     id="layer1"><path
       fill="#000"
       d="m 62.050437,701.69235 c -21.676062,-5.35796 -23.137635,-5.85149 -23.740082,-8.01631 -0.353083,-1.26877 -0.683485,-11.97987 -0.734226,-23.80246 l -0.09226,-21.49561 2.367257,0.90003 c 7.355747,2.79665 42.562296,10.33811 55.891559,11.97231 4.299655,0.52715 8.160235,1.30113 8.579065,1.71996 1.01798,1.01798 -0.66635,5.66672 -9.69967,26.77107 -4.192364,9.79452 -8.038966,17.77498 -8.548007,17.73434 -0.50904,-0.0406 -11.319677,-2.64313 -24.023639,-5.78333 z"
       id="path257" /><path
       id="path1999"
       fill="#00f"
       d="m 37.488281,649.39062 0.08789,20.48243 c 0.05074,11.82258 0.381292,22.53396 0.734375,23.80273 0.485973,1.74629 2.101412,2.53328 13.865234,5.53516 l 30.035157,7.38476 c 2.109108,0.49855 3.695315,0.86747 3.863281,0.88086 0.50904,0.0406 4.356468,-7.93986 8.548828,-17.73437 5.959634,-13.92336 8.706944,-20.66207 9.603514,-23.94336 z" /><path
       id="path2001"
       fill="#00f"
       d="m 37.488281,649.38672 0.08789,20.48633 c 0.0039,0.91911 0.02014,1.75058 0.02734,2.65234 l 58.251953,14.32227 c 5.059806,-11.86807 7.543596,-18.02114 8.371096,-21.05078 z" /><path
       id="path2003"
       d="m 37.488281,649.38477 0.03516,8.04492 64.037109,15.74414 c 1.38306,-3.46095 2.24748,-5.84007 2.66797,-7.38086 z" /><path
       id="path2005"
       fill="#0ff"
       d="m 37.523438,657.42969 0.0293,7.03906 61.382813,15.09375 c 1.023403,-2.4457 1.912659,-4.60615 2.624999,-6.38867 z" /><path
       id="path2007"
       fill="#00f"
       d="m 37.603516,672.5332 c 0.08555,10.69425 0.381479,19.97274 0.707031,21.14258 0.516427,1.85572 2.476263,2.66722 16.447265,6.1836 l 25.832032,6.35156 c 3.053706,0.72893 5.277176,1.2491 5.484375,1.26562 0.50904,0.0406 4.356468,-7.93986 8.548828,-17.73437 0.454996,-1.063 0.810214,-1.90753 1.228515,-2.88867 z" /><path
       id="path2009"
       d="m 37.603516,672.5293 c 0.02289,2.86283 0.05872,5.53937 0.109375,8.0625 l 54.990234,13.52148 c 0.634057,-1.43407 1.256715,-2.82166 1.919922,-4.37109 0.455368,-1.06387 0.811855,-1.90875 1.230469,-2.89063 z" /><path
       id="path2011"
       fill="#0ff"
       d="m 37.712891,680.5918 c 0.0546,2.71943 0.121683,5.05956 0.199218,7.08203 l 51.917969,12.76562 c 0.877665,-1.86769 1.832703,-3.97319 2.873047,-6.32617 z" /></g><g
     id="layer2"><path
       fill="#000"
       d="m 642.77674,698.54699 c -2.23639,-4.96587 -6.68251,-15.06183 -9.88028,-22.43548 -5.75143,-13.26205 -5.79187,-13.41492 -3.75035,-14.1763 1.13508,-0.42332 15.86975,-3.44581 32.74372,-6.71663 16.87397,-3.27083 31.34691,-6.2029 32.16209,-6.51571 1.33536,-0.51243 1.48215,1.77483 1.48215,23.09555 v 23.6643 l -3.47073,0.92953 c -1.9089,0.51124 -12.21697,3.03707 -22.90681,5.61295 -10.68985,2.57588 -20.08353,4.88305 -20.87486,5.12703 -1.07288,0.33079 -2.47288,-1.85258 -5.50493,-8.58524 z"
       id="path269" /><path
       id="path2041"
       fill="#00f"
       d="m 695.04883,649.85742 -66.23047,16.2832 c 0.10255,0.37531 0.23689,0.81229 0.38867,1.28126 0.79528,1.99075 1.95733,4.69539 3.68945,8.68945 3.19777,7.37364 7.64448,17.46968 9.88086,22.43555 3.03205,6.73265 4.43103,8.91672 5.50391,8.58593 0.79133,-0.24398 10.18516,-2.55107 20.875,-5.12695 10.68983,-2.57588 20.99735,-5.10204 22.90625,-5.61328 l 3.4707,-0.92969 v -23.66406 c 0,-13.97927 -0.0645,-19.75123 -0.48437,-21.94141 z" /><path
       id="path2043"
       fill="#00f"
       d="m 695.04883,649.85352 -66.23047,16.28515 c 0.10183,0.37281 0.23036,0.79778 0.38281,1.26758 0.79516,1.99172 1.95856,4.70035 3.69531,8.70508 1.51105,3.48427 3.30611,7.5836 5.00977,11.45508 l 57.62695,-14.16993 v -1.59765 c 0,-13.98731 -0.0639,-19.75802 -0.48437,-21.94531 z" /><path
       id="path2045"
       d="m 695.04883,649.85156 -66.23242,16.28321 c 0.10325,0.37833 0.23599,0.81246 0.39257,1.29296 0.58183,1.4561 1.55303,3.72269 2.6211,6.19532 l 63.64062,-15.64649 c -0.0624,-4.38493 -0.18358,-6.88727 -0.42187,-8.125 z" /><path
       id="path2047"
       fill="#0ff"
       d="m 695.4707,657.97656 -63.64062,15.64649 c 0.39192,0.90731 0.60189,1.41717 1.0664,2.48828 0.53022,1.2226 1.17473,2.68304 1.75782,4.01953 l 60.85547,-14.96289 c -0.009,-2.55724 -0.0132,-5.37572 -0.0391,-7.19141 z" /><path
       id="path2049"
       fill="#00f"
       d="m 695.5332,673.4043 -57.625,14.16797 c 1.90081,4.31944 3.69004,8.35642 4.86914,10.97461 3.03205,6.73265 4.43103,8.91672 5.50391,8.58593 0.79133,-0.24398 10.18516,-2.55107 20.875,-5.12695 10.68983,-2.57588 20.99735,-5.10204 22.90625,-5.61328 l 3.4707,-0.92969 z" /><path
       id="path2051"
       d="m 695.5332,673.40039 -57.625,14.16992 c 1.27944,2.90745 2.26147,5.11266 3.28907,7.41992 l 54.33593,-13.36132 z" /><path
       id="path2053"
       fill="#0ff"
       d="m 695.5332,681.62891 -54.33593,13.36132 c 0.49927,1.12102 1.19447,2.70041 1.58007,3.55665 0.49932,1.10873 0.93885,2.05275 1.35547,2.92382 l 51.40039,-12.63867 z" /></g><g
     id="layer3"><path
       id="path129"
       d="m 196.46875,618.71484 0.60742,3.23633 c 0.33388,1.77975 3.14299,11.25573 6.24414,21.05664 3.10117,9.80091 5.83976,18.75701 6.08399,19.90235 l 0.44336,2.08203 h 59.58789 59.58984 v -23.13867 -23.13868 h -66.2793 z m 210.30078,0 v 23.13868 23.13867 h 59.63477 c 55.99044,0 59.66429,-0.10039 60.125,-1.6211 2.24305,-7.40389 11.66601,-42.49386 11.66601,-43.44336 0,-0.98706 -12.17785,-1.21289 -65.71289,-1.21289 z" /><path
       id="path1957"
       fill="#00f"
       d="m 196.46875,618.71484 0.60742,3.23633 c 0.33388,1.77975 3.143,11.25574 6.24414,21.05664 3.10117,9.8009 5.83976,18.75701 6.08399,19.90235 l 0.44336,2.08203 h 59.58789 59.58984 v -23.13867 -23.13868 h -66.2793 z m 210.30078,0 v 23.13868 23.13867 h 59.63477 c 55.99038,0 59.66429,-0.10039 60.125,-1.6211 2.24304,-7.40388 11.66601,-42.49386 11.66601,-43.44336 0,-0.98705 -12.1779,-1.21289 -65.71289,-1.21289 z" /><path
       id="path1959"
       fill="#00f"
       d="m 196.46875,618.71484 0.60742,3.23633 c 0.32993,1.75871 3.08913,11.05991 6.14649,20.73633 h 125.80273 v -0.83398 -23.13868 h -66.2793 z m 210.30078,0 v 23.13868 0.83398 h 125.47656 c 3.05698,-11.30614 5.94922,-22.21699 5.94922,-22.75977 0,-0.98705 -12.1779,-1.21289 -65.71289,-1.21289 z" /><path
       id="path1961"
       d="m 196.46875,618.71484 0.60742,3.23633 c 0.11166,0.5952 0.81086,2.98829 1.39453,5.0293 h 130.55469 v -8.26563 h -66.2793 z m 210.30078,0 v 8.26563 h 129.67774 c 1.02894,-3.9498 1.74804,-6.79901 1.74804,-7.05274 0,-0.98705 -12.1779,-1.21289 -65.71289,-1.21289 z" /><path
       id="path1963"
       fill="#0ff"
       d="m 198.4707,626.98047 c 0.60083,2.101 1.25039,4.28796 2.17578,7.32812 h 128.37891 v -7.32812 z m 208.29883,0 v 7.32812 h 127.73633 c 0.68486,-2.57507 1.40513,-5.26954 1.94141,-7.32812 z" /><path
       id="path1965"
       fill="#00f"
       d="m 203.22461,642.69531 c 0.0357,0.113 0.0599,0.19941 0.0957,0.3125 3.10117,9.8009 5.83976,18.75701 6.08399,19.90235 l 0.44336,2.08203 h 59.58789 59.58984 v -22.29688 z m 203.54492,0 v 22.29688 h 59.63477 c 55.99038,0 59.66429,-0.10039 60.125,-1.6211 0.96047,-3.17033 3.42497,-12.20687 5.71484,-20.67578 z" /><path
       id="path1967"
       d="m 203.22461,642.69336 c 0.0359,0.11364 0.0597,0.20071 0.0957,0.31445 1.25566,3.96838 1.46763,4.82963 2.46289,8.0586 h 123.24219 v -8.37305 z m 203.54492,0 v 8.37305 h 123.16211 c 0.83656,-3.03458 1.38712,-4.94338 2.31445,-8.37305 z" /><path
       id="path1969"
       fill="#0ff"
       d="m 205.7832,651.06445 c 0.90516,2.93659 1.77381,5.73296 2.24024,7.32813 h 121.00195 v -7.32813 z m 200.98633,0 v 7.32813 h 121.13672 c 0.53834,-1.8904 1.2932,-4.67214 2.02539,-7.32813 z" /></g><g
     id="layer4">
     </g></svg>
