<?xml version="1.0" encoding="UTF-8" standalone="no"?>
<!-- Created with Inkscape (http://www.inkscape.org/) -->

<svg
   version="1.1"
   id="svg2"
   width="734.66669"
   height="774.66669"
   viewBox="0 0 734.66669 774.66669"
   xml:space="preserve"
   xmlns="http://www.w3.org/2000/svg"
   xmlns:svg="http://www.w3.org/2000/svg"><defs
     id="defs12" /><g
     id="layer1">
     <path
       fill="#000"
       d="m 62.050437,701.69235 c -21.676062,-5.35796 -23.137635,-5.85149 -23.740082,-8.01631 -0.353083,-1.26877 -0.683485,-11.97987 -0.734226,-23.80246 l -0.09226,-21.49561 2.367257,0.90003 c 7.355747,2.79665 42.562296,10.33811 55.891559,11.97231 4.299655,0.52715 8.160235,1.30113 8.579065,1.71996 1.01798,1.01798 -0.66635,5.66672 -9.69967,26.77107 -4.192364,9.79452 -8.038966,17.77498 -8.548007,17.73434 -0.50904,-0.0406 -11.319677,-2.64313 -24.023639,-5.78333 z"
       id="path257" />
       <path
       id="path1508"
       d="m 37.486328,648.66992 0.08984,21.20313 c 0.05074,11.82258 0.381292,22.53396 0.734375,23.80273 0.139704,0.50201 0.339034,0.91264 0.8125,1.31641 l 47.755859,11.36719 c 1.425803,-2.47533 4.467433,-8.9619 7.744141,-16.61719 6.769167,-15.81466 9.409837,-22.3887 9.880867,-25.11914 l -28.439461,-6.76953 c -14.72563,-2.90828 -31.401891,-6.74704 -36.212891,-8.57618 l -0.30664,-0.11718 z" />
       <path
       id="path1510"
       fill="#00f"
       d="m 37.724609,681.17188 c 0.01417,0.67002 0.02914,1.31886 0.04492,1.95117 L 91.875,696 c 0.246719,-0.54999 0.517267,-1.18145 0.771484,-1.75586 z" />
       <path
       id="path1512"
       fill="#00f"
       d="m 37.5625,666.8457 0.01367,3.02735 c 0.01006,2.34313 0.03833,4.57076 0.06836,6.76172 l 56.798828,13.51757 c 0.06204,-0.14451 0.117483,-0.26482 0.179688,-0.41015 1.381934,-3.22859 2.53721,-5.95668 3.591797,-8.46094 z" />
       <path
       id="path1514"
       fill="#00f"
       d="m 37.535156,660.1875 0.0078,1.95312 62.460944,14.86719 c 0.27313,-0.66057 0.47942,-1.18027 0.72461,-1.78125 z" />
       </g><g
     id="layer2">
     <path
       fill="#000"
       d="m 642.77674,698.54699 c -2.23639,-4.96587 -6.68251,-15.06183 -9.88028,-22.43548 -5.75143,-13.26205 -5.79187,-13.41492 -3.75035,-14.1763 1.13508,-0.42332 15.86975,-3.44581 32.74372,-6.71663 16.87397,-3.27083 31.34691,-6.2029 32.16209,-6.51571 1.33536,-0.51243 1.48215,1.77483 1.48215,23.09555 v 23.6643 l -3.47073,0.92953 c -1.9089,0.51124 -12.21697,3.03707 -22.90681,5.61295 -10.68985,2.57588 -20.08353,4.88305 -20.87486,5.12703 -1.07288,0.33079 -2.47288,-1.85258 -5.50493,-8.58524 z"
       id="path269" />
       <path
       id="path1533"
       d="m 695.16016,650.69727 -1.09571,0.26171 -0.30664,0.11719 c -4.81099,1.82914 -21.48727,5.6679 -36.21289,8.57617 l -28.43945,6.76954 c 0.0957,0.5549 0.31017,1.32251 0.60156,2.24023 0.77415,1.86764 1.79904,4.24309 3.18945,7.44922 3.19777,7.37364 7.64448,17.46968 9.88086,22.43555 3.03205,6.73265 4.43103,8.91672 5.50391,8.58593 0.79133,-0.24398 10.18516,-2.55107 20.875,-5.12695 10.68983,-2.57588 20.99735,-5.10204 22.90625,-5.61328 l 3.21875,-0.86133 c 0.006,-0.0193 0.0121,-0.0371 0.0176,-0.0566 0.0801,-0.28789 0.15958,-1.11641 0.23437,-2.2793 v -21.39648 c 0,-12.57683 -0.0571,-18.43862 -0.37304,-21.10156 z" />
       <path
       id="path1535"
       fill="#00f"
       d="m 695.5332,683.05469 -53.93554,12.83789 c 0.23365,0.52346 0.57329,1.29484 0.77929,1.7539 l 53.15625,-12.65234 z" />
       <path
       id="path1537"
       fill="#00f"
       d="m 695.52344,668.76953 -59.63086,14.19141 c 1.41677,3.2362 2.59717,5.92185 3.89062,8.84375 l 55.75,-13.26758 v -6.73828 c 0,-1.27382 -0.008,-1.8879 -0.01,-3.0293 z" />
       <path
       id="path1539"
       fill="#00f"
       d="m 695.5,662.12305 -62.24219,14.8125 c 0.23931,0.55103 0.52343,1.19538 0.77344,1.76953 l 61.47656,-14.63281 c -0.003,-0.61114 -0.004,-1.38612 -0.008,-1.94922 z" />
       </g><g
     id="layer3">
     <path
       id="path129"
       d="m 196.46875,618.71484 0.60742,3.23633 c 0.33388,1.77975 3.14299,11.25573 6.24414,21.05664 3.10117,9.80091 5.83976,18.75701 6.08399,19.90235 l 0.44336,2.08203 h 59.58789 59.58984 v -23.13867 -23.13868 h -66.2793 z m 210.30078,0 v 23.13868 23.13867 h 59.63477 c 55.99044,0 59.66429,-0.10039 60.125,-1.6211 2.24305,-7.40389 11.66601,-42.49386 11.66601,-43.44336 0,-0.98706 -12.17785,-1.21289 -65.71289,-1.21289 z" />
       <path
       id="path1559"
       d="m 196.46875,618.71484 0.60742,3.23633 c 0.33388,1.77975 3.143,11.25574 6.24414,21.05664 3.10117,9.8009 5.83976,18.75701 6.08399,19.90235 l 0.34375,1.61523 h 119.27734 v -22.67187 -23.13868 h -66.2793 z m 210.30078,0 v 23.13868 22.67187 h 115.55859 c 3.36508,-0.24084 4.0339,-0.60213 4.20118,-1.1543 2.24304,-7.40388 11.66601,-42.49386 11.66601,-43.44336 0,-0.98705 -12.1779,-1.21289 -65.71289,-1.21289 z" />
       <path
       id="path1561"
       fill="#00f"
       d="m 205.74414,650.9375 c 0.24279,0.7873 0.38023,1.24215 0.59766,1.95312 h 122.68359 v -1.95312 z m 201.02539,0 v 1.95312 h 122.65625 c 0.18519,-0.66791 0.34522,-1.2426 0.54102,-1.95312 z" />
       <path
       id="path1563"
       fill="#00f"
       d="m 201.33398,636.54297 c 0.67747,2.20283 1.24585,4.1246 1.98633,6.46484 0.52624,1.6631 0.53827,1.79654 1.03321,3.37696 h 124.67187 v -4.53125 -5.31055 z m 205.43555,0 v 5.31055 4.53125 h 124.45508 c 1.04405,-3.83189 1.6704,-6.02765 2.68945,-9.8418 z" />
       <path
       id="path1565"
       fill="#00f"
       d="m 199.27344,629.8418 c 0.16716,0.56247 0.42485,1.36587 0.60547,1.96679 h 129.14648 v -1.96679 z m 207.49609,0 v 1.96679 h 128.39844 c 0.17292,-0.65394 0.35911,-1.34946 0.52148,-1.96679 z" />
       </g><g
     id="layer4">
     </g></svg>
