<?xml version="1.0" encoding="UTF-8" standalone="no"?>
<!-- Created with Inkscape (http://www.inkscape.org/) -->

<svg
   version="1.1"
   id="svg2"
   width="734.66669"
   height="774.66669"
   viewBox="0 0 734.66669 774.66669"
   xmlns="http://www.w3.org/2000/svg"
   xmlns:svg="http://www.w3.org/2000/svg">
    <path
      fill="#000"
      fill-opacity="1"
       d="m 62.050437,701.69235 c -21.676062,-5.35796 -23.137635,-5.85149 -23.740082,-8.01631 -0.353083,-1.26877 -0.683485,-11.97987 -0.734226,-23.80246 l -0.09226,-21.49561 2.367257,0.90003 c 7.355747,2.79665 42.562296,10.33811 55.891559,11.97231 4.299655,0.52715 8.160235,1.30113 8.579065,1.71996 1.01798,1.01798 -0.66635,5.66672 -9.69967,26.77107 -4.192364,9.79452 -8.038966,17.77498 -8.548007,17.73434 -0.50904,-0.0406 -11.319677,-2.64313 -24.023639,-5.78333 z"
       id="path257" />
    <path
      fill="#000"
      fill-opacity="1"
       d="m 209.40376,662.90922 c -0.24423,-1.14534 -2.98137,-10.10138 -6.08254,-19.9023 -3.10116,-9.80092 -5.91165,-19.27601 -6.24553,-21.05576 l -0.60706,-3.23589 h 66.27823 66.27824 v 23.13819 23.13819 h -59.58864 -59.58864 z"
       id="path259" />
    <path
      fill="#000"
      fill-opacity="1"
       d="m 406.76943,641.85346 v -23.13819 h 65.71246 c 53.53509,0 65.71247,0.22453 65.71247,1.2116 0,0.9495 -9.42285,36.04121 -11.66591,43.44511 -0.46071,1.52071 -4.13436,1.61967 -60.12486,1.61967 h -59.63416 z"
       id="path261" />
    <path
      fill="#000"
      fill-opacity="1"
       d="m 642.77674,698.54699 c -2.23639,-4.96587 -6.68251,-15.06183 -9.88028,-22.43548 -5.75143,-13.26205 -5.79187,-13.41492 -3.75035,-14.1763 1.13508,-0.42332 15.86975,-3.44581 32.74372,-6.71663 16.87397,-3.27083 31.34691,-6.2029 32.16209,-6.51571 1.33536,-0.51243 1.48215,1.77483 1.48215,23.09555 v 23.6643 l -3.47073,0.92953 c -1.9089,0.51124 -12.21697,3.03707 -22.90681,5.61295 -10.68985,2.57588 -20.08353,4.88305 -20.87486,5.12703 -1.07288,0.33079 -2.47288,-1.85258 -5.50493,-8.58524 z"
       id="path269" />
</svg>
