<?xml version="1.0" encoding="UTF-8" standalone="no"?>
<!-- Created with Inkscape (http://www.inkscape.org/) -->

<svg
   version="1.1"
   id="svg2"
   width="734.66669"
   height="774.66669"
   viewBox="0 0 734.66669 774.66669"
   xml:space="preserve"
   xmlns="http://www.w3.org/2000/svg"
   xmlns:svg="http://www.w3.org/2000/svg"><defs
     id="defs12" /><g
     id="layer1"><path
       fill="#000"
       d="m 62.050437,701.69235 c -21.676062,-5.35796 -23.137635,-5.85149 -23.740082,-8.01631 -0.353083,-1.26877 -0.683485,-11.97987 -0.734226,-23.80246 l -0.09226,-21.49561 2.367257,0.90003 c 7.355747,2.79665 42.562296,10.33811 55.891559,11.97231 4.299655,0.52715 8.160235,1.30113 8.579065,1.71996 1.01798,1.01798 -0.66635,5.66672 -9.69967,26.77107 -4.192364,9.79452 -8.038966,17.77498 -8.548007,17.73434 -0.50904,-0.0406 -11.319677,-2.64313 -24.023639,-5.78333 z"
       id="path257" /><path
       id="path1357"
       d="m 37.490234,649.8125 0.08594,20.06055 c 0.05074,11.82258 0.381292,22.53396 0.734375,23.80273 0.274781,0.9874 0.751889,1.6308 3.220703,2.54297 l 45.289062,10.23828 c 1.396567,-2.38668 4.476272,-8.94331 7.802735,-16.71484 6.531041,-15.25835 9.208311,-21.89512 9.812501,-24.79688 z" /><path
       id="path1359"
       fill="#00f"
       d="m 37.828125,685.61914 c 0.04022,1.31565 0.08844,2.23437 0.134766,3.2793 l 51.789062,11.70703 c 0.436731,-0.92744 0.880352,-1.87306 1.365235,-2.9375 z" /><path
       id="path1361"
       d="m 37.677734,679.08984 c 0.04107,2.35797 0.0914,4.59727 0.150391,6.52735 l 53.291016,12.04687 c 0.826689,-1.81487 1.702364,-3.79482 2.617187,-5.90039 z" /><path
       id="path1363"
       fill="#00f"
       d="m 37.636719,675.83203 c 0.01387,1.10295 0.02282,2.20892 0.04102,3.25391 l 56.058594,12.67383 c 0.301295,-0.69349 0.580571,-1.30234 0.886719,-2.01758 0.147651,-0.34496 0.254693,-0.60129 0.398437,-0.9375 z" /><path
       id="path1365"
       d="m 37.574219,669.32227 0.002,0.55078 c 0.0089,2.06428 0.036,4.00486 0.06055,5.95703 l 57.386719,12.97265 c 0.908436,-2.12483 1.763156,-4.13159 2.521484,-5.92382 z" /><path
       id="path1367"
       fill="#00f"
       d="m 37.560547,666.06836 0.01367,3.25 59.970703,13.55664 c 0.461749,-1.0913 0.834999,-1.98844 1.24414,-2.96484 z" /><path
       id="path1369"
       d="m 37.53125,659.56641 0.0293,6.5 61.228515,13.84179 c 0.945131,-2.25553 1.764405,-4.24071 2.449215,-5.93945 z" /><path
       id="path1371"
       fill="#00f"
       d="m 37.517578,656.3125 0.01367,3.24805 63.710942,14.40234 c 0.43961,-1.09057 0.83387,-2.09089 1.17578,-2.97851 z" /><path
       id="path1373"
       d="m 37.490234,649.80859 0.02734,6.5 64.902346,14.67188 c 1.10439,-2.86729 1.76432,-4.82987 2.01563,-6.03906 z" /></g><g
     id="layer2"><path
       fill="#000"
       d="m 642.77674,698.54699 c -2.23639,-4.96587 -6.68251,-15.06183 -9.88028,-22.43548 -5.75143,-13.26205 -5.79187,-13.41492 -3.75035,-14.1763 1.13508,-0.42332 15.86975,-3.44581 32.74372,-6.71663 16.87397,-3.27083 31.34691,-6.2029 32.16209,-6.51571 1.33536,-0.51243 1.48215,1.77483 1.48215,23.09555 v 23.6643 l -3.47073,0.92953 c -1.9089,0.51124 -12.21697,3.03707 -22.90681,5.61295 -10.68985,2.57588 -20.08353,4.88305 -20.87486,5.12703 -1.07288,0.33079 -2.47288,-1.85258 -5.50493,-8.58524 z"
       id="path269" /><path
       id="path1492"
       d="m 695.03125,649.76953 -66.41211,15.01172 c 0.25477,1.22359 0.90966,3.17555 2.03516,6.09375 0.66534,1.56389 1.26479,2.98259 2.24218,5.23633 3.19777,7.37364 7.64448,17.46968 9.88086,22.43555 1.82358,4.04925 3.0498,6.42807 3.97657,7.6289 l 44.76953,-10.12109 c 2.46882,-0.91217 2.94592,-1.55557 3.2207,-2.54297 0.35308,-1.26877 0.68368,-11.98017 0.73438,-23.80274 l 0.0273,-6.20312 c -0.038,-7.77855 -0.14649,-12.13646 -0.47461,-13.73633 z" /><path
       id="path1494"
       fill="#00f"
       d="m 695.22656,685.45508 -52.94726,11.9707 c 0.13404,0.29894 0.3765,0.8512 0.49804,1.1211 0.29843,0.66265 0.56789,1.24776 0.83594,1.82421 l 51.47852,-11.63671 c 0.0464,-1.04493 0.0946,-1.96365 0.13476,-3.2793 z" /><path
       id="path1496"
       d="m 695.37695,678.92578 -55.71875,12.59766 c 0.95507,2.15846 1.91371,4.32521 2.61914,5.89844 l 52.94922,-11.96876 c 0.059,-1.93007 0.10929,-4.16937 0.15039,-6.52734 z" /><path
       id="path1498"
       fill="#00f"
       d="m 695.41797,675.66797 -57.07031,12.90234 c 0.50959,1.15663 0.83106,1.86999 1.30859,2.94922 l 55.7207,-12.59765 c 0.0182,-1.04499 0.0271,-2.15096 0.041,-3.25391 z" /><path
       id="path1500"
       d="m 695.48047,669.1582 -59.7207,13.5 c 0.89122,2.03646 1.7082,3.91795 2.58593,5.91016 l 57.07227,-12.90234 c 0.0245,-1.95217 0.0516,-3.89276 0.0606,-5.95704 z" /><path
       id="path1502"
       fill="#00f"
       d="m 695.49414,665.9043 -61.02734,13.79687 c 0.42532,0.97543 0.85009,1.94561 1.29101,2.95313 l 59.72266,-13.5 z" /><path
       id="path1504"
       d="m 695.49023,659.41016 -63.58984,14.375 c 0.37066,0.85767 0.5619,1.32497 0.99609,2.32617 0.47325,1.09123 1.05165,2.40286 1.56836,3.58789 l 61.0293,-13.79688 0.0117,-2.41601 c -0.006,-1.24739 -0.005,-3.03197 -0.0156,-4.07617 z" /><path
       id="path1506"
       fill="#00f"
       d="m 695.43945,656.16992 -64.80273,14.65039 c 0.0209,0.0542 0.051,0.12662 0.0723,0.18164 0.3567,0.83755 0.74708,1.7537 1.18946,2.77735 l 63.59179,-14.375 c -0.0127,-1.23076 -0.03,-2.26047 -0.0508,-3.23438 z" /><path
       id="path1508"
       d="m 695.03125,649.76562 -66.41211,15.01172 c 0.25131,1.20919 0.91124,3.17178 2.01563,6.03907 l 64.80468,-14.65039 c -0.0715,-3.34352 -0.19478,-5.36281 -0.4082,-6.4004 z" /></g><g
     id="layer3"><path
       id="path129"
       d="m 196.46875,618.71484 0.60742,3.23633 c 0.33388,1.77975 3.14299,11.25573 6.24414,21.05664 3.10117,9.80091 5.83976,18.75701 6.08399,19.90235 l 0.44336,2.08203 h 59.58789 59.58984 v -23.13867 -23.13868 h -66.2793 z m 210.30078,0 v 23.13868 23.13867 h 59.63477 c 55.99044,0 59.66429,-0.10039 60.125,-1.6211 2.24305,-7.40389 11.66601,-42.49386 11.66601,-43.44336 0,-0.98706 -12.17785,-1.21289 -65.71289,-1.21289 z" /><path
       id="path1375"
       d="m 196.46875,618.71484 0.60742,3.23633 c 0.33388,1.77975 3.143,11.25574 6.24414,21.05664 3.10117,9.8009 5.83976,18.75701 6.08399,19.90235 l 0.44336,2.08203 h 59.58789 59.58984 v -23.13867 -23.13868 h -66.2793 z m 210.30078,0 v 23.13868 23.13867 h 59.63477 c 55.99038,0 59.66429,-0.10039 60.125,-1.6211 2.24304,-7.40388 11.66601,-42.49386 11.66601,-43.44336 0,-0.98705 -12.1779,-1.21289 -65.71289,-1.21289 z" /><path
       id="path1377"
       fill="#00f"
       d="m 207.04492,655.19141 c 0.31148,1.03182 0.81179,2.62398 1.01953,3.33593 h 120.96094 v -3.33593 z m 199.72461,0 v 3.33593 h 121.09961 c 0.24295,-0.85229 0.63177,-2.29895 0.92188,-3.33593 z" /><path
       id="path1379"
       d="m 205.00391,648.51758 c 0.9176,2.94998 1.4179,4.60774 2.04101,6.67187 h 121.98047 v -6.67187 z m 201.76562,0 v 6.67187 h 122.02149 c 0.58026,-2.07415 1.14054,-4.10367 1.84375,-6.67187 z" /><path
       id="path1381"
       fill="#00f"
       d="m 203.98438,645.17969 c 0.502,1.59708 0.56095,1.85973 1.01953,3.33398 h 124.02148 v -3.33398 z m 202.78515,0 v 3.33398 h 123.86719 c 0.35143,-1.2835 0.55616,-1.98824 0.92187,-3.33398 z" /><path
       id="path1383"
       d="m 201.9375,638.50586 c 0.48946,1.57779 0.86717,2.87231 1.38281,4.50195 0.33815,1.06868 0.3373,1.13037 0.66407,2.16992 h 125.04101 v -3.32421 -3.34766 z m 204.83203,0 v 3.34766 3.32421 h 124.78906 c 0.72534,-2.66903 1.11859,-3.99694 1.83594,-6.67187 z" /><path
       id="path1385"
       fill="#00f"
       d="m 200.91016,635.16602 c 0.3387,1.10824 0.6627,2.16678 1.02539,3.33593 h 127.08984 v -3.33593 z m 205.85937,0 v 3.33593 h 126.62695 c 0.33208,-1.23828 0.56583,-2.14621 0.88282,-3.33593 z" /><path
       id="path1387"
       d="m 198.88867,628.49414 c 0.57095,1.949 1.26494,4.19443 2.02149,6.66992 h 128.11523 v -6.66992 z m 207.88086,0 v 6.66992 H 534.2793 c 0.63382,-2.37889 1.24484,-4.67419 1.76758,-6.66992 z" /><path
       id="path1389"
       fill="#00f"
       d="m 197.96289,625.15234 c 0.28588,1.04754 0.46585,1.7658 0.92578,3.33594 h 130.13672 v -3.33594 z m 208.80664,0 v 3.33594 h 129.2793 c 0.34372,-1.31231 0.59384,-2.27978 0.86523,-3.33594 z" /><path
       id="path1391"
       d="m 196.46875,618.71484 0.60742,3.23633 c 0.071,0.37839 0.61295,2.19395 0.88672,3.19727 h 131.0625 v -6.4336 h -66.2793 z m 210.30078,0 v 6.4336 h 130.14453 c 0.69083,-2.68858 1.28125,-5.01908 1.28125,-5.22071 0,-0.98705 -12.1779,-1.21289 -65.71289,-1.21289 z" /></g><g
     id="layer4">
     </g></svg>
