<?xml version="1.0" encoding="UTF-8" standalone="no"?>
<!-- Created with Inkscape (http://www.inkscape.org/) -->

<svg
   version="1.1"
   id="svg2"
   width="734.66669"
   height="774.66669"
   viewBox="0 0 734.66669 774.66669"
   xml:space="preserve"
   xmlns="http://www.w3.org/2000/svg"
   xmlns:svg="http://www.w3.org/2000/svg"><defs
     id="defs12" /><g
     id="layer1"><path
       fill="#000"
       d="m 62.050437,701.69235 c -21.676062,-5.35796 -23.137635,-5.85149 -23.740082,-8.01631 -0.353083,-1.26877 -0.683485,-11.97987 -0.734226,-23.80246 l -0.09226,-21.49561 2.367257,0.90003 c 7.355747,2.79665 42.562296,10.33811 55.891559,11.97231 4.299655,0.52715 8.160235,1.30113 8.579065,1.71996 1.01798,1.01798 -0.66635,5.66672 -9.69967,26.77107 -4.192364,9.79452 -8.038966,17.77498 -8.548007,17.73434 -0.50904,-0.0406 -11.319677,-2.64313 -24.023639,-5.78333 z"
       id="path257" />
       <path
       id="path1284"
       d="m 37.490234,649.91602 0.08594,19.95703 c 0.05074,11.82258 0.381292,22.53396 0.734375,23.80273 0.602446,2.16482 2.064194,2.65767 23.740234,8.01563 0.928472,0.2295 1.518865,0.37078 2.423828,0.59375 l 21.892579,4.90429 c 1.075427,-1.47056 4.525778,-8.73276 8.255859,-17.44726 6.551261,-15.30557 9.225231,-21.93675 9.818361,-24.82422 z" />
       <path
       id="path1286"
       fill="#00f"
       d="m 37.525391,658.05664 0.04687,10.69141 60.238281,13.49804 c 1.701687,-4.02849 3.029568,-7.23729 4.035148,-9.77539 z" />
       <path
       id="path1288"
       fill="#00f"
       d="m 37.644531,676.56055 c 0.05676,4.17394 0.143744,7.7921 0.251953,10.73828 l 52.566407,11.77929 c 1.273625,-2.75411 2.661494,-5.83464 4.160156,-9.33593 0.05936,-0.1387 0.101424,-0.23968 0.160156,-0.37696 z" />
       </g><g
     id="layer2">
     <path
       fill="#000"
       d="m 642.77674,698.54699 c -2.23639,-4.96587 -6.68251,-15.06183 -9.88028,-22.43548 -5.75143,-13.26205 -5.79187,-13.41492 -3.75035,-14.1763 1.13508,-0.42332 15.86975,-3.44581 32.74372,-6.71663 16.87397,-3.27083 31.34691,-6.2029 32.16209,-6.51571 1.33536,-0.51243 1.48215,1.77483 1.48215,23.09555 v 23.6643 l -3.47073,0.92953 c -1.9089,0.51124 -12.21697,3.03707 -22.90681,5.61295 -10.68985,2.57588 -20.08353,4.88305 -20.87486,5.12703 -1.07288,0.33079 -2.47288,-1.85258 -5.50493,-8.58524 z"
       id="path269"/>
       <path
       id="path1304"
       d="m 694.83594,649.07617 -66.40039,14.87891 c 0.40197,1.95691 1.8838,5.89933 4.73828,12.79101 3.17539,7.31417 7.42568,16.96493 9.60351,21.80079 1.947,4.32329 3.21552,6.75284 4.16211,7.86328 l 21.70508,-4.86133 c 0.91044,-0.22432 1.50537,-0.36677 2.43945,-0.59766 21.80738,-5.39042 23.27672,-5.88651 23.88282,-8.06445 0.22097,-0.79407 0.42528,-5.46485 0.5664,-11.59375 v -9.49414 c 0,-16.09064 -0.0822,-21.33555 -0.69726,-22.72266 z" />
       <path
       id="path1306"
       fill="#00f"
       d="m 695.45508,657.11914 -64.4082,14.43359 c 0.539,1.36047 1.18704,2.94864 1.91796,4.71485 0.67628,1.55897 1.47784,3.37914 2.23047,5.10156 l 60.32422,-13.51758 c -0.007,-4.29464 -0.0199,-8.15767 -0.0645,-10.73242 z" />
       <path
       id="path1308"
       fill="#00f"
       d="m 695.5332,675.69141 -57.21093,12.82226 c 1.69007,3.83625 3.25421,7.3582 4.33984,9.77149 l 52.72266,-11.81446 c 0.0554,-1.50965 0.10526,-3.20192 0.14843,-5.04687 z" />
       </g><g
     id="layer3">
     <path
       id="path129"
       d="m 196.46875,618.71484 0.60742,3.23633 c 0.33388,1.77975 3.14299,11.25573 6.24414,21.05664 3.10117,9.80091 5.83976,18.75701 6.08399,19.90235 l 0.44336,2.08203 h 59.58789 59.58984 v -23.13867 -23.13868 h -66.2793 z m 210.30078,0 v 23.13868 23.13867 h 59.63477 c 55.99044,0 59.66429,-0.10039 60.125,-1.6211 2.24305,-7.40389 11.66601,-42.49386 11.66601,-43.44336 0,-0.98706 -12.17785,-1.21289 -65.71289,-1.21289 z" />
       <path
       id="path1322"
       d="m 196.46875,618.71484 0.60742,3.23633 c 0.33388,1.77975 3.143,11.25574 6.24414,21.05664 3.10117,9.8009 5.83976,18.75701 6.08399,19.90235 l 0.44336,2.08203 h 59.58789 59.58984 v -23.13867 -23.13868 h -66.2793 z m 210.30078,0 v 23.13868 23.13867 h 59.63477 c 55.99038,0 59.66429,-0.10039 60.125,-1.6211 2.24304,-7.40388 11.66601,-42.49386 11.66601,-43.44336 0,-0.98705 -12.1779,-1.21289 -65.71289,-1.21289 z" />
       <path
       id="path1324"
       fill="#00f"
       d="m 198.41602,626.78906 c 0.8102,2.84379 1.84553,6.28959 3.2246,10.75391 h 127.38477 v -10.75391 z m 208.35351,0 v 10.75391 h 126.88086 c 1.05935,-3.95735 2.06817,-7.75943 2.84766,-10.75391 z" />
       <path
       id="path1326"
       fill="#00f"
       d="m 204.05078,645.39453 c 1.61209,5.13209 2.37232,7.70184 3.28711,10.75391 h 121.6875 v -10.75391 z m 202.71875,0 v 10.75391 h 121.75586 c 0.89521,-3.18555 1.79495,-6.42224 2.97266,-10.75391 z" />
       </g><g
     id="layer4">
     </g></svg>
