<?xml version="1.0" encoding="UTF-8" standalone="no"?>
<!-- Created with Inkscape (http://www.inkscape.org/) -->

<svg
   version="1.1"
   id="svg2"
   width="734.66669"
   height="774.66669"
   viewBox="0 0 734.66669 774.66669"
   xml:space="preserve"
   xmlns="http://www.w3.org/2000/svg"
   xmlns:svg="http://www.w3.org/2000/svg"><defs
     id="defs12" /><g
     id="layer1">
     <path
       fill="#000"
       d="m 62.050437,701.69235 c -21.676062,-5.35796 -23.137635,-5.85149 -23.740082,-8.01631 -0.353083,-1.26877 -0.683485,-11.97987 -0.734226,-23.80246 l -0.09226,-21.49561 2.367257,0.90003 c 7.355747,2.79665 42.562296,10.33811 55.891559,11.97231 4.299655,0.52715 8.160235,1.30113 8.579065,1.71996 1.01798,1.01798 -0.66635,5.66672 -9.69967,26.77107 -4.192364,9.79452 -8.038966,17.77498 -8.548007,17.73434 -0.50904,-0.0406 -11.319677,-2.64313 -24.023639,-5.78333 z"
       id="path257" />
       <path
       id="path933"
       d="m 37.484375,648.37891 0.0918,21.49414 c 0.05074,11.82258 0.381292,22.53396 0.734375,23.80273 0.602446,2.16482 2.064194,2.65767 23.740234,8.01563 12.70395,3.14019 23.514398,5.74455 24.023438,5.78515 0.50904,0.0406 4.356468,-7.93986 8.548828,-17.73437 9.03331,-21.10433 10.71719,-25.75351 9.69922,-26.77149 -0.41883,-0.41883 -4.28043,-1.19355 -8.580079,-1.7207 -13.32925,-1.6342 -48.534886,-9.17601 -55.890626,-11.97266 z" />
       <path
       id="path935"
       fill="#00f"
       d="m 37.519531,656.71094 0.05273,12.27344 60.24414,13.25195 c 2.073657,-4.90924 3.542099,-8.50152 4.601559,-11.25195 z" />
       <path
       id="path937"
       d="m 37.535156,660.28711 0.02344,5.24805 61.578125,13.54492 c 0.746761,-1.78818 1.407809,-3.39242 1.980469,-4.8086 z" />
       <path
       id="path939"
       fill="#00f"
       d="m 37.658203,677.95703 c 0.08043,5.15822 0.211338,9.48454 0.363281,12.3418 l 51.279297,11.27929 c 1.425403,-2.98821 3.173735,-6.8539 5.025391,-11.1582 z" />
       <path
       id="path941"
       d="m 37.734375,681.54492 c 0.04218,1.93066 0.08621,3.71405 0.140625,5.27735 l 52.876953,11.63085 c 0.681894,-1.48465 1.386785,-3.06038 2.142578,-4.77539 z" />
       </g><g
     id="layer2">
     <path
       fill="#000"
       d="m 642.77674,698.54699 c -2.23639,-4.96587 -6.68251,-15.06183 -9.88028,-22.43548 -5.75143,-13.26205 -5.79187,-13.41492 -3.75035,-14.1763 1.13508,-0.42332 15.86975,-3.44581 32.74372,-6.71663 16.87397,-3.27083 31.34691,-6.2029 32.16209,-6.51571 1.33536,-0.51243 1.48215,1.77483 1.48215,23.09555 v 23.6643 l -3.47073,0.92953 c -1.9089,0.51124 -12.21697,3.03707 -22.90681,5.61295 -10.68985,2.57588 -20.08353,4.88305 -20.87486,5.12703 -1.07288,0.33079 -2.47288,-1.85258 -5.50493,-8.58524 z"
       id="path269" />
       <path
       id="path963"
       d="m 694.58984,648.74414 -1.40625,0.5332 c -7.35573,2.79665 -42.56138,10.33846 -55.89062,11.97266 -4.29965,0.52715 -8.16125,1.30187 -8.58008,1.7207 -0.52236,0.52237 -0.30969,2.04753 1.21875,6.21485 0.75689,1.81205 1.67216,3.94502 2.96484,6.92578 3.19777,7.37364 7.64448,17.46968 9.88086,22.43555 3.03205,6.73265 4.43103,8.91672 5.50391,8.58593 0.79133,-0.24398 10.18516,-2.55107 20.875,-5.12695 5.90283,-1.42238 11.27754,-2.73384 15.59766,-3.79492 8.5343,-2.26182 9.53721,-2.97744 9.9707,-4.53516 0.35309,-1.26877 0.68367,-11.98016 0.73437,-23.80273 l 0.0371,-8.83594 c -0.069,-8.82865 -0.28063,-11.81597 -0.90625,-12.29297 z" />
       <path
       id="path965"
       fill="#00f"
       d="m 695.44922,656.72656 -64.75586,14.24024 c 0.65876,1.54723 1.24285,2.93027 2.20312,5.14453 0.79839,1.84098 1.74629,3.99457 2.64649,6.05273 l 59.91992,-13.17968 0.0332,-7.90626 c -0.012,-1.55336 -0.0244,-3.16026 -0.0469,-4.35156 z" />
       <path
       id="path967"
       d="m 695.49414,660.28906 -63.40234,13.94336 c 0.30907,0.71433 0.45397,1.0702 0.80468,1.87891 0.38382,0.88504 0.85768,1.96026 1.27149,2.91015 l 61.30859,-13.48632 0.0195,-4.50782 c -0.002,-0.20336 -2e-4,-0.54147 -0.002,-0.73828 z" />
       <path
       id="path969"
       fill="#00f"
       d="m 695.37695,677.95703 -56.25,12.37109 c 1.37388,3.11062 2.75936,6.24023 3.65039,8.21876 0.5029,1.11668 0.94618,2.06573 1.36524,2.9414 l 50.87109,-11.18945 c 0.15194,-2.85726 0.28288,-7.18358 0.36328,-12.3418 z" />
       <path
       id="path971"
       d="m 695.30078,681.54492 -54.72851,12.03711 c 0.71844,1.61788 1.59565,3.60925 2.12304,4.78125 l 52.46485,-11.54101 c 0.0544,-1.5633 0.0984,-3.34669 0.14062,-5.27735 z" />
       </g><g
     id="layer3">
     <path
       id="path129"
       d="m 196.46875,618.71484 0.60742,3.23633 c 0.33388,1.77975 3.14299,11.25573 6.24414,21.05664 3.10117,9.80091 5.83976,18.75701 6.08399,19.90235 l 0.44336,2.08203 h 59.58789 59.58984 v -23.13867 -23.13868 h -66.2793 z m 210.30078,0 v 23.13868 23.13867 h 59.63477 c 55.99044,0 59.66429,-0.10039 60.125,-1.6211 2.24305,-7.40389 11.66601,-42.49386 11.66601,-43.44336 0,-0.98706 -12.17785,-1.21289 -65.71289,-1.21289 z" />
       <path
       id="path993"
       d="m 196.46875,618.71484 0.60742,3.23633 c 0.33388,1.77975 3.143,11.25574 6.24414,21.05664 3.10117,9.8009 5.83976,18.75701 6.08399,19.90235 l 0.43945,2.06054 h 119.18164 v -23.11718 -23.13868 h -66.2793 z m 210.30078,0 v 23.13868 23.11718 h 77.75781 c 36.68368,-0.0453 41.60459,-0.28799 42.00196,-1.59961 2.24304,-7.40388 11.66601,-42.49386 11.66601,-43.44336 0,-0.98705 -12.1779,-1.21289 -65.71289,-1.21289 z" />
       <path
       id="path995"
       fill="#00f"
       d="m 198.40039,626.73047 c 0.80289,2.82144 1.8303,6.24258 3.20508,10.69531 h 127.41992 v -10.69531 z m 208.36914,0 v 10.69531 h 126.91016 c 1.05211,-3.93119 2.061,-7.72512 2.83398,-10.69531 z" />
       <path
       id="path997"
       d="m 199.27539,629.8457 c 0.38896,1.30872 0.95051,3.07974 1.40625,4.57618 h 128.34375 v -4.57618 z m 207.49414,0 v 4.57618 h 127.70703 c 0.42868,-1.61145 0.83505,-3.13969 1.21289,-4.57618 z" />
       <path
       id="path999"
       fill="#00f"
       d="m 204,645.23438 c 1.60861,5.1185 2.3389,7.59587 3.26953,10.69531 h 121.75586 v -10.69531 z m 202.76953,0 v 10.69531 h 121.81641 c 0.8997,-3.20496 1.7843,-6.38047 2.95703,-10.69531 z" />
       <path
       id="path1001"
       d="m 204.95312,648.34961 c 0.63273,2.03303 0.89035,2.91254 1.39844,4.57422 h 122.67383 v -4.57422 z m 201.81641,0 v 4.57422 h 122.64844 c 0.43318,-1.56211 0.78022,-2.80787 1.26367,-4.57422 z" />
       </g><g
     id="layer4"></g></svg>
