<?xml version="1.0" encoding="UTF-8" standalone="no"?>
<!-- Created with Inkscape (http://www.inkscape.org/) -->

<svg
   version="1.1"
   id="svg2"
   width="734.66669"
   height="774.66669"
   viewBox="0 0 734.66669 774.66669"
   xml:space="preserve"
   xmlns="http://www.w3.org/2000/svg"
   xmlns:svg="http://www.w3.org/2000/svg"><defs
     id="defs12" /><g
     id="layer1"><path
       fill="#000"
       d="m 62.050437,701.69235 c -21.676062,-5.35796 -23.137635,-5.85149 -23.740082,-8.01631 -0.353083,-1.26877 -0.683485,-11.97987 -0.734226,-23.80246 l -0.09226,-21.49561 2.367257,0.90003 c 7.355747,2.79665 42.562296,10.33811 55.891559,11.97231 4.299655,0.52715 8.160235,1.30113 8.579065,1.71996 1.01798,1.01798 -0.66635,5.66672 -9.69967,26.77107 -4.192364,9.79452 -8.038966,17.77498 -8.548007,17.73434 -0.50904,-0.0406 -11.319677,-2.64313 -24.023639,-5.78333 z"
       id="path257"/><path
       id="path3954"
       d="m 37.484375,648.37891 0.0918,21.49414 c 0.05074,11.82258 0.381292,22.53396 0.734375,23.80273 0.184219,0.66197 0.455218,1.16879 1.353515,1.70508 l 46.976563,11.37305 c 1.293785,-2.08436 4.504349,-8.88598 7.982422,-17.01172 7.11548,-16.62376 9.65883,-23.02064 9.92578,-25.49219 L 85.2793,659.58594 c -16.070973,-2.86091 -39.555464,-8.07596 -45.427735,-10.3086 z" /><path
       id="path3956"
       fill="#00f"
       d="m 37.820312,685.27344 c 0.02284,0.76811 0.04919,1.31016 0.07422,1.99414 l 52.183594,12.63476 c 0.271704,-0.58198 0.537071,-1.14375 0.826172,-1.77539 z" /><path
       id="path3958"
       fill="#00f"
       d="m 37.724609,681.15625 c 0.01444,0.68373 0.03075,1.34576 0.04687,1.99023 l 54.007813,13.07422 c 0.249939,-0.5562 0.525318,-1.20525 0.783203,-1.78711 z" /><path
       id="path3960"
       fill="#0ff"
       d="m 37.5625,666.54688 0.01367,3.32617 c 0.0099,2.30657 0.03713,4.49615 0.06641,6.65625 l 56.75,13.74023 c 0.07967,-0.18541 0.150522,-0.34056 0.230469,-0.52734 1.391093,-3.24998 2.551824,-5.99148 3.611328,-8.50781 z" /><path
       id="path3962"
       fill="#00f"
       d="m 37.533203,659.75781 0.0078,1.99219 62.513677,15.13477 c 0.28061,-0.67911 0.48548,-1.19681 0.73633,-1.8125 z" /><path
       id="path3964"
       fill="#00f"
       d="m 37.515625,655.66016 0.0078,1.99218 64.044925,15.50586 c 0.25941,-0.64926 0.49333,-1.24772 0.71484,-1.81836 z" /></g><g
     id="layer2"><path
       fill="#000"
       d="m 642.77674,698.54699 c -2.23639,-4.96587 -6.68251,-15.06183 -9.88028,-22.43548 -5.75143,-13.26205 -5.79187,-13.41492 -3.75035,-14.1763 1.13508,-0.42332 15.86975,-3.44581 32.74372,-6.71663 16.87397,-3.27083 31.34691,-6.2029 32.16209,-6.51571 1.33536,-0.51243 1.48215,1.77483 1.48215,23.09555 v 23.6643 l -3.47073,0.92953 c -1.9089,0.51124 -12.21697,3.03707 -22.90681,5.61295 -10.68985,2.57588 -20.08353,4.88305 -20.87486,5.12703 -1.07288,0.33079 -2.47288,-1.85258 -5.50493,-8.58524 z"
       id="path269"/><path
       id="path4020"
       d="m 694.28906,648.64453 c -0.0744,0.006 -0.15287,0.0266 -0.23633,0.0586 -0.49425,0.18966 -6.31702,1.39681 -14.34375,3.00391 -9.90383,2.29502 -22.84229,4.93428 -32.94921,6.68945 l -18.78516,4.43555 c -0.32624,1.14146 0.89561,3.99526 4.92187,13.2793 3.19777,7.37364 7.64448,17.46968 9.88086,22.43555 1.47774,3.2813 2.56254,5.46655 3.41602,6.82226 l 47.32617,-11.17773 c 0.92083,-0.53629 1.19983,-1.04311 1.38867,-1.70508 0.25089,-0.87949 0.48415,-6.4286 0.625,-13.60742 v -7.08008 c 0,-19.98816 -0.12771,-23.24716 -1.24414,-23.1543 z" /><path
       id="path4022"
       fill="#00f"
       d="m 695.41016,684.08398 -53.44922,12.625 c 0.22574,0.5046 0.60004,1.35625 0.79492,1.78907 l 52.57812,-12.41993 c 0.0256,-0.68397 0.0529,-1.22603 0.0762,-1.99414 z" /><path
       id="path4024"
       fill="#00f"
       d="m 695.50781,679.9668 -55.1914,13.03711 c 0.2752,0.6204 0.53927,1.21918 0.79297,1.78906 l 54.3496,-12.83594 c 0.0165,-0.64447 0.0341,-1.3065 0.0488,-1.99023 z" /><path
       id="path4026"
       fill="#0ff"
       d="m 695.51172,665.39648 -61.00195,14.4043 c 1.31854,3.02353 2.61656,5.99627 3.95507,9.0332 l 57.06836,-13.48046 v -3.55469 c 0,-2.69219 -0.0147,-4.28443 -0.0215,-6.40235 z" /><path
       id="path4028"
       fill="#00f"
       d="m 695.48242,658.62109 -63.64062,15.0293 c 0.28544,0.66077 0.45184,1.06225 0.77539,1.80859 l 62.8789,-14.85156 c -0.005,-0.60928 -0.007,-1.43665 -0.0137,-1.98633 z" /><path
       id="path4030"
       fill="#00f"
       d="M 695.39844,654.54688 630.25,669.93359 c 0.21177,0.50234 0.52854,1.23209 0.77539,1.8086 l 64.41992,-15.21485 c -0.0136,-0.69075 -0.0288,-1.40223 -0.0469,-1.98046 z" /></g><g
     id="layer3"><path
       id="path129"
       d="m 196.46875,618.71484 0.60742,3.23633 c 0.33388,1.77975 3.14299,11.25573 6.24414,21.05664 3.10117,9.80091 5.83976,18.75701 6.08399,19.90235 l 0.44336,2.08203 h 59.58789 59.58984 v -23.13867 -23.13868 h -66.2793 z m 210.30078,0 v 23.13868 23.13867 h 59.63477 c 55.99044,0 59.66429,-0.10039 60.125,-1.6211 2.24305,-7.40389 11.66601,-42.49386 11.66601,-43.44336 0,-0.98706 -12.17785,-1.21289 -65.71289,-1.21289 z" /><path
       id="rect479"
       d="m 196.46875,618.71484 0.60742,3.23633 c 0.33388,1.77975 3.143,11.25574 6.24414,21.05664 3.10117,9.8009 5.83976,18.75701 6.08399,19.90235 l 0.44336,2.08203 h 59.58789 59.58984 v -23.13867 -23.13868 h -66.2793 z m 210.30078,0 v 23.13868 23.13867 h 59.63477 c 55.99038,0 59.66429,-0.10039 60.125,-1.6211 2.24304,-7.40388 11.66601,-42.49386 11.66601,-43.44336 0,-0.98705 -12.1779,-1.21289 -65.71289,-1.21289 z" /><path
       id="rect3868"
       fill="#00f"
       d="m 207.12305,655.44531 c 0.18168,0.60291 0.46182,1.50039 0.60742,1.99219 h 121.29492 v -1.99219 z m 199.64648,0 v 1.99219 h 121.40039 c 0.15501,-0.54771 0.37944,-1.38043 0.55078,-1.99219 z" /><path
       id="rect492"
       fill="#00f"
       d="m 205.86133,651.32227 c 0.24287,0.78875 0.39376,1.28567 0.60937,1.99218 h 122.55469 v -1.99218 z m 200.9082,0 v 1.99218 h 122.53906 c 0.18623,-0.67064 0.35305,-1.27546 0.55079,-1.99218 z" /><path
       id="rect488"
       fill="#0ff"
       d="m 201.36328,636.64258 c 0.66846,2.17259 1.22791,4.06092 1.95703,6.36523 0.57181,1.80715 0.5873,1.96389 1.1211,3.66992 h 124.58398 v -4.82421 -5.21094 z m 205.40625,0 v 5.21094 4.82421 h 124.375 c 1.0625,-3.89705 1.70224,-6.13623 2.74414,-10.03515 z" /><path
       id="rect490"
       fill="#00f"
       d="m 199.26367,629.80859 c 0.17024,0.57291 0.43295,1.39292 0.61719,2.00586 h 129.14453 v -2.00586 z m 207.50586,0 v 2.00586 h 128.39844 c 0.17637,-0.66698 0.36586,-1.377 0.53125,-2.00586 z" /><path
       id="rect3866"
       fill="#00f"
       d="m 198.11133,625.68555 c 0.19055,0.68661 0.30248,1.12801 0.55664,2.00586 h 130.35742 v -2.00586 z m 208.6582,0 v 2.00586 h 129.49024 c 0.18534,-0.70959 0.36039,-1.37523 0.52343,-2.00586 z" /></g><g
     id="layer4">
     </g></svg>
