<?xml version="1.0" encoding="UTF-8" standalone="no"?>
<!-- Created with Inkscape (http://www.inkscape.org/) -->

<svg
   version="1.1"
   id="svg2"
   width="734.66669"
   height="774.66669"
   viewBox="0 0 734.66669 774.66669"
   xml:space="preserve"
   xmlns="http://www.w3.org/2000/svg"
   xmlns:svg="http://www.w3.org/2000/svg"><defs
     id="defs12" /><g
     id="layer1"><path
       fill="#000"
       d="m 62.050437,701.69235 c -21.676062,-5.35796 -23.137635,-5.85149 -23.740082,-8.01631 -0.353083,-1.26877 -0.683485,-11.97987 -0.734226,-23.80246 l -0.09226,-21.49561 2.367257,0.90003 c 7.355747,2.79665 42.562296,10.33811 55.891559,11.97231 4.299655,0.52715 8.160235,1.30113 8.579065,1.71996 1.01798,1.01798 -0.66635,5.66672 -9.69967,26.77107 -4.192364,9.79452 -8.038966,17.77498 -8.548007,17.73434 -0.50904,-0.0406 -11.319677,-2.64313 -24.023639,-5.78333 z"
       id="path257" /><path
       id="path2460"
       d="m 37.488281,649.30664 0.08789,20.56641 c 0.05074,11.82258 0.381292,22.53396 0.734375,23.80273 0.185567,0.66682 0.456845,1.17612 1.371094,1.7168 l 47.125,11.08789 c 1.389278,-2.3648 4.478089,-8.93905 7.816406,-16.73828 6.452954,-15.07591 9.142584,-21.73495 9.789064,-24.69141 z" /><path
       id="path2462"
       fill="#00f"
       d="m 37.585938,670.81836 c 0.0296,5.26815 0.112564,10.22809 0.228515,14.20703 l 53.345703,12.55078 c 1.087642,-2.38991 2.242986,-4.98395 3.462891,-7.83398 0.788214,-1.84149 1.44951,-3.40448 2.128906,-5.00391 z" /><path
       id="path2464"
       fill="#0ff"
       d="m 37.613281,673.63086 c 0.02953,3.10274 0.07552,5.95615 0.136719,8.59766 l 54.537109,12.83203 c 0.759976,-1.70654 1.52901,-3.43316 2.335938,-5.31836 0.386486,-0.90294 0.684976,-1.60943 1.044922,-2.45313 z" /></g><g
     id="layer2"><path
       fill="#000"
       d="m 642.77674,698.54699 c -2.23639,-4.96587 -6.68251,-15.06183 -9.88028,-22.43548 -5.75143,-13.26205 -5.79187,-13.41492 -3.75035,-14.1763 1.13508,-0.42332 15.86975,-3.44581 32.74372,-6.71663 16.87397,-3.27083 31.34691,-6.2029 32.16209,-6.51571 1.33536,-0.51243 1.48215,1.77483 1.48215,23.09555 v 23.6643 l -3.47073,0.92953 c -1.9089,0.51124 -12.21697,3.03707 -22.90681,5.61295 -10.68985,2.57588 -20.08353,4.88305 -20.87486,5.12703 -1.07288,0.33079 -2.47288,-1.85258 -5.50493,-8.58524 z"
       id="path269"/><path
       id="path2478"
       d="M 694.85547,649.125 628.875,664.64648 c 0.62525,2.8594 3.23829,9.35298 9.24219,23.4043 1.82123,4.13639 3.52518,7.97591 4.66015,10.4961 0.35185,0.78126 0.6764,1.48846 0.98633,2.15039 0.27764,0.5851 0.5336,1.11565 0.78516,1.63085 0.0695,0.14106 0.1496,0.31317 0.21679,0.44727 0.75958,1.51586 1.36544,2.55359 1.88672,3.25977 l 46.95313,-11.04688 c 0.91425,-0.54068 1.18553,-1.04998 1.37109,-1.7168 0.21658,-0.77823 0.41639,-5.3068 0.55664,-11.26757 v -10.20508 c 0,-15.90876 -0.0815,-21.21518 -0.67773,-22.67383 z" /><path
       id="path2480"
       fill="#00f"
       d="m 695.5293,670.45508 -58.99414,13.8789 c 0.48904,1.1513 1.00883,2.37057 1.5332,3.60157 1.59945,3.63315 2.97316,6.72726 4.09375,9.22851 l 53.31055,-12.54297 c 0.024,-0.82243 0.0396,-1.836 0.0605,-2.73632 v -10.08594 c 0,-0.56505 -0.004,-0.80514 -0.004,-1.34375 z" /><path
       id="path2482"
       fill="#0ff"
       d="m 695.5332,673.25977 -57.91406,13.625 c 0.14506,0.34001 0.287,0.671 0.42188,0.98828 1.17101,2.66015 2.04353,4.61544 3.0039,6.77343 l 54.48828,-12.82226 z" /></g><g
     id="layer3"><path
       id="path129"
       d="m 196.46875,618.71484 0.60742,3.23633 c 0.33388,1.77975 3.14299,11.25573 6.24414,21.05664 3.10117,9.80091 5.83976,18.75701 6.08399,19.90235 l 0.44336,2.08203 h 59.58789 59.58984 v -23.13867 -23.13868 h -66.2793 z m 210.30078,0 v 23.13868 23.13867 h 59.63477 c 55.99044,0 59.66429,-0.10039 60.125,-1.6211 2.24305,-7.40389 11.66601,-42.49386 11.66601,-43.44336 0,-0.98706 -12.17785,-1.21289 -65.71289,-1.21289 z" /><path
       id="path2454"
       d="m 196.46875,618.71484 0.60742,3.23633 c 0.33388,1.77975 3.143,11.25574 6.24414,21.05664 3.10117,9.8009 5.83976,18.75701 6.08399,19.90235 l 0.44336,2.08203 h 59.58789 59.58984 v -23.13867 -23.13868 h -66.2793 z m 210.30078,0 v 23.13868 23.13867 h 59.63477 c 55.99038,0 59.66429,-0.10039 60.125,-1.6211 2.24304,-7.40388 11.66601,-42.49386 11.66601,-43.44336 0,-0.98705 -12.1779,-1.21289 -65.71289,-1.21289 z" /><path
       id="path2456"
       fill="#00f"
       d="m 202.53516,640.45508 c 0.28539,0.9122 0.49273,1.62857 0.78515,2.55273 1.88593,5.96027 2.56093,8.33479 3.69922,12.10352 h 122.00586 v -13.25781 -1.39844 z m 204.23437,0 v 1.39844 13.25781 H 528.8125 c 1.27897,-4.57324 2.43645,-8.65926 4.05078,-14.65625 z" /><path
       id="path2458"
       fill="#0ff"
       d="m 203.42773,643.35938 c 1.37625,4.35417 1.68249,5.5183 2.71094,8.87109 h 122.88672 v -8.87109 z m 203.3418,0 v 8.87109 h 122.83985 c 0.85839,-3.10269 1.46964,-5.24581 2.45117,-8.87109 z" /></g><g
     id="layer4">
     </g></svg>
