<?xml version="1.0" encoding="UTF-8" standalone="no"?>
<!-- Created with Inkscape (http://www.inkscape.org/) -->

<svg
   version="1.1"
   id="svg2"
   width="734.66669"
   height="774.66669"
   viewBox="0 0 734.66669 774.66669"
   xml:space="preserve"
   xmlns="http://www.w3.org/2000/svg"
   xmlns:svg="http://www.w3.org/2000/svg"><defs
     id="defs12" /><g
     id="layer1"><path
       fill="#000"
       d="m 62.050437,701.69235 c -21.676062,-5.35796 -23.137635,-5.85149 -23.740082,-8.01631 -0.353083,-1.26877 -0.683485,-11.97987 -0.734226,-23.80246 l -0.09226,-21.49561 2.367257,0.90003 c 7.355747,2.79665 42.562296,10.33811 55.891559,11.97231 4.299655,0.52715 8.160235,1.30113 8.579065,1.71996 1.01798,1.01798 -0.66635,5.66672 -9.69967,26.77107 -4.192364,9.79452 -8.038966,17.77498 -8.548007,17.73434 -0.50904,-0.0406 -11.319677,-2.64313 -24.023639,-5.78333 z"
       id="path257" /><path
       id="path1989"
       fill="#00f"
       d="m 37.484375,648.37891 0.0918,21.49414 c 0.05074,11.82258 0.381292,22.53396 0.734375,23.80273 0.602446,2.16482 2.064194,2.65767 23.740234,8.01563 12.70395,3.14019 23.514398,5.74455 24.023438,5.78515 0.50904,0.0406 4.356468,-7.93986 8.548828,-17.73437 8.73973,-20.41844 10.59145,-25.42211 9.78125,-26.64844 L 97.984375,661.5625 C 97.25245,661.45444 96.52073,661.34545 95.742188,661.25 82.412938,659.6158 47.207302,652.07399 39.851562,649.27734 Z" /><path
       id="path1991"
       d="m 37.548828,663.67188 0.02734,6.20117 c 0.01605,3.74004 0.06697,7.22078 0.130859,10.47461 l 55.253907,13.17968 c 0.553614,-1.25764 1.087829,-2.44348 1.662109,-3.78515 1.939878,-4.5321 3.47903,-8.1731 4.787109,-11.31446 z" /><path
       id="path1993"
       fill="#0ff"
       d="m 37.707031,680.34766 c 0.02116,1.07775 0.04509,2.08637 0.07031,3.07226 l 53.96875,12.87305 c 0.386381,-0.85934 0.810323,-1.84668 1.214844,-2.76563 z" /><path
       id="path1995"
       fill="#0ff"
       d="m 37.537109,660.60742 0.01172,3.06446 61.861328,14.75585 c 0.40922,-0.98274 0.797093,-1.92415 1.150393,-2.78711 z" /></g><g
     id="layer2"><path
       fill="#000"
       d="m 642.77674,698.54699 c -2.23639,-4.96587 -6.68251,-15.06183 -9.88028,-22.43548 -5.75143,-13.26205 -5.79187,-13.41492 -3.75035,-14.1763 1.13508,-0.42332 15.86975,-3.44581 32.74372,-6.71663 16.87397,-3.27083 31.34691,-6.2029 32.16209,-6.51571 1.33536,-0.51243 1.48215,1.77483 1.48215,23.09555 v 23.6643 l -3.47073,0.92953 c -1.9089,0.51124 -12.21697,3.03707 -22.90681,5.61295 -10.68985,2.57588 -20.08353,4.88305 -20.87486,5.12703 -1.07288,0.33079 -2.47288,-1.85258 -5.50493,-8.58524 z"
       id="path269"/><path
       id="path2021"
       fill="#00f"
       d="m 694.28906,648.64453 c -0.0744,0.006 -0.15287,0.0266 -0.23633,0.0586 -0.81517,0.31281 -15.28815,3.2448 -32.16211,6.51563 -16.87395,3.27082 -31.60906,6.29348 -32.74414,6.7168 -2.04151,0.76138 -2.00142,0.91374 3.75,14.17578 3.19777,7.37364 7.64448,17.46968 9.88086,22.43555 3.03205,6.73265 4.43103,8.91672 5.50391,8.58593 0.79133,-0.24398 10.18516,-2.55107 20.875,-5.12695 10.68983,-2.57588 20.99735,-5.10204 22.90625,-5.61328 l 3.4707,-0.92969 v -23.66406 c 0,-19.98816 -0.12771,-23.24716 -1.24414,-23.1543 z" /><path
       id="path2023"
       d="m 695.50195,662.56055 -62.05664,14.80468 c 2.34882,5.40487 4.93707,11.28443 7.13086,16.22461 l 54.95703,-13.10742 v -8.68359 c 0,-3.88471 -0.0152,-6.51913 -0.0312,-9.23828 z" /><path
       id="path2025"
       fill="#0ff"
       d="m 695.5332,680.48242 -54.95703,13.10742 c 0.44739,1.00747 0.94277,2.12989 1.32227,2.97852 l 53.63476,-12.79492 z" /><path
       id="path2027"
       fill="#0ff"
       d="m 695.49023,659.26562 -63.33789,15.10743 c 0.28875,0.66716 0.4197,0.99014 0.74414,1.73828 0.16543,0.38145 0.37721,0.85897 0.54883,1.2539 l 62.05664,-14.80468 c -0.006,-0.96982 -0.003,-2.45643 -0.0117,-3.29493 z" /></g><g
     id="layer3"><path
       id="path129"
       d="m 196.46875,618.71484 0.60742,3.23633 c 0.33388,1.77975 3.14299,11.25573 6.24414,21.05664 3.10117,9.80091 5.83976,18.75701 6.08399,19.90235 l 0.44336,2.08203 h 59.58789 59.58984 v -23.13867 -23.13868 h -66.2793 z m 210.30078,0 v 23.13868 23.13867 h 59.63477 c 55.99044,0 59.66429,-0.10039 60.125,-1.6211 2.24305,-7.40389 11.66601,-42.49386 11.66601,-43.44336 0,-0.98706 -12.17785,-1.21289 -65.71289,-1.21289 z" /><path
       id="path1981"
       fill="#00f"
       d="m 196.46875,618.71484 0.60742,3.23633 c 0.33388,1.77975 3.143,11.25574 6.24414,21.05664 3.10117,9.8009 5.83976,18.75701 6.08399,19.90235 l 0.44336,2.08203 h 59.58789 59.58984 v -23.13867 -23.13868 h -66.2793 z m 210.30078,0 v 23.13868 23.13867 h 59.63477 c 55.99038,0 59.66429,-0.10039 60.125,-1.6211 2.24304,-7.40388 11.66601,-42.49386 11.66601,-43.44336 0,-0.98705 -12.1779,-1.21289 -65.71289,-1.21289 z" /><path
       id="path1983"
       d="m 200.45898,633.69727 c 0.9086,2.9938 1.79488,5.94011 2.86133,9.31054 1.0244,3.23748 1.14134,3.77218 2.00977,6.57422 h 123.69531 v -7.72851 -8.15625 z m 206.31055,0 v 8.15625 7.72851 H 530.3418 c 1.59446,-5.80758 2.77544,-10.04623 4.32617,-15.88476 z" /><path
       id="path1985"
       fill="#0ff"
       d="m 205.33008,649.58203 c 0.38547,1.24375 0.55969,1.83143 0.89258,2.91797 h 122.80273 v -2.91797 z m 201.43945,0 V 652.5 h 122.76563 c 0.28007,-1.01143 0.50509,-1.81963 0.80664,-2.91797 z" /><path
       id="path1987"
       fill="#0ff"
       d="m 199.56055,630.77539 c 0.25811,0.86368 0.61328,1.9823 0.89843,2.92188 h 128.56641 v -2.92188 z m 207.20898,0 v 2.92188 h 127.89844 c 0.26948,-1.0146 0.52448,-1.97785 0.77344,-2.92188 z" /></g><g
     id="layer4">
     </g></svg>
