<?xml version="1.0" encoding="UTF-8" standalone="no"?>
<!-- Created with Inkscape (http://www.inkscape.org/) -->

<svg
   version="1.1"
   id="svg2"
   width="734.66669"
   height="774.66669"
   viewBox="0 0 734.66669 774.66669"
   xml:space="preserve"
   xmlns="http://www.w3.org/2000/svg"
   xmlns:svg="http://www.w3.org/2000/svg"><defs
     id="defs12" /><g
     id="layer1"><path
       fill="#000"
       d="m 62.050437,701.69235 c -21.676062,-5.35796 -23.137635,-5.85149 -23.740082,-8.01631 -0.353083,-1.26877 -0.683485,-11.97987 -0.734226,-23.80246 l -0.09226,-21.49561 2.367257,0.90003 c 7.355747,2.79665 42.562296,10.33811 55.891559,11.97231 4.299655,0.52715 8.160235,1.30113 8.579065,1.71996 1.01798,1.01798 -0.66635,5.66672 -9.69967,26.77107 -4.192364,9.79452 -8.038966,17.77498 -8.548007,17.73434 -0.50904,-0.0406 -11.319677,-2.64313 -24.023639,-5.78333 z"
       id="path257" /><path
       id="path1799"
       d="m 37.484375,648.37891 0.0918,21.49414 c 0.05074,11.82258 0.381292,22.53396 0.734375,23.80273 0.43405,1.55971 1.435252,2.27795 10,4.54688 l 37.980469,9.0625 c 0.976768,-1.20098 4.506692,-8.60592 8.332031,-17.54297 7.06277,-16.5006 9.62116,-22.92399 9.91992,-25.43555 L 83.302734,659.23828 C 67.341187,656.31407 45.4781,651.41655 39.851562,649.27734 Z" /><path
       id="path1801"
       fill="#00f"
       d="m 37.583984,670.65234 c 0.02974,5.52166 0.116478,10.75995 0.240235,14.84766 l 53.0625,12.66211 c 1.164031,-2.54225 2.407574,-5.31559 3.736328,-8.41992 0.783381,-1.8302 1.441313,-3.38161 2.117187,-4.97266 z" /></g><g
     id="layer2"><path
       fill="#000"
       d="m 642.77674,698.54699 c -2.23639,-4.96587 -6.68251,-15.06183 -9.88028,-22.43548 -5.75143,-13.26205 -5.79187,-13.41492 -3.75035,-14.1763 1.13508,-0.42332 15.86975,-3.44581 32.74372,-6.71663 16.87397,-3.27083 31.34691,-6.2029 32.16209,-6.51571 1.33536,-0.51243 1.48215,1.77483 1.48215,23.09555 v 23.6643 l -3.47073,0.92953 c -1.9089,0.51124 -12.21697,3.03707 -22.90681,5.61295 -10.68985,2.57588 -20.08353,4.88305 -20.87486,5.12703 -1.07288,0.33079 -2.47288,-1.85258 -5.50493,-8.58524 z"
       id="path269"/><path
       id="path1815"
       d="m 694.28906,648.64453 c -0.0744,0.006 -0.15287,0.0266 -0.23633,0.0586 -0.29244,0.11223 -2.782,0.64308 -6.07031,1.32422 -8.95511,2.44314 -25.47135,6.04857 -38.30859,8.40039 l -21.24024,5.06836 c 0.22065,1.8549 1.70305,5.90971 5.29297,14.51563 3.10791,7.14455 6.98968,15.9585 9.05078,20.53516 1.94977,4.32945 3.21901,6.75898 4.16602,7.86718 l 37.72266,-9.00195 c 8.56475,-2.26893 9.56595,-2.98717 10,-4.54688 0.35308,-1.26876 0.68367,-11.98016 0.73437,-23.80273 l 0.0527,-12.11914 c -0.12225,-6.78603 -0.42378,-8.36041 -1.16406,-8.29883 z" /><path
       id="path1817"
       fill="#00f"
       d="m 695.39258,669.8418 -59.07227,14.09765 c 2.24994,5.13359 4.37613,9.95223 5.91211,13.37891 l 52.91992,-12.62891 c 0.12375,-4.0877 0.21054,-9.326 0.24024,-14.84765 z" /></g><g
     id="layer3"><path
       id="path129"
       d="m 196.46875,618.71484 0.60742,3.23633 c 0.33388,1.77975 3.14299,11.25573 6.24414,21.05664 3.10117,9.80091 5.83976,18.75701 6.08399,19.90235 l 0.44336,2.08203 h 59.58789 59.58984 v -23.13867 -23.13868 h -66.2793 z m 210.30078,0 v 23.13868 23.13867 h 59.63477 c 55.99044,0 59.66429,-0.10039 60.125,-1.6211 2.24305,-7.40389 11.66601,-42.49386 11.66601,-43.44336 0,-0.98706 -12.17785,-1.21289 -65.71289,-1.21289 z" /><path
       id="path1795"
       d="m 196.52344,619.00391 0.55273,2.94726 c 0.33388,1.77975 3.143,11.25574 6.24414,21.05664 3.10117,9.8009 5.83976,18.75701 6.08399,19.90235 l 0.44336,2.08203 h 59.58789 59.58984 v -23.13867 -22.84961 z m 210.24609,0 v 22.84961 23.13867 h 59.63477 c 55.99038,0 59.66429,-0.10039 60.125,-1.6211 2.24304,-7.40388 11.66601,-42.49386 11.66601,-43.44336 0,-0.45844 -3.17613,-0.74016 -11.35351,-0.92382 z" /><path
       id="path1797"
       fill="#00f"
       d="m 202.67578,640.91211 c 0.23555,0.75138 0.40447,1.33701 0.64453,2.0957 1.935,6.11534 2.66206,8.65261 3.79688,12.41797 h 121.9082 v -13.57226 -0.94141 z m 204.09375,0 v 0.94141 13.57226 h 121.95703 c 1.24935,-4.46106 2.40955,-8.56723 4.01172,-14.51367 z" /></g><g
     id="layer4">
       </g></svg>
