<?xml version="1.0" encoding="UTF-8" standalone="no"?>
<!-- Created with Inkscape (http://www.inkscape.org/) -->

<svg
   version="1.1"
   id="svg2"
   width="734.66669"
   height="774.66669"
   viewBox="0 0 734.66669 774.66669"
   xml:space="preserve"
   xmlns="http://www.w3.org/2000/svg"
   xmlns:svg="http://www.w3.org/2000/svg"><defs
     id="defs12" /><g
     id="layer1"><path
       fill="#000"
       d="m 62.050437,701.69235 c -21.676062,-5.35796 -23.137635,-5.85149 -23.740082,-8.01631 -0.353083,-1.26877 -0.683485,-11.97987 -0.734226,-23.80246 l -0.09226,-21.49561 2.367257,0.90003 c 7.355747,2.79665 42.562296,10.33811 55.891559,11.97231 4.299655,0.52715 8.160235,1.30113 8.579065,1.71996 1.01798,1.01798 -0.66635,5.66672 -9.69967,26.77107 -4.192364,9.79452 -8.038966,17.77498 -8.548007,17.73434 -0.50904,-0.0406 -11.319677,-2.64313 -24.023639,-5.78333 z"
       id="path257" /><path
       id="path2402"
       d="m 37.486328,648.67578 0.08984,21.19727 c 0.05074,11.82258 0.381292,22.53396 0.734375,23.80273 0.444644,1.59777 1.415638,2.29849 10.578125,4.70313 l 37.412109,8.89257 c 0.990842,-1.23921 4.509995,-8.62277 8.322266,-17.52929 6.784177,-15.84973 9.422347,-22.41728 9.884767,-25.13672 L 76.240234,657.88672 C 61.471412,654.97444 44.682066,651.1139 39.851562,649.27734 l -0.27539,-0.10546 z" /><path
       id="path2404"
       fill="#00f"
       d="m 37.660156,678.18945 c 0.03433,2.15519 0.0832,4.05088 0.132813,5.88867 L 91.5,696.84375 c 0.737821,-1.6332 1.534033,-3.45853 2.333984,-5.30273 z" /><path
       id="path2406"
       fill="#0ff"
       d="m 37.558594,665.5332 0.01758,4.33985 c 0.01237,2.88187 0.0421,5.68728 0.08398,8.3164 l 56.173828,13.35157 c 0.269116,-0.62042 0.516193,-1.16133 0.789063,-1.79883 1.618746,-3.78185 2.926101,-6.87307 4.099609,-9.67188 z" /><path
       id="path2408"
       fill="#00f"
       d="m 37.533203,659.67578 0.02539,5.86133 61.162109,14.53711 c 0.835341,-1.99225 1.570138,-3.77182 2.203128,-5.33008 z" /><path
       id="path2410"
       d="m 37.486328,648.67188 0.04687,11.00585 63.390622,15.06836 c 2.20793,-5.43533 3.31146,-8.53626 3.58398,-10.14453 L 76.332031,657.9043 c -14.791154,-2.91431 -31.639774,-6.78653 -36.480469,-8.62696 l -0.30664,-0.11523 z" /></g><g
     id="layer2"><path
       fill="#000"
       d="m 642.77674,698.54699 c -2.23639,-4.96587 -6.68251,-15.06183 -9.88028,-22.43548 -5.75143,-13.26205 -5.79187,-13.41492 -3.75035,-14.1763 1.13508,-0.42332 15.86975,-3.44581 32.74372,-6.71663 16.87397,-3.27083 31.34691,-6.2029 32.16209,-6.51571 1.33536,-0.51243 1.48215,1.77483 1.48215,23.09555 v 23.6643 l -3.47073,0.92953 c -1.9089,0.51124 -12.21697,3.03707 -22.90681,5.61295 -10.68985,2.57588 -20.08353,4.88305 -20.87486,5.12703 -1.07288,0.33079 -2.47288,-1.85258 -5.50493,-8.58524 z"
       id="path269" /><path
       id="path2486"
       d="m 694.28906,648.64453 c -0.0744,0.006 -0.15287,0.0266 -0.23633,0.0586 -0.81517,0.31281 -15.28815,3.2448 -32.16211,6.51563 -14.2794,2.76789 -26.9308,5.34053 -31.20117,6.32813 l -0.72851,0.17382 c -0.36031,0.0889 -0.70347,0.17346 -0.81446,0.21485 -2.04151,0.76138 -2.00142,0.91374 3.75,14.17578 3.19777,7.37364 7.64448,17.46968 9.88086,22.43555 1.8445,4.0957 3.07944,6.48903 4.00977,7.67578 l 37.28906,-8.86328 c 9.45667,-2.48185 10.45905,-3.20445 10.91797,-4.85352 0.20474,-0.73571 0.39609,-4.70709 0.53906,-10.07031 v -10.63672 c 0,-19.98816 -0.12771,-23.24716 -1.24414,-23.1543 z" /><path
       id="path2488"
       fill="#00f"
       d="m 695.5332,676.55273 -56.55273,13.44336 c 0.92068,2.08553 1.68046,3.79082 2.42773,5.4668 l 54.1211,-12.86328 c 10e-4,-0.0543 0.002,-0.11948 0.004,-0.17383 z" /><path
       id="path2490"
       fill="#0ff"
       d="m 695.50586,663.52148 -61.70117,14.66602 c 1.6926,3.89001 3.43924,7.87498 5.17578,11.80859 l 56.55273,-13.44336 v -4.7539 c 0,-3.48063 -0.015,-5.74061 -0.0273,-8.27735 z" /><path
       id="path2492"
       fill="#00f"
       d="m 695.46094,657.49414 -64.01953,15.21875 c 0.50026,1.16216 0.82075,1.93576 1.45507,3.39844 0.27441,0.63274 0.61956,1.4122 0.91016,2.08008 l 61.69922,-14.66602 c -0.0103,-2.11437 -0.0203,-4.48252 -0.0449,-6.03125 z" /><path
       id="path2494"
       d="m 694.28906,648.64453 c -0.0744,0.006 -0.15287,0.0266 -0.23633,0.0586 -0.81517,0.31281 -15.28815,3.2448 -32.16211,6.51563 -14.58508,2.82715 -27.52975,5.46045 -31.51757,6.39844 l -0.26953,0.0644 c -0.47238,0.11376 -0.82657,0.20525 -0.95704,0.25391 -1.81646,0.67744 -1.74139,1.40253 2.29493,10.77929 l 64.01953,-15.21875 c -0.11558,-7.26773 -0.41171,-8.91479 -1.17188,-8.85156 z" /></g><g
     id="layer3"><path
       id="path129"
       d="m 196.46875,618.71484 0.60742,3.23633 c 0.33388,1.77975 3.14299,11.25573 6.24414,21.05664 3.10117,9.80091 5.83976,18.75701 6.08399,19.90235 l 0.44336,2.08203 h 59.58789 59.58984 v -23.13867 -23.13868 h -66.2793 z m 210.30078,0 v 23.13868 23.13867 h 59.63477 c 55.99044,0 59.66429,-0.10039 60.125,-1.6211 2.24305,-7.40389 11.66601,-42.49386 11.66601,-43.44336 0,-0.98706 -12.17785,-1.21289 -65.71289,-1.21289 z" /><path
       id="path2417"
       d="m 196.46875,618.71484 0.60742,3.23633 c 0.33388,1.77975 3.143,11.25574 6.24414,21.05664 3.10117,9.8009 5.83976,18.75701 6.08399,19.90235 l 0.44336,2.08203 h 59.58789 59.58984 v -23.13867 -23.13868 h -66.2793 z m 210.30078,0 v 23.13868 23.13867 h 59.63477 c 55.99038,0 59.66429,-0.10039 60.125,-1.6211 2.24304,-7.40388 11.66601,-42.49386 11.66601,-43.44336 0,-0.98705 -12.1779,-1.21289 -65.71289,-1.21289 z" /><path
       id="path2419"
       fill="#00f"
       d="m 204.7793,647.7793 c 0.82382,2.64214 1.16805,3.81401 1.78711,5.8457 h 122.45898 v -5.8457 z m 201.99023,0 v 5.8457 h 122.45313 c 0.54059,-1.9446 0.99381,-3.565 1.61718,-5.8457 z" /><path
       id="path2421"
       fill="#0ff"
       d="m 200.91016,635.16406 c 0.79632,2.60563 1.51172,5.00434 2.41015,7.84375 0.74314,2.34862 0.78487,2.6138 1.45703,4.76953 h 124.24805 v -5.92382 -6.68946 z m 205.85937,0 v 6.68946 5.92382 h 124.07031 c 1.30934,-4.79037 2.16801,-7.84125 3.43946,-12.61328 z" /><path
       id="path2423"
       fill="#00f"
       d="m 199.11914,629.32227 c 0.49252,1.66391 1.18545,3.86427 1.79102,5.8457 h 128.11523 v -5.8457 z m 207.65039,0 v 5.8457 H 534.2793 c 0.55548,-2.08485 1.07346,-4.04305 1.54687,-5.8457 z" /><path
       id="path2425"
       d="m 196.46875,618.71484 0.60742,3.23633 c 0.16369,0.87253 0.9467,3.66955 2.04297,7.37305 h 129.90625 v -10.60938 h -66.2793 z m 210.30078,0 v 10.60938 h 129.05664 c 1.32869,-5.05934 2.36914,-9.10046 2.36914,-9.39649 0,-0.98705 -12.1779,-1.21289 -65.71289,-1.21289 z" /></g><g
     id="layer4"><path
       fill="#000"
       d="m 345.0004,204.31024 c -10.9424,-30.27178 -11.70331,-32.57771 -10.98657,-33.29446 0.30007,-0.30007 3.75488,0.15961 7.67734,1.02151 3.92247,0.86189 12.56883,2.0047 19.21413,2.53956 11.87411,0.95571 12.28177,0.9246 23.65146,-1.80457 6.363,-1.52737 11.73849,-2.60914 11.94553,-2.40393 1.00591,0.99701 -39.92351,59.62528 -41.62544,59.62528 -0.32595,0 -4.77035,-11.55752 -9.87645,-25.68339 z"
       id="path265" /><path
       fill="#000"
       d="m 360.49304,235.18828 c 0,-0.9835 9.72467,-15.33014 28.41958,-41.92691 12.32941,-17.54074 17.59749,-24.3198 19.06641,-24.53503 3.84188,-0.56291 21.60453,24.06955 20.83406,28.89175 -0.16157,1.01121 -5.29161,7.83776 -11.4001,15.1701 -10.2933,12.35562 -11.56779,13.54831 -17.41018,16.29271 -3.46711,1.62864 -8.46496,3.55459 -11.10633,4.27988 -5.11077,1.40338 -28.40344,2.90205 -28.40344,1.8275 z"
       id="path267" /><path
       fill="#000"
       d="m 340.96206,231.49729 c -10.03818,-3.58773 -23.86825,-13.32396 -32.7506,-23.05612 -5.487,-6.01195 -6.02667,-6.96453 -6.02667,-10.63781 0,-3.02077 0.74478,-5.12299 2.96396,-8.36619 3.70209,-5.41036 17.76618,-19.60557 19.41398,-19.59497 0.98778,0.006 10.50333,24.82445 23.68377,61.77111 0.5351,1.49995 -2.9169,1.44497 -7.28444,-0.11602 z"
       id="path263" /><path
       id="rect134-2"
       d="m 324.41406,169.87305 c -2.18662,0.65404 -15.65407,14.2864 -19.26562,19.56445 -2.21918,3.2432 -2.96289,5.34447 -2.96289,8.36523 0,3.67328 0.53839,4.62673 6.02539,10.63868 8.88234,9.73215 22.71378,19.46891 32.75195,23.05664 4.36754,1.56099 7.8183,1.61518 7.2832,0.11523 -1.22923,-3.44572 -2.39119,-6.67007 -3.55273,-9.89453 z" /><path
       id="rect277"
       fill="#00f"
       d="m 308.08398,185.72656 c -1.23,1.43557 -2.25884,2.72199 -2.93554,3.71094 -0.0205,0.0299 -0.0364,0.0562 -0.0566,0.0859 l 10.02929,25.63867 c 2.09583,1.83894 4.29752,3.62316 6.55079,5.30664 z" /><path
       id="rect271"
       fill="#0ff"
       d="m 314.87305,178.38867 c -2.41548,2.46686 -4.85651,5.08236 -6.78907,7.33789 l 13.5879,34.74219 c 4.26885,3.18938 8.69742,6.01121 12.85156,8.16406 z" /><path
       id="rect595-5"
       fill="#00f"
       d="m 318.0918,175.18359 c -1.04094,1.00619 -2.11842,2.07926 -3.22266,3.20703 l 19.65234,50.24024 c 1.88901,0.97905 3.71383,1.81188 5.44532,2.48242 z" /><path
       id="rect171"
       d="m 324.41797,169.87305 c -0.83525,0.24517 -3.35401,2.43756 -6.32813,5.3125 l 21.875,55.92578 c 0.33293,0.12895 0.67279,0.27047 0.99805,0.38672 4.36754,1.56099 7.8183,1.61518 7.2832,0.11523 -1.24158,-3.48034 -2.41541,-6.73964 -3.58789,-9.99414 z" /><path
       id="path2549"
       d="m 408.34375,168.74414 -47.81641,66.49219 c 0.73197,0.97578 23.3412,-0.49437 28.36914,-1.875 2.64137,-0.72529 7.63837,-2.65261 11.10547,-4.28125 5.84239,-2.7444 7.11687,-3.93541 17.41016,-16.29102 1.39928,-1.67962 2.72402,-3.31423 3.97266,-4.87695 l 7.42968,-10.33008 c 0.66921,-4.75724 -16.00293,-28.02664 -20.4707,-28.83789 z" /><path
       id="path2551"
       fill="#00f"
       d="m 422.64258,184.80273 -35.13867,48.86133 c 0.54042,-0.10095 1.02491,-0.20177 1.39257,-0.30273 1.32332,-0.36337 3.23842,-1.02892 5.25586,-1.80664 l 30.89844,-42.96289 c -0.73212,-1.2239 -1.55264,-2.5012 -2.4082,-3.78907 z" /><path
       id="path2553"
       fill="#0ff"
       d="m 417.07812,177.13477 -41.61718,57.86914 c 4.69993,-0.35541 9.34077,-0.8356 12.04101,-1.33985 l 35.13867,-48.86328 c -1.74169,-2.6216 -3.66381,-5.27095 -5.5625,-7.66601 z" /><path
       id="path2555"
       fill="#00f"
       d="m 414.32422,173.82812 -44.24024,61.51954 c 1.74217,-0.0901 3.53366,-0.20404 5.38086,-0.34375 l 41.61524,-57.86914 c -0.93971,-1.18541 -1.8647,-2.29737 -2.75586,-3.30665 z" /><path
       id="path2557"
       d="m 408.33984,168.74414 -47.81445,66.48828 c 0.0356,0.0514 0.13153,0.0968 0.2832,0.13477 0.72857,0.18235 2.76115,0.20721 5.38282,0.13476 0.16052,-0.004 0.31334,-0.007 0.47851,-0.0117 1.06498,-0.0337 2.20762,-0.0802 3.41406,-0.14257 l 44.24219,-61.51758 c -0.6067,-0.68717 -1.19174,-1.31858 -1.7539,-1.89453 -0.31408,-0.32108 -0.62238,-0.6305 -0.91797,-0.91016 -0.007,-0.006 -0.0128,-0.0112 -0.0195,-0.0176 -1.36549,-1.29388 -2.51717,-2.12466 -3.29493,-2.26367 z" /></g></svg>
