<?xml version="1.0" encoding="UTF-8" standalone="no"?>
<!-- Created with Inkscape (http://www.inkscape.org/) -->

<svg
   version="1.1"
   id="svg2"
   width="734.66669"
   height="774.66669"
   viewBox="0 0 734.66669 774.66669"
   xml:space="preserve"
   xmlns="http://www.w3.org/2000/svg"
   xmlns:svg="http://www.w3.org/2000/svg"><defs
     id="defs12" /><g
     id="layer1"><path
       fill="#000"
       d="m 62.050437,701.69235 c -21.676062,-5.35796 -23.137635,-5.85149 -23.740082,-8.01631 -0.353083,-1.26877 -0.683485,-11.97987 -0.734226,-23.80246 l -0.09226,-21.49561 2.367257,0.90003 c 7.355747,2.79665 42.562296,10.33811 55.891559,11.97231 4.299655,0.52715 8.160235,1.30113 8.579065,1.71996 1.01798,1.01798 -0.66635,5.66672 -9.69967,26.77107 -4.192364,9.79452 -8.038966,17.77498 -8.548007,17.73434 -0.50904,-0.0406 -11.319677,-2.64313 -24.023639,-5.78333 z"
       id="path257" /><path
       id="path219"
       fill="#0ff"
       d="m 37.484375,648.37891 0.0918,21.49414 c 0.05074,11.82258 0.381292,22.53396 0.734375,23.80273 0.602446,2.16482 2.064194,2.65767 23.740234,8.01563 12.70395,3.14019 23.514398,5.74455 24.023438,5.78515 0.50904,0.0406 4.356468,-7.93986 8.548828,-17.73437 9.03331,-21.10433 10.71719,-25.75351 9.69922,-26.77149 -0.41883,-0.41883 -4.28043,-1.19355 -8.580079,-1.7207 -13.32925,-1.6342 -48.534886,-9.17601 -55.890626,-11.97266 z" /><path
       id="path221"
       fill="#00f"
       d="m 37.546875,662.87695 0.0293,6.9961 c 0.01264,2.94481 0.04257,5.81989 0.08594,8.49804 l 55.914063,13.75586 c 0.354724,-0.81424 0.685078,-1.5395 1.046875,-2.38476 1.998295,-4.66858 3.582767,-8.41641 4.912109,-11.61328 z" /><path
       id="path223"
       d="m 37.484375,648.37891 0.0625,14.49804 61.988281,15.25196 c 4.679964,-11.25463 5.579894,-14.36542 4.787114,-15.15821 -0.41883,-0.41883 -4.28043,-1.19355 -8.580082,-1.7207 -13.32925,-1.6342 -48.534886,-9.17601 -55.890626,-11.97266 z" /></g><g
     id="layer2"><path
       fill="#000"
       d="m 642.77674,698.54699 c -2.23639,-4.96587 -6.68251,-15.06183 -9.88028,-22.43548 -5.75143,-13.26205 -5.79187,-13.41492 -3.75035,-14.1763 1.13508,-0.42332 15.86975,-3.44581 32.74372,-6.71663 16.87397,-3.27083 31.34691,-6.2029 32.16209,-6.51571 1.33536,-0.51243 1.48215,1.77483 1.48215,23.09555 v 23.6643 l -3.47073,0.92953 c -1.9089,0.51124 -12.21697,3.03707 -22.90681,5.61295 -10.68985,2.57588 -20.08353,4.88305 -20.87486,5.12703 -1.07288,0.33079 -2.47288,-1.85258 -5.50493,-8.58524 z"
       id="path269" /><path
       id="path261"
       fill="#0ff"
       d="m 694.28906,648.64453 c -0.0744,0.006 -0.15287,0.0266 -0.23633,0.0586 -0.43643,0.16748 -4.94764,1.11452 -11.48632,2.4336 -13.97235,3.37681 -34.73289,7.59552 -45.01758,8.9414 -4.58266,0.95168 -7.91572,1.67594 -8.40235,1.85743 -2.04151,0.76138 -2.00142,0.91374 3.75,14.17578 3.19777,7.37364 7.64448,17.46968 9.88086,22.43555 3.03205,6.73265 4.43103,8.91672 5.50391,8.58593 0.79133,-0.24398 10.18516,-2.55107 20.875,-5.12695 10.68983,-2.57588 20.99735,-5.10204 22.90625,-5.61328 l 3.4707,-0.92969 v -23.66406 c 0,-19.98816 -0.12771,-23.24716 -1.24414,-23.1543 z" /><path
       id="path264"
       fill="#00f"
       d="m 695.50195,662.39258 -61.9414,15.23828 c 2.1062,4.8446 4.34655,9.93628 6.40625,14.58594 l 55.5664,-13.66992 v -6.74805 c 0,-3.95534 -0.0145,-6.65739 -0.0312,-9.40625 z" /><path
       id="path266"
       d="m 694.28906,648.64453 c -0.0744,0.006 -0.15287,0.0266 -0.23633,0.0586 -0.43643,0.16748 -4.94764,1.11452 -11.48632,2.4336 -13.97235,3.37681 -34.73289,7.59552 -45.01758,8.9414 -4.58266,0.95168 -7.91572,1.67594 -8.40235,1.85743 -2.04151,0.76138 -2.00142,0.91374 3.75,14.17578 0.20042,0.46214 0.45469,1.03794 0.66407,1.51953 l 61.9414,-15.23828 c -0.0679,-11.14243 -0.31738,-13.82254 -1.21289,-13.74805 z" /></g><g
     id="layer3"><path
       id="path129"
       d="m 196.46875,618.71484 0.60742,3.23633 c 0.33388,1.77975 3.14299,11.25573 6.24414,21.05664 3.10117,9.80091 5.83976,18.75701 6.08399,19.90235 l 0.44336,2.08203 h 59.58789 59.58984 v -23.13867 -23.13868 h -66.2793 z m 210.30078,0 v 23.13868 23.13867 h 59.63477 c 55.99044,0 59.66429,-0.10039 60.125,-1.6211 2.24305,-7.40389 11.66601,-42.49386 11.66601,-43.44336 0,-0.98706 -12.17785,-1.21289 -65.71289,-1.21289 z" /><path
       id="path225"
       fill="#0ff"
       d="m 196.46875,618.71484 0.60742,3.23633 c 0.33388,1.77975 3.143,11.25574 6.24414,21.05664 3.10117,9.8009 5.83976,18.75701 6.08399,19.90235 l 0.44336,2.08203 h 59.58789 59.58984 v -23.13867 -23.13868 h -66.2793 z m 210.30078,0 v 23.13868 23.13867 h 59.63477 c 55.99038,0 59.66429,-0.10039 60.125,-1.6211 2.24304,-7.40388 11.66601,-42.49386 11.66601,-43.44336 0,-0.98705 -12.1779,-1.21289 -65.71289,-1.21289 z" /><path
       id="path227"
       fill="#00f"
       d="m 200.74609,634.63086 c 0.83893,2.7519 1.61471,5.3445 2.57422,8.37695 0.95746,3.02595 1.05331,3.48465 1.87891,6.14453 h 123.82617 v -7.29882 -7.22266 z m 206.02344,0 v 7.22266 7.29882 h 123.68945 c 1.47392,-5.37443 2.51313,-9.07411 3.9629,-14.52148 z" /><path
       id="path229"
       d="m 196.46875,618.71484 0.60742,3.23633 c 0.23058,1.22909 1.79743,6.53743 3.66992,12.67969 h 128.2793 v -15.91602 h -66.2793 z m 210.30078,0 v 15.91602 h 127.65235 c 2.04222,-7.67351 3.77343,-14.31135 3.77343,-14.70313 0,-0.98705 -12.1779,-1.21289 -65.71289,-1.21289 z" /></g><g
     id="layer4"><path
       fill="#000"
       d="m 340.96206,231.49729 c -10.03818,-3.58773 -23.86825,-13.32396 -32.7506,-23.05612 -5.487,-6.01195 -6.02667,-6.96453 -6.02667,-10.63781 0,-3.02077 0.74478,-5.12299 2.96396,-8.36619 3.70209,-5.41036 17.76618,-19.60557 19.41398,-19.59497 0.98778,0.006 10.50333,24.82445 23.68377,61.77111 0.5351,1.49995 -2.9169,1.44497 -7.28444,-0.11602 z"
       id="path263"/><path
       fill="#000"
       d="m 345.0004,204.31024 c -10.9424,-30.27178 -11.70331,-32.57771 -10.98657,-33.29446 0.30007,-0.30007 3.75488,0.15961 7.67734,1.02151 3.92247,0.86189 12.56883,2.0047 19.21413,2.53956 11.87411,0.95571 12.28177,0.9246 23.65146,-1.80457 6.363,-1.52737 11.73849,-2.60914 11.94553,-2.40393 1.00591,0.99701 -39.92351,59.62528 -41.62544,59.62528 -0.32595,0 -4.77035,-11.55752 -9.87645,-25.68339 z"
       id="path265" /><path
       fill="#000"
       d="m 360.49304,235.18828 c 0,-0.9835 9.72467,-15.33014 28.41958,-41.92691 12.32941,-17.54074 17.59749,-24.3198 19.06641,-24.53503 3.84188,-0.56291 21.60453,24.06955 20.83406,28.89175 -0.16157,1.01121 -5.29161,7.83776 -11.4001,15.1701 -10.2933,12.35562 -11.56779,13.54831 -17.41018,16.29271 -3.46711,1.62864 -8.46496,3.55459 -11.10633,4.27988 -5.11077,1.40338 -28.40344,2.90205 -28.40344,1.8275 z"
       id="path267" /><path
       id="rect134"
       fill="#0ff"
       d="m 324.5625,169.8418 c -1.6478,-0.0106 -15.71198,14.18535 -19.41406,19.5957 -2.21918,3.2432 -2.96289,5.34447 -2.96289,8.36523 0,3.67328 0.53839,4.62673 6.02539,10.63868 8.88234,9.73215 22.71378,19.46891 32.75195,23.05664 4.36754,1.56099 7.8183,1.61518 7.2832,0.11523 C 335.06567,194.66666 325.55028,169.8478 324.5625,169.8418 Z" /><path
       id="rect595"
       fill="#00f"
       d="m 316.14453,177.09961 c -2.66315,2.66523 -5.45685,5.62529 -7.68164,8.19141 l 13.06641,35.06836 c 4.66262,3.49548 9.5199,6.55686 14.00781,8.7871 z" /><path
       id="rect566"
       d="m 324.5625,169.8418 c -0.78894,-0.005 -4.43657,3.2733 -8.41797,7.25781 l 19.39258,52.04687 c 1.88747,0.93797 3.71527,1.74022 5.42578,2.35157 4.36754,1.56099 7.8183,1.61518 7.2832,0.11523 C 335.06567,194.66666 325.55028,169.8478 324.5625,169.8418 Z" /><path
       id="path287"
       fill="#0ff"
       d="m 407.97852,168.72656 c -1.46892,0.21523 -6.73701,6.99444 -19.06641,24.53516 -18.69489,26.59674 -28.41992,40.94228 -28.41992,41.92578 0,1.07455 23.29353,-0.42279 28.40429,-1.82617 2.64137,-0.72529 7.63837,-2.65261 11.10547,-4.28125 5.84239,-2.7444 7.11687,-3.93541 17.41016,-16.29102 6.10848,-7.33233 11.23882,-14.16066 11.40039,-15.17187 0.77047,-4.8222 -16.99211,-29.45354 -20.83398,-28.89063 z" /><path
       id="path289"
       fill="#00f"
       d="m 416.27734,176.12891 -41.77148,58.94531 c 5.95661,-0.42656 12.06122,-1.07325 14.39062,-1.71289 0.19008,-0.0522 0.46665,-0.15077 0.67969,-0.21485 l 33.64258,-47.47265 c -2.12286,-3.26417 -4.58347,-6.6517 -6.94141,-9.54492 z" /><path
       id="path291"
       d="m 407.97852,168.72656 c -1.46892,0.21523 -6.73701,6.99444 -19.06641,24.53516 -18.69489,26.59674 -28.41992,40.94228 -28.41992,41.92578 0,0.58479 6.90137,0.39604 14.01367,-0.11328 l 41.77148,-58.94531 c -3.573,-4.38414 -6.88289,-7.60981 -8.29882,-7.40235 z" /></g></svg>
