<?xml version="1.0" encoding="UTF-8" standalone="no"?>
<!-- Created with Inkscape (http://www.inkscape.org/) -->

<svg
   version="1.1"
   id="svg2"
   width="734.66669"
   height="774.66669"
   viewBox="0 0 734.66669 774.66669"
   xml:space="preserve"
   xmlns="http://www.w3.org/2000/svg"
   xmlns:svg="http://www.w3.org/2000/svg"><defs
     id="defs12" /><g
     id="layer1"><path
       fill="#000"
       d="m 62.050437,701.69235 c -21.676062,-5.35796 -23.137635,-5.85149 -23.740082,-8.01631 -0.353083,-1.26877 -0.683485,-11.97987 -0.734226,-23.80246 l -0.09226,-21.49561 2.367257,0.90003 c 7.355747,2.79665 42.562296,10.33811 55.891559,11.97231 4.299655,0.52715 8.160235,1.30113 8.579065,1.71996 1.01798,1.01798 -0.66635,5.66672 -9.69967,26.77107 -4.192364,9.79452 -8.038966,17.77498 -8.548007,17.73434 -0.50904,-0.0406 -11.319677,-2.64313 -24.023639,-5.78333 z"
       id="path257" /><path
       id="path1799"
       d="m 37.484375,648.37891 0.0918,21.49414 c 0.05074,11.82258 0.381292,22.53396 0.734375,23.80273 0.43405,1.55971 1.435252,2.27795 10,4.54688 l 37.980469,9.0625 c 0.976768,-1.20098 4.506692,-8.60592 8.332031,-17.54297 7.06277,-16.5006 9.62116,-22.92399 9.91992,-25.43555 L 83.302734,659.23828 C 67.341187,656.31407 45.4781,651.41655 39.851562,649.27734 Z" /><path
       id="path1801"
       fill="#00f"
       d="m 37.583984,670.65234 c 0.02974,5.52166 0.116478,10.75995 0.240235,14.84766 l 53.0625,12.66211 c 1.164031,-2.54225 2.407574,-5.31559 3.736328,-8.41992 0.783381,-1.8302 1.441313,-3.38161 2.117187,-4.97266 z" /></g><g
     id="layer2"><path
       fill="#000"
       d="m 642.77674,698.54699 c -2.23639,-4.96587 -6.68251,-15.06183 -9.88028,-22.43548 -5.75143,-13.26205 -5.79187,-13.41492 -3.75035,-14.1763 1.13508,-0.42332 15.86975,-3.44581 32.74372,-6.71663 16.87397,-3.27083 31.34691,-6.2029 32.16209,-6.51571 1.33536,-0.51243 1.48215,1.77483 1.48215,23.09555 v 23.6643 l -3.47073,0.92953 c -1.9089,0.51124 -12.21697,3.03707 -22.90681,5.61295 -10.68985,2.57588 -20.08353,4.88305 -20.87486,5.12703 -1.07288,0.33079 -2.47288,-1.85258 -5.50493,-8.58524 z"
       id="path269"/><path
       id="path1815"
       d="m 694.28906,648.64453 c -0.0744,0.006 -0.15287,0.0266 -0.23633,0.0586 -0.29244,0.11223 -2.782,0.64308 -6.07031,1.32422 -8.95511,2.44314 -25.47135,6.04857 -38.30859,8.40039 l -21.24024,5.06836 c 0.22065,1.8549 1.70305,5.90971 5.29297,14.51563 3.10791,7.14455 6.98968,15.9585 9.05078,20.53516 1.94977,4.32945 3.21901,6.75898 4.16602,7.86718 l 37.72266,-9.00195 c 8.56475,-2.26893 9.56595,-2.98717 10,-4.54688 0.35308,-1.26876 0.68367,-11.98016 0.73437,-23.80273 l 0.0527,-12.11914 c -0.12225,-6.78603 -0.42378,-8.36041 -1.16406,-8.29883 z" /><path
       id="path1817"
       fill="#00f"
       d="m 695.39258,669.8418 -59.07227,14.09765 c 2.24994,5.13359 4.37613,9.95223 5.91211,13.37891 l 52.91992,-12.62891 c 0.12375,-4.0877 0.21054,-9.326 0.24024,-14.84765 z" /></g><g
     id="layer3"><path
       id="path129"
       d="m 196.46875,618.71484 0.60742,3.23633 c 0.33388,1.77975 3.14299,11.25573 6.24414,21.05664 3.10117,9.80091 5.83976,18.75701 6.08399,19.90235 l 0.44336,2.08203 h 59.58789 59.58984 v -23.13867 -23.13868 h -66.2793 z m 210.30078,0 v 23.13868 23.13867 h 59.63477 c 55.99044,0 59.66429,-0.10039 60.125,-1.6211 2.24305,-7.40389 11.66601,-42.49386 11.66601,-43.44336 0,-0.98706 -12.17785,-1.21289 -65.71289,-1.21289 z" /><path
       id="path1795"
       d="m 196.52344,619.00391 0.55273,2.94726 c 0.33388,1.77975 3.143,11.25574 6.24414,21.05664 3.10117,9.8009 5.83976,18.75701 6.08399,19.90235 l 0.44336,2.08203 h 59.58789 59.58984 v -23.13867 -22.84961 z m 210.24609,0 v 22.84961 23.13867 h 59.63477 c 55.99038,0 59.66429,-0.10039 60.125,-1.6211 2.24304,-7.40388 11.66601,-42.49386 11.66601,-43.44336 0,-0.45844 -3.17613,-0.74016 -11.35351,-0.92382 z" /><path
       id="path1797"
       fill="#00f"
       d="m 202.67578,640.91211 c 0.23555,0.75138 0.40447,1.33701 0.64453,2.0957 1.935,6.11534 2.66206,8.65261 3.79688,12.41797 h 121.9082 v -13.57226 -0.94141 z m 204.09375,0 v 0.94141 13.57226 h 121.95703 c 1.24935,-4.46106 2.40955,-8.56723 4.01172,-14.51367 z" /></g><g
     id="layer4"><path
       fill="#000"
       d="m 345.0004,204.31024 c -10.9424,-30.27178 -11.70331,-32.57771 -10.98657,-33.29446 0.30007,-0.30007 3.75488,0.15961 7.67734,1.02151 3.92247,0.86189 12.56883,2.0047 19.21413,2.53956 11.87411,0.95571 12.28177,0.9246 23.65146,-1.80457 6.363,-1.52737 11.73849,-2.60914 11.94553,-2.40393 1.00591,0.99701 -39.92351,59.62528 -41.62544,59.62528 -0.32595,0 -4.77035,-11.55752 -9.87645,-25.68339 z"
       id="path265" /><path
       fill="#000"
       d="m 360.49304,235.18828 c 0,-0.9835 9.72467,-15.33014 28.41958,-41.92691 12.32941,-17.54074 17.59749,-24.3198 19.06641,-24.53503 3.84188,-0.56291 21.60453,24.06955 20.83406,28.89175 -0.16157,1.01121 -5.29161,7.83776 -11.4001,15.1701 -10.2933,12.35562 -11.56779,13.54831 -17.41018,16.29271 -3.46711,1.62864 -8.46496,3.55459 -11.10633,4.27988 -5.11077,1.40338 -28.40344,2.90205 -28.40344,1.8275 z"
       id="path267" /><path
       fill="#000"
       d="m 340.96206,231.49729 c -10.03818,-3.58773 -23.86825,-13.32396 -32.7506,-23.05612 -5.487,-6.01195 -6.02667,-6.96453 -6.02667,-10.63781 0,-3.02077 0.74478,-5.12299 2.96396,-8.36619 3.70209,-5.41036 17.76618,-19.60557 19.41398,-19.59497 0.98778,0.006 10.50333,24.82445 23.68377,61.77111 0.5351,1.49995 -2.9169,1.44497 -7.28444,-0.11602 z"
       id="path263"/><path
       id="rect134"
       d="m 324.5625,169.8418 c -1.6478,-0.0106 -15.71198,14.18535 -19.41406,19.5957 -1.64909,2.41004 -2.48065,4.19049 -2.80078,6.18555 l 3.88281,10.61718 c 0.57974,0.65665 1.22438,1.37275 1.98047,2.20118 8.88234,9.73215 22.71378,19.46891 32.75195,23.05664 3.02428,1.08089 5.60591,1.43814 6.73242,1.05859 l -22.82812,-62.38867 c -0.13551,-0.20774 -0.2403,-0.32578 -0.30469,-0.32617 z" /><path
       id="rect372"
       fill="#00f"
       d="m 313.41406,179.89648 c -2.71882,2.83985 -5.3178,5.72222 -7.05078,7.91993 l 10.57617,28.90429 c 4.29461,3.59662 8.95129,6.92101 13.46485,9.61328 z" /><path
       id="path1838"
       d="m 410.03516,169.62891 -47.03907,65.91211 c 6.13501,0.11981 21.81446,-1.05772 25.90039,-2.17969 2.64137,-0.72529 7.63837,-2.65261 11.10547,-4.28125 3.65721,-1.71794 5.52747,-2.83054 8.9375,-6.45117 l 19.48047,-27.29493 c -2.24325,-6.60822 -13.16728,-21.82921 -18.38476,-25.70507 z" /><path
       id="path1840"
       fill="#00f"
       d="m 419.61914,180.4707 -38.56445,54.03907 c 3.42858,-0.35249 6.39222,-0.7504 7.84179,-1.14844 1.47235,-0.40429 3.67794,-1.19107 5.94141,-2.08203 l 30.32617,-42.49414 c -1.57845,-2.65623 -3.52347,-5.55354 -5.54492,-8.31446 z" /></g></svg>
