<?xml version="1.0" encoding="UTF-8" standalone="no"?>
<!-- Created with Inkscape (http://www.inkscape.org/) -->

<svg
   version="1.1"
   id="svg2"
   width="734.66669"
   height="774.66669"
   viewBox="0 0 734.66669 774.66669"
   xml:space="preserve"
   xmlns="http://www.w3.org/2000/svg"
   xmlns:svg="http://www.w3.org/2000/svg"><defs
     id="defs12" /><g
     id="layer1"><path
       fill="#000"
       d="m 62.050437,701.69235 c -21.676062,-5.35796 -23.137635,-5.85149 -23.740082,-8.01631 -0.353083,-1.26877 -0.683485,-11.97987 -0.734226,-23.80246 l -0.09226,-21.49561 2.367257,0.90003 c 7.355747,2.79665 42.562296,10.33811 55.891559,11.97231 4.299655,0.52715 8.160235,1.30113 8.579065,1.71996 1.01798,1.01798 -0.66635,5.66672 -9.69967,26.77107 -4.192364,9.79452 -8.038966,17.77498 -8.548007,17.73434 -0.50904,-0.0406 -11.319677,-2.64313 -24.023639,-5.78333 z"
       id="path257" /><path
       id="rect479-9"
       d="m 37.484375,648.37891 0.0918,21.49414 c 0.05074,11.82258 0.381292,22.53396 0.734375,23.80273 0.483833,1.7386 2.065393,2.52206 13.683594,5.49024 l 34.125,8.28125 c 0.635381,-0.29021 4.400378,-8.11811 8.503906,-17.70508 7.90176,-18.46073 10.1798,-24.33121 9.94531,-26.19336 L 94.271484,661.05078 C 80.025599,659.1002 46.960755,651.98025 39.851562,649.27734 Z" /><path
       id="rect488-9"
       fill="#0ff"
       d="m 37.560547,666.40625 0.01563,3.4668 c 0.01018,2.37223 0.03773,4.63027 0.06836,6.8457 l 56.660157,13.74805 c 0.109417,-0.25426 0.208412,-0.46775 0.318359,-0.72461 1.409409,-3.29277 2.58113,-6.06125 3.650391,-8.60157 z" /><path
       id="rect492"
       fill="#00f"
       d="m 37.732422,681.49805 c 0.01522,0.69928 0.0299,1.39828 0.04687,2.05468 l 53.826172,13.0625 c 0.25618,-0.5683 0.545532,-1.24928 0.810547,-1.8457 z" /><path
       id="rect490"
       fill="#00f"
       d="m 37.53125,659.39453 0.0098,2.06055 62.61132,15.19531 c 0.28918,-0.7009 0.50286,-1.24079 0.75977,-1.87305 z" /></g><g
     id="layer2"><path
       fill="#000"
       d="m 642.77674,698.54699 c -2.23639,-4.96587 -6.68251,-15.06183 -9.88028,-22.43548 -5.75143,-13.26205 -5.79187,-13.41492 -3.75035,-14.1763 1.13508,-0.42332 15.86975,-3.44581 32.74372,-6.71663 16.87397,-3.27083 31.34691,-6.2029 32.16209,-6.51571 1.33536,-0.51243 1.48215,1.77483 1.48215,23.09555 v 23.6643 l -3.47073,0.92953 c -1.9089,0.51124 -12.21697,3.03707 -22.90681,5.61295 -10.68985,2.57588 -20.08353,4.88305 -20.87486,5.12703 -1.07288,0.33079 -2.47288,-1.85258 -5.50493,-8.58524 z"
       id="path269" /><path
       id="path1005"
       d="m 694.89453,649.24219 -1.38476,0.52539 c -7.10919,2.70291 -40.17406,9.82286 -54.41993,11.77344 l -10.29687,2.49804 c -0.12827,1.0186 0.5413,3.33442 2.42578,8.15625 0.55394,1.29023 0.94673,2.23041 1.67773,3.91602 3.19777,7.37364 7.64448,17.46968 9.88086,22.43555 3.03205,6.73265 4.43103,8.91672 5.50391,8.58593 0.79133,-0.24398 10.18516,-2.55107 20.875,-5.12695 10.68983,-2.57588 20.99735,-5.10204 22.90625,-5.61328 l 1.01562,-0.27149 c 1.30313,-0.63861 1.76605,-1.21262 1.97266,-1.95507 0.17758,-0.63811 0.34897,-3.67423 0.48242,-8.0293 v -14.33789 c 0,-15.55348 -0.078,-20.95903 -0.63867,-22.55664 z" /><path
       id="path1007"
       fill="#0ff"
       d="m 695.51758,666.96484 -60.22852,14.61719 c 1.44375,3.3032 2.7143,6.20025 4.08399,9.29883 l 56.16015,-13.62695 v -5.45508 c 0,-2.03269 -0.012,-3.13324 -0.0156,-4.83399 z" /><path
       id="path1009"
       fill="#00f"
       d="m 695.5332,682.01172 -54.25195,13.16601 c 0.25613,0.57485 0.59097,1.33598 0.81836,1.84375 l 53.43359,-12.96679 z" /><path
       id="path1011"
       fill="#00f"
       d="m 695.49219,659.9668 -62.96485,15.28125 c 0.15222,0.35121 0.20804,0.4918 0.36914,0.86328 0.13192,0.30418 0.30158,0.6871 0.4375,1 L 695.5,662.02344 c -0.004,-0.5916 -0.003,-1.51629 -0.008,-2.05664 z" /></g><g
     id="layer3"><path
       id="path129"
       d="m 196.46875,618.71484 0.60742,3.23633 c 0.33388,1.77975 3.14299,11.25573 6.24414,21.05664 3.10117,9.80091 5.83976,18.75701 6.08399,19.90235 l 0.44336,2.08203 h 59.58789 59.58984 v -23.13867 -23.13868 h -66.2793 z m 210.30078,0 v 23.13868 23.13867 h 59.63477 c 55.99044,0 59.66429,-0.10039 60.125,-1.6211 2.24305,-7.40389 11.66601,-42.49386 11.66601,-43.44336 0,-0.98706 -12.17785,-1.21289 -65.71289,-1.21289 z" /><path
       id="path962"
       d="m 196.46875,618.71484 0.60742,3.23633 c 0.33388,1.77975 3.143,11.25574 6.24414,21.05664 3.10117,9.8009 5.83976,18.75701 6.08399,19.90235 l 0.44336,2.08203 h 59.58789 59.58984 v -23.13867 -23.13868 h -66.2793 z m 210.30078,0 v 23.13868 23.13867 h 59.63477 c 55.99038,0 59.66429,-0.10039 60.125,-1.6211 2.24304,-7.40388 11.66601,-42.49386 11.66601,-43.44336 0,-0.98705 -12.1779,-1.21289 -65.71289,-1.21289 z" /><path
       id="path964"
       fill="#0ff"
       d="m 201.50391,637.09961 c 0.62625,2.03129 1.13964,3.76935 1.8164,5.9082 0.6218,1.96512 0.64525,2.1492 1.22071,3.99024 h 124.48437 v -5.14453 -4.75391 z m 205.26562,0 v 4.75391 5.14453 h 124.28516 c 1.04781,-3.84045 1.67494,-6.01774 2.71289,-9.89844 z" /><path
       id="path966"
       fill="#00f"
       d="m 205.93945,651.57617 c 0.23637,0.76841 0.39222,1.27809 0.60157,1.96485 h 122.48437 v -1.96485 z m 200.83008,0 v 1.96485 h 122.47656 c 0.18223,-0.65571 0.34928,-1.2633 0.54297,-1.96485 z" /><path
       id="path968"
       fill="#00f"
       d="m 199.43359,630.36133 c 0.17187,0.57646 0.42241,1.36469 0.60743,1.97851 h 128.98437 v -1.97851 z m 207.33594,0 v 1.97851 h 128.25781 c 0.17654,-0.66674 0.35906,-1.34708 0.52539,-1.97851 z" /></g><g
     id="layer4"><path
       fill="#000"
       d="m 340.96206,231.49729 c -10.03818,-3.58773 -23.86825,-13.32396 -32.7506,-23.05612 -5.487,-6.01195 -6.02667,-6.96453 -6.02667,-10.63781 0,-3.02077 0.74478,-5.12299 2.96396,-8.36619 3.70209,-5.41036 17.76618,-19.60557 19.41398,-19.59497 0.98778,0.006 10.50333,24.82445 23.68377,61.77111 0.5351,1.49995 -2.9169,1.44497 -7.28444,-0.11602 z"
       id="path263" /><path
       fill="#000"
       d="m 345.0004,204.31024 c -10.9424,-30.27178 -11.70331,-32.57771 -10.98657,-33.29446 0.30007,-0.30007 3.75488,0.15961 7.67734,1.02151 3.92247,0.86189 12.56883,2.0047 19.21413,2.53956 11.87411,0.95571 12.28177,0.9246 23.65146,-1.80457 6.363,-1.52737 11.73849,-2.60914 11.94553,-2.40393 1.00591,0.99701 -39.92351,59.62528 -41.62544,59.62528 -0.32595,0 -4.77035,-11.55752 -9.87645,-25.68339 z"
       id="path265" /><path
       fill="#000"
       d="m 360.49304,235.18828 c 0,-0.9835 9.72467,-15.33014 28.41958,-41.92691 12.32941,-17.54074 17.59749,-24.3198 19.06641,-24.53503 3.84188,-0.56291 21.60453,24.06955 20.83406,28.89175 -0.16157,1.01121 -5.29161,7.83776 -11.4001,15.1701 -10.2933,12.35562 -11.56779,13.54831 -17.41018,16.29271 -3.46711,1.62864 -8.46496,3.55459 -11.10633,4.27988 -5.11077,1.40338 -28.40344,2.90205 -28.40344,1.8275 z"
       id="path267" /><path
       id="path970"
       d="m 324.5625,169.8418 c -1.6478,-0.0106 -15.71198,14.18535 -19.41406,19.5957 -2.21918,3.2432 -2.96289,5.34447 -2.96289,8.36523 0,0.71319 0.0364,1.30999 0.10937,1.875 l 1.12305,2.99415 c 0.86414,1.37173 2.30216,3.04042 4.79297,5.76953 8.88234,9.73215 22.71378,19.46891 32.75195,23.05664 4.36754,1.56099 7.8183,1.61518 7.2832,0.11523 C 335.06567,194.66666 325.55028,169.8478 324.5625,169.8418 Z" /><path
       id="path972"
       fill="#0ff"
       d="m 315.05469,178.19922 c -1.80139,1.83451 -3.6125,3.74951 -5.23633,5.55859 l 14.48437,38.61719 c 3.19898,2.24395 6.43166,4.24324 9.53125,5.89258 z" /><path
       id="path974"
       fill="#00f"
       d="m 307.45117,186.47852 c -0.35698,0.4268 -0.68604,0.83246 -0.99414,1.2207 l 11.07227,29.51758 c 0.68566,0.56583 1.37915,1.12383 2.08008,1.67382 z" /><path
       id="path976"
       fill="#00f"
       d="m 318.6875,174.5957 c -0.34072,0.3254 -0.71453,0.70569 -1.06836,1.05078 l 20.52148,54.7129 c 0.58745,0.25644 1.1647,0.49539 1.73243,0.71679 z" /><path
       id="path1053"
       d="m 408.00781,168.72852 -46.78125,65.00781 c -0.43915,0.75141 -0.73437,1.30295 -0.73437,1.45117 0,1.07455 23.29353,-0.42279 28.40429,-1.82617 2.64137,-0.72529 7.63837,-2.65261 11.10547,-4.28125 3.64091,-1.71028 5.51138,-2.82203 8.89258,-6.4043 l 19.57227,-27.19922 c -2.4764,-7.58271 -16.97406,-27.14765 -20.45899,-26.74804 z" /><path
       id="path1055"
       fill="#0ff"
       d="m 417.37891,177.51562 -41.33985,57.44532 c 3.36999,-0.26309 6.58389,-0.58689 9.1211,-0.93946 l 36.48632,-50.70117 c -1.37179,-1.99535 -2.82396,-3.96559 -4.26757,-5.80469 z" /><path
       id="path1057"
       fill="#00f"
       d="m 423.52734,186.14062 -33.79296,46.95508 c 0.66649,-0.20388 1.3813,-0.43719 2.20117,-0.72851 l 32.36914,-44.97657 c -0.25882,-0.4169 -0.50478,-0.8259 -0.77735,-1.25 z" /><path
       id="path1059"
       fill="#00f"
       d="m 414.30078,173.80273 -44.29297,61.54883 c 0.58184,-0.0299 1.15319,-0.0577 1.75586,-0.0937 l 43.45899,-60.38867 c -0.31138,-0.3669 -0.61841,-0.7231 -0.92188,-1.06641 z" /></g></svg>
