<?xml version="1.0" encoding="UTF-8" standalone="no"?>
<!-- Created with Inkscape (http://www.inkscape.org/) -->

<svg
   version="1.1"
   id="svg2"
   width="734.66669"
   height="774.66669"
   viewBox="0 0 734.66669 774.66669"
   xml:space="preserve"
   xmlns="http://www.w3.org/2000/svg"
   xmlns:svg="http://www.w3.org/2000/svg"><defs
     id="defs12" /><g
     id="layer1"><path
       fill="#000000"
       d="m 62.050437,701.69235 c -21.676062,-5.35796 -23.137635,-5.85149 -23.740082,-8.01631 -0.353083,-1.26877 -0.683485,-11.97987 -0.734226,-23.80246 l -0.09226,-21.49561 2.367257,0.90003 c 7.355747,2.79665 42.562296,10.33811 55.891559,11.97231 4.299655,0.52715 8.160235,1.30113 8.579065,1.71996 1.01798,1.01798 -0.66635,5.66672 -9.69967,26.77107 -4.192364,9.79452 -8.038966,17.77498 -8.548007,17.73434 -0.50904,-0.0406 -11.319677,-2.64313 -24.023639,-5.78333 z"
       id="path257" /></g><g
     id="layer2"><path
       fill="#000000"
       d="m 642.77674,698.54699 c -2.23639,-4.96587 -6.68251,-15.06183 -9.88028,-22.43548 -5.75143,-13.26205 -5.79187,-13.41492 -3.75035,-14.1763 1.13508,-0.42332 15.86975,-3.44581 32.74372,-6.71663 16.87397,-3.27083 31.34691,-6.2029 32.16209,-6.51571 1.33536,-0.51243 1.48215,1.77483 1.48215,23.09555 v 23.6643 l -3.47073,0.92953 c -1.9089,0.51124 -12.21697,3.03707 -22.90681,5.61295 -10.68985,2.57588 -20.08353,4.88305 -20.87486,5.12703 -1.07288,0.33079 -2.47288,-1.85258 -5.50493,-8.58524 z"
       id="path269" /></g><g
     id="layer3"><path
       id="path129"
       d="m 196.46875,618.71484 0.60742,3.23633 c 0.33388,1.77975 3.14299,11.25573 6.24414,21.05664 3.10117,9.80091 5.83976,18.75701 6.08399,19.90235 l 0.44336,2.08203 h 59.58789 59.58984 v -23.13867 -23.13868 h -66.2793 z m 210.30078,0 v 23.13868 23.13867 h 59.63477 c 55.99044,0 59.66429,-0.10039 60.125,-1.6211 2.24305,-7.40389 11.66601,-42.49386 11.66601,-43.44336 0,-0.98706 -12.17785,-1.21289 -65.71289,-1.21289 z" /></g><g
     id="layer4"><path
       fill="#000000"
       d="m 344.6378,204.44885 c -11.09247,-30.68693 -11.86381,-33.02449 -11.13724,-33.75107 0.30419,-0.30419 3.80638,0.1618 7.78263,1.03552 3.97626,0.87371 12.7412,2.03219 19.47764,2.57439 12.03696,0.96881 12.4502,0.93727 23.97582,-1.82932 6.45026,-1.54832 11.89948,-2.64492 12.10935,-2.4369 1.01971,1.01068 -40.47103,60.443 -42.1963,60.443 -0.33042,0 -4.83577,-11.71603 -10.0119,-26.03562 z"
       id="path265"
       style="stroke-width:1.01372" /><path
       fill="#000000"
       d="m 360.15844,235.51013 c 0,-0.99795 9.8675,-15.55531 28.837,-42.54271 12.51049,-17.79836 17.85594,-24.67699 19.34643,-24.89539 3.89831,-0.57117 21.92184,24.42307 21.14006,29.3161 -0.16394,1.02606 -5.36932,7.95287 -11.56753,15.39291 -10.44448,12.53709 -11.73769,13.7473 -17.6659,16.53201 -3.51802,1.65255 -8.58928,3.60679 -11.26944,4.34273 -5.18583,1.424 -28.82062,2.94468 -28.82062,1.85435 z"
       id="path267"
       style="stroke-width:1.0147" /><path
       fill="#000000"
       d="m 341.0875,232.13289 c -10.19493,-3.64376 -24.24098,-13.53203 -33.26204,-23.41617 -5.57269,-6.10583 -6.12078,-7.07329 -6.12078,-10.80393 0,-3.06795 0.75641,-5.20299 3.01024,-8.49684 3.75991,-5.49486 18.04363,-19.91174 19.71716,-19.90097 1.0032,0.006 10.66735,25.21211 24.05362,62.73574 0.54346,1.52338 -2.96245,1.46753 -7.3982,-0.11783 z"
       id="path263"
       style="stroke-width:1.01562" /></g></svg>
