<?xml version="1.0" encoding="UTF-8" standalone="no"?>
<!-- Created with Inkscape (http://www.inkscape.org/) -->

<svg
   version="1.1"
   id="svg2"
   width="734.66669"
   height="774.66669"
   viewBox="0 0 734.66669 774.66669"
   xml:space="preserve"
   xmlns="http://www.w3.org/2000/svg"
   xmlns:svg="http://www.w3.org/2000/svg"><defs
     id="defs12" /><g
     id="layer1"><path
       fill="#000"
       d="m 62.050437,701.69235 c -21.676062,-5.35796 -23.137635,-5.85149 -23.740082,-8.01631 -0.353083,-1.26877 -0.683485,-11.97987 -0.734226,-23.80246 l -0.09226,-21.49561 2.367257,0.90003 c 7.355747,2.79665 42.562296,10.33811 55.891559,11.97231 4.299655,0.52715 8.160235,1.30113 8.579065,1.71996 1.01798,1.01798 -0.66635,5.66672 -9.69967,26.77107 -4.192364,9.79452 -8.038966,17.77498 -8.548007,17.73434 -0.50904,-0.0406 -11.319677,-2.64313 -24.023639,-5.78333 z"
       id="path257" /><path
       id="path1999"
       fill="#00f"
       d="m 37.488281,649.39062 0.08789,20.48243 c 0.05074,11.82258 0.381292,22.53396 0.734375,23.80273 0.485973,1.74629 2.101412,2.53328 13.865234,5.53516 l 30.035157,7.38476 c 2.109108,0.49855 3.695315,0.86747 3.863281,0.88086 0.50904,0.0406 4.356468,-7.93986 8.548828,-17.73437 5.959634,-13.92336 8.706944,-20.66207 9.603514,-23.94336 z" /><path
       id="path2001"
       fill="#00f"
       d="m 37.488281,649.38672 0.08789,20.48633 c 0.0039,0.91911 0.02014,1.75058 0.02734,2.65234 l 58.251953,14.32227 c 5.059806,-11.86807 7.543596,-18.02114 8.371096,-21.05078 z" /><path
       id="path2003"
       d="m 37.488281,649.38477 0.03516,8.04492 64.037109,15.74414 c 1.38306,-3.46095 2.24748,-5.84007 2.66797,-7.38086 z" /><path
       id="path2005"
       fill="#0ff"
       d="m 37.523438,657.42969 0.0293,7.03906 61.382813,15.09375 c 1.023403,-2.4457 1.912659,-4.60615 2.624999,-6.38867 z" /><path
       id="path2007"
       fill="#00f"
       d="m 37.603516,672.5332 c 0.08555,10.69425 0.381479,19.97274 0.707031,21.14258 0.516427,1.85572 2.476263,2.66722 16.447265,6.1836 l 25.832032,6.35156 c 3.053706,0.72893 5.277176,1.2491 5.484375,1.26562 0.50904,0.0406 4.356468,-7.93986 8.548828,-17.73437 0.454996,-1.063 0.810214,-1.90753 1.228515,-2.88867 z" /><path
       id="path2009"
       d="m 37.603516,672.5293 c 0.02289,2.86283 0.05872,5.53937 0.109375,8.0625 l 54.990234,13.52148 c 0.634057,-1.43407 1.256715,-2.82166 1.919922,-4.37109 0.455368,-1.06387 0.811855,-1.90875 1.230469,-2.89063 z" /><path
       id="path2011"
       fill="#0ff"
       d="m 37.712891,680.5918 c 0.0546,2.71943 0.121683,5.05956 0.199218,7.08203 l 51.917969,12.76562 c 0.877665,-1.86769 1.832703,-3.97319 2.873047,-6.32617 z" /></g><g
     id="layer2"><path
       fill="#000"
       d="m 642.77674,698.54699 c -2.23639,-4.96587 -6.68251,-15.06183 -9.88028,-22.43548 -5.75143,-13.26205 -5.79187,-13.41492 -3.75035,-14.1763 1.13508,-0.42332 15.86975,-3.44581 32.74372,-6.71663 16.87397,-3.27083 31.34691,-6.2029 32.16209,-6.51571 1.33536,-0.51243 1.48215,1.77483 1.48215,23.09555 v 23.6643 l -3.47073,0.92953 c -1.9089,0.51124 -12.21697,3.03707 -22.90681,5.61295 -10.68985,2.57588 -20.08353,4.88305 -20.87486,5.12703 -1.07288,0.33079 -2.47288,-1.85258 -5.50493,-8.58524 z"
       id="path269" /><path
       id="path2041"
       fill="#00f"
       d="m 695.04883,649.85742 -66.23047,16.2832 c 0.10255,0.37531 0.23689,0.81229 0.38867,1.28126 0.79528,1.99075 1.95733,4.69539 3.68945,8.68945 3.19777,7.37364 7.64448,17.46968 9.88086,22.43555 3.03205,6.73265 4.43103,8.91672 5.50391,8.58593 0.79133,-0.24398 10.18516,-2.55107 20.875,-5.12695 10.68983,-2.57588 20.99735,-5.10204 22.90625,-5.61328 l 3.4707,-0.92969 v -23.66406 c 0,-13.97927 -0.0645,-19.75123 -0.48437,-21.94141 z" /><path
       id="path2043"
       fill="#00f"
       d="m 695.04883,649.85352 -66.23047,16.28515 c 0.10183,0.37281 0.23036,0.79778 0.38281,1.26758 0.79516,1.99172 1.95856,4.70035 3.69531,8.70508 1.51105,3.48427 3.30611,7.5836 5.00977,11.45508 l 57.62695,-14.16993 v -1.59765 c 0,-13.98731 -0.0639,-19.75802 -0.48437,-21.94531 z" /><path
       id="path2045"
       d="m 695.04883,649.85156 -66.23242,16.28321 c 0.10325,0.37833 0.23599,0.81246 0.39257,1.29296 0.58183,1.4561 1.55303,3.72269 2.6211,6.19532 l 63.64062,-15.64649 c -0.0624,-4.38493 -0.18358,-6.88727 -0.42187,-8.125 z" /><path
       id="path2047"
       fill="#0ff"
       d="m 695.4707,657.97656 -63.64062,15.64649 c 0.39192,0.90731 0.60189,1.41717 1.0664,2.48828 0.53022,1.2226 1.17473,2.68304 1.75782,4.01953 l 60.85547,-14.96289 c -0.009,-2.55724 -0.0132,-5.37572 -0.0391,-7.19141 z" /><path
       id="path2049"
       fill="#00f"
       d="m 695.5332,673.4043 -57.625,14.16797 c 1.90081,4.31944 3.69004,8.35642 4.86914,10.97461 3.03205,6.73265 4.43103,8.91672 5.50391,8.58593 0.79133,-0.24398 10.18516,-2.55107 20.875,-5.12695 10.68983,-2.57588 20.99735,-5.10204 22.90625,-5.61328 l 3.4707,-0.92969 z" /><path
       id="path2051"
       d="m 695.5332,673.40039 -57.625,14.16992 c 1.27944,2.90745 2.26147,5.11266 3.28907,7.41992 l 54.33593,-13.36132 z" /><path
       id="path2053"
       fill="#0ff"
       d="m 695.5332,681.62891 -54.33593,13.36132 c 0.49927,1.12102 1.19447,2.70041 1.58007,3.55665 0.49932,1.10873 0.93885,2.05275 1.35547,2.92382 l 51.40039,-12.63867 z" /></g><g
     id="layer3"><path
       id="path129"
       d="m 196.46875,618.71484 0.60742,3.23633 c 0.33388,1.77975 3.14299,11.25573 6.24414,21.05664 3.10117,9.80091 5.83976,18.75701 6.08399,19.90235 l 0.44336,2.08203 h 59.58789 59.58984 v -23.13867 -23.13868 h -66.2793 z m 210.30078,0 v 23.13868 23.13867 h 59.63477 c 55.99044,0 59.66429,-0.10039 60.125,-1.6211 2.24305,-7.40389 11.66601,-42.49386 11.66601,-43.44336 0,-0.98706 -12.17785,-1.21289 -65.71289,-1.21289 z" /><path
       id="path1957"
       fill="#00f"
       d="m 196.46875,618.71484 0.60742,3.23633 c 0.33388,1.77975 3.143,11.25574 6.24414,21.05664 3.10117,9.8009 5.83976,18.75701 6.08399,19.90235 l 0.44336,2.08203 h 59.58789 59.58984 v -23.13867 -23.13868 h -66.2793 z m 210.30078,0 v 23.13868 23.13867 h 59.63477 c 55.99038,0 59.66429,-0.10039 60.125,-1.6211 2.24304,-7.40388 11.66601,-42.49386 11.66601,-43.44336 0,-0.98705 -12.1779,-1.21289 -65.71289,-1.21289 z" /><path
       id="path1959"
       fill="#00f"
       d="m 196.46875,618.71484 0.60742,3.23633 c 0.32993,1.75871 3.08913,11.05991 6.14649,20.73633 h 125.80273 v -0.83398 -23.13868 h -66.2793 z m 210.30078,0 v 23.13868 0.83398 h 125.47656 c 3.05698,-11.30614 5.94922,-22.21699 5.94922,-22.75977 0,-0.98705 -12.1779,-1.21289 -65.71289,-1.21289 z" /><path
       id="path1961"
       d="m 196.46875,618.71484 0.60742,3.23633 c 0.11166,0.5952 0.81086,2.98829 1.39453,5.0293 h 130.55469 v -8.26563 h -66.2793 z m 210.30078,0 v 8.26563 h 129.67774 c 1.02894,-3.9498 1.74804,-6.79901 1.74804,-7.05274 0,-0.98705 -12.1779,-1.21289 -65.71289,-1.21289 z" /><path
       id="path1963"
       fill="#0ff"
       d="m 198.4707,626.98047 c 0.60083,2.101 1.25039,4.28796 2.17578,7.32812 h 128.37891 v -7.32812 z m 208.29883,0 v 7.32812 h 127.73633 c 0.68486,-2.57507 1.40513,-5.26954 1.94141,-7.32812 z" /><path
       id="path1965"
       fill="#00f"
       d="m 203.22461,642.69531 c 0.0357,0.113 0.0599,0.19941 0.0957,0.3125 3.10117,9.8009 5.83976,18.75701 6.08399,19.90235 l 0.44336,2.08203 h 59.58789 59.58984 v -22.29688 z m 203.54492,0 v 22.29688 h 59.63477 c 55.99038,0 59.66429,-0.10039 60.125,-1.6211 0.96047,-3.17033 3.42497,-12.20687 5.71484,-20.67578 z" /><path
       id="path1967"
       d="m 203.22461,642.69336 c 0.0359,0.11364 0.0597,0.20071 0.0957,0.31445 1.25566,3.96838 1.46763,4.82963 2.46289,8.0586 h 123.24219 v -8.37305 z m 203.54492,0 v 8.37305 h 123.16211 c 0.83656,-3.03458 1.38712,-4.94338 2.31445,-8.37305 z" /><path
       id="path1969"
       fill="#0ff"
       d="m 205.7832,651.06445 c 0.90516,2.93659 1.77381,5.73296 2.24024,7.32813 h 121.00195 v -7.32813 z m 200.98633,0 v 7.32813 h 121.13672 c 0.53834,-1.8904 1.2932,-4.67214 2.02539,-7.32813 z" /></g><g
     id="layer4"><path
       fill="#000"
       d="m 340.96206,231.49729 c -10.03818,-3.58773 -23.86825,-13.32396 -32.7506,-23.05612 -5.487,-6.01195 -6.02667,-6.96453 -6.02667,-10.63781 0,-3.02077 0.74478,-5.12299 2.96396,-8.36619 3.70209,-5.41036 17.76618,-19.60557 19.41398,-19.59497 0.98778,0.006 10.50333,24.82445 23.68377,61.77111 0.5351,1.49995 -2.9169,1.44497 -7.28444,-0.11602 z"
       id="path263"/><path
       fill="#000"
       d="m 345.0004,204.31024 c -10.9424,-30.27178 -11.70331,-32.57771 -10.98657,-33.29446 0.30007,-0.30007 3.75488,0.15961 7.67734,1.02151 3.92247,0.86189 12.56883,2.0047 19.21413,2.53956 11.87411,0.95571 12.28177,0.9246 23.65146,-1.80457 6.363,-1.52737 11.73849,-2.60914 11.94553,-2.40393 1.00591,0.99701 -39.92351,59.62528 -41.62544,59.62528 -0.32595,0 -4.77035,-11.55752 -9.87645,-25.68339 z"
       id="path265" /><path
       fill="#000"
       d="m 360.49304,235.18828 c 0,-0.9835 9.72467,-15.33014 28.41958,-41.92691 12.32941,-17.54074 17.59749,-24.3198 19.06641,-24.53503 3.84188,-0.56291 21.60453,24.06955 20.83406,28.89175 -0.16157,1.01121 -5.29161,7.83776 -11.4001,15.1701 -10.2933,12.35562 -11.56779,13.54831 -17.41018,16.29271 -3.46711,1.62864 -8.46496,3.55459 -11.10633,4.27988 -5.11077,1.40338 -28.40344,2.90205 -28.40344,1.8275 z"
       id="path267" /><path
       id="path1971"
       fill="#00f"
       d="m 410.09766,169.67773 -49.57422,65.41602 c -0.006,0.0248 -0.0312,0.0768 -0.0312,0.0937 0,1.07455 23.29353,-0.42279 28.40429,-1.82617 2.64137,-0.72529 7.63837,-2.65261 11.10547,-4.28125 5.84239,-2.7444 7.11687,-3.93541 17.41016,-16.29102 6.10848,-7.33233 11.23882,-14.16066 11.40039,-15.17187 0.67098,-4.19949 -12.70937,-23.41638 -18.71484,-27.93946 z" /><path
       id="path1973"
       fill="#00f"
       d="m 410.09766,169.67773 -49.57227,65.41211 c -0.006,0.0263 -0.0332,0.08 -0.0332,0.0977 0,0.77695 12.13354,0.20372 20.81054,-0.70117 l 39.58985,-52.24219 c -3.78006,-5.36854 -8.0513,-10.50002 -10.79492,-12.56641 z" /><path
       id="path1975"
       d="m 410.0957,169.67578 -49.56836,65.41016 c -0.007,0.0278 -0.0351,0.0832 -0.0351,0.10156 0,0.37431 2.90498,0.42449 6.80469,0.28711 l 46.85937,-61.83203 c -1.51871,-1.70584 -2.92496,-3.11192 -4.06055,-3.9668 z" /><path
       id="path1977"
       fill="#0ff"
       d="m 414.15625,173.64258 -46.85937,61.83203 c 1.97355,-0.0695 4.14724,-0.18668 6.44335,-0.34375 l 43.65235,-57.59766 c -1.10627,-1.40997 -2.19522,-2.72123 -3.23633,-3.89062 z" /><path
       id="path1979"
       fill="#00f"
       d="m 420.89453,182.25 -39.58398,52.23438 c 3.32017,-0.34641 6.17161,-0.73469 7.58593,-1.12305 2.64137,-0.72529 7.63837,-2.65261 11.10547,-4.28125 5.84239,-2.7444 7.11687,-3.93541 17.41016,-16.29102 6.10848,-7.33233 11.23882,-14.16066 11.40039,-15.17187 0.36435,-2.28036 -3.42542,-8.98607 -7.91797,-15.36719 z" /><path
       id="path1981"
       d="m 420.89453,182.24805 -39.58594,52.23828 c 3.32108,-0.34646 6.17328,-0.73656 7.58789,-1.125 0.12124,-0.0333 0.30281,-0.0985 0.4336,-0.13672 l 34.86523,-46.00977 c -1.01501,-1.62666 -2.12748,-3.30031 -3.30078,-4.96679 z" /><path
       id="path1983"
       fill="#0ff"
       d="m 424.19531,187.21484 -34.86523,46.00977 c 2.20678,-0.64461 5.62674,-1.93756 8.64062,-3.24414 l 28.89258,-38.12695 c -0.73864,-1.42935 -1.64203,-2.9945 -2.66797,-4.63868 z" /><path
       id="path2106"
       fill="#00f"
       d="m 324.5625,169.8418 c -1.6478,-0.0106 -15.71198,14.18535 -19.41406,19.5957 -2.21918,3.2432 -2.96289,5.34447 -2.96289,8.36523 0,3.67328 0.53839,4.62673 6.02539,10.63868 8.88234,9.73215 22.71378,19.46891 32.75195,23.05664 4.36754,1.56099 7.8183,1.61518 7.2832,0.11523 -3.24838,-9.10569 -6.26767,-17.45597 -8.99804,-24.89844 l -14.52149,-36.74023 c -0.0661,-0.0782 -0.1247,-0.13257 -0.16406,-0.13281 z" /><path
       id="path2108"
       fill="#00f"
       d="m 324.5625,169.8418 c -1.07207,-0.007 -7.3771,5.98982 -12.6875,11.67773 l 17.45703,44.16016 c 4.09197,2.51822 8.09738,4.55546 11.63086,5.81836 4.36754,1.56099 7.8183,1.61518 7.2832,0.11523 -3.25349,-9.12002 -6.27797,-17.48428 -9.01171,-24.93555 l -14.50782,-36.70117 c -0.0665,-0.0789 -0.12452,-0.13452 -0.16406,-0.13476 z" /><path
       id="path2110"
       d="m 324.5625,169.8418 c -0.51478,-0.003 -2.30301,1.46265 -4.54688,3.53125 l 23.25196,58.82031 c 3.19099,0.81299 5.41405,0.64077 4.97851,-0.58008 -3.26044,-9.13949 -6.29098,-17.52314 -9.02929,-24.98633 l -14.48438,-36.64453 c -0.0687,-0.0827 -0.12945,-0.14038 -0.16992,-0.14062 z" /><path
       id="path2112"
       fill="#0ff"
       d="m 320.01562,173.37305 c -1.18513,1.09257 -2.46647,2.32163 -3.83789,3.69336 l 20.87696,52.8164 c 1.34985,0.62509 2.65895,1.16875 3.9082,1.61524 0.81268,0.29045 1.5752,0.50945 2.30469,0.69531 z" /><path
       id="path2114"
       fill="#00f"
       d="m 311.87305,181.52344 c -2.85067,3.05347 -5.43156,6.02436 -6.72461,7.91406 -2.21918,3.2432 -2.96289,5.34447 -2.96289,8.36523 0,3.67328 0.53839,4.62673 6.02539,10.63868 5.75419,6.30471 13.58426,12.59897 21.11523,17.23437 z" /><path
       id="path2116"
       d="m 311.87305,181.52344 c -1.53428,1.64343 -2.98827,3.25405 -4.20117,4.6914 l 13.34374,33.75391 c 2.73417,2.07496 5.54115,4.0033 8.3125,5.70898 z" /><path
       id="path2118"
       fill="#0ff"
       d="m 307.67188,186.21484 c -1.04066,1.23324 -1.92633,2.35002 -2.52344,3.22266 -0.34989,0.51134 -0.65024,0.98653 -0.92969,1.44922 l 8.87109,22.44336 c 2.48244,2.30341 5.16207,4.54129 7.92578,6.63867 z" /></g></svg>
