<?xml version="1.0" encoding="UTF-8" standalone="no"?>
<!-- Created with Inkscape (http://www.inkscape.org/) -->

<svg
   version="1.1"
   id="svg2"
   width="734.66669"
   height="774.66669"
   viewBox="0 0 734.66669 774.66669"
   xml:space="preserve"
   xmlns="http://www.w3.org/2000/svg"
   xmlns:svg="http://www.w3.org/2000/svg"><defs
     id="defs12" /><g
     id="layer1">
     <path
       fill="#000"
       d="m 62.050437,701.69235 c -21.676062,-5.35796 -23.137635,-5.85149 -23.740082,-8.01631 -0.353083,-1.26877 -0.683485,-11.97987 -0.734226,-23.80246 l -0.09226,-21.49561 2.367257,0.90003 c 7.355747,2.79665 42.562296,10.33811 55.891559,11.97231 4.299655,0.52715 8.160235,1.30113 8.579065,1.71996 1.01798,1.01798 -0.66635,5.66672 -9.69967,26.77107 -4.192364,9.79452 -8.038966,17.77498 -8.548007,17.73434 -0.50904,-0.0406 -11.319677,-2.64313 -24.023639,-5.78333 z"
       id="path257" />
       <path
       id="path244"
       d="m 38.984375,648.94727 -1.482422,3.43359 0.07422,17.49219 c 0.05074,11.82258 0.381292,22.53396 0.734375,23.80273 0.602446,2.16482 2.064194,2.65767 23.740234,8.01563 12.70395,3.14019 23.514398,5.74455 24.023438,5.78515 0.50904,0.0406 4.356468,-7.93986 8.548828,-17.73437 9.033312,-21.10433 10.717192,-25.75351 9.699222,-26.77149 -0.0219,-0.0219 -0.0906,-0.0485 -0.13086,-0.0723 l -4.494143,-1.06446 C 98.479,661.6272 97.165659,661.42452 95.742188,661.25 82.412938,659.6158 47.207302,652.07399 39.851562,649.27734 Z" />
       <path
       id="path246"
       fill="#00f"
       d="m 37.517578,656.01562 0.04883,11.70704 60.341797,14.29101 c 1.925966,-4.56268 3.336945,-8.00375 4.369135,-10.66211 z" />
       <path
       id="path248"
       fill="#0ff"
       d="m 37.53125,659.42578 0.02148,5.00781 61.607422,14.5918 c 0.704057,-1.68631 1.328668,-3.20719 1.876958,-4.56055 z" />
       <path
       id="path250"
       fill="#00f"
       d="m 37.640625,676.2832 c 0.06167,4.66916 0.162786,8.65818 0.287109,11.76368 l 51.945313,12.30078 c 1.400328,-2.98334 3.007074,-6.53515 4.736328,-10.57422 z" />
       <path
       id="path252"
       fill="#0ff"
       d="m 37.691406,679.70117 c 0.03313,1.79263 0.07138,3.49055 0.115235,5.03125 l 53.441406,12.65625 c 0.638285,-1.4052 1.313488,-2.9486 2.005859,-4.52929 z" />
       </g><g
     id="layer2">
     <path
       fill="#000"
       d="m 642.77674,698.54699 c -2.23639,-4.96587 -6.68251,-15.06183 -9.88028,-22.43548 -5.75143,-13.26205 -5.79187,-13.41492 -3.75035,-14.1763 1.13508,-0.42332 15.86975,-3.44581 32.74372,-6.71663 16.87397,-3.27083 31.34691,-6.2029 32.16209,-6.51571 1.33536,-0.51243 1.48215,1.77483 1.48215,23.09555 v 23.6643 l -3.47073,0.92953 c -1.9089,0.51124 -12.21697,3.03707 -22.90681,5.61295 -10.68985,2.57588 -20.08353,4.88305 -20.87486,5.12703 -1.07288,0.33079 -2.47288,-1.85258 -5.50493,-8.58524 z"
       id="path269" />
       <path
       id="path287"
       d="m 694.40234,649.82227 -0.86718,0.33007 c -7.35575,2.79665 -42.56139,10.33846 -55.89063,11.97266 -1.42347,0.17452 -2.73682,0.3772 -3.95508,0.58398 l -4.49414,1.06446 c -0.0403,0.0238 -0.10896,0.0504 -0.13086,0.0723 -0.5057,0.50571 -0.33907,1.91885 1.0586,5.78907 0.73797,1.75661 1.56454,3.68899 2.77343,6.47656 3.19777,7.37364 7.64448,17.46968 9.88086,22.43555 3.03205,6.73265 4.43103,8.91672 5.50391,8.58593 0.79133,-0.24398 10.18516,-2.55107 20.875,-5.12695 10.68983,-2.57588 20.99735,-5.10204 22.90625,-5.61328 l 2.30273,-0.61719 c 0.39857,-0.37471 0.58183,-0.76066 0.71094,-1.22461 0.16733,-0.60129 0.32721,-3.43069 0.45703,-7.38672 v -15.36523 c 0,-10.98103 -0.0415,-16.8638 -0.26172,-19.96485 z" />
       <path
       id="path289"
       fill="#00f"
       d="m 695.45312,656.98828 -64.23242,15.21094 c 0.55355,1.28928 0.94553,2.22823 1.67578,3.91211 0.88317,2.03645 1.92699,4.40898 2.92774,6.69531 l 59.69922,-14.13867 c -0.006,-4.81049 -0.0209,-8.91094 -0.0703,-11.67969 z" />
       <path
       id="path291"
       fill="#0ff"
       d="m 695.49414,660.38672 -62.94726,14.90625 c 0.14471,0.33387 0.19691,0.46626 0.3496,0.81836 0.49057,1.13119 1.09011,2.48777 1.62696,3.71875 l 60.98828,-14.44531 c -0.005,-1.6526 -0.006,-3.65989 -0.0176,-4.99805 z" />
       <path
       id="path293"
       fill="#00f"
       d="m 695.5332,677.20898 -56.31054,13.33399 c 1.33107,3.01275 2.68695,6.07712 3.55468,8.00391 0.42935,0.95335 0.81795,1.79361 1.18555,2.57031 l 51.49609,-12.19531 c 0.0278,-0.69393 0.0489,-1.5873 0.0742,-2.36719 z" />
       <path
       id="path295"
       fill="#0ff"
       d="M 695.5332,680.61523 640.5918,693.625 c 0.67934,1.52971 1.50249,3.39671 2.01172,4.5293 l 52.92968,-12.53516 z" />
       </g><g
     id="layer3">
     <path
       id="path129"
       d="m 196.46875,618.71484 0.60742,3.23633 c 0.33388,1.77975 3.14299,11.25573 6.24414,21.05664 3.10117,9.80091 5.83976,18.75701 6.08399,19.90235 l 0.44336,2.08203 h 59.58789 59.58984 v -23.13867 -23.13868 h -66.2793 z m 210.30078,0 v 23.13868 23.13867 h 59.63477 c 55.99044,0 59.66429,-0.10039 60.125,-1.6211 2.24305,-7.40389 11.66601,-42.49386 11.66601,-43.44336 0,-0.98706 -12.17785,-1.21289 -65.71289,-1.21289 z" />
       <path
       id="path317"
       d="m 196.46875,618.71484 0.60742,3.23633 c 0.33388,1.77975 3.143,11.25574 6.24414,21.05664 3.10117,9.8009 5.83976,18.75701 6.08399,19.90235 l 0.44336,2.08203 h 59.58789 59.58984 v -23.13867 -23.13868 h -66.2793 z m 210.30078,0 v 23.13868 23.13867 h 59.63477 c 55.99038,0 59.66429,-0.10039 60.125,-1.6211 2.24304,-7.40388 11.66601,-42.49386 11.66601,-43.44336 0,-0.98705 -12.1779,-1.21289 -65.71289,-1.21289 z" />
       <path
       id="path319"
       fill="#00f"
       d="m 198.2168,626.06836 c 0.77862,2.7772 1.84199,6.34009 3.30859,11.0957 h 127.5 v -11.0957 z m 208.55273,0 v 11.0957 H 533.75 c 1.08852,-4.06926 2.16479,-8.11069 2.93945,-11.0957 z" />
       <path
       id="path321"
       fill="#0ff"
       d="m 199.11328,629.29883 c 0.40264,1.36061 0.9716,3.1641 1.45313,4.74805 h 128.45898 v -4.74805 z m 207.65625,0 v 4.74805 h 127.80664 c 0.4413,-1.66021 0.87361,-3.28499 1.25781,-4.74805 z" />
       <path
       id="path323"
       fill="#00f"
       d="m 204.01172,645.26758 c 1.66799,5.30798 2.47018,8.01461 3.39258,11.09765 h 121.62109 v -11.09765 z m 202.75781,0 v 11.09765 H 528.4668 c 0.91404,-3.24899 1.84991,-6.62211 3.0664,-11.09765 z" />
       <path
       id="path325"
       fill="#0ff"
       d="m 205,648.5 c 0.65335,2.10034 0.935,3.05726 1.45117,4.74805 H 329.02539 V 648.5 Z m 201.76953,0 v 4.74805 h 122.55859 c 0.44485,-1.60237 0.81191,-2.91972 1.3125,-4.74805 z" />
       </g><g
     id="layer4">
     <path
       fill="#000"
       d="m 340.96206,231.49729 c -10.03818,-3.58773 -23.86825,-13.32396 -32.7506,-23.05612 -5.487,-6.01195 -6.02667,-6.96453 -6.02667,-10.63781 0,-3.02077 0.74478,-5.12299 2.96396,-8.36619 3.70209,-5.41036 17.76618,-19.60557 19.41398,-19.59497 0.98778,0.006 10.50333,24.82445 23.68377,61.77111 0.5351,1.49995 -2.9169,1.44497 -7.28444,-0.11602 z"
       id="path263" />
       <path
       fill="#000"
       d="m 345.0004,204.31024 c -10.9424,-30.27178 -11.70331,-32.57771 -10.98657,-33.29446 0.30007,-0.30007 3.75488,0.15961 7.67734,1.02151 3.92247,0.86189 12.56883,2.0047 19.21413,2.53956 11.87411,0.95571 12.28177,0.9246 23.65146,-1.80457 6.363,-1.52737 11.73849,-2.60914 11.94553,-2.40393 1.00591,0.99701 -39.92351,59.62528 -41.62544,59.62528 -0.32595,0 -4.77035,-11.55752 -9.87645,-25.68339 z"
       id="path265" />
       <path
       fill="#000"
       d="m 360.49304,235.18828 c 0,-0.9835 9.72467,-15.33014 28.41958,-41.92691 12.32941,-17.54074 17.59749,-24.3198 19.06641,-24.53503 3.84188,-0.56291 21.60453,24.06955 20.83406,28.89175 -0.16157,1.01121 -5.29161,7.83776 -11.4001,15.1701 -10.2933,12.35562 -11.56779,13.54831 -17.41018,16.29271 -3.46711,1.62864 -8.46496,3.55459 -11.10633,4.27988 -5.11077,1.40338 -28.40344,2.90205 -28.40344,1.8275 z"
       id="path267" />
       <path
       id="path357"
       d="m 324.5625,169.8418 c -1.6478,-0.0106 -15.71198,14.18535 -19.41406,19.5957 -2.21918,3.2432 -2.96289,5.34447 -2.96289,8.36523 0,3.67328 0.53839,4.62673 6.02539,10.63868 8.88234,9.73215 22.71378,19.46891 32.75195,23.05664 4.36754,1.56099 7.8183,1.61518 7.2832,0.11523 C 335.06567,194.66666 325.55028,169.8478 324.5625,169.8418 Z" />
       <path
       id="path359"
       fill="#00f"
       d="m 320.04883,173.34375 c -1.87883,1.73037 -4.0561,3.8777 -6.25781,6.16406 l 18.97656,48.18946 c 2.87951,1.59232 5.65898,2.89427 8.19531,3.80078 0.79456,0.28398 1.54039,0.49959 2.25586,0.68359 z" />
       <path
       id="path361"
       fill="#0ff"
       d="m 318.20117,175.07422 c -0.86665,0.83591 -1.75652,1.70935 -2.67578,2.63867 l 20.31055,51.57813 c 1.55106,0.76072 3.05366,1.41909 4.48633,1.95898 z" />
       <path
       id="path363"
       fill="#00f"
       d="m 309.33203,184.29688 c -1.78294,2.00854 -3.28914,3.83344 -4.18359,5.14062 -0.6129,0.89571 -1.10252,1.69981 -1.50586,2.46484 l 7.83398,19.89649 c 3.86225,3.76227 8.31757,7.41631 12.85938,10.59961 z" />
       <path
       id="path365"
       fill="#0ff"
       d="m 307.5957,186.30664 c -1.00626,1.19608 -1.86501,2.27994 -2.44726,3.13086 -0.008,0.0123 -0.0151,0.0229 -0.0234,0.0352 l 10.18164,25.85546 c 1.76092,1.53746 3.59854,3.02922 5.47461,4.46094 z" />
       <path
       id="path436"
       d="m 409.08203,169.02539 -48.32422,66.33399 c 2.58347,0.71477 23.34815,-0.68261 28.13867,-1.99805 2.64137,-0.72529 7.63837,-2.65261 11.10547,-4.28125 5.84239,-2.7444 7.11687,-3.93541 17.41016,-16.29102 6.10848,-7.33233 11.23882,-14.16066 11.40039,-15.17187 0.7123,-4.45815 -14.40643,-25.83231 -19.73047,-28.5918 z" />
       <path
       id="path438"
       fill="#00f"
       d="m 413.69922,173.13867 -45.38867,62.30469 c 3.2407,-0.13701 7.00665,-0.39743 10.52343,-0.7168 l 40.14844,-55.11523 c -1.79884,-2.40993 -3.61603,-4.6439 -5.2832,-6.47266 z" />
       <path
       id="path440"
       fill="#0ff"
       d="m 415.29102,174.95117 -43.94922,60.33008 c 1.48271,-0.0857 2.97181,-0.18845 4.50195,-0.30664 l 41.70117,-57.24609 c -0.76159,-0.9755 -1.51421,-1.90332 -2.2539,-2.77735 z" />
       <path
       id="path442"
       fill="#00f"
       d="m 422.57617,184.70312 -35.75195,49.07813 c 0.83093,-0.13929 1.56225,-0.27988 2.07226,-0.41992 2.64137,-0.72529 7.63837,-2.65261 11.10547,-4.28125 0.13954,-0.0656 0.2483,-0.12355 0.38282,-0.1875 l 26.6875,-36.63281 c -1.12654,-2.23815 -2.70055,-4.86026 -4.4961,-7.55665 z" />
       <path
       id="path444"
       fill="#0ff"
       d="m 423.94922,186.81641 -33.56445,46.07421 c 1.6979,-0.55081 3.7764,-1.32454 5.86914,-2.18359 l 29.62695,-40.66797 c -0.58609,-1.03479 -1.22953,-2.11004 -1.93164,-3.22265 z" />
       </g></svg>
