<?xml version="1.0" encoding="UTF-8" standalone="no"?>
<!-- Created with Inkscape (http://www.inkscape.org/) -->

<svg
   version="1.1"
   id="svg2"
   width="734.66669"
   height="774.66669"
   viewBox="0 0 734.66669 774.66669"
   xml:space="preserve"
   xmlns="http://www.w3.org/2000/svg"
   xmlns:svg="http://www.w3.org/2000/svg"><defs
     id="defs12" /><g
     id="layer1"><path
       fill="#000"
       d="m 62.050437,701.69235 c -21.676062,-5.35796 -23.137635,-5.85149 -23.740082,-8.01631 -0.353083,-1.26877 -0.683485,-11.97987 -0.734226,-23.80246 l -0.09226,-21.49561 2.367257,0.90003 c 7.355747,2.79665 42.562296,10.33811 55.891559,11.97231 4.299655,0.52715 8.160235,1.30113 8.579065,1.71996 1.01798,1.01798 -0.66635,5.66672 -9.69967,26.77107 -4.192364,9.79452 -8.038966,17.77498 -8.548007,17.73434 -0.50904,-0.0406 -11.319677,-2.64313 -24.023639,-5.78333 z"
       id="path257"/><path
       id="path3954"
       d="m 37.484375,648.37891 0.0918,21.49414 c 0.05074,11.82258 0.381292,22.53396 0.734375,23.80273 0.184219,0.66197 0.455218,1.16879 1.353515,1.70508 l 46.976563,11.37305 c 1.293785,-2.08436 4.504349,-8.88598 7.982422,-17.01172 7.11548,-16.62376 9.65883,-23.02064 9.92578,-25.49219 L 85.2793,659.58594 c -16.070973,-2.86091 -39.555464,-8.07596 -45.427735,-10.3086 z" /><path
       id="path3956"
       fill="#00f"
       d="m 37.820312,685.27344 c 0.02284,0.76811 0.04919,1.31016 0.07422,1.99414 l 52.183594,12.63476 c 0.271704,-0.58198 0.537071,-1.14375 0.826172,-1.77539 z" /><path
       id="path3958"
       fill="#00f"
       d="m 37.724609,681.15625 c 0.01444,0.68373 0.03075,1.34576 0.04687,1.99023 l 54.007813,13.07422 c 0.249939,-0.5562 0.525318,-1.20525 0.783203,-1.78711 z" /><path
       id="path3960"
       fill="#0ff"
       d="m 37.5625,666.54688 0.01367,3.32617 c 0.0099,2.30657 0.03713,4.49615 0.06641,6.65625 l 56.75,13.74023 c 0.07967,-0.18541 0.150522,-0.34056 0.230469,-0.52734 1.391093,-3.24998 2.551824,-5.99148 3.611328,-8.50781 z" /><path
       id="path3962"
       fill="#00f"
       d="m 37.533203,659.75781 0.0078,1.99219 62.513677,15.13477 c 0.28061,-0.67911 0.48548,-1.19681 0.73633,-1.8125 z" /><path
       id="path3964"
       fill="#00f"
       d="m 37.515625,655.66016 0.0078,1.99218 64.044925,15.50586 c 0.25941,-0.64926 0.49333,-1.24772 0.71484,-1.81836 z" /></g><g
     id="layer2"><path
       fill="#000"
       d="m 642.77674,698.54699 c -2.23639,-4.96587 -6.68251,-15.06183 -9.88028,-22.43548 -5.75143,-13.26205 -5.79187,-13.41492 -3.75035,-14.1763 1.13508,-0.42332 15.86975,-3.44581 32.74372,-6.71663 16.87397,-3.27083 31.34691,-6.2029 32.16209,-6.51571 1.33536,-0.51243 1.48215,1.77483 1.48215,23.09555 v 23.6643 l -3.47073,0.92953 c -1.9089,0.51124 -12.21697,3.03707 -22.90681,5.61295 -10.68985,2.57588 -20.08353,4.88305 -20.87486,5.12703 -1.07288,0.33079 -2.47288,-1.85258 -5.50493,-8.58524 z"
       id="path269"/><path
       id="path4020"
       d="m 694.28906,648.64453 c -0.0744,0.006 -0.15287,0.0266 -0.23633,0.0586 -0.49425,0.18966 -6.31702,1.39681 -14.34375,3.00391 -9.90383,2.29502 -22.84229,4.93428 -32.94921,6.68945 l -18.78516,4.43555 c -0.32624,1.14146 0.89561,3.99526 4.92187,13.2793 3.19777,7.37364 7.64448,17.46968 9.88086,22.43555 1.47774,3.2813 2.56254,5.46655 3.41602,6.82226 l 47.32617,-11.17773 c 0.92083,-0.53629 1.19983,-1.04311 1.38867,-1.70508 0.25089,-0.87949 0.48415,-6.4286 0.625,-13.60742 v -7.08008 c 0,-19.98816 -0.12771,-23.24716 -1.24414,-23.1543 z" /><path
       id="path4022"
       fill="#00f"
       d="m 695.41016,684.08398 -53.44922,12.625 c 0.22574,0.5046 0.60004,1.35625 0.79492,1.78907 l 52.57812,-12.41993 c 0.0256,-0.68397 0.0529,-1.22603 0.0762,-1.99414 z" /><path
       id="path4024"
       fill="#00f"
       d="m 695.50781,679.9668 -55.1914,13.03711 c 0.2752,0.6204 0.53927,1.21918 0.79297,1.78906 l 54.3496,-12.83594 c 0.0165,-0.64447 0.0341,-1.3065 0.0488,-1.99023 z" /><path
       id="path4026"
       fill="#0ff"
       d="m 695.51172,665.39648 -61.00195,14.4043 c 1.31854,3.02353 2.61656,5.99627 3.95507,9.0332 l 57.06836,-13.48046 v -3.55469 c 0,-2.69219 -0.0147,-4.28443 -0.0215,-6.40235 z" /><path
       id="path4028"
       fill="#00f"
       d="m 695.48242,658.62109 -63.64062,15.0293 c 0.28544,0.66077 0.45184,1.06225 0.77539,1.80859 l 62.8789,-14.85156 c -0.005,-0.60928 -0.007,-1.43665 -0.0137,-1.98633 z" /><path
       id="path4030"
       fill="#00f"
       d="M 695.39844,654.54688 630.25,669.93359 c 0.21177,0.50234 0.52854,1.23209 0.77539,1.8086 l 64.41992,-15.21485 c -0.0136,-0.69075 -0.0288,-1.40223 -0.0469,-1.98046 z" /></g><g
     id="layer3"><path
       id="path129"
       d="m 196.46875,618.71484 0.60742,3.23633 c 0.33388,1.77975 3.14299,11.25573 6.24414,21.05664 3.10117,9.80091 5.83976,18.75701 6.08399,19.90235 l 0.44336,2.08203 h 59.58789 59.58984 v -23.13867 -23.13868 h -66.2793 z m 210.30078,0 v 23.13868 23.13867 h 59.63477 c 55.99044,0 59.66429,-0.10039 60.125,-1.6211 2.24305,-7.40389 11.66601,-42.49386 11.66601,-43.44336 0,-0.98706 -12.17785,-1.21289 -65.71289,-1.21289 z" /><path
       id="rect479"
       d="m 196.46875,618.71484 0.60742,3.23633 c 0.33388,1.77975 3.143,11.25574 6.24414,21.05664 3.10117,9.8009 5.83976,18.75701 6.08399,19.90235 l 0.44336,2.08203 h 59.58789 59.58984 v -23.13867 -23.13868 h -66.2793 z m 210.30078,0 v 23.13868 23.13867 h 59.63477 c 55.99038,0 59.66429,-0.10039 60.125,-1.6211 2.24304,-7.40388 11.66601,-42.49386 11.66601,-43.44336 0,-0.98705 -12.1779,-1.21289 -65.71289,-1.21289 z" /><path
       id="rect3868"
       fill="#00f"
       d="m 207.12305,655.44531 c 0.18168,0.60291 0.46182,1.50039 0.60742,1.99219 h 121.29492 v -1.99219 z m 199.64648,0 v 1.99219 h 121.40039 c 0.15501,-0.54771 0.37944,-1.38043 0.55078,-1.99219 z" /><path
       id="rect492"
       fill="#00f"
       d="m 205.86133,651.32227 c 0.24287,0.78875 0.39376,1.28567 0.60937,1.99218 h 122.55469 v -1.99218 z m 200.9082,0 v 1.99218 h 122.53906 c 0.18623,-0.67064 0.35305,-1.27546 0.55079,-1.99218 z" /><path
       id="rect488"
       fill="#0ff"
       d="m 201.36328,636.64258 c 0.66846,2.17259 1.22791,4.06092 1.95703,6.36523 0.57181,1.80715 0.5873,1.96389 1.1211,3.66992 h 124.58398 v -4.82421 -5.21094 z m 205.40625,0 v 5.21094 4.82421 h 124.375 c 1.0625,-3.89705 1.70224,-6.13623 2.74414,-10.03515 z" /><path
       id="rect490"
       fill="#00f"
       d="m 199.26367,629.80859 c 0.17024,0.57291 0.43295,1.39292 0.61719,2.00586 h 129.14453 v -2.00586 z m 207.50586,0 v 2.00586 h 128.39844 c 0.17637,-0.66698 0.36586,-1.377 0.53125,-2.00586 z" /><path
       id="rect3866"
       fill="#00f"
       d="m 198.11133,625.68555 c 0.19055,0.68661 0.30248,1.12801 0.55664,2.00586 h 130.35742 v -2.00586 z m 208.6582,0 v 2.00586 h 129.49024 c 0.18534,-0.70959 0.36039,-1.37523 0.52343,-2.00586 z" /></g><g
     id="layer4"><path
       fill="#000"
       d="m 340.96206,231.49729 c -10.03818,-3.58773 -23.86825,-13.32396 -32.7506,-23.05612 -5.487,-6.01195 -6.02667,-6.96453 -6.02667,-10.63781 0,-3.02077 0.74478,-5.12299 2.96396,-8.36619 3.70209,-5.41036 17.76618,-19.60557 19.41398,-19.59497 0.98778,0.006 10.50333,24.82445 23.68377,61.77111 0.5351,1.49995 -2.9169,1.44497 -7.28444,-0.11602 z"
       id="path263" /><path
       fill="#000"
       d="m 345.0004,204.31024 c -10.9424,-30.27178 -11.70331,-32.57771 -10.98657,-33.29446 0.30007,-0.30007 3.75488,0.15961 7.67734,1.02151 3.92247,0.86189 12.56883,2.0047 19.21413,2.53956 11.87411,0.95571 12.28177,0.9246 23.65146,-1.80457 6.363,-1.52737 11.73849,-2.60914 11.94553,-2.40393 1.00591,0.99701 -39.92351,59.62528 -41.62544,59.62528 -0.32595,0 -4.77035,-11.55752 -9.87645,-25.68339 z"
       id="path265" /><path
       fill="#000"
       d="m 360.49304,235.18828 c 0,-0.9835 9.72467,-15.33014 28.41958,-41.92691 12.32941,-17.54074 17.59749,-24.3198 19.06641,-24.53503 3.84188,-0.56291 21.60453,24.06955 20.83406,28.89175 -0.16157,1.01121 -5.29161,7.83776 -11.4001,15.1701 -10.2933,12.35562 -11.56779,13.54831 -17.41018,16.29271 -3.46711,1.62864 -8.46496,3.55459 -11.10633,4.27988 -5.11077,1.40338 -28.40344,2.90205 -28.40344,1.8275 z"
       id="path267" /><path
       id="path3942"
       d="m 324.17188,169.97461 c -2.79052,1.41082 -15.52656,14.35243 -19.02344,19.46289 -2.21918,3.2432 -2.96289,5.34447 -2.96289,8.36523 0,3.67328 0.53839,4.62673 6.02539,10.63868 8.88234,9.73215 22.71378,19.46891 32.75195,23.05664 4.36754,1.56099 7.8183,1.61518 7.2832,0.11523 -0.76216,-2.13644 -1.46641,-4.08188 -2.20312,-6.13476 z" /><path
       id="path3944"
       fill="#00f"
       d="m 304.3125,190.72852 c -0.33833,0.55048 -0.62272,1.06941 -0.87109,1.57421 l 7.45507,18.91993 c 0.77581,0.77016 1.57298,1.53525 2.39649,2.29492 z" /><path
       id="path3946"
       fill="#00f"
       d="m 306.28906,187.91016 c -0.3694,0.47092 -0.7006,0.90959 -0.97851,1.30468 l 10.44726,26.50782 c 0.7298,0.6297 1.47261,1.25151 2.22461,1.86523 z" /><path
       id="path3948"
       fill="#0ff"
       d="m 313.91406,179.37891 c -1.86742,1.93551 -3.69997,3.90298 -5.26562,5.69921 l 14.31836,36.3379 c 3.34514,2.4234 6.7599,4.61285 10.04101,6.4121 z" /><path
       id="path3950"
       fill="#00f"
       d="m 317.57617,175.68945 c -0.35795,0.34939 -0.71483,0.69913 -1.08203,1.06446 l 21.01367,53.32812 c 0.61274,0.27707 1.21773,0.53879 1.81055,0.7793 z" /><path
       id="path3952"
       fill="#00f"
       d="m 319.82031,173.55273 c -0.37349,0.34631 -0.70431,0.63653 -1.10156,1.01563 l 22.46094,57 c 0.59411,0.20686 1.16304,0.37915 1.71289,0.5293 z" /><path
       id="path4056"
       d="m 407.97852,168.72656 c -0.0454,0.007 -0.10544,0.0393 -0.15821,0.0586 l -45.40429,63.00781 c -0.64422,1.01305 -1.14554,1.82818 -1.4629,2.39258 l 1.88282,1.35547 c 6.02636,0.14227 21.94133,-1.04859 26.06054,-2.17969 2.64137,-0.72529 7.63837,-2.65261 11.10547,-4.28125 4.60214,-2.16181 6.43357,-3.44576 12.00782,-9.89649 l 16.63867,-23.08789 c -1.82356,-7.08377 -17.13475,-27.88711 -20.66992,-27.36914 z" /><path
       id="path4058"
       fill="#00f"
       d="m 425.33984,189.09375 -30.35937,42.12695 c 0.81567,-0.32244 1.62408,-0.64795 2.41992,-0.98632 l 28.69531,-39.81836 c -0.24116,-0.4327 -0.49107,-0.87171 -0.75586,-1.32227 z" /><path
       id="path4060"
       fill="#00f"
       d="m 423.71289,186.4375 -33.51953,46.51367 c 0.69836,-0.22302 1.43902,-0.47579 2.26953,-0.77734 l 32.04102,-44.46289 c -0.26031,-0.4233 -0.51585,-0.8419 -0.79102,-1.27344 z" /><path
       id="path4062"
       fill="#0ff"
       d="m 417.46289,177.625 -41.31445,57.32812 c 3.45856,-0.27161 6.77008,-0.6071 9.31445,-0.9707 l 36.3457,-50.43164 c -1.39075,-2.03349 -2.87409,-4.04581 -4.3457,-5.92578 z" /><path
       id="path4064"
       fill="#00f"
       d="m 414.32812,173.83203 -44.33398,61.52149 c 0.59461,-0.0305 1.17856,-0.0608 1.79492,-0.0977 l 43.47852,-60.33398 c -0.31705,-0.37427 -0.63049,-0.73987 -0.93946,-1.08985 z" /><path
       id="path4066"
       fill="#00f"
       d="m 412.33008,171.69727 -45.98047,63.80078 c 0.59479,-0.0164 1.10503,-0.0182 1.75586,-0.0449 l 45.21289,-62.73632 c -0.34111,-0.36627 -0.66474,-0.69485 -0.98828,-1.01953 z" /></g></svg>
