<?xml version="1.0" encoding="UTF-8" standalone="no"?>
<!-- Created with Inkscape (http://www.inkscape.org/) -->

<svg
   version="1.1"
   id="svg2"
   width="734.66669"
   height="774.66669"
   viewBox="0 0 734.66669 774.66669"
   xml:space="preserve"
   xmlns="http://www.w3.org/2000/svg"
   xmlns:svg="http://www.w3.org/2000/svg"><defs
   id="defs12" /><g
   id="layer1"><path
     fill="#000"
     d="m 62.050437,701.69235 c -21.676062,-5.35796 -23.137635,-5.85149 -23.740082,-8.01631 -0.353083,-1.26877 -0.683485,-11.97987 -0.734226,-23.80246 l -0.09226,-21.49561 2.367257,0.90003 c 7.355747,2.79665 42.562296,10.33811 55.891559,11.97231 4.299655,0.52715 8.160235,1.30113 8.579065,1.71996 1.01798,1.01798 -0.66635,5.66672 -9.69967,26.77107 -4.192364,9.79452 -8.038966,17.77498 -8.548007,17.73434 -0.50904,-0.0406 -11.319677,-2.64313 -24.023639,-5.78333 z"
     id="path257" /></g><g
   id="layer2"><path
     fill="#000"
     d="m 642.77674,698.54699 c -2.23639,-4.96587 -6.68251,-15.06183 -9.88028,-22.43548 -5.75143,-13.26205 -5.79187,-13.41492 -3.75035,-14.1763 1.13508,-0.42332 15.86975,-3.44581 32.74372,-6.71663 16.87397,-3.27083 31.34691,-6.2029 32.16209,-6.51571 1.33536,-0.51243 1.48215,1.77483 1.48215,23.09555 v 23.6643 l -3.47073,0.92953 c -1.9089,0.51124 -12.21697,3.03707 -22.90681,5.61295 -10.68985,2.57588 -20.08353,4.88305 -20.87486,5.12703 -1.07288,0.33079 -2.47288,-1.85258 -5.50493,-8.58524 z"
     id="path269" /></g><g
   id="layer3"><path
     fill="#000"
     id="path129"
     d="m 196.46875,618.71484 0.60742,3.23633 c 0.33388,1.77975 3.14299,11.25573 6.24414,21.05664 3.10117,9.80091 5.83976,18.75701 6.08399,19.90235 l 0.44336,2.08203 h 59.58789 59.58984 v -23.13867 -23.13868 h -66.2793 z m 210.30078,0 v 23.13868 23.13867 h 59.63477 c 55.99044,0 59.66429,-0.10039 60.125,-1.6211 2.24305,-7.40389 11.66601,-42.49386 11.66601,-43.44336 0,-0.98706 -12.17785,-1.21289 -65.71289,-1.21289 z" /></g><g
   id="layer4"><path
     fill="#000"
     d="m 345.0004,204.31024 c -10.9424,-30.27178 -11.70331,-32.57771 -10.98657,-33.29446 0.30007,-0.30007 3.75488,0.15961 7.67734,1.02151 3.92247,0.86189 12.56883,2.0047 19.21413,2.53956 11.87411,0.95571 12.28177,0.9246 23.65146,-1.80457 6.363,-1.52737 11.73849,-2.60914 11.94553,-2.40393 1.00591,0.99701 -39.92351,59.62528 -41.62544,59.62528 -0.32595,0 -4.77035,-11.55752 -9.87645,-25.68339 z"
     id="path265" /><path
     fill="#000"
     d="m 360.49304,235.18828 c 0,-0.9835 9.72467,-15.33014 28.41958,-41.92691 12.32941,-17.54074 17.59749,-24.3198 19.06641,-24.53503 3.84188,-0.56291 21.60453,24.06955 20.83406,28.89175 -0.16157,1.01121 -5.29161,7.83776 -11.4001,15.1701 -10.2933,12.35562 -11.56779,13.54831 -17.41018,16.29271 -3.46711,1.62864 -8.46496,3.55459 -11.10633,4.27988 -5.11077,1.40338 -28.40344,2.90205 -28.40344,1.8275 z"
     id="path267" /><path
     fill="#000"
     d="m 340.96206,231.49729 c -10.03818,-3.58773 -23.86825,-13.32396 -32.7506,-23.05612 -5.487,-6.01195 -6.02667,-6.96453 -6.02667,-10.63781 0,-3.02077 0.74478,-5.12299 2.96396,-8.36619 3.70209,-5.41036 17.76618,-19.60557 19.41398,-19.59497 0.98778,0.006 10.50333,24.82445 23.68377,61.77111 0.5351,1.49995 -2.9169,1.44497 -7.28444,-0.11602 z"
     id="path263" /></g></svg>
