<?xml version="1.0" encoding="UTF-8" standalone="no"?>
<!-- Created with Inkscape (http://www.inkscape.org/) -->

<svg
   version="1.1"
   id="svg2"
   width="551"
   height="580"
   viewBox="0 0 551 580"
   xml:space="preserve"
   xmlns="http://www.w3.org/2000/svg"
   xmlns:svg="http://www.w3.org/2000/svg"><defs
   id="defs9" />
    <g
   id="layer1">
   <path
     fill="#000"
     d="m 156.30288,403.22764 c -0.15229,-0.48614 -1.54837,-4.86136 -3.1024,-9.72272 -3.67112,-11.48411 -7.18293,-23.01736 -7.18293,-23.58968 0,-0.24857 57.75295,-0.45195 128.33988,-0.45195 109.30042,0 128.33988,0.1463 128.33988,0.98618 0,0.5424 -0.60248,3.00843 -1.33885,5.48008 -0.73637,2.47164 -2.50939,8.78957 -3.94005,14.03984 -1.43065,5.25027 -2.92113,10.58008 -3.31218,11.84404 l -0.71098,2.29809 H 274.9875 c -94.10711,0 -118.46456,-0.18139 -118.68462,-0.88388 z"
     id="path253" />
     <path
     id="path1263"
     fill="#00f"
     d="m 149.61523,382.03906 c 1.12571,3.63949 2.26123,7.32278 3.58594,11.4668 0.28095,0.87888 0.29634,0.93082 0.56055,1.75781 H 395.9375 c 0.55992,-2.00857 0.84089,-2.94776 1.48047,-5.29492 0.80809,-2.96554 1.44853,-5.16841 2.22656,-7.92969 z" />
     </g><g
   id="layer2">
   <path
     id="path250"
     d="m 27.445311,392.46875 c -0.166405,-0.003 -0.274255,0.008 -0.316401,0.0332 -0.336962,0.20824 -0.613284,7.95524 -0.613287,17.21485 l 5e-6,16.83593 4.066403,1.08984 c 2.236221,0.59968 7.088579,1.80273 10.783207,2.67383 3.69463,0.8711 10.059035,2.44777 14.142578,3.50195 1.08662,0.28052 2.124147,0.53814 3.089845,0.77344 l 4.994135,0.99024 c 0.49816,-0.52593 2.483329,-4.64394 4.599611,-9.56641 2.253241,-5.24101 5.550989,-12.78459 7.328121,-16.76367 1.777145,-3.97907 3.012343,-7.36914 2.746105,-7.53321 -0.266249,-0.16404 -4.619981,-0.97482 -9.675788,-1.80077 -14.669488,-2.39654 -21.288139,-3.61353 -31.384766,-5.7715 -4.554361,-0.9734 -8.594972,-1.66042 -9.759765,-1.67773 z" />
     <path
     id="path1242"
     fill="#00f"
     d="m 26.550781,405.03516 c -0.01634,1.52021 -0.03515,3.03119 -0.03516,4.68164 v 8.94726 l 40.482422,10.06055 c 0.390055,-0.87248 0.783635,-1.75597 1.193359,-2.70899 1.2323,-2.86631 2.730443,-6.31366 4.167969,-9.59765 z" />
     </g><g
   id="layer3">
   <path
     fill="#000"
     d="m 484.91082,434.34034 c -0.38014,-0.48614 -1.98074,-3.74767 -3.55689,-7.24785 -1.57616,-3.50017 -4.77667,-10.57836 -7.11226,-15.72931 -2.33559,-5.15094 -4.03548,-9.49538 -3.77754,-9.6543 0.25794,-0.15893 4.60556,-0.98704 9.66137,-1.84025 9.04645,-1.52666 27.19318,-5.17576 36.63666,-7.36723 2.64926,-0.61479 5.13111,-1.1178 5.51521,-1.1178 0.78594,0 0.59162,34.21677 -0.19881,35.00503 -0.49178,0.49043 -6.17736,1.95391 -24.41387,6.28417 -12.21818,2.90121 -11.829,2.85033 -12.75387,1.66754 z"
     id="path247" />
     <path
     id="path1255"
     fill="#00f"
     d="M 522.6543,402.77344 475.49023,414.125 c 2.00417,4.42506 4.22573,9.33411 5.5625,12.30078 l 41.60547,-10.01562 c 0.01,-0.45193 0.0248,-0.82191 0.0332,-1.28907 v -7.66601 c 0,-1.65045 -0.0203,-3.16143 -0.0371,-4.68164 z" />
     </g><g
   id="layer4">
   <path
     fill="#000"
     d="m 264.10438,69.665522 c -13.31139,-2.034431 -25.21617,-5.578888 -31.70147,-9.438605 -3.71198,-2.209176 -3.76404,-2.286534 -3.33979,-4.962191 0.9285,-5.855834 6.80353,-17.3201 10.86377,-21.199091 l 2.09012,-1.99681 6.38437,2.138959 c 17.78304,5.957868 37.97929,5.989952 54.96306,0.08732 3.49158,-1.213484 6.88164,-2.377357 7.53347,-2.586385 0.83228,-0.266899 1.73253,0.487075 3.02369,2.532413 5.01891,7.950457 9.2987,18.765821 8.57188,21.661745 -0.86004,3.426634 -11.46235,9.3997 -21.75245,12.254767 -11.13934,3.090691 -23.0679,3.581644 -36.63665,1.507883 z"
     id="path244" />
     <path
     id="path1276"
     fill="#00f"
     d="m 234.16406,42.375 c -2.39767,4.390674 -4.45692,9.307086 -5.04687,12.617188 30.56978,5.509543 61.60973,6.638468 93.42187,0.552734 0.23765,-2.160528 -1.44671,-7.274819 -3.98047,-12.708984 -28.89301,4.036479 -56.85272,2.93423 -84.39453,-0.460938 z" />
     </g></svg>
