<?xml version="1.0" encoding="UTF-8" standalone="no"?>
<!-- Created with Inkscape (http://www.inkscape.org/) -->

<svg
   version="1.1"
   id="svg2"
   width="551"
   height="580"
   viewBox="0 0 551 580"
   xml:space="preserve"
   xmlns="http://www.w3.org/2000/svg"
   xmlns:svg="http://www.w3.org/2000/svg"><defs
   id="defs9" />
     <g
   id="layer1">
   <path
     fill="#000"
     d="m 264.10438,69.665522 c -13.31139,-2.034431 -25.21617,-5.578888 -31.70147,-9.438605 -3.71198,-2.209176 -3.76404,-2.286534 -3.33979,-4.962191 0.9285,-5.855834 6.80353,-17.3201 10.86377,-21.199091 l 2.09012,-1.99681 6.38437,2.138959 c 17.78304,5.957868 37.97929,5.989952 54.96306,0.08732 3.49158,-1.213484 6.88164,-2.377357 7.53347,-2.586385 0.83228,-0.266899 1.73253,0.487075 3.02369,2.532413 5.01891,7.950457 9.2987,18.765821 8.57188,21.661745 -0.86004,3.426634 -11.46235,9.3997 -21.75245,12.254767 -11.13934,3.090691 -23.0679,3.581644 -36.63665,1.507883 z"
     id="path803" />
     <path
     id="path481"
     fill="#00f"
     d="m 236.19141,38.925781 c -0.43234,0.677096 -0.86439,1.358446 -1.28907,2.09375 27.17184,2.263015 54.78326,2.40097 82.88086,0.189453 -0.36683,-0.744536 -0.75049,-1.477609 -1.14258,-2.216796 -27.10311,1.912499 -53.92834,1.951212 -80.44921,-0.06641 z" />
     <path
     id="path477"
     fill="#00f"
     d="m 233.96094,61.087891 c 1.78494,0.933733 3.91588,1.835772 6.25781,2.703125 23.87273,1.444639 47.80622,1.428527 71.79492,0.08984 1.73062,-0.838916 3.3327,-1.711624 4.74024,-2.582031 -27.5974,1.524455 -55.19557,1.5062 -82.79297,-0.210937 z" />
     <path
     id="path479"
     fill="#0ff"
     d="m 232.67578,45.261719 c -1.78057,3.670191 -3.19943,7.393834 -3.61328,10.003906 -0.0441,0.278014 -0.0791,0.513018 -0.10938,0.740234 31.12451,2.734831 62.24855,2.800153 93.37305,0.306641 0.0607,-0.137968 0.13513,-0.2793 0.16797,-0.410156 0.40969,-1.632345 -0.80307,-5.801808 -2.81055,-10.535156 -29.00267,1.427624 -58.00513,1.435643 -87.00781,-0.105469 z" />
     </g><g
   id="layer2">
   <path
     id="path406"
     d="m 27.445311,392.46875 c -0.166405,-0.003 -0.274255,0.008 -0.316401,0.0332 -0.336962,0.20824 -0.613284,7.95524 -0.613287,17.21485 l 5e-6,16.83593 4.066403,1.08984 c 2.236221,0.59968 7.088579,1.80273 10.783207,2.67383 3.69463,0.8711 10.059035,2.44777 14.142578,3.50195 1.08662,0.28052 2.124147,0.53814 3.089845,0.77344 l 4.994135,0.99024 c 0.49816,-0.52593 2.483329,-4.64394 4.599611,-9.56641 2.253241,-5.24101 5.550989,-12.78459 7.328121,-16.76367 1.777145,-3.97907 3.012343,-7.36914 2.746105,-7.53321 -0.266249,-0.16404 -4.619981,-0.97482 -9.675788,-1.80077 -14.669488,-2.39654 -21.288139,-3.61353 -31.384766,-5.7715 -4.554361,-0.9734 -8.594972,-1.66042 -9.759765,-1.67773 z" />
     <path
     id="path415"
     fill="#00f"
     d="m 26.515625,420.19141 v 2.26562 l 39.121094,9.23633 c 0.303997,-0.64336 0.610508,-1.29369 0.951172,-2.04492 z" />
     <path
     id="path417"
     fill="#0ff"
     d="m 26.5625,403.49609 c -0.02813,1.94328 -0.04687,4.02768 -0.04687,6.22071 v 5.18945 l 42.175781,9.95703 c 1.433272,-3.32407 3.002414,-6.9203 4.511719,-10.35547 z" />
     <path
     id="path419"
     fill="#00f"
     d="m 26.779297,395.77344 c -0.03343,0.66318 -0.06365,1.43674 -0.0918,2.26172 l 48.708984,11.49609 c 0.03231,-0.0725 0.09167,-0.20904 0.123047,-0.2793 0.281232,-0.62968 0.519246,-1.20323 0.769531,-1.79297 z" />
     </g><g
   id="layer3">
   <path
     fill="#000"
     d="m 484.91082,434.34034 c -0.38014,-0.48614 -1.98074,-3.74767 -3.55689,-7.24785 -1.57616,-3.50017 -4.77667,-10.57836 -7.11226,-15.72931 -2.33559,-5.15094 -4.03548,-9.49538 -3.77754,-9.6543 0.25794,-0.15893 4.60556,-0.98704 9.66137,-1.84025 9.04645,-1.52666 27.19318,-5.17576 36.63666,-7.36723 2.64926,-0.61479 5.13111,-1.1178 5.51521,-1.1178 0.78594,0 0.59162,34.21677 -0.19881,35.00503 -0.49178,0.49043 -6.17736,1.95391 -24.41387,6.28417 -12.21818,2.90121 -11.829,2.85033 -12.75387,1.66754 z"
     id="path1253" />
     <path
     id="path435"
     fill="#00f"
     d="m 522.56445,420.10742 -40.07422,9.45703 c 0.35441,0.75684 0.68619,1.45146 0.99415,2.08203 l 38.99023,-9.20312 c 0.0331,-0.703 0.0619,-1.49735 0.0898,-2.33594 z" />
     <path
     id="path437"
     fill="#0ff"
     d="m 522.76758,402.99023 -47.26563,11.15821 c 1.71851,3.79438 3.41567,7.55074 4.76563,10.54297 l 42.43164,-10.01563 c 0.0645,-3.7761 0.0869,-7.91943 0.0684,-11.68555 z" />
     <path
     id="path439"
     fill="#00f"
     d="m 522.62695,395.08008 -50.30664,11.87304 c 0.2811,0.67058 0.58546,1.37158 0.91211,2.11915 l 49.4668,-11.67579 c -0.009,-0.4188 -0.0164,-0.84763 -0.0273,-1.23242 -0.0147,-0.36132 -0.0289,-0.76609 -0.0449,-1.08398 z" />
     </g><g
   id="layer4">
   <path
     fill="#000"
     d="m 156.30288,403.22764 c -0.15229,-0.48614 -1.54837,-4.86136 -3.1024,-9.72272 -3.67112,-11.48411 -7.18293,-23.01736 -7.18293,-23.58968 0,-0.24857 57.75295,-0.45195 128.33988,-0.45195 109.30042,0 128.33988,0.1463 128.33988,0.98618 0,0.5424 -0.60248,3.00843 -1.33885,5.48008 -0.73637,2.47164 -2.50939,8.78957 -3.94005,14.03984 -1.43065,5.25027 -2.92113,10.58008 -3.31218,11.84404 l -0.71098,2.29809 H 274.9875 c -94.10711,0 -118.46456,-0.18139 -118.68462,-0.88388 z"
     id="path1249" />
     <path
     id="path459"
     fill="#00f"
     d="m 148.31055,377.86523 c 0.132,0.43309 0.34412,1.0953 0.48437,1.55274 h 251.58594 c 0.12899,-0.45118 0.3254,-1.17243 0.43555,-1.55274 z" />
     <path
     id="path455"
     fill="#00f"
     d="m 153.52148,394.51172 c 0.23932,0.74888 0.27078,0.8478 0.49219,1.54101 H 395.7168 c 0.15431,-0.55131 0.2598,-0.92945 0.42968,-1.54101 z" />
     <path
     id="path457"
     fill="#0ff"
     d="m 149.96289,383.15234 c 0.78483,2.52875 1.54429,4.97495 2.42969,7.76563 h 244.75976 c 0.11484,-0.41969 0.15096,-0.52842 0.26563,-0.94922 0.69464,-2.54921 1.21585,-4.32628 1.91406,-6.81641 z" />
     </g></svg>
