<?xml version="1.0" encoding="UTF-8" standalone="no"?>
<!-- Created with Inkscape (http://www.inkscape.org/) -->

<svg
   version="1.1"
   id="svg2"
   width="551"
   height="580"
   viewBox="0 0 551 580"
   xml:space="preserve"
   xmlns="http://www.w3.org/2000/svg"
   xmlns:svg="http://www.w3.org/2000/svg"><defs
   id="defs9" />
    <g
   id="layer1"><path
     fill="#000"
     d="m 156.30288,403.22764 c -0.15229,-0.48614 -1.54837,-4.86136 -3.1024,-9.72272 -3.67112,-11.48411 -7.18293,-23.01736 -7.18293,-23.58968 0,-0.24857 57.75295,-0.45195 128.33988,-0.45195 109.30042,0 128.33988,0.1463 128.33988,0.98618 0,0.5424 -0.60248,3.00843 -1.33885,5.48008 -0.73637,2.47164 -2.50939,8.78957 -3.94005,14.03984 -1.43065,5.25027 -2.92113,10.58008 -3.31218,11.84404 l -0.71098,2.29809 H 274.9875 c -94.10711,0 -118.46456,-0.18139 -118.68462,-0.88388 z"
     id="path253" />
     <path
     id="path2123"
     fill="#0ff"
     d="m 149.70898,382.33789 c 0.94409,3.04945 1.88798,6.09896 2.98243,9.53906 h 244.19336 c 0.22874,-0.83263 0.30272,-1.06236 0.5332,-1.9082 0.77763,-2.85378 1.3841,-4.93534 2.14258,-7.63086 z" />
     <path
     id="path2125"
     fill="#00f"
     d="m 154.16016,396.51367 c 0.12957,0.40576 0.17732,0.55713 0.29687,0.93164 h 240.86914 c 0.0822,-0.29103 0.1718,-0.6112 0.26172,-0.93164 z" />
     <path
     id="path2127"
     fill="#00f"
     d="m 153.27734,393.74609 c 0.14809,0.46328 0.15314,0.48183 0.29688,0.93164 h 242.52734 c 0.10184,-0.36634 0.15353,-0.54791 0.25977,-0.93164 z" />
     <path
     id="path2129"
     fill="#00f"
     d="m 148.84961,379.58984 c 0.0847,0.27602 0.20362,0.6477 0.29101,0.93164 h 250.92969 c 0.0841,-0.29611 0.1832,-0.65668 0.26172,-0.93164 z" />
     <path
     id="path2131"
     fill="#00f"
     d="m 148.00195,376.81641 c 0.13881,0.4592 0.12062,0.43642 0.27149,0.93164 h 252.57617 c 0.0652,-0.22468 0.20453,-0.73668 0.26172,-0.93164 z" />
     </g><g
   id="layer2">
   <path
     id="path250"
     d="m 27.445311,392.46875 c -0.166405,-0.003 -0.274255,0.008 -0.316401,0.0332 -0.336962,0.20824 -0.613284,7.95524 -0.613287,17.21485 l 5e-6,16.83593 4.066403,1.08984 c 2.236221,0.59968 7.088579,1.80273 10.783207,2.67383 3.69463,0.8711 10.059035,2.44777 14.142578,3.50195 1.08662,0.28052 2.124147,0.53814 3.089845,0.77344 l 4.994135,0.99024 c 0.49816,-0.52593 2.483329,-4.64394 4.599611,-9.56641 2.253241,-5.24101 5.550989,-12.78459 7.328121,-16.76367 1.777145,-3.97907 3.012343,-7.36914 2.746105,-7.53321 -0.266249,-0.16404 -4.619981,-0.97482 -9.675788,-1.80077 -14.669488,-2.39654 -21.288139,-3.61353 -31.384766,-5.7715 -4.554361,-0.9734 -8.594972,-1.66042 -9.759765,-1.67773 z" />
     <path
     id="path2058"
     fill="#0ff"
     d="m 26.550781,404.89062 c -0.01732,1.56189 -0.03515,3.12478 -0.03516,4.82618 v 5.88672 l 42.566406,8.35937 c 1.423193,-3.29408 2.877838,-6.6304 4.304688,-9.875 z" />
     <path
     id="path2060"
     fill="#00f"
     d="m 26.515625,420.81641 v 1.04687 l 40.037109,7.86133 c 0.139759,-0.30777 0.285343,-0.64019 0.429688,-0.96289 z" />
     <path
     id="path2062"
     fill="#00f"
     d="m 26.515625,417.70508 v 1.04687 l 41.302734,8.10938 c 0.12668,-0.29109 0.24511,-0.54812 0.373047,-0.84571 0.01491,-0.0347 0.03579,-0.0823 0.05078,-0.11718 z" />
     <path
     id="path2064"
     fill="#00f"
     d="m 26.595703,401.8125 c -0.0072,0.37021 -0.01718,0.65593 -0.02344,1.04102 l 47.642578,9.35742 c 0.137431,-0.3111 0.296651,-0.67143 0.425781,-0.96289 z" />
     <path
     id="path2066"
     fill="#00f"
     d="m 26.671875,398.70898 c -0.0099,0.31861 -0.01633,0.70547 -0.02539,1.04297 l 48.833985,9.58789 c 0.01,-0.0224 0.02917,-0.0657 0.03906,-0.0879 0.137585,-0.30805 0.24631,-0.57718 0.376953,-0.87695 z" />
     </g><g
   id="layer3">
   <path
     fill="#000"
     d="m 484.91082,434.34034 c -0.38014,-0.48614 -1.98074,-3.74767 -3.55689,-7.24785 -1.57616,-3.50017 -4.77667,-10.57836 -7.11226,-15.72931 -2.33559,-5.15094 -4.03548,-9.49538 -3.77754,-9.6543 0.25794,-0.15893 4.60556,-0.98704 9.66137,-1.84025 9.04645,-1.52666 27.19318,-5.17576 36.63666,-7.36723 2.64926,-0.61479 5.13111,-1.1178 5.51521,-1.1178 0.78594,0 0.59162,34.21677 -0.19881,35.00503 -0.49178,0.49043 -6.17736,1.95391 -24.41387,6.28417 -12.21818,2.90121 -11.829,2.85033 -12.75387,1.66754 z"
     id="path247" />
     <path
     id="path2091"
     fill="#0ff"
     d="m 522.76953,405.83789 -46.88867,9.15039 c 1.62984,3.59967 3.20845,7.08813 4.45508,9.85156 l 42.31836,-8.25976 c 0.0736,-3.37404 0.11274,-7.07077 0.11523,-10.74219 z" />
     <path
     id="path2093"
     fill="#00f"
     d="m 522.5,421.82227 -39.98242,7.80273 c 0.16316,0.34811 0.30405,0.63243 0.45898,0.95703 l 39.48047,-7.70508 c 0.0161,-0.31699 0.028,-0.70439 0.043,-1.05468 z" />
     <path
     id="path2095"
     fill="#00f"
     d="m 522.60156,418.69141 -41.39453,8.07812 c 0.0337,0.0747 0.11416,0.25049 0.14649,0.32227 0.099,0.21986 0.19408,0.42132 0.29296,0.63867 l 40.92774,-7.98633 c 0.0104,-0.32481 0.0178,-0.71207 0.0273,-1.05273 z" />
     <path
     id="path2097"
     fill="#00f"
     d="m 522.76758,402.75 -48.16797,9.40234 c 0.14781,0.32611 0.28081,0.62569 0.43359,0.96289 l 47.73438,-9.32031 c -10e-4,-0.34264 0.002,-0.70864 0,-1.04492 z" />
     <path
     id="path2099"
     fill="#00f"
     d="m 522.69336,399.64648 -49.36914,9.63672 c 0.14004,0.31938 0.27898,0.63334 0.42578,0.96289 l 48.96875,-9.55664 c -0.009,-0.3375 -0.0153,-0.72436 -0.0254,-1.04297 z" />
     </g><g
   id="layer4">
   <path
     id="path1888"
     fill="#000"
     d="m 312.44727,32.308594 c -6.0528,2.082445 -12.20725,3.604423 -18.46094,4.574218 -13.02474,2.744733 -27.20385,2.355747 -40.4043,-1.142578 -4.04329,-0.806936 -8.1242,-1.817485 -12.24023,-3.027343 l -1.41407,1.353515 c -4.06023,3.878987 -9.93673,15.343391 -10.86523,21.199219 -0.42425,2.675654 -0.37213,2.751764 3.33984,4.960937 6.4853,3.859714 18.3898,7.405025 31.70118,9.439454 13.56873,2.073759 25.49739,1.582875 36.63671,-1.507813 10.29009,-2.855064 20.89387,-8.829229 21.75391,-12.255859 0.72682,-2.895921 -3.55336,-13.711661 -8.57226,-21.66211 -0.5564,-0.881384 -1.03756,-1.508212 -1.47461,-1.93164 z" />
     <path
     id="path2158"
     fill="#0ff"
     d="m 319.86719,45.796875 c -28.72233,5.123669 -57.88821,5.252872 -87.51953,0.150391 -1.54338,3.274806 -2.76035,6.520738 -3.20899,8.9375 31.13876,4.451817 62.27726,4.559271 93.41602,-0.05078 -0.0896,-1.945805 -1.125,-5.286972 -2.6875,-9.037109 z" />
     <path
     id="path2160"
     fill="#00f"
     d="m 231.91016,59.921875 c 0.18918,0.113419 0.27959,0.178165 0.49218,0.304687 0.57753,0.343716 1.2124,0.683601 1.87305,1.021485 25.18561,3.241778 52.12378,4.107967 82.41211,0.0918 0.74907,-0.461209 1.43136,-0.919458 2.06055,-1.373047 -29.05217,3.164282 -58.0033,3.317985 -86.83789,-0.04492 z" />
     <path
     id="path2162"
     fill="#00f"
     d="m 228.88672,56.794922 c -0.004,0.390976 0.0715,0.706638 0.23633,1 30.79999,4.756592 61.47556,4.675226 92.03125,0.146484 0.36773,-0.381138 0.65683,-0.744876 0.88281,-1.095703 -30.42904,3.955239 -61.47024,4.001072 -93.15039,-0.05078 z" />
     <path
     id="path2164"
     fill="#00f"
     d="m 318.76953,43.273438 c -28.19798,4.343577 -56.58869,4.644258 -85.20508,0.201171 -0.17371,0.332695 -0.33939,0.660159 -0.50781,0.996094 28.50394,5.211457 57.22628,5.061157 86.1582,-0.212891 -0.14526,-0.327903 -0.29317,-0.653056 -0.44531,-0.984374 z" />
     <path
     id="path2166"
     fill="#00f"
     d="m 317.51758,40.650391 c -27.794,3.949848 -55.27737,3.854954 -82.48242,0.148437 -0.20139,0.345204 -0.39182,0.707504 -0.58985,1.0625 27.84965,4.61537 55.69918,4.426978 83.54883,-0.21289 -0.16216,-0.334016 -0.3088,-0.663825 -0.47656,-0.998047 z" />
     </g></svg>
