<?xml version="1.0" encoding="UTF-8" standalone="no"?>
<!-- Created with Inkscape (http://www.inkscape.org/) -->

<svg
   version="1.1"
   id="svg2"
   width="551"
   height="580"
   viewBox="0 0 551 580"
   xmlns="http://www.w3.org/2000/svg"
   xmlns:svg="http://www.w3.org/2000/svg">
    <path
      fill="#000"
       fill-opacity="1"
       d="m 264.10438,69.665522 c -13.31139,-2.034431 -25.21617,-5.578888 -31.70147,-9.438605 -3.71198,-2.209176 -3.76404,-2.286534 -3.33979,-4.962191 0.9285,-5.855834 6.80353,-17.3201 10.86377,-21.199091 l 2.09012,-1.99681 6.38437,2.138959 c 17.78304,5.957868 37.97929,5.989952 54.96306,0.08732 3.49158,-1.213484 6.88164,-2.377357 7.53347,-2.586385 0.83228,-0.266899 1.73253,0.487075 3.02369,2.532413 5.01891,7.950457 9.2987,18.765821 8.57188,21.661745 -0.86004,3.426634 -11.46235,9.3997 -21.75245,12.254767 -11.13934,3.090691 -23.0679,3.581644 -36.63665,1.507883 z"
       id="path1247" />
    <path
      fill="#000"
       fill-opacity="1"
       d="m 156.30288,403.22764 c -0.15229,-0.48614 -1.54837,-4.86136 -3.1024,-9.72272 -3.67112,-11.48411 -7.18293,-23.01736 -7.18293,-23.58968 0,-0.24857 57.75295,-0.45195 128.33988,-0.45195 109.30042,0 128.33988,0.1463 128.33988,0.98618 0,0.5424 -0.60248,3.00843 -1.33885,5.48008 -0.73637,2.47164 -2.50939,8.78957 -3.94005,14.03984 -1.43065,5.25027 -2.92113,10.58008 -3.31218,11.84404 l -0.71098,2.29809 H 274.9875 c -94.10711,0 -118.46456,-0.18139 -118.68462,-0.88388 z"
       id="path1249" />
    <path
      fill="#000"
       fill-opacity="1"
       d="m 55.507882,433.8176 c -4.083542,-1.05419 -10.447503,-2.62944 -14.142135,-3.50055 -3.694633,-0.8711 -8.547154,-2.07447 -10.783379,-2.67415 l -4.065864,-1.09032 v -16.83565 c 0,-9.25961 0.275693,-17.00604 0.612651,-17.21429 0.336957,-0.20825 4.87128,0.53156 10.076272,1.64402 10.096639,2.15796 16.714431,3.37498 31.383931,5.77151 5.055813,0.82596 9.41022,1.63598 9.676461,1.80003 0.26624,0.16406 -0.969953,3.55391 -2.747097,7.53299 -1.777144,3.97909 -5.074729,11.52282 -7.327967,16.76384 -2.253237,5.24103 -4.358123,9.57193 -4.677523,9.62422 -0.319401,0.0523 -3.921808,-0.76745 -8.00535,-1.82165 z"
       id="path1251" />
    <path
      fill="#000"
       fill-opacity="1"
       d="m 484.91082,434.34034 c -0.38014,-0.48614 -1.98074,-3.74767 -3.55689,-7.24785 -1.57616,-3.50017 -4.77667,-10.57836 -7.11226,-15.72931 -2.33559,-5.15094 -4.03548,-9.49538 -3.77754,-9.6543 0.25794,-0.15893 4.60556,-0.98704 9.66137,-1.84025 9.04645,-1.52666 27.19318,-5.17576 36.63666,-7.36723 2.64926,-0.61479 5.13111,-1.1178 5.51521,-1.1178 0.78594,0 0.59162,34.21677 -0.19881,35.00503 -0.49178,0.49043 -6.17736,1.95391 -24.41387,6.28417 -12.21818,2.90121 -11.829,2.85033 -12.75387,1.66754 z"
       id="path1253" />
</svg>
