<?xml version="1.0" encoding="UTF-8" standalone="no"?>
<!-- Created with Inkscape (http://www.inkscape.org/) -->

<svg
   version="1.1"
   id="svg2"
   width="551"
   height="580"
   viewBox="0 0 551 580"
   xml:space="preserve"
   xmlns="http://www.w3.org/2000/svg"
   xmlns:svg="http://www.w3.org/2000/svg"><defs
   id="defs9" />
   <g
   id="layer1">
   <path
     fill="#000"
     d="m 264.10438,69.665522 c -13.31139,-2.034431 -25.21617,-5.578888 -31.70147,-9.438605 -3.71198,-2.209176 -3.76404,-2.286534 -3.33979,-4.962191 0.9285,-5.855834 6.80353,-17.3201 10.86377,-21.199091 l 2.09012,-1.99681 6.38437,2.138959 c 17.78304,5.957868 37.97929,5.989952 54.96306,0.08732 3.49158,-1.213484 6.88164,-2.377357 7.53347,-2.586385 0.83228,-0.266899 1.73253,0.487075 3.02369,2.532413 5.01891,7.950457 9.2987,18.765821 8.57188,21.661745 -0.86004,3.426634 -11.46235,9.3997 -21.75245,12.254767 -11.13934,3.090691 -23.0679,3.581644 -36.63665,1.507883 z"
     id="path803" />
     <path
     id="path1667"
     d="m 239.13086,34.896484 c -3.99246,4.486259 -9.19897,14.886092 -10.06836,20.369141 -0.42425,2.675654 -0.37213,2.751764 3.33984,4.960937 6.4853,3.859714 18.3898,7.405025 31.70118,9.439454 13.56873,2.073759 25.49739,1.582875 36.63671,-1.507813 10.29009,-2.855064 20.89387,-8.829229 21.75391,-12.255859 0.70757,-2.819232 -3.33862,-13.125598 -8.18359,-21.00586 h -12.8125 c -15.87836,5.049338 -34.30465,5.047725 -50.88672,0 z" />
     <path
     id="path1669"
     fill="#00f"
     d="m 229.11328,57.773438 c 0.37511,0.689807 1.29465,1.266153 3.28906,2.453124 1.19349,0.710303 2.57382,1.410295 4.10938,2.091797 25.11223,3.621904 50.23617,7.203672 78.50586,0 2.78037,-1.555446 4.99885,-3.141342 6.29101,-4.544921 -30.73177,6.414546 -61.46354,3.294594 -92.19531,0 z" />
     <path
     id="path1671"
     fill="#0ff"
     d="m 231.4375,47.96875 c -1.16796,2.725941 -2.0638,5.334222 -2.375,7.296875 -0.1963,1.238046 -0.27225,1.91376 0.0508,2.507813 30.4992,3.411035 61.01791,6.535936 92.19531,0 0.61989,-0.673334 1.04462,-1.309589 1.18555,-1.871094 0.33208,-1.323126 -0.41445,-4.332663 -1.76562,-7.933594 -29.76367,5.87162 -59.52735,4.545717 -89.29102,0 z" />
     <path
     id="path1673"
     fill="#00f"
     d="m 233.58984,43.427734 c -0.78832,1.507184 -1.50553,3.033217 -2.15234,4.542969 29.04625,4.59153 58.61634,5.830434 89.29102,0 -0.54253,-1.445993 -1.16472,-2.962074 -1.88672,-4.542969 z" />
     <path
     id="path1675"
     d="m 239.13281,34.894531 c -1.77283,1.991513 -3.77721,5.15902 -5.54297,8.535157 27.84646,3.710561 56.10306,4.755291 85.25196,0 -1.31161,-2.872046 -2.87227,-5.837011 -4.53125,-8.535157 h -12.80664 c -15.88215,5.051993 -34.31429,5.050692 -50.90039,0 z" />
     </g><g
   id="layer2">
   <path
     id="path1576"
     d="m 27.445311,392.46875 c -0.166405,-0.003 -0.274255,0.008 -0.316401,0.0332 -0.336962,0.20824 -0.613284,7.95524 -0.613287,17.21485 l 5e-6,16.83593 4.066403,1.08984 c 2.236221,0.59968 7.088579,1.80273 10.783207,2.67383 3.69463,0.8711 10.059035,2.44777 14.142578,3.50195 1.08662,0.28052 2.124147,0.53814 3.089845,0.77344 l 4.994135,0.99024 c 0.49816,-0.52593 2.483329,-4.64394 4.599611,-9.56641 2.253241,-5.24101 5.550989,-12.78459 7.328121,-16.76367 1.777145,-3.97907 3.012343,-7.36914 2.746105,-7.53321 -0.266249,-0.16404 -4.619981,-0.97482 -9.675788,-1.80077 -14.669488,-2.39654 -21.288139,-3.61353 -31.384766,-5.7715 -4.554361,-0.9734 -8.594972,-1.66042 -9.759765,-1.67773 z" />
     <path
     id="path1560"
     d="m 28.070312,392.51367 -1.324218,4.01367 c -0.139685,3.17907 -0.230467,7.90988 -0.230469,13.18946 v 16.83593 l 4.066406,1.08985 c 2.236219,0.59968 7.088579,1.80273 10.783203,2.67383 3.694627,0.8711 10.05904,2.44777 14.142578,3.50195 1.086619,0.28052 2.124147,0.53814 3.089844,0.77344 l 4.994141,0.99023 c 0.498159,-0.52593 2.483329,-4.64394 4.599609,-9.56641 1.869297,-4.34796 4.298186,-9.90086 6.140625,-14.06835 l 3.419922,-10.3711 c -1.295097,-0.30374 -4.967961,-0.97302 -9.162109,-1.6582 -14.669474,-2.39654 -21.288149,-3.61352 -31.384766,-5.77149 -3.943736,-0.84289 -7.495156,-1.46828 -9.134766,-1.63281 z" />
     <path
     id="path1562"
     fill="#00f"
     d="m 26.515625,415.91016 v 5.37695 l 39.710937,9.13867 c 0.617644,-1.34224 1.271321,-2.79702 1.964844,-4.41016 0.05962,-0.13868 0.142085,-0.32694 0.203125,-0.46874 z" />
     <path
     id="path1564"
     fill="#0ff"
     d="m 26.556641,404.31836 c -0.02147,1.72303 -0.04101,3.49529 -0.04102,5.39844 v 6.19336 l 41.878906,9.63672 c 1.406828,-3.26821 3.038387,-7.00829 4.589844,-10.54297 z" />
     <path
     id="path1566"
     fill="#00f"
     d="m 26.666016,398.9707 c -0.04788,1.59666 -0.08464,3.36452 -0.109375,5.34961 l 46.425781,10.6875 c 0.490666,-1.11789 0.915162,-2.08131 1.34375,-3.05078 l 0.61914,-1.875 z" />
     <path
     id="path1568"
     d="m 28.083984,392.51367 -1.339843,4.05469 c -0.03068,0.70331 -0.05468,1.55725 -0.08008,2.4043 l 48.28125,11.11132 2.806641,-8.50781 c -1.295097,-0.30374 -4.967961,-0.97302 -9.162109,-1.6582 -14.669474,-2.39654 -21.288149,-3.61352 -31.384766,-5.77149 -3.934244,-0.84086 -7.476224,-1.46645 -9.121093,-1.63281 z" />
     </g><g
   id="layer3">
   <path
     fill="#000"
     d="m 484.91082,434.34034 c -0.38014,-0.48614 -1.98074,-3.74767 -3.55689,-7.24785 -1.57616,-3.50017 -4.77667,-10.57836 -7.11226,-15.72931 -2.33559,-5.15094 -4.03548,-9.49538 -3.77754,-9.6543 0.25794,-0.15893 4.60556,-0.98704 9.66137,-1.84025 9.04645,-1.52666 27.19318,-5.17576 36.63666,-7.36723 2.64926,-0.61479 5.13111,-1.1178 5.51521,-1.1178 0.78594,0 0.59162,34.21677 -0.19881,35.00503 -0.49178,0.49043 -6.17736,1.95391 -24.41387,6.28417 -12.21818,2.90121 -11.829,2.85033 -12.75387,1.66754 z"
     id="path1253" />
     <path
     id="path1605"
     d="m 521.45117,392.07617 c -1.6895,0.16453 -5.35032,0.78993 -9.41406,1.63281 -4.03124,0.83616 -7.56668,1.52616 -11.21289,2.20313 -7.68547,1.56622 -15.60578,3.09747 -20.69922,3.95703 -5.0558,0.85321 -9.40222,1.68091 -9.66016,1.83984 -0.004,0.003 -0.005,0.0163 -0.008,0.0215 l 1.34961,3.9707 c 0.65562,1.61769 1.46701,3.52608 2.43555,5.66211 2.33559,5.15095 5.53517,12.22835 7.11133,15.72852 1.57614,3.50017 3.1765,6.7619 3.55664,7.24804 0.23965,0.30649 0.39577,0.53539 0.70117,0.65821 l 4.38281,-0.84375 c 0.99509,-0.2353 2.06391,-0.49292 3.18359,-0.77344 4.2078,-1.05418 10.76521,-2.63085 14.57227,-3.50195 3.80705,-0.8711 8.80706,-2.07415 11.11133,-2.67383 l 3.22656,-0.83985 c 0.6108,-0.83557 0.85959,-21.64952 0.56641,-30.75 z" />
     <path
     id="path1607"
     fill="#00f"
     d="m 522.67969,415.55664 -42.27344,9.43945 c 0.26178,0.58036 0.73726,1.62936 0.94727,2.09571 0.43708,0.97064 0.8689,1.90336 1.2832,2.7832 l 39.90039,-8.91016 c 0.059,-1.58021 0.10484,-3.43678 0.14258,-5.4082 z" />
     <path
     id="path1609"
     fill="#0ff"
     d="m 522.76758,403.93555 -47.125,10.52539 c 1.72795,3.81566 3.44759,7.61749 4.76367,10.53515 l 42.27344,-9.43945 c 0.071,-3.70713 0.0993,-7.78997 0.0879,-11.62109 z" />
     <path
     id="path1611"
     fill="#00f"
     d="m 522.71484,398.57422 -49.25976,11.00195 c 0.26371,0.5985 0.50205,1.15844 0.78711,1.78711 0.46056,1.01574 0.8936,1.97816 1.40234,3.10156 l 47.12305,-10.52734 c -0.006,-1.94431 -0.0239,-3.70616 -0.0527,-5.36328 z" />
     <path
     id="path1613"
     d="m 521.43555,392.07617 c -1.69492,0.16636 -5.34448,0.79196 -9.39844,1.63281 -4.22746,0.87686 -7.87577,1.59825 -11.7168,2.30664 -7.5253,1.52951 -15.21545,3.01313 -20.19531,3.85352 -5.0558,0.85321 -9.40222,1.68091 -9.66016,1.83984 -0.004,0.003 -0.005,0.0163 -0.008,0.0215 l 1.35156,3.97461 c 0.46254,1.14114 1.0146,2.43902 1.64649,3.87304 l 49.25976,-11.00195 c -0.0179,-1.03009 -0.0334,-2.06806 -0.0605,-2.91992 z" />
     </g><g
   id="layer4">
   <path
     fill="#000"
     d="m 156.30288,403.22764 c -0.15229,-0.48614 -1.54837,-4.86136 -3.1024,-9.72272 -3.67112,-11.48411 -7.18293,-23.01736 -7.18293,-23.58968 0,-0.24857 57.75295,-0.45195 128.33988,-0.45195 109.30042,0 128.33988,0.1463 128.33988,0.98618 0,0.5424 -0.60248,3.00843 -1.33885,5.48008 -0.73637,2.47164 -2.50939,8.78957 -3.94005,14.03984 -1.43065,5.25027 -2.92113,10.58008 -3.31218,11.84404 l -0.71098,2.29809 H 274.9875 c -94.10711,0 -118.46456,-0.18139 -118.68462,-0.88388 z"
     id="path1249" />
     <path
     id="path1636"
     d="m 274.35742,369.46289 c -70.58686,0 -128.33984,0.20456 -128.33984,0.45313 0,0.57232 3.51248,12.10574 7.18359,23.58984 1.55403,4.86135 2.94927,9.23652 3.10156,9.72266 0.22006,0.70248 24.57854,0.88281 118.68555,0.88281 h 118.40625 l 0.71094,-2.29883 c 0.39105,-1.26396 1.88185,-6.59349 3.3125,-11.84375 1.43066,-5.25026 3.20504,-11.56742 3.94141,-14.03906 0.73636,-2.47165 1.33789,-4.93807 1.33789,-5.48047 0,-0.83988 -19.03954,-0.98633 -128.33985,-0.98633 z" />
     <path
     id="path1638"
     fill="#00f"
     d="m 152.57812,391.51367 c 0.22808,0.71764 0.3929,1.27222 0.62305,1.99219 0.39081,1.22255 0.42573,1.33837 0.7793,2.44531 h 241.76367 c 0.44787,-1.60103 0.70767,-2.48891 1.24219,-4.4375 z" />
     <path
     id="path1640"
     fill="#0ff"
     d="m 149.58594,381.94336 c 0.93702,3.03036 1.89657,6.12292 2.99218,9.57031 h 244.40821 c 0.18606,-0.67831 0.24504,-0.86012 0.43164,-1.54492 0.81785,-3.00138 1.46991,-5.24421 2.25391,-8.02539 z" />
     <path
     id="path1642"
     fill="#00f"
     d="m 148.20117,377.50977 c 0.37913,1.24626 0.93926,2.99475 1.38477,4.43554 h 250.08398 c 0.43336,-1.53734 0.94523,-3.40073 1.2461,-4.43554 z" />
     <path
     id="path1644"
     d="m 274.35742,369.46289 c -70.58686,0 -128.33984,0.20456 -128.33984,0.45313 0,0.28223 0.8776,3.30279 2.18359,7.5957 h 252.71485 c 0.10731,-0.36912 0.36039,-1.30355 0.44336,-1.58203 0.73636,-2.47165 1.33789,-4.93807 1.33789,-5.48047 0,-0.83988 -19.03954,-0.98633 -128.33985,-0.98633 z" />
     </g></svg>
