<?xml version="1.0" encoding="UTF-8" standalone="no"?>
<!-- Created with Inkscape (http://www.inkscape.org/) -->

<svg
   version="1.1"
   id="svg2"
   width="551"
   height="580"
   viewBox="0 0 551 580"
   xml:space="preserve"
   xmlns="http://www.w3.org/2000/svg"
   xmlns:svg="http://www.w3.org/2000/svg"><defs
   id="defs9" />
    <g
   id="layer1">
   <path
     fill="#000"
     d="m 156.30288,403.22764 c -0.15229,-0.48614 -1.54837,-4.86136 -3.1024,-9.72272 -3.67112,-11.48411 -7.18293,-23.01736 -7.18293,-23.58968 0,-0.24857 57.75295,-0.45195 128.33988,-0.45195 109.30042,0 128.33988,0.1463 128.33988,0.98618 0,0.5424 -0.60248,3.00843 -1.33885,5.48008 -0.73637,2.47164 -2.50939,8.78957 -3.94005,14.03984 -1.43065,5.25027 -2.92113,10.58008 -3.31218,11.84404 l -0.71098,2.29809 H 274.9875 c -94.10711,0 -118.46456,-0.18139 -118.68462,-0.88388 z"
     id="path253" />
     <path
     id="path1870"
     fill="#0ff"
     d="m 274.35742,369.46289 c -70.58686,0 -128.33984,0.20456 -128.33984,0.45313 0,0.57232 3.51248,12.10574 7.18359,23.58984 1.55403,4.86135 2.94927,9.23652 3.10156,9.72266 0.22006,0.70248 24.57854,0.88281 118.68555,0.88281 h 118.40625 l 0.71094,-2.29883 c 0.39105,-1.26396 1.88185,-6.59349 3.3125,-11.84375 1.43066,-5.25026 3.20504,-11.56742 3.94141,-14.03906 0.73636,-2.47165 1.33789,-4.93807 1.33789,-5.48047 0,-0.83988 -19.03954,-0.98633 -128.33985,-0.98633 z" />
     <path
     id="path1872"
     fill="#00f"
     d="m 149.43359,381.45898 c 1.0205,3.30544 2.09112,6.75547 3.30469,10.56836 H 396.8418 c 0.2462,-0.89564 0.32749,-1.14598 0.57617,-2.05859 0.86718,-3.1824 1.57702,-5.63717 2.38867,-8.50977 z" />
     <path
     id="path1874"
     d="m 274.35742,369.46289 c -70.58686,0 -128.33984,0.20456 -128.33984,0.45313 0,0.35535 1.51079,5.3719 3.41601,11.54296 h 250.37305 c 0.52739,-1.86655 1.26271,-4.55582 1.55274,-5.52929 0.73636,-2.47165 1.33789,-4.93807 1.33789,-5.48047 0,-0.83988 -19.03954,-0.98633 -128.33985,-0.98633 z" />
     </g><g
   id="layer2">
   <path
     id="path250"
     d="m 27.445311,392.46875 c -0.166405,-0.003 -0.274255,0.008 -0.316401,0.0332 -0.336962,0.20824 -0.613284,7.95524 -0.613287,17.21485 l 5e-6,16.83593 4.066403,1.08984 c 2.236221,0.59968 7.088579,1.80273 10.783207,2.67383 3.69463,0.8711 10.059035,2.44777 14.142578,3.50195 1.08662,0.28052 2.124147,0.53814 3.089845,0.77344 l 4.994135,0.99024 c 0.49816,-0.52593 2.483329,-4.64394 4.599611,-9.56641 2.253241,-5.24101 5.550989,-12.78459 7.328121,-16.76367 1.777145,-3.97907 3.012343,-7.36914 2.746105,-7.53321 -0.266249,-0.16404 -4.619981,-0.97482 -9.675788,-1.80077 -14.669488,-2.39654 -21.288139,-3.61353 -31.384766,-5.7715 -4.554361,-0.9734 -8.594972,-1.66042 -9.759765,-1.67773 z" />
     <path
     id="path1827"
     fill="#0ff"
     d="m 27.445312,392.46875 c -0.166404,-0.003 -0.27426,0.008 -0.316406,0.0332 -0.336961,0.20824 -0.613278,7.95525 -0.613281,17.21485 v 16.83593 l 4.066406,1.08985 c 2.236219,0.59968 7.088579,1.80273 10.783203,2.67383 3.694627,0.8711 10.05904,2.44777 14.142578,3.50195 1.086619,0.28052 2.124147,0.53814 3.089844,0.77344 l 4.994141,0.99023 c 0.498159,-0.52593 2.483329,-4.64394 4.599609,-9.56641 2.253239,-5.241 5.550995,-12.78459 7.328125,-16.76367 1.777143,-3.97906 3.012332,-7.36913 2.746094,-7.5332 -0.266249,-0.16404 -4.619979,-0.97483 -9.675781,-1.80078 -14.669474,-2.39654 -21.288149,-3.61352 -31.384766,-5.77149 -4.554356,-0.97339 -8.594974,-1.66042 -9.759766,-1.67773 z" />
     <path
     id="path1829"
     fill="#00f"
     d="m 26.556641,404.10547 c -0.02312,1.78136 -0.04101,3.63313 -0.04102,5.61133 v 8.35547 l 41.070313,9.31835 c 0.204131,-0.46551 0.397518,-0.8913 0.605468,-1.375 1.481142,-3.44511 3.284239,-7.57521 4.939453,-11.34374 z" />
     <path
     id="path1831"
     fill="#000"
     d="m 27.445312,392.46875 c -0.166404,-0.003 -0.27426,0.008 -0.316406,0.0332 -0.264974,0.16376 -0.487163,5.04662 -0.572265,11.60352 l 46.574218,10.56641 c 0.862839,-1.96448 1.779719,-4.05645 2.388672,-5.41993 1.777143,-3.97906 3.012332,-7.36913 2.746094,-7.5332 -0.266249,-0.16404 -4.619979,-0.97483 -9.675781,-1.80078 -14.669474,-2.39654 -21.288149,-3.61352 -31.384766,-5.77149 -4.554356,-0.97339 -8.594974,-1.66042 -9.759766,-1.67773 z" />
     </g><g
   id="layer3"><path
     fill="#000"
     d="m 484.91082,434.34034 c -0.38014,-0.48614 -1.98074,-3.74767 -3.55689,-7.24785 -1.57616,-3.50017 -4.77667,-10.57836 -7.11226,-15.72931 -2.33559,-5.15094 -4.03548,-9.49538 -3.77754,-9.6543 0.25794,-0.15893 4.60556,-0.98704 9.66137,-1.84025 9.04645,-1.52666 27.19318,-5.17576 36.63666,-7.36723 2.64926,-0.61479 5.13111,-1.1178 5.51521,-1.1178 0.78594,0 0.59162,34.21677 -0.19881,35.00503 -0.49178,0.49043 -6.17736,1.95391 -24.41387,6.28417 -12.21818,2.90121 -11.829,2.85033 -12.75387,1.66754 z"
     id="path247" />
     <path
     id="path1852"
     fill="#0ff"
     d="m 522.27734,391.38281 c -0.3841,0 -2.86636,0.50435 -5.51562,1.11914 -9.44347,2.19147 -27.59028,5.84053 -36.63672,7.36719 -5.0558,0.85321 -9.40222,1.68091 -9.66016,1.83984 -0.25794,0.15892 1.44176,4.50337 3.77735,9.6543 2.33559,5.15095 5.53517,12.22835 7.11133,15.72852 1.57614,3.50017 3.1765,6.7619 3.55664,7.24804 0.92487,1.18279 0.53573,1.23324 12.7539,-1.66796 18.23649,-4.33026 23.92229,-5.79278 24.41406,-6.28321 0.79043,-0.78826 0.98516,-35.00586 0.19922,-35.00586 z" />
     <path
     id="path1854"
     fill="#00f"
     d="m 522.76758,403.41602 -47.34766,10.55468 c 2.13061,4.70399 4.61868,10.20108 5.9336,13.1211 0.005,0.0107 0.009,0.0206 0.0137,0.0312 l 41.2539,-9.19532 c 0.11282,-4.39115 0.16599,-9.67268 0.14649,-14.51171 z" />
     <path
     id="path1856"
     fill="#000"
     d="m 522.27734,391.38281 c -0.3841,0 -2.86636,0.50435 -5.51562,1.11914 -9.44347,2.19147 -27.59028,5.84053 -36.63672,7.36719 -5.0558,0.85321 -9.40222,1.68091 -9.66016,1.83984 -0.25794,0.15892 1.44176,4.50337 3.77735,9.6543 0.38712,0.85377 0.75442,1.67283 1.17773,2.60742 l 47.34766,-10.55468 c -0.0265,-6.57453 -0.17747,-12.03321 -0.49024,-12.03321 z" />
     </g><g
   id="layer4">
   <path
     id="path1888"
     fill="#0ff"
     d="m 312.44727,32.308594 c -6.0528,2.082445 -12.20725,3.604423 -18.46094,4.574218 -13.02474,2.744733 -27.20385,2.355747 -40.4043,-1.142578 -4.04329,-0.806936 -8.1242,-1.817485 -12.24023,-3.027343 l -1.41407,1.353515 c -4.06023,3.878987 -9.93673,15.343391 -10.86523,21.199219 -0.42425,2.675654 -0.37213,2.751764 3.33984,4.960937 6.4853,3.859714 18.3898,7.405025 31.70118,9.439454 13.56873,2.073759 25.49739,1.582875 36.63671,-1.507813 10.29009,-2.855064 20.89387,-8.829229 21.75391,-12.255859 0.72682,-2.895921 -3.55336,-13.711661 -8.57226,-21.66211 -0.5564,-0.881384 -1.03756,-1.508212 -1.47461,-1.93164 z" />
     <path
     id="path1890"
     fill="#00f"
     d="m 319.11328,44.017578 c -27.01277,3.907874 -56.24334,4.504899 -85.95312,0.240234 -2.01447,3.98421 -3.64598,8.159175 -4.09766,11.007813 -0.12967,0.817812 -0.19671,1.3783 -0.14648,1.845703 29.63111,4.532178 60.12717,4.783823 92.94921,-0.0078 0.30866,-0.423416 0.53581,-0.830248 0.62891,-1.201172 0.44872,-1.787849 -1.01727,-6.597656 -3.38086,-11.884766 z" />
     <path
     id="path1892"
     fill="#000"
     d="m 311.21289,31.65625 c -0.10679,9.32e-4 -0.21042,0.01937 -0.31445,0.05273 -0.65183,0.209028 -4.04163,1.372455 -7.53321,2.585938 -16.98375,5.902626 -37.17986,5.869971 -54.96289,-0.08789 l -6.38476,-2.138672 -2.08985,1.998047 c -2.09895,2.005258 -4.67375,6.038667 -6.80859,10.275391 28.96485,4.602482 57.66859,4.324062 86.02148,-0.259766 -1.47002,-3.296296 -3.28547,-6.7793 -5.21874,-9.841797 -1.12977,-1.789669 -1.96146,-2.590507 -2.70899,-2.583984 z" />
     </g></svg>
