<?xml version="1.0" encoding="UTF-8" standalone="no"?>
<!-- Created with Inkscape (http://www.inkscape.org/) -->

<svg
   version="1.1"
   id="svg2"
   width="551"
   height="580"
   viewBox="0 0 551 580"
   xml:space="preserve"
   xmlns="http://www.w3.org/2000/svg"
   xmlns:svg="http://www.w3.org/2000/svg"><defs
   id="defs9" />
     <g
   id="layer1"><path
     fill="#000"
     d="m 156.30288,403.22764 c -0.15229,-0.48614 -1.54837,-4.86136 -3.1024,-9.72272 -3.67112,-11.48411 -7.18293,-23.01736 -7.18293,-23.58968 0,-0.24857 57.75295,-0.45195 128.33988,-0.45195 109.30042,0 128.33988,0.1463 128.33988,0.98618 0,0.5424 -0.60248,3.00843 -1.33885,5.48008 -0.73637,2.47164 -2.50939,8.78957 -3.94005,14.03984 -1.43065,5.25027 -2.92113,10.58008 -3.31218,11.84404 l -0.71098,2.29809 H 274.9875 c -94.10711,0 -118.46456,-0.18139 -118.68462,-0.88388 z"
     id="path253" />
     <path
     id="path1100"
     fill="#00f"
     d="m 154.74023,398.33008 c 0.28191,0.88346 0.59513,1.86588 0.77344,2.42578 h 238.88672 c 0.11839,-0.40074 0.48767,-1.75049 0.67969,-2.42578 z" />
     <path
     id="path1102"
     fill="#00f"
     d="m 149.11719,380.44727 c 1.1443,3.7188 2.4158,7.80981 3.82422,12.22656 h 243.7207 c 0.31917,-1.15798 0.42912,-1.50602 0.75586,-2.70508 0.97031,-3.56087 1.81877,-6.51143 2.67383,-9.52148 z" />
     <path
     id="path1104"
     fill="#00f"
     d="m 146.65234,372.125 c 0.14886,0.55361 0.41509,1.46146 0.70313,2.44336 h 254.375 c 0.25837,-0.92978 0.47775,-1.74104 0.64062,-2.44336 z" />
     </g><g
   id="layer2">
   <path
     id="path250"
     d="m 27.445311,392.46875 c -0.166405,-0.003 -0.274255,0.008 -0.316401,0.0332 -0.336962,0.20824 -0.613284,7.95524 -0.613287,17.21485 l 5e-6,16.83593 4.066403,1.08984 c 2.236221,0.59968 7.088579,1.80273 10.783207,2.67383 3.69463,0.8711 10.059035,2.44777 14.142578,3.50195 1.08662,0.28052 2.124147,0.53814 3.089845,0.77344 l 4.994135,0.99024 c 0.49816,-0.52593 2.483329,-4.64394 4.599611,-9.56641 2.253241,-5.24101 5.550989,-12.78459 7.328121,-16.76367 1.777145,-3.97907 3.012343,-7.36914 2.746105,-7.53321 -0.266249,-0.16404 -4.619981,-0.97482 -9.675788,-1.80077 -14.669488,-2.39654 -21.288139,-3.61353 -31.384766,-5.7715 -4.554361,-0.9734 -8.594972,-1.66042 -9.759765,-1.67773 z" />
     <path
     id="path1066"
     fill="#00f"
     d="m 26.515625,418.73438 v 2.33984 l 39.970703,8.79101 c 0.304605,-0.66903 0.62462,-1.3962 0.949219,-2.13281 z" />
     <path
     id="path1068"
     fill="#00f"
     d="m 26.603516,401.50781 c -0.05113,2.48591 -0.08789,5.19455 -0.08789,8.20899 v 3.56445 l 43.089844,9.47461 c 1.638445,-3.78315 3.272137,-7.52052 4.703125,-10.75781 z" />
     <path
     id="path1070"
     fill="#00f"
     d="m 26.9375,393.55273 c -0.05828,0.57099 -0.112965,1.33039 -0.162109,2.32422 L 76.5625,406.82422 c 0.333345,-0.80083 0.612258,-1.50991 0.861328,-2.16797 z" />
     </g><g
   id="layer3">
   <path
     fill="#000"
     d="m 484.91082,434.34034 c -0.38014,-0.48614 -1.98074,-3.74767 -3.55689,-7.24785 -1.57616,-3.50017 -4.77667,-10.57836 -7.11226,-15.72931 -2.33559,-5.15094 -4.03548,-9.49538 -3.77754,-9.6543 0.25794,-0.15893 4.60556,-0.98704 9.66137,-1.84025 9.04645,-1.52666 27.19318,-5.17576 36.63666,-7.36723 2.64926,-0.61479 5.13111,-1.1178 5.51521,-1.1178 0.78594,0 0.59162,34.21677 -0.19881,35.00503 -0.49178,0.49043 -6.17736,1.95391 -24.41387,6.28417 -12.21818,2.90121 -11.829,2.85033 -12.75387,1.66754 z"
     id="path247" />
     <path
     id="path1085"
     fill="#00f"
     d="m 522.55859,420.35938 -40.23242,8.8457 c 0.35728,0.76731 0.68789,1.46922 1.00391,2.12109 l 39.13281,-8.60742 c 0.0348,-0.70583 0.0664,-1.50565 0.0957,-2.35937 z" />
     <path
     id="path1087"
     fill="#00f"
     d="m 522.73438,403.07422 -47.51563,10.44922 c 1.72256,3.80245 3.42986,7.57847 4.84961,10.72461 l 42.62891,-9.37305 c 0.0544,-3.11007 0.0719,-6.44852 0.0703,-9.66797 -0.0114,-0.71354 -0.0192,-1.45416 -0.0332,-2.13281 z" />
     <path
     id="path1089"
     fill="#00f"
     d="m 522.39947,395.11909 c 0.0583,0.57099 0.11297,1.33039 0.16211,2.32422 l -49.78711,10.94727 c -0.33334,-0.80083 -0.61226,-1.50991 -0.86133,-2.16797 z" />
     </g><g
   id="layer4">
   <path
     fill="#000"
     d="m 264.10438,69.665522 c -13.31139,-2.034431 -25.21617,-5.578888 -31.70147,-9.438605 -3.71198,-2.209176 -3.76404,-2.286534 -3.33979,-4.962191 0.9285,-5.855834 6.80353,-17.3201 10.86377,-21.199091 l 2.09012,-1.99681 6.38437,2.138959 c 17.78304,5.957868 37.97929,5.989952 54.96306,0.08732 3.49158,-1.213484 6.88164,-2.377357 7.53347,-2.586385 0.83228,-0.266899 1.73253,0.487075 3.02369,2.532413 5.01891,7.950457 9.2987,18.765821 8.57188,21.661745 -0.86004,3.426634 -11.46235,9.3997 -21.75245,12.254767 -11.13934,3.090691 -23.0679,3.581644 -36.63665,1.507883 z"
     id="path244" />
     <path
     id="path1118"
     fill="#00f"
     d="m 229.60938,58.394531 c 0.53098,0.477237 1.40492,1.005941 2.79296,1.832031 0.33726,0.200716 0.69846,0.400768 1.06446,0.59961 27.73947,3.771359 55.47928,3.610028 83.21875,0.515625 1.26474,-0.778586 2.36278,-1.553332 3.26562,-2.298828 -29.46882,3.2241 -59.52895,3.295531 -90.34179,-0.648438 z" />
     <path
     id="path1120"
     fill="#00f"
     d="m 232.7793,45.048828 c -1.54936,3.165297 -2.83748,6.379536 -3.44727,8.908203 31.57517,3.195032 62.57794,2.961877 93.17578,0.292969 -0.24863,-2.082484 -1.3188,-5.336849 -2.83789,-8.914062 -28.96347,3.034261 -57.92715,3.033977 -86.89062,-0.28711 z" />
     <path
     id="path1122"
     fill="#00f"
     d="m 236.13281,39.021484 c -0.36014,0.566791 -0.72104,1.130488 -1.07617,1.738282 28.69005,2.566339 56.17132,2.513824 82.62305,0.230468 -0.28148,-0.567153 -0.57881,-1.123286 -0.875,-1.6875 -26.8904,2.4892 -53.78148,2.187177 -80.67188,-0.28125 z" />
     </g></svg>
