<?xml version="1.0" encoding="UTF-8" standalone="no"?>
<!-- Created with Inkscape (http://www.inkscape.org/) -->

<svg
   version="1.1"
   id="svg2"
   width="551"
   height="580"
   viewBox="0 0 551 580"
   xml:space="preserve"
   xmlns="http://www.w3.org/2000/svg"
   xmlns:svg="http://www.w3.org/2000/svg"><defs
   id="defs9" />
     <g
   id="layer1">
   <path
     fill="#000"
     d="m 156.30288,403.22764 c -0.15229,-0.48614 -1.54837,-4.86136 -3.1024,-9.72272 -3.67112,-11.48411 -7.18293,-23.01736 -7.18293,-23.58968 0,-0.24857 57.75295,-0.45195 128.33988,-0.45195 109.30042,0 128.33988,0.1463 128.33988,0.98618 0,0.5424 -0.60248,3.00843 -1.33885,5.48008 -0.73637,2.47164 -2.50939,8.78957 -3.94005,14.03984 -1.43065,5.25027 -2.92113,10.58008 -3.31218,11.84404 l -0.71098,2.29809 H 274.9875 c -94.10711,0 -118.46456,-0.18139 -118.68462,-0.88388 z"
     id="path253" />
     <path
     id="path2123"
     fill="#0ff"
     d="m 149.70898,382.33789 c 0.94409,3.04945 1.88798,6.09896 2.98243,9.53906 h 244.19336 c 0.22874,-0.83263 0.30272,-1.06236 0.5332,-1.9082 0.77763,-2.85378 1.3841,-4.93534 2.14258,-7.63086 z" />
     <path
     id="path2125"
     fill="#00f"
     d="m 154.64453,398.03125 c 0.13397,0.41978 0.24047,0.75075 0.35547,1.11133 h 239.85156 c 0.0777,-0.27082 0.21908,-0.78881 0.31055,-1.11133 z" />
     <path
     id="path2127"
     fill="#00f"
     d="m 153.5918,394.72852 c 0.17108,0.53539 0.19174,0.60488 0.35351,1.11132 h 241.83008 c 0.11307,-0.40443 0.18937,-0.67554 0.31055,-1.11132 z" />
     <path
     id="path2129"
     fill="#00f"
     d="m 148.30078,377.83594 c 0.0944,0.3097 0.24898,0.78893 0.34766,1.11133 h 251.86328 c 0.0885,-0.30861 0.23393,-0.84014 0.3125,-1.11133 z" />
     <path
     id="path2131"
     fill="#00f"
     d="m 147.34375,374.52539 c 0.12996,0.44338 0.16355,0.59231 0.31836,1.11133 h 253.77734 c 0.11619,-0.39592 0.1964,-0.7278 0.30274,-1.11133 z" />
     </g><g
   id="layer2">
   <path
     id="path250"
     d="m 27.445311,392.46875 c -0.166405,-0.003 -0.274255,0.008 -0.316401,0.0332 -0.336962,0.20824 -0.613284,7.95524 -0.613287,17.21485 l 5e-6,16.83593 4.066403,1.08984 c 2.236221,0.59968 7.088579,1.80273 10.783207,2.67383 3.69463,0.8711 10.059035,2.44777 14.142578,3.50195 1.08662,0.28052 2.124147,0.53814 3.089845,0.77344 l 4.994135,0.99024 c 0.49816,-0.52593 2.483329,-4.64394 4.599611,-9.56641 2.253241,-5.24101 5.550989,-12.78459 7.328121,-16.76367 1.777145,-3.97907 3.012343,-7.36914 2.746105,-7.53321 -0.266249,-0.16404 -4.619981,-0.97482 -9.675788,-1.80077 -14.669488,-2.39654 -21.288139,-3.61353 -31.384766,-5.7715 -4.554361,-0.9734 -8.594972,-1.66042 -9.759765,-1.67773 z" />
     <path
     id="path2058"
     fill="#0ff"
     d="m 26.550781,404.89062 c -0.01732,1.56189 -0.03515,3.12478 -0.03516,4.82618 v 5.88672 l 42.566406,8.35937 c 1.423193,-3.29408 2.877838,-6.6304 4.304688,-9.875 z" />
     <path
     id="path2060"
     fill="#00f"
     d="m 26.515625,423.24609 v 1.41993 l 38.841797,7.625 c 0.184621,-0.38521 0.403294,-0.86443 0.605469,-1.29883 z" />
     <path
     id="path2062"
     fill="#00f"
     d="m 26.515625,419.0293 v 1.41797 l 40.615234,7.97461 c 0.189699,-0.42621 0.381223,-0.86031 0.576172,-1.30665 z" />
     <path
     id="path2064"
     fill="#00f"
     d="m 26.705078,397.5 c -0.01534,0.41448 -0.02531,0.95539 -0.03906,1.41016 l 49.148437,9.65429 c 0.1973,-0.4503 0.3827,-0.88234 0.5625,-1.30859 z" />
     <path
     id="path2066"
     fill="#00f"
     d="m 26.962891,393.32227 c -0.04176,0.35456 -0.08147,0.82222 -0.119141,1.39843 l 50.582031,9.93164 c 0.180254,-0.47635 0.359809,-0.94894 0.486328,-1.32422 z" />
     </g><g
   id="layer3">
   <path
     fill="#000"
     d="m 484.91082,434.34034 c -0.38014,-0.48614 -1.98074,-3.74767 -3.55689,-7.24785 -1.57616,-3.50017 -4.77667,-10.57836 -7.11226,-15.72931 -2.33559,-5.15094 -4.03548,-9.49538 -3.77754,-9.6543 0.25794,-0.15893 4.60556,-0.98704 9.66137,-1.84025 9.04645,-1.52666 27.19318,-5.17576 36.63666,-7.36723 2.64926,-0.61479 5.13111,-1.1178 5.51521,-1.1178 0.78594,0 0.59162,34.21677 -0.19881,35.00503 -0.49178,0.49043 -6.17736,1.95391 -24.41387,6.28417 -12.21818,2.90121 -11.829,2.85033 -12.75387,1.66754 z"
     id="path247" />
     <path
     id="path2091"
     fill="#0ff"
     d="m 522.76953,405.83789 -46.88867,9.15039 c 1.62984,3.59967 3.20845,7.08813 4.45508,9.85156 l 42.31836,-8.25976 c 0.0736,-3.37404 0.11274,-7.07077 0.11523,-10.74219 z" />
     <path
     id="path2347"
     fill="#00f"
     d="m 522.42188,423.43555 -39.26172,7.5332 c 0.22709,0.47207 0.4362,0.9022 0.63281,1.29687 l 38.5293,-7.39062 c 0.035,-0.4049 0.0684,-0.89588 0.0996,-1.43945 z" />
     <path
     id="path2349"
     fill="#00f"
     d="m 522.58789,419.1875 -41.22851,7.9082 c 0.0754,0.16875 0.14814,0.32866 0.22265,0.49414 0.12567,0.27684 0.24847,0.53962 0.37305,0.81055 l 40.5957,-7.78906 c 0.0149,-0.42148 0.0236,-0.97101 0.0371,-1.42383 z" />
     <path
     id="path2351"
     fill="#00f"
     d="m 522.70117,397.59961 -50.21484,9.63672 c 0.18399,0.42625 0.37426,0.85829 0.57617,1.30859 l 49.6582,-9.53125 c -0.007,-0.46467 -0.0104,-0.98007 -0.0195,-1.41406 z" />
     <path
     id="path2353"
     fill="#00f"
     d="m 522.55664,393.39844 -51.64062,9.91015 c 0.12947,0.37528 0.31358,0.84787 0.49804,1.32422 l 51.21289,-9.82617 c -0.0208,-0.53658 -0.0449,-0.98445 -0.0703,-1.4082 z" />
     </g><g
   id="layer4">
   <path
     id="path1888"
     fill="#000"
     d="m 312.44727,32.308594 c -6.0528,2.082445 -12.20725,3.604423 -18.46094,4.574218 -13.02474,2.744733 -27.20385,2.355747 -40.4043,-1.142578 -4.04329,-0.806936 -8.1242,-1.817485 -12.24023,-3.027343 l -1.41407,1.353515 c -4.06023,3.878987 -9.93673,15.343391 -10.86523,21.199219 -0.42425,2.675654 -0.37213,2.751764 3.33984,4.960937 6.4853,3.859714 18.3898,7.405025 31.70118,9.439454 13.56873,2.073759 25.49739,1.582875 36.63671,-1.507813 10.29009,-2.855064 20.89387,-8.829229 21.75391,-12.255859 0.72682,-2.895921 -3.55336,-13.711661 -8.57226,-21.66211 -0.5564,-0.881384 -1.03756,-1.508212 -1.47461,-1.93164 z" />
     <path
     id="path2158"
     fill="#0ff"
     d="m 319.86719,45.796875 c -28.72233,5.123669 -57.88821,5.252872 -87.51953,0.150391 -1.54338,3.274806 -2.76035,6.520738 -3.20899,8.9375 31.13876,4.451817 62.27726,4.559271 93.41602,-0.05078 -0.0896,-1.945805 -1.125,-5.286972 -2.6875,-9.037109 z" />
     <path
     id="path2160"
     fill="#00f"
     d="m 232.04688,60.005859 c 0.14134,0.08448 0.2018,0.129251 0.35546,0.220703 0.77275,0.459899 1.62704,0.914335 2.54688,1.363282 25.02385,2.875782 51.65746,3.547517 81.10937,0.123047 0.95188,-0.564439 1.82234,-1.127806 2.59961,-1.683594 -28.96487,2.825157 -57.83972,2.949296 -86.61132,-0.02344 z" />
     <path
     id="path2162"
     fill="#00f"
     d="m 228.90234,56.591797 c -0.0281,0.505013 0.0307,0.898931 0.24414,1.251953 30.76505,4.239464 61.41959,4.184931 91.9668,0.144531 0.45486,-0.465773 0.80801,-0.910207 1.05078,-1.330078 -30.53061,3.536487 -61.61131,3.56379 -93.26172,-0.06641 z" />
     <path
     id="path2164"
     fill="#00f"
     d="m 317.99805,41.658203 c -27.67423,3.751542 -55.51528,3.991379 -83.54883,0.197266 -0.23032,0.412791 -0.45764,0.827451 -0.68164,1.25 28.08945,4.501 56.36627,4.373982 84.82617,-0.201172 -0.19286,-0.414633 -0.39326,-0.828983 -0.5957,-1.246094 z" />
     <path
     id="path2166"
     fill="#00f"
     d="m 316.4668,38.662109 c -26.97968,3.322081 -53.69895,3.25589 -80.18164,0.117188 -0.27596,0.428858 -0.55019,0.87715 -0.82422,1.332031 27.22215,3.924226 54.44387,3.767302 81.66601,-0.205078 -0.21479,-0.417463 -0.43801,-0.82993 -0.66015,-1.244141 z" />
     </g></svg>
