<?xml version="1.0" encoding="UTF-8" standalone="no"?>
<!-- Created with Inkscape (http://www.inkscape.org/) -->

<svg
   version="1.1"
   id="svg2"
   width="551"
   height="580"
   viewBox="0 0 551 580"
   xml:space="preserve"
   xmlns="http://www.w3.org/2000/svg"
   xmlns:svg="http://www.w3.org/2000/svg"><defs
     id="defs9" />
     <path
     fill="#000"
     fill-opacity="1"
     d="m 156.30288,403.22764 c -0.15229,-0.48614 -1.54837,-4.86136 -3.1024,-9.72272 -3.67112,-11.48411 -7.18293,-23.01736 -7.18293,-23.58968 0,-0.24857 57.75295,-0.45195 128.33988,-0.45195 109.30042,0 128.33988,0.1463 128.33988,0.98618 0,0.5424 -0.60248,3.00843 -1.33885,5.48008 -0.73637,2.47164 -2.50939,8.78957 -3.94005,14.03984 -1.43065,5.25027 -2.92113,10.58008 -3.31218,11.84404 l -0.71098,2.29809 H 274.9875 c -94.10711,0 -118.46456,-0.18139 -118.68462,-0.88388 z"
     id="path1249" />
     <path
     id="rect398"
     fill="#00f"
     d="m 147.45117,374.89844 c 0.70506,2.38965 1.48068,4.93305 2.67383,8.77148 h 249.06055 c 0.80512,-2.87758 1.76783,-6.37749 2.17383,-7.74023 0.10963,-0.36801 0.17909,-0.66983 0.28124,-1.03125 z" />
     <path
     id="rect400"
     fill="#0ff"
     d="m 148.18555,377.45312 c 0.32544,1.07032 0.79172,2.53228 1.16797,3.75196 h 250.52539 c 0.35294,-1.24757 0.80016,-2.88382 1.05273,-3.75196 z" />
     <path
     id="rect402"
     fill="#00f"
     d="m 152.12891,390.07422 c 0.38848,1.22736 0.67585,2.19156 1.07226,3.43164 0.85377,2.67078 1.12476,3.52876 1.70313,5.3418 h 240.03125 c 0.64362,-2.25182 1.39265,-4.8835 2.45312,-8.77344 z" />
     <path
     id="rect404"
     fill="#0ff"
     d="m 152.92773,392.62891 c 0.10098,0.31668 0.17216,0.56011 0.27344,0.87695 0.45985,1.43851 0.51392,1.61174 0.91797,2.87695 H 395.625 c 0.36621,-1.30598 0.60543,-2.1449 1.04883,-3.7539 z" />
     <path
     fill="#000"
     fill-opacity="1"
     d="m 55.507888,433.8176 c -4.083542,-1.05419 -10.447503,-2.62944 -14.142135,-3.50055 -3.694633,-0.8711 -8.547154,-2.07447 -10.783379,-2.67415 l -4.065864,-1.09032 v -16.83565 c 0,-9.25961 0.275693,-17.00604 0.612651,-17.21429 0.336957,-0.20825 4.87128,0.53156 10.076272,1.64402 10.096639,2.15796 16.714431,3.37498 31.383931,5.77151 5.055813,0.82596 9.41022,1.63598 9.676461,1.80003 0.26624,0.16406 -0.969953,3.55391 -2.747097,7.53299 -1.777144,3.97909 -5.074729,11.52282 -7.327967,16.76384 -2.253237,5.24103 -4.358123,9.57193 -4.677523,9.62422 -0.319401,0.0523 -3.921808,-0.76745 -8.00535,-1.82165 z"
     id="path1251" />
     <path
     id="path406"
     style="stroke-width:0.373082"
     d="m 27.445311,392.46875 c -0.166405,-0.003 -0.274255,0.008 -0.316401,0.0332 -0.336962,0.20824 -0.613284,7.95524 -0.613287,17.21485 l 5e-6,16.83593 4.066403,1.08984 c 2.236221,0.59968 7.088579,1.80273 10.783207,2.67383 3.69463,0.8711 10.059035,2.44777 14.142578,3.50195 1.08662,0.28052 2.124147,0.53814 3.089845,0.77344 l 4.994135,0.99024 c 0.49816,-0.52593 2.483329,-4.64394 4.599611,-9.56641 2.253241,-5.24101 5.550989,-12.78459 7.328121,-16.76367 1.777145,-3.97907 3.012343,-7.36914 2.746105,-7.53321 -0.266249,-0.16404 -4.619981,-0.97482 -9.675788,-1.80077 -14.669488,-2.39654 -21.288139,-3.61353 -31.384766,-5.7715 -4.554361,-0.9734 -8.594972,-1.66042 -9.759765,-1.67773 z" />
     <path
     id="path408"
     fill="#00f"
     d="m 26.716803,397.25195 c -0.08826,2.28643 -0.142979,5.32387 -0.171883,8.64258 l 46.402349,9.19336 c 0.940851,-2.14399 1.916558,-4.36778 2.572256,-5.83594 0.336506,-0.75341 0.628745,-1.45321 0.919931,-2.14648 z" />
     <path
     id="path410"
     fill="#0ff"
     d="m 26.646488,399.76563 c -0.03156,1.17872 -0.06404,2.32104 -0.08399,3.69335 l 47.373043,9.38672 c 0.503866,-1.14248 1.113082,-2.53623 1.503912,-3.4121 z" />
     <path
     id="path412"
     fill="#00f"
     d="m 26.515631,412.22265 -2e-6,8.67579 40.400387,8.00585 c 0.415584,-0.92701 0.836434,-1.86766 1.275388,-2.88866 0.648518,-1.50844 1.450553,-3.34762 2.21094,-5.09766 z" />
     <path
     id="path414"
     fill="#0ff"
     d="m 26.515625,414.75 6e-6,3.71289 41.390621,8.20117 c 0.09777,-0.22528 0.186677,-0.4194 0.285152,-0.64843 0.352329,-0.81953 0.807583,-1.85984 1.201171,-2.76953 z" />
     <path
     fill="#000"
     fill-opacity="1"
     d="m 484.91082,434.34034 c -0.38014,-0.48614 -1.98074,-3.74767 -3.55689,-7.24785 -1.57616,-3.50017 -4.77667,-10.57836 -7.11226,-15.72931 -2.33559,-5.15094 -4.03548,-9.49538 -3.77754,-9.6543 0.25794,-0.15893 4.60556,-0.98704 9.66137,-1.84025 9.04645,-1.52666 27.19318,-5.17576 36.63666,-7.36723 2.64926,-0.61479 5.13111,-1.1178 5.51521,-1.1178 0.78594,0 0.59162,34.21677 -0.19881,35.00503 -0.49178,0.49043 -6.17736,1.95391 -24.41387,6.28417 -12.21818,2.90121 -11.829,2.85033 -12.75387,1.66754 z"
     id="path1253" />
     <path
     id="rect398-6"
     fill="#00f"
     d="m 522.74219,400.41992 -50.15821,7.17578 c 0.49647,1.16668 1.05362,2.43421 1.65821,3.76758 0.68706,1.51526 1.3184,2.91828 2.09179,4.62695 l 46.42579,-6.64257 c 0.0221,-3.13893 0.0141,-6.15251 -0.0176,-8.92774 z" />
     <path
     id="rect400-2"
     fill="#0ff"
     d="m 522.76758,403.01758 -49.10742,7.02344 c 0.19955,0.44946 0.37114,0.85716 0.58203,1.32226 0.33697,0.74316 0.65989,1.46267 1.02539,2.26953 l 47.50195,-6.79492 c 0.003,-1.29577 0.004,-2.58449 -0.002,-3.82031 z" />
     <path
     id="rect402-8"
     fill="#00f"
     d="m 522.67188,415.88281 -43.56836,6.23242 c 0.74508,1.64948 1.7513,3.86911 2.25,4.97657 0.548,1.21696 1.08043,2.3536 1.58203,3.40625 l 39.38867,-5.63282 c 0.15602,-1.81344 0.27091,-5.13927 0.34766,-8.98242 z" />
     <path
     id="rect404-9"
     fill="#0ff"
     d="m 522.60547,418.49219 -42.39649,6.0664 c 0.32768,0.72626 0.89071,1.96954 1.14454,2.53321 0.16352,0.36314 0.32171,0.69951 0.48437,1.05468 l 40.64063,-5.81445 c 0.0504,-1.08983 0.0889,-2.4545 0.12695,-3.83984 z" />
     <path
     fill="#000"
     fill-opacity="1"
     d="m 264.10438,69.665522 c -13.31139,-2.034431 -25.21617,-5.578888 -31.70147,-9.438605 -3.71198,-2.209176 -3.76404,-2.286534 -3.33979,-4.962191 0.9285,-5.855834 6.80353,-17.3201 10.86377,-21.199091 l 2.09012,-1.99681 6.38437,2.138959 c 17.78304,5.957868 37.97929,5.989952 54.96306,0.08732 3.49158,-1.213484 6.88164,-2.377357 7.53347,-2.586385 0.83228,-0.266899 1.73253,0.487075 3.02369,2.532413 5.01891,7.950457 9.2987,18.765821 8.57188,21.661745 -0.86004,3.426634 -11.46235,9.3997 -21.75245,12.254767 -11.13934,3.090691 -23.0679,3.581644 -36.63665,1.507883 z"
     id="path803" />
     <path
     id="path432"
     fill="#00f"
     d="m 235.85938,39.460938 c -1.2819,2.062428 -2.52459,4.366031 -3.61133,6.693359 28.22071,2.083835 56.97969,3.091522 87.77734,0.02148 -0.87023,-2.122606 -1.9113,-4.365256 -3.07031,-6.59375 -27.46501,1.981952 -54.36349,1.316673 -81.0957,-0.121093 z" />
     <path
     id="path434"
     fill="#0ff"
     d="m 234.76758,41.267578 c -0.52828,0.924214 -1.04509,1.874394 -1.53906,2.845703 28.5391,1.584495 57.1457,2.23853 85.95312,0.06641 -0.40853,-0.919445 -0.8518,-1.850284 -1.31055,-2.78711 -27.85014,1.892993 -55.50469,1.249136 -83.10351,-0.125 z" />
     <path
     id="path436"
     fill="#00f"
     d="m 230.31836,50.757812 c -0.60373,1.675462 -1.05318,3.229584 -1.25586,4.507813 -0.16833,1.06164 -0.24887,1.70905 -0.0684,2.248047 30.29387,2.765461 60.89485,3.920011 92.43945,0.11914 0.54817,-0.620558 0.92946,-1.208172 1.06055,-1.730468 0.24086,-0.959694 -0.0778,-2.798803 -0.78125,-5.105469 -31.5863,3.164238 -61.66172,2.048255 -91.39453,-0.03906 z" />
     <path
     id="path438"
     fill="#0ff"
     d="m 322.23828,52.744141 c -31.40561,3.265076 -62.11225,2.344077 -92.58594,0.01758 -0.26741,0.907343 -0.4708,1.753136 -0.58984,2.503906 -0.0167,0.105601 -0.0259,0.183453 -0.041,0.28125 30.9055,2.400102 61.97983,3.28043 93.51758,-0.0098 0.0724,-0.673682 -0.0355,-1.626148 -0.30078,-2.792968 z" />
     </svg>
