<?xml version="1.0" encoding="UTF-8" standalone="no"?>
<!-- Created with Inkscape (http://www.inkscape.org/) -->

<svg
   version="1.1"
   id="svg2"
   width="551"
   height="580"
   viewBox="0 0 551 580"
   xml:space="preserve"
   xmlns="http://www.w3.org/2000/svg"
   xmlns:svg="http://www.w3.org/2000/svg">
   <g
   id="layer1"><path
     fill="#000"
     d="m 156.30288,403.22764 c -0.15229,-0.48614 -1.54837,-4.86136 -3.1024,-9.72272 -3.67112,-11.48411 -7.18293,-23.01736 -7.18293,-23.58968 0,-0.24857 57.75295,-0.45195 128.33988,-0.45195 109.30042,0 128.33988,0.1463 128.33988,0.98618 0,0.5424 -0.60248,3.00843 -1.33885,5.48008 -0.73637,2.47164 -2.50939,8.78957 -3.94005,14.03984 -1.43065,5.25027 -2.92113,10.58008 -3.31218,11.84404 l -0.71098,2.29809 H 274.9875 c -94.10711,0 -118.46456,-0.18139 -118.68462,-0.88388 z"
     id="path253" />
     <path
     id="path410"
     fill="#00f"
     d="m 147.12109,373.75195 c 0.63452,2.2021 1.40104,4.75294 2.70899,8.97266 h 249.62109 c 0.68576,-2.44124 1.55179,-5.59862 1.90821,-6.79492 0.23152,-0.77712 0.40326,-1.46135 0.59374,-2.17774 z" />
     <path
     id="path412"
     d="m 147.87305,376.36523 c 0.38274,1.2721 0.68812,2.27717 1.16797,3.83789 h 251.11914 c 0.33886,-1.19121 0.85766,-3.0983 1.07617,-3.83789 z" />
     <path
     id="path414"
     fill="#00f"
     d="m 151.87891,389.27539 c 0.47515,1.50456 0.83355,2.70168 1.32226,4.23047 0.75801,2.37124 0.95683,2.99719 1.51367,4.74219 h 240.38672 c 0.66256,-2.33185 1.3163,-4.60904 2.31641,-8.2793 0.0707,-0.25936 0.12313,-0.42938 0.19531,-0.69336 z" />
     <path
     id="path416"
     d="m 152.69531,391.88867 c 0.18557,0.58326 0.31903,1.03274 0.50586,1.61719 0.35498,1.11044 0.38344,1.20155 0.70899,2.2207 h 241.89648 c 0.39368,-1.40895 0.61419,-2.16342 1.07422,-3.83789 z" />
     </g><g
   id="layer2">
   <path
     id="path250"
     d="m 27.445311,392.46875 c -0.166405,-0.003 -0.274255,0.008 -0.316401,0.0332 -0.336962,0.20824 -0.613284,7.95524 -0.613287,17.21485 l 5e-6,16.83593 4.066403,1.08984 c 2.236221,0.59968 7.088579,1.80273 10.783207,2.67383 3.69463,0.8711 10.059035,2.44777 14.142578,3.50195 1.08662,0.28052 2.124147,0.53814 3.089845,0.77344 l 4.994135,0.99024 c 0.49816,-0.52593 2.483329,-4.64394 4.599611,-9.56641 2.253241,-5.24101 5.550989,-12.78459 7.328121,-16.76367 1.777145,-3.97907 3.012343,-7.36914 2.746105,-7.53321 -0.266249,-0.16404 -4.619981,-0.97482 -9.675788,-1.80077 -14.669488,-2.39654 -21.288139,-3.61353 -31.384766,-5.7715 -4.554361,-0.9734 -8.594972,-1.66042 -9.759765,-1.67773 z" />
     <path
     id="path451"
     fill="#00f"
     d="m 74.851811,86.208595 c -0.356175,0 -0.601067,0.24599 -0.732409,0.553034 1.27518,8.639428 3.000653,19.375821 4.977348,31.105551 l 128.64602,0.002 c 0.87303,-5.64691 1.86189,-12.13123 2.51134,-16.21269 0.006,-0.0353 0.009,-0.0651 0.0147,-0.10046 l 8e-5,-14.485405 c 0,-0.477029 -0.38271,-0.86584 -0.85974,-0.86584 z"
     transform="matrix(0.365694,0.04818283,-0.06310014,0.27924142,5.0454318,370.73448)" />
     <path
     id="path453"
     d="m 75.449383,95.429014 c 0.666866,4.29915 1.361039,8.663626 2.161092,13.545956 l 131.507995,-0.002 c 0.3466,-2.21302 0.84254,-5.47421 1.13564,-7.31625 0.0571,-0.3587 0.0942,-0.66326 0.14996,-1.01907 l 5.9e-4,-4.763291 c 0,-0.246796 -0.19896,-0.447663 -0.44576,-0.447663 z"
     transform="matrix(0.365694,0.04818283,-0.06310014,0.27924142,5.0454318,370.73448)" />
     <path
     id="path455"
     fill="#00f"
     d="m 83.038329,140.98899 5.46261,31.65832 110.908471,-4.9e-4 c 0.48072,-3.03017 0.96088,-6.05538 1.44425,-9.33492 0.97322,-6.60302 2.18499,-14.59568 3.35283,-22.3241 z"
     transform="matrix(0.365694,0.04818283,-0.06310014,0.27924142,5.0454318,370.73448)" />
     <path
     id="path457"
     d="m 84.628709,150.20597 2.338105,13.55038 113.819476,8.3e-4 c 0.023,-0.15582 0.0443,-0.28903 0.0674,-0.44528 0.5713,-3.87611 1.31156,-8.7168 1.9688,-13.10449 z"
     transform="matrix(0.365694,0.04818283,-0.06310014,0.27924142,5.0454318,370.73448)" />
     </g><g
   id="layer3"><path
     fill="#000"
     d="m 484.91082,434.34034 c -0.38014,-0.48614 -1.98074,-3.74767 -3.55689,-7.24785 -1.57616,-3.50017 -4.77667,-10.57836 -7.11226,-15.72931 -2.33559,-5.15094 -4.03548,-9.49538 -3.77754,-9.6543 0.25794,-0.15893 4.60556,-0.98704 9.66137,-1.84025 9.04645,-1.52666 27.19318,-5.17576 36.63666,-7.36723 2.64926,-0.61479 5.13111,-1.1178 5.51521,-1.1178 0.78594,0 0.59162,34.21677 -0.19881,35.00503 -0.49178,0.49043 -6.17736,1.95391 -24.41387,6.28417 -12.21818,2.90121 -11.829,2.85033 -12.75387,1.66754 z"
     id="path247" />
     <path
     id="path488"
     d="m 521.83203,394.08008 -35.57031,4.68554 c -2.27329,0.42259 -4.40531,0.81133 -6.13672,1.10352 -3.40159,0.57405 -6.36709,1.11945 -8.09766,1.47461 l 2.3125,10.23437 c 2.32653,5.13149 5.45907,12.06136 7.01368,15.51368 1.57614,3.50017 3.1765,6.7619 3.55664,7.24804 0.92487,1.18279 0.53573,1.23324 12.7539,-1.66796 18.23649,-4.33026 23.92229,-5.79278 24.41406,-6.28321 0.57115,-0.56957 0.82516,-18.4812 0.62891,-28.4375 z" />
     <path
     id="path490"
     fill="#00f"
     d="m 522.74805,400.89258 -48.98438,6.45508 c -0.17447,0.023 -0.28988,0.14804 -0.25976,0.28125 l 0.94921,4.20117 c 0.64826,1.42999 1.21843,2.6953 1.9336,4.27539 l 46.36719,-6.10938 c 0.0259,-3.16846 0.0229,-6.25344 -0.006,-9.10351 z" />
     <path
     id="path492"
     d="m 522.76758,403.54297 -48.62305,6.40625 c -0.0903,0.0119 -0.15033,0.0756 -0.13476,0.14453 l 0.34179,1.50977 c 0.31344,0.69133 0.60661,1.34448 0.94336,2.08789 l 47.47461,-6.25586 c 0.005,-1.32451 0.003,-2.62149 -0.002,-3.89258 z" />
     <path
     id="path494"
     fill="#00f"
     d="m 522.65234,416.6582 -43.42968,5.72266 c 0.6967,1.54253 1.65874,3.66251 2.13086,4.71094 0.63102,1.40131 1.24571,2.71102 1.80468,3.87304 l 39.06446,-5.14648 c 0.19382,-1.31965 0.33583,-4.89775 0.42968,-9.16016 z" />
     <path
     id="path496"
     d="m 522.58398,419.31836 -42.22851,5.56445 c 0.27851,0.61739 0.77671,1.71747 0.99805,2.20899 0.22718,0.50451 0.44935,0.97784 0.67382,1.46484 l 40.40625,-5.32422 c 0.059,-1.07675 0.10599,-2.44932 0.15039,-3.91406 z" />
     </g><g
   id="layer4"><path
     fill="#000"
     d="m 264.10438,69.665522 c -13.31139,-2.034431 -25.21617,-5.578888 -31.70147,-9.438605 -3.71198,-2.209176 -3.76404,-2.286534 -3.33979,-4.962191 0.9285,-5.855834 6.80353,-17.3201 10.86377,-21.199091 l 2.09012,-1.99681 6.38437,2.138959 c 17.78304,5.957868 37.97929,5.989952 54.96306,0.08732 3.49158,-1.213484 6.88164,-2.377357 7.53347,-2.586385 0.83228,-0.266899 1.73253,0.487075 3.02369,2.532413 5.01891,7.950457 9.2987,18.765821 8.57188,21.661745 -0.86004,3.426634 -11.46235,9.3997 -21.75245,12.254767 -11.13934,3.090691 -23.0679,3.581644 -36.63665,1.507883 z"
     id="path244" />
     <path
     id="path678"
     fill="#00f"
     d="m 316.0332,37.851562 c -26.50355,1.864317 -52.90362,2.072436 -79.16211,0.01563 -1.72729,2.550377 -3.4793,5.741266 -4.90234,8.86914 29.60746,2.900281 59.04375,2.717845 88.3457,0.119141 -1.13556,-2.854948 -2.62781,-6.004187 -4.28125,-9.003907 z" />
     <path
     id="path680"
     d="m 235.22461,40.490234 c -0.693,1.171276 -1.36925,2.391397 -2.00977,3.652344 28.80603,1.973219 57.48163,2.128052 86.00391,0.128906 -0.54725,-1.235923 -1.13205,-2.491317 -1.76758,-3.751953 -27.40895,2.102289 -54.81761,2.29213 -82.22656,-0.0293 z" />
     <path
     id="path682"
     fill="#00f"
     d="m 229.53516,53.191406 c -0.20527,0.741427 -0.373,1.445699 -0.47266,2.074219 -0.42425,2.675654 -0.37213,2.751764 3.33984,4.960937 1.92654,1.146576 4.37842,2.256792 7.15625,3.316407 24.23637,2.176011 48.58803,2.048962 73.03321,0.04883 5.355,-2.66495 9.38655,-5.634418 9.90234,-7.689453 0.14413,-0.574286 0.0836,-1.468967 -0.13281,-2.582032 -31.10595,2.094576 -62.05746,2.160603 -92.82617,-0.128906 z" />
     <path
     id="path684"
     d="m 228.96875,55.900391 c -0.28267,2.02507 0.071,2.320908 3.33984,4.267578 28.44736,2.532004 57.04275,2.552138 85.77344,0.267578 2.33838,-1.590188 3.92064,-3.117781 4.33789,-4.349609 -31.15065,2.472513 -62.30051,2.733731 -93.45117,-0.185547 z" />
     </g></svg>
