<?xml version="1.0" encoding="UTF-8" standalone="no"?>
<!-- Created with Inkscape (http://www.inkscape.org/) -->

<svg
   width="210mm"
   height="297mm"
   viewBox="0 0 210 297"
   version="1.1"
   id="svg5"
   xml:space="preserve"
   xmlns="http://www.w3.org/2000/svg"
   xmlns:svg="http://www.w3.org/2000/svg"><defs
     id="defs2" /><g
     id="layer1"><path
       style="display:inline;fill:#000000;stroke-width:1.5875"
       d="m 27.94776,225.56068 c -3.744541,-0.9125 -7.184253,-1.83042 -7.643805,-2.0398 l -0.835548,-0.3807 -0.198071,-8.22291 c -0.29189,-12.11776 -0.298426,-11.99604 1.21501,-22.62455 3.742342,-26.2816 7.399613,-38.094 18.90508,-61.06035 8.218294,-16.40475 16.045397,-26.59571 21.453716,-27.93294 0.572497,-0.14155 7.205059,-3.05901 14.739027,-6.483237 l 13.698122,-6.225868 0.769303,-1.554898 0.769302,-1.554898 3.416766,-3.484303 3.416766,-3.484306 0.830463,0.524441 c 0.456753,0.288444 1.941709,0.799042 3.299899,1.134674 l 2.46945,0.61023 3.70416,0.0021 3.70417,0.0021 2.25433,-0.580829 c 1.23988,-0.319461 2.94495,-0.886331 3.78905,-1.259716 l 1.53473,-0.678884 2.20817,2.462639 c 1.84216,2.054452 4.58071,5.772877 4.93708,6.703589 0.13447,0.351203 29.44079,13.520696 31.20378,14.022166 l 1.47714,0.42016 1.69786,1.34521 c 13.1277,10.40101 30.3656,53.71108 35.79094,89.9244 l 0.77905,5.20008 -0.0823,11.28889 -0.0823,11.28889 -0.42042,0.39406 c -0.39542,0.37068 -13.65972,3.66293 -14.75755,3.66293 h -0.50902 l -2.07297,-4.67431 c -1.14013,-2.57087 -2.93388,-6.42055 -3.9861,-8.55486 -4.31856,-8.75965 -6.71657,-15.60085 -11.05421,-31.53613 -1.92546,-7.07365 -3.57885,-12.93919 -3.67418,-13.03452 -0.0953,-0.0953 -0.17407,1.48031 -0.17498,3.50143 -0.004,8.56194 -1.19279,21.56435 -2.31825,25.35203 l -0.57101,1.92171 -1.13248,1.13248 -1.13248,1.13248 -1.70301,6.11804 c -0.93666,3.36492 -1.83641,6.47522 -1.99945,6.91179 l -0.29644,0.79375 h -16.21568 -16.2157 l -0.21802,0.35277 -0.21803,0.35278 h -9.7864 -9.786404 l -0.349168,-0.34917 -0.349171,-0.34917 -16.199329,-0.0918 -16.199331,-0.0918 -2.317025,-7.23195 c -1.274369,-3.97757 -2.582469,-7.62882 -2.906893,-8.11389 -1.783628,-2.66683 -2.642158,-9.80382 -3.543469,-29.45694 l -0.08089,-1.76389 -1.129961,3.52778 c -0.621477,1.94028 -3.176291,9.96005 -5.677363,17.82173 l -4.547402,14.29395 -1.482437,3.16855 c -0.81534,1.7427 -1.866148,3.72417 -2.335133,4.40327 -0.468984,0.67909 -2.140735,4.17159 -3.715006,7.76111 -1.57427,3.58951 -2.969271,6.62023 -3.100003,6.73494 -0.130733,0.1147 -3.30141,-0.53805 -7.045951,-1.45056 z m 9.000954,-5.86784 c 2.730872,-6.30104 2.758516,-6.47152 1.049676,-6.47322 -2.248865,-0.002 -13.598412,-2.36424 -16.250496,-3.38195 l -0.573823,-0.22019 v 6.38774 c 0,3.51326 0.03969,6.39534 0.08819,6.40461 0.04851,0.009 2.86632,0.70954 6.261806,1.55613 3.395487,0.8466 6.332362,1.55296 6.526389,1.5697 l 0.352778,0.0305 2.545476,-5.87327 z m 151.265636,4.46115 c 2.52236,-0.5947 5.18142,-1.24034 5.90903,-1.43475 l 1.32292,-0.35347 v -6.37755 -6.37754 l -0.79375,0.21676 c -0.43657,0.11923 -3.73063,0.78029 -7.32014,1.46902 -3.58952,0.68874 -7.35983,1.41472 -8.37847,1.61328 -1.01865,0.19856 -1.85209,0.50473 -1.85209,0.68036 0,0.29501 4.2379,9.94079 4.99872,11.37746 l 0.33592,0.63431 0.59587,-0.18331 c 0.32774,-0.10082 2.65963,-0.66988 5.18199,-1.26457 z M 98.432406,208.10547 v -6.17361 H 80.793519 63.154629 l -2.65e-4,0.44097 c -2.35e-4,0.24253 0.820828,3.02066 1.824586,6.17361 l 1.825011,5.73264 H 82.618265 98.43257 v -6.17361 z m 5.644444,0.17639 v -5.99723 h -2.11667 -2.116657 v 5.99723 5.99722 h 2.116657 2.11667 z m 13.40556,0 v -5.99723 h -5.82084 -5.82083 v 5.99723 5.99722 h 5.82083 5.82084 z m -8.94116,4.64652 c -0.32112,-0.35482 -0.58385,-0.96522 -0.58385,-1.35643 v -0.7113 l 0.67647,-0.61219 0.67646,-0.61219 0.81105,0.11654 0.81106,0.11655 0.53211,0.95112 0.53212,0.95113 -0.84641,0.90096 c -0.9996,1.06403 -1.80603,1.1431 -2.60901,0.25581 z m 2.52531,-1.38333 0.11055,-1.14653 h -1.25708 -1.25707 v 1.25707 1.25708 l 1.14653,-0.11055 1.14653,-0.11054 z m -2.52531,-5.67222 c -1.73575,-1.91799 0.75909,-4.30362 2.52966,-2.41893 0.93642,0.99677 0.97155,1.71131 0.12191,2.48022 -0.84636,0.76595 -1.9255,0.74101 -2.65157,-0.0613 z m 2.52531,-1.20695 -0.11054,-1.14652 -1.14653,-0.11055 -1.14653,-0.11055 v 1.25708 1.25707 h 1.25707 1.25708 z m 39.94444,8.11389 c 0.21708,-0.82462 0.93757,-3.39929 1.6011,-5.72149 0.66353,-2.32221 1.20642,-4.42564 1.20642,-4.67431 v -0.45211 h -17.4625 -17.4625 v 6.17361 6.17361 h 15.8614 15.8614 z m -108.4772,-4.23333 1.573774,-3.2632 3.542252,-11.1125 c 5.962047,-18.7037 9.44748,-30.09385 9.661665,-31.57361 0.112337,-0.77611 0.518684,-4.90361 0.902991,-9.17222 0.948193,-10.53171 1.240425,-12.80557 2.878985,-22.40139 l 1.415632,-8.29028 0.194691,-5.31037 0.194691,-5.31037 -0.414079,-2.37781 c -0.227737,-1.30779 -0.675759,-2.92656 -0.995595,-3.59726 l -0.581522,-1.21947 h -0.601409 c -0.330774,0 -1.539126,0.69031 -2.68523,1.53403 l -2.083821,1.53402 -2.209242,2.74624 c -9.634093,11.97587 -21.979899,37.7361 -26.46286,55.21627 -2.691976,10.49667 -6.396207,33.48681 -6.396207,39.69776 v 2.25445 l 2.38125,0.7371 c 4.06729,1.25899 13.354411,3.02314 16.419367,3.11895 l 1.690897,0.0528 z m 136.15555,2.40293 c 1.16417,-0.27338 5.29167,-0.98897 9.17222,-1.59019 3.88056,-0.60122 7.35386,-1.18615 7.71845,-1.29984 l 0.66289,-0.20671 -0.24445,-3.40136 c -1.63188,-22.70641 -11.42015,-56.59684 -23.24399,-80.47886 l -2.53034,-5.11083 -2.72844,-4.12367 -2.72843,-4.12367 -2.23749,-2.23749 -2.23748,-2.23749 -1.45403,-0.65567 -1.45402,-0.65568 -0.52901,0.203 -0.529,0.203 -0.5834,1.8705 -0.5834,1.8705 -0.18584,4.43498 -0.18584,4.43499 0.41547,3.6789 c 0.22851,2.0234 0.95708,6.85391 1.61904,10.73446 1.44933,8.49633 2.01736,12.66207 3.16223,23.19056 l 0.87222,8.02112 0.74099,2.91499 c 5.30202,20.85791 9.55406,34.70944 13.06559,42.56284 l 1.12191,2.50911 0.39375,-0.005 c 0.21655,-0.003 1.34624,-0.22889 2.5104,-0.50227 z m -74.6125,-60.10587 v -48.97169 l -2.02847,-0.63611 C 98.010835,99.969545 94.485309,97.514064 91.472483,93.869714 90.801648,93.058263 90.1289,92.263614 89.977487,92.103827 L 89.70219,91.813301 76.340216,97.871627 C 68.991128,101.20371 62.842233,104.05808 62.676,104.21467 l -0.302238,0.28471 0.733245,1.95978 0.733247,1.95978 0.408821,3.18782 0.408824,3.18783 -0.394211,4.14572 c -0.216815,2.28014 -0.938768,7.55883 -1.604335,11.73043 -1.333699,8.35922 -2.278314,16.01361 -3.39579,27.51667 l -0.736825,7.58472 0.36965,9.70139 c 0.494704,12.98331 1.259996,20.26573 2.456061,23.37153 l 0.373605,0.97014 h 21.1754 21.175396 z m -34.889284,34.74661 c -0.601726,-1.05171 -1.09405,-2.07081 -1.09405,-2.26467 0,-0.36656 21.923626,-14.56487 22.453256,-14.54132 0.28343,0.0126 2.946747,3.62606 2.946747,3.998 0,0.0952 -4.881563,3.22428 -10.847917,6.9535 -5.966357,3.72922 -11.189033,7.00232 -11.605953,7.27355 l -0.758034,0.49314 z m 12.748902,-5.79506 c 5.81369,-3.63802 10.64826,-6.80696 10.743489,-7.04207 l 0.173146,-0.4275 -1.00271,-1.43479 -1.002708,-1.43479 -0.709094,0.12149 c -0.390001,0.0668 -5.350938,3.10064 -11.024306,6.74184 l -10.315212,6.62036 0.0013,0.5885 c 7.94e-4,0.32367 0.315892,1.10442 0.700371,1.73501 l 0.69905,1.14653 h 0.583155 c 0.320736,0 5.339808,-2.97656 11.153503,-6.61458 z m 74.867262,18.16805 c 0.90764,-3.13928 1.56118,-10.19342 2.00186,-21.60763 l 0.42223,-10.93612 -0.607,-7.19297 c -0.78489,-9.30098 -1.6821,-16.28323 -3.38221,-26.32092 -0.75585,-4.46264 -1.55135,-10.09826 -1.76779,-12.52361 l -0.39351,-4.40972 0.3486,-3.03261 c 0.19172,-1.66794 0.68526,-4.03199 1.09674,-5.25345 l 0.74814,-2.22083 -0.28516,-0.2668 c -0.45167,-0.42259 -28.44117,-13.063158 -28.69111,-12.957435 -0.12356,0.05226 -1.1476,1.206261 -2.27565,2.564458 -1.12805,1.358193 -2.78242,3.236595 -3.67637,4.17422 l -1.62537,1.704779 -1.5875,0.804558 c -0.87313,0.44251 -2.46063,1.01368 -3.52778,1.26929 l -1.94028,0.46473 -2.91041,0.007 -2.91042,0.007 v 48.78916 48.78917 h 25.21376 25.21375 l 0.53548,-1.85208 z m -48.26248,-7.6125 c -1.77011,-1.95594 0.76804,-4.29408 2.57429,-2.37142 l 0.81168,0.864 -0.27644,0.63531 -0.27644,0.63531 -0.2107,-1.05833 -0.21071,-1.05834 -1.14498,-0.11055 -1.14499,-0.11054 v 1.25707 1.25708 h 1.07915 1.07916 l -0.21803,0.35278 c -0.34761,0.56243 -1.42691,0.4094 -2.06199,-0.29237 z m 25.77385,-10.06927 c -5.97319,-3.74453 -11.03062,-6.97851 -11.23873,-7.18663 l -0.37839,-0.37838 1.36096,-1.9594 c 0.74853,-1.07768 1.49146,-1.96543 1.65095,-1.9728 0.55606,-0.0256 22.46413,14.21128 22.45748,14.59397 -0.004,0.21214 -0.48023,1.13977 -1.05898,2.0614 l -1.05228,1.6757 -0.44033,-0.0128 c -0.24217,-0.007 -5.32748,-3.07651 -11.30068,-6.82105 z m 12.65179,4.67356 0.91834,-1.45474 -0.47294,-0.43022 c -1.04434,-0.95001 -21.1114,-13.59363 -21.57485,-13.59363 h -0.49797 l -0.99801,1.44013 -0.998,1.44012 0.33266,0.49985 c 0.49067,0.73723 21.04134,13.52544 21.7595,13.54044 l 0.61294,0.0128 0.91833,-1.45474 z m -38.45399,-15.4495 -0.6122,-0.67647 0.11655,-0.81105 0.11654,-0.81105 0.95113,-0.53211 0.95113,-0.53212 0.90095,0.8464 c 1.41416,1.32854 0.77151,3.19286 -1.10061,3.19286 h -0.7113 z m 2.55366,-1.17562 -0.11054,-1.14653 -1.14653,-0.11055 -1.14653,-0.11054 v 1.25707 1.25708 h 1.25707 1.25708 z m -2.52531,-18.19583 c -0.76596,-0.84637 -0.741,-1.92551 0.0613,-2.65158 1.91798,-1.73575 4.30361,0.7591 2.41893,2.52967 -0.99678,0.93642 -1.71132,0.97154 -2.48023,0.12191 z m 2.52531,-1.38334 0.11055,-1.14652 h -1.25708 -1.25707 v 1.25707 1.25707 l 1.14653,-0.11054 1.14653,-0.11055 z m -2.3251,-20.39292 -0.78406,-0.54917 v -0.80727 -0.80726 l 0.61737,-0.53018 c 0.33954,-0.2916 0.79713,-0.63155 1.01686,-0.75543 l 0.39951,-0.22524 0.92341,0.72636 0.92341,0.72635 v 0.65435 0.65434 l -0.92952,0.73116 c -1.11374,0.87607 -1.16938,0.88074 -2.16698,0.18199 z m 2.3242,-1.4672 0.10964,-1.13442 -0.88334,-0.2217 c -1.17999,-0.29616 -1.629,0.0395 -1.629,1.21785 0,1.23509 0.27685,1.50782 1.39791,1.37709 l 0.89515,-0.10439 z m -2.52441,-19.44266 c -0.32112,-0.35482 -0.58385,-0.96522 -0.58385,-1.35643 v -0.7113 l 0.67647,-0.61219 0.67646,-0.61219 0.81105,0.11654 0.81106,0.11655 0.53211,0.95112 0.53212,0.95113 -0.84641,0.90096 c -0.9996,1.06403 -1.80603,1.1431 -2.60901,0.25581 z m 2.52531,-1.38333 0.11055,-1.14653 h -1.25708 -1.25707 v 1.25708 1.25707 l 1.14653,-0.11054 1.14653,-0.11055 z m 2.36812,-5.7642 c 1.14349,-0.21139 2.82558,-0.762624 3.73798,-1.22497 l 1.6589,-0.840627 3.02746,-3.625728 3.02744,-3.625725 0.002,-0.634881 c 0.003,-0.993024 -0.97869,-2.685114 -3.07277,-5.29453 l -1.92733,-2.401639 -0.64498,0.108583 -0.64497,0.108577 -6.02613,8.523824 c -3.31435,4.688102 -6.02611,8.696536 -6.02611,8.907636 v 0.38382 h 2.40466 c 1.32256,0 3.34024,-0.17295 4.48373,-0.38434 z m -9.76941,-0.625607 c -0.0647,-0.167418 -1.46258,-3.977418 -3.10645,-8.466667 L 97.569967,83.04574 H 97.13604 c -0.539329,0 -3.716642,3.149208 -5.089758,5.044744 l -1.022209,1.411118 v 0.973722 0.973722 l 1.35066,1.707375 c 2.409574,3.045958 8.184257,6.759247 10.584987,6.806462 l 0.82315,0.01619 z m 7.29075,-8.04709 c 2.91041,-4.187071 5.34736,-7.85358 5.41544,-8.147802 l 0.12378,-0.534953 -0.82933,0.240821 c -0.45614,0.132453 -1.94059,0.488432 -3.29878,0.791067 l -2.46945,0.550246 -3.175,-0.192384 c -1.74625,-0.105812 -4.1104,-0.442957 -5.25368,-0.749212 -2.704304,-0.724414 -2.755289,-1.41043 0.57199,7.696575 l 2.9178,7.98625 0.35278,-0.01386 c 0.19403,-0.0076 2.73403,-3.439666 5.64445,-7.626731 z"
       id="path118" /></g></svg>
