<?xml version="1.0" encoding="UTF-8" standalone="no"?>
<!-- Created with Inkscape (http://www.inkscape.org/) -->

<svg
   version="1.1"
   id="svg2"
   width="734.66669"
   height="774.66669"
   viewBox="0 0 734.66669 774.66669"
   xml:space="preserve"
   xmlns="http://www.w3.org/2000/svg"
   xmlns:svg="http://www.w3.org/2000/svg">
      <path
       fill="#000"
       fill-opacity="1"
       d="m 196.21187,243.70077 c 0,-3.78136 15.26772,-24.4394 26.10211,-35.31756 29.81088,-29.93131 87.23461,-68.20256 119.80805,-79.84858 10.94212,-3.91214 12.66756,-4.03941 26.35603,-1.94394 38.02472,5.82092 78.40155,28.33543 124.68623,69.52623 15.0699,13.41139 38.80617,39.7921 37.2255,41.37277 -0.48788,0.48789 -6.11587,-0.64743 -12.5066,-2.52294 -16.7964,-4.9293 -48.70828,-4.57843 -71.56482,0.78685 -9.55404,2.24269 -17.79519,3.65341 -18.31367,3.13494 -0.51847,-0.51847 -2.74099,-5.33497 -4.93895,-10.70334 -2.19795,-5.36836 -8.89917,-20.3535 -14.89161,-33.3003 -10.32676,-22.31119 -11.28768,-23.69764 -18.41327,-26.56731 -10.44398,-4.20609 -33.41437,-5.47682 -42.60305,-2.35681 -10.34763,3.51353 -16.637,12.74538 -31.38612,46.07011 -6.96344,15.73347 -13.32891,29.33676 -14.14547,30.22952 -0.84012,0.91851 -12.99368,-0.58871 -27.99463,-3.47174 -31.54818,-6.06325 -46.29193,-5.67939 -64.39504,1.67656 -13.36886,5.43226 -13.02469,5.34676 -13.02469,3.23554 z"
       id="path2833" />
       <path
       fill="#000"
       fill-opacity="1"
       d="m 367.14472,299.87924 c 0,-1.11258 3.45661,-13.32899 4.59882,-16.2532 3.0274,-7.75062 18.63159,-36.27154 34.64654,-63.32602 l 4.79597,-8.10196 1.23175,1.55749 c 3.86895,4.89211 9.6869,18.02692 11.70537,26.42647 1.3752,5.72265 1.65685,12.77437 0.58985,14.76808 -0.46122,0.86181 -1.37192,1.26587 -2.85308,1.26587 -5.37315,0 -15.72157,7.63461 -35.29946,26.0424 -14.16708,13.32035 -19.41576,18.08382 -19.41576,17.62087 z"
       id="path2835" />
       <path
       fill="#000"
       fill-opacity="1"
       d="m 351.43799,292.06732 c -17.60091,-15.43706 -33.56973,-26.21297 -44.21175,-29.83452 -2.67947,-0.91184 -4.87177,-2.03457 -4.87177,-2.49495 0,-0.46038 0.45331,-4.31253 1.00735,-8.56033 0.92968,-7.12775 1.32656,-8.40451 5.14716,-16.5583 2.27689,-4.85927 4.80955,-10.39206 5.62812,-12.29508 0.81858,-1.90303 1.79515,-3.35778 2.17016,-3.23277 0.97059,0.32353 16.76765,23.04951 23.61183,33.96848 6.42978,10.25785 12.70021,21.88 15.18378,28.14288 1.52045,3.83418 5.12072,17.52937 4.7012,17.88306 -0.10202,0.086 -3.86675,-3.0723 -8.36608,-7.01847 z"
       id="path2837" />
       </svg>
