<?xml version="1.0" encoding="UTF-8" standalone="no"?>
<!-- Created with Inkscape (http://www.inkscape.org/) -->

<svg
   version="1.1"
   id="svg2"
   width="551"
   height="580"
   viewBox="0 0 551 580"
   xml:space="preserve"
   xmlns="http://www.w3.org/2000/svg"
   xmlns:svg="http://www.w3.org/2000/svg"><defs
     id="defs7643" /><path
     id="path1000"
     d="M 286.77555,6.9804993 C 273.8728,6.8072471 257.62634,7.4926563 236.00862,9.5540122 221.70039,32.53397 194.85514,53.23308 159.03076,72.30101 c -8.38028,10.449539 -13.567,20.900159 -18.17183,31.34971 l -0.0826,0.0352 v 0.14687 c -0.059,0.13442 -0.12515,0.26898 -0.18412,0.4034 0.063,-0.003 0.1212,-0.005 0.18412,-0.008 v 8.49219 l -0.006,0.12618 v 17.03815 h -0.002 v 22.81015 c 88.36133,-8.74086 179.14474,-9.60999 273.15249,0 v -23.72039 h -0.002 v -16.11342 h 0.002 V 98.737593 l -0.18411,0.0021 C 411.23474,90.180204 410.88509,82.850818 395.28104,66.804365 364.42448,52.644187 336.65452,35.396017 317.4798,9.5540122 309.23797,8.185657 299.67829,7.1537464 286.77555,6.9804993 Z"
     fill="#000" /></svg>
