<?xml version="1.0" encoding="UTF-8" standalone="no"?>
<!-- Created with Inkscape (http://www.inkscape.org/) -->

<svg
   version="1.1"
   id="svg2"
   width="551"
   height="580"
   viewBox="0 0 551 580"
   xml:space="preserve"
   xmlns="http://www.w3.org/2000/svg"
   xmlns:svg="http://www.w3.org/2000/svg"><defs
     id="defs7643" /><g
     id="layer3"><path
       id="rect317"
       style="fill:#ffffff;stroke:none;stroke-width:3.80314"
       d="m 190.59961,57.064595 c -6.66192,4.391849 -13.8858,8.681454 -21.5,12.898298 v 77.115227 c 7.14939,-0.60132 14.31593,-1.14815 21.5,-1.63549 z" /><path
       id="rect319"
       style="fill:#ffffff;stroke:none;stroke-width:3.12439"
       d="m 146.26198,106 v 5.25977 l -0.006,0.11914 v 16.08593 h -0.002 V 127.5 h 259.39823 v -0.89453 h -0.002 v -15.21289 h 0.002 V 106 Z" /><path
       id="rect998"
       style="fill:#ffffff;stroke:none;stroke-width:3.81781"
       d="m 362.65234,53.109623 v 92.238037 c 7.14744,0.49156 14.31343,1.04285 21.5,1.66406 V 64.491334 c -7.39351,-3.562424 -14.60743,-7.308639 -21.5,-11.381711 z" /><path
       id="rect1013"
       fill="#000"
       d="m 183.43555,61.570111 c -2.36073,1.460122 -4.70103,2.925031 -7.16993,4.365274 v 80.552145 c 2.38754,-0.18792 4.77853,-0.36597 7.16993,-0.54122 z" /><path
       id="rect1015"
       fill="#000"
       d="m 146.25609,113.16406 v 7.17188 h 259.39429 v -7.17188 z" /><path
       id="rect1017"
       fill="#000"
       d="m 369.81641,57.136416 v 88.712844 c 2.38703,0.17821 4.77854,0.3707 7.16992,0.56332 V 60.982072 c -2.42866,-1.242383 -4.79733,-2.546124 -7.16992,-3.845656 z" /></g></svg>
