<?xml version="1.0" encoding="UTF-8" standalone="no"?>
<!-- Created with Inkscape (http://www.inkscape.org/) -->

<svg
   version="1.1"
   id="svg2"
   width="551"
   height="580"
   viewBox="0 0 551 580"
   xmlns="http://www.w3.org/2000/svg"
   xmlns:svg="http://www.w3.org/2000/svg">
    <path
       fill="#000"
       fill-opacity="1"
       d="m 141.15114,362.84619 c -1.44232,-1.73789 -3.64468,-11.95665 -4.66973,-21.66717 -1.47424,-13.96582 -2.377,-30.30254 -2.91105,-52.67945 -0.49441,-20.7163 -0.54236,-19.8601 3.32625,-59.39697 1.8523,-18.93038 6.07759,-50.07189 9.45015,-69.65002 2.12255,-12.32172 3.20592,-23.95304 3.19232,-34.27357 -0.0164,-12.44474 -0.72389,-18.12917 -3.15936,-25.384281 -0.97701,-2.910474 -1.77638,-5.474717 -1.77638,-5.698317 0,-0.533511 3.2494,-2.036768 45.25483,-20.936033 7.97263,-3.58708 16.24578,-7.325118 18.38478,-8.306752 15.12523,-6.941305 15.88259,-7.213862 16.37166,-5.891784 2.0789,5.61981 18.38233,11.814825 40.19688,15.274102 22.7447,3.606776 49.65671,-2.527061 59.33672,-13.524142 l 2.88491,-3.277423 4.42129,1.955319 c 6.87481,3.040379 32.86876,14.785626 45.78706,20.688672 6.41699,2.932261 14.05374,6.353413 16.97056,7.602561 5.90131,2.527278 12.72792,5.89893 12.72792,6.286295 0,0.138465 -0.61129,1.644546 -1.35841,3.346846 -2.59304,5.908127 -3.5756,13.216687 -3.61606,26.897157 -0.0461,15.59307 0.5462,21.47579 4.6163,45.84795 7.07969,42.39392 10.25263,70.73613 10.76593,96.16652 0.75889,37.59712 -2.80558,84.63589 -7.21275,95.18376 l -1.00153,2.39698 H 275.54075 c -111.67779,0 -133.72341,-0.15752 -134.38961,-0.96025 z"
       id="path1221" />
</svg>
