<?xml version="1.0" encoding="UTF-8" standalone="no"?>
<!-- Created with Inkscape (http://www.inkscape.org/) -->

<svg
   version="1.1"
   id="svg2"
   width="734.66669"
   height="774.66669"
   viewBox="0 0 734.66669 774.66669"
   xmlns="http://www.w3.org/2000/svg"
   xmlns:svg="http://www.w3.org/2000/svg">
    <path
       fill="#000"
       fill-opacity="1"
       d="m 190.10437,607.84032 c -4.4131,-11.56426 -7.13911,-34.23579 -9.09754,-75.66189 -2.24507,-47.48936 -2.23664,-49.29151 0.35039,-74.96774 4.99707,-49.59567 6.63954,-62.98244 13.09352,-106.71688 2.27642,-15.42587 4.96574,-35.20902 5.97625,-43.96257 1.76267,-15.269 1.77498,-16.42311 0.30298,-28.41017 -1.02466,-8.34431 -2.42626,-14.93099 -4.21953,-19.82937 -2.17902,-5.95205 -2.46026,-7.54594 -1.49189,-8.45505 1.13779,-1.06818 29.13754,-14.06711 78.47489,-36.43211 l 22.67542,-10.27894 4.09596,4.87288 c 13.44711,15.99781 25.62157,24.74814 42.18043,30.31696 l 7.40422,2.49007 0.23366,184.79 0.23365,184.79001 h -79.62056 -79.62056 z m 44.44969,-50.3915 c 33.50244,-20.83293 73.86959,-46.49079 75.29131,-47.85609 1.56931,-1.50703 1.4376,-1.87418 -2.87498,-8.01507 -5.92256,-8.43344 -6.84454,-9.17762 -9.58546,-7.73697 -10.7903,5.67146 -83.12527,53.22162 -83.12527,54.64328 0,1.68751 7.78236,15.62325 8.72531,15.62425 0.47207,5.1e-4 5.67816,-2.99623 11.56909,-6.6594 z"
       id="path225" />
    <path
       fill="#000"
       fill-opacity="1"
       d="M 357.71646,426.20551 V 242.02549 h 11.81908 c 13.51832,0 21.23866,-1.68292 31.55634,-6.87882 6.36739,-3.20656 9.65834,-6.43724 26.46208,-25.97741 3.50203,-4.07232 6.84569,-7.52419 7.43036,-7.67083 1.41514,-0.35491 85.03473,36.94891 102.42796,45.69449 l 6.15938,3.09703 -2.23936,7.05182 c -7.6506,24.09187 -7.21772,37.58486 3.32412,103.61403 5.52784,34.62375 7.74472,51.32797 10.13352,76.35604 3.91391,41.00692 3.9669,42.28643 2.8853,69.67486 -2.31218,58.54928 -4.63071,84.31727 -8.87155,98.59774 l -1.42576,4.80108 h -94.83074 -94.83073 z m 17.39992,150.67591 c 1.91336,-1.91336 1.23523,-2.59148 -2.59148,-2.59148 h -3.70211 v -4.16488 -4.16487 h 3.69117 c 3.59408,0 3.70684,0.0979 4.28645,3.72262 0.74024,4.62921 1.61407,5.24797 3.02821,2.14428 0.91777,-2.01427 0.82702,-2.72104 -0.55881,-4.35211 -2.90279,-3.41648 -4.35623,-4.23181 -7.59756,-4.26194 -4.2977,-0.0399 -6.55157,2.19977 -6.55157,6.51043 0,5.47655 6.80443,10.34921 9.9957,7.15795 z m 138.78288,-20.51179 c 2.16342,-3.73521 3.9204,-7.16612 3.90441,-7.62426 -0.0371,-1.06258 -0.39669,-1.31775 -23.57188,-16.72808 -18.75741,-12.47274 -43.76104,-28.5713 -55.77085,-35.90802 -5.70781,-3.48686 -5.82042,-3.51313 -7.71378,-1.79966 -2.28659,2.06933 -10.09482,13.08309 -10.09482,14.23907 0,1.89625 84.86525,54.64739 87.87761,54.62358 0.80346,-0.006 3.16819,-3.00235 5.36931,-6.80263 z M 377.49049,497.40397 c 3.89409,-3.06309 2.69404,-9.13297 -2.58047,-13.0521 -1.98218,-1.47282 -2.27845,-1.43557 -5.93781,0.7466 -3.34181,1.99282 -3.85153,2.72351 -3.85153,5.52115 0,4.64883 3.25634,8.70258 6.99069,8.70258 1.61727,0 4.03787,-0.86321 5.37912,-1.91823 z m -0.26676,-74.82938 c 5.07314,-5.07313 2.58823,-12.10305 -4.27814,-12.10305 -6.65251,0 -10.04626,7.10719 -5.90668,12.3698 2.65365,3.37358 6.64914,3.26893 10.18482,-0.26675 z m -0.21006,-82.44896 c 5.20013,-3.76696 5.25502,-6.87779 0.19314,-10.94564 -2.00631,-1.61231 -3.99385,-2.93147 -4.41676,-2.93147 -0.42291,0 -2.32153,1.27978 -4.21915,2.84396 -2.89161,2.38352 -3.45022,3.41995 -3.45022,6.4015 0,2.80358 0.53941,3.95997 2.5452,5.45646 3.43356,2.56172 4.84471,2.4372 9.34779,-0.82481 z m 0.67881,-79.02328 3.62493,-3.1358 -2.00551,-4.13484 c -1.73025,-3.56732 -2.48901,-4.21329 -5.52828,-4.7065 -2.98625,-0.4846 -3.9142,-0.19665 -6.09286,1.89063 -3.3633,3.22225 -3.48698,7.76193 -0.29833,10.95057 3.09672,3.09673 6.00333,2.8529 10.30005,-0.86406 z"
       id="path227" />
    <path
       fill="#000"
       fill-opacity="1"
       d="m 335.50379,642.77899 v -22.21267 h 7.40422 7.40423 v 22.21267 22.21266 h -7.40423 -7.40422 z"
       id="path229" />
    <path
       fill="#000"
       fill-opacity="1"
       d="m 357.71646,642.77899 v -22.21267 h 21.7499 21.7499 v 22.21267 22.21266 h -21.7499 -21.7499 z m 19.69579,16.73292 3.89015,-3.6287 -2.01011,-3.54414 c -2.78306,-4.90697 -7.13858,-6.08197 -11.25725,-3.03691 -3.78236,2.79643 -4.06018,7.70415 -0.64474,11.38947 3.10899,3.35465 5.4572,3.07823 10.02195,-1.17972 z m 0.0782,-25.12984 c 3.54022,-2.78475 3.36349,-7.31982 -0.40896,-10.49413 -5.4291,-4.56828 -11.96085,-2.06311 -11.96085,4.58744 0,6.65252 7.10719,10.04626 12.36981,5.90669 z"
       id="path231" />
    <path
       fill="#000"
       fill-opacity="1"
       d="m 368.82279,655.27361 v -4.16487 h 4.20681 4.20682 l -0.62626,3.47073 c -0.85307,4.72766 -0.97749,4.85902 -4.60265,4.85902 -3.15747,0 -3.18472,-0.0356 -3.18472,-4.16488 z"
       id="path233" />
    <path
       fill="#000"
       fill-opacity="1"
       d="m 368.82279,628.33031 v -4.26788 l 3.47073,0.64831 c 1.9089,0.35657 3.5196,0.71529 3.57933,0.79715 0.0597,0.0819 0.39097,1.71066 0.73608,3.61957 l 0.62749,3.47072 h -4.20682 -4.20681 z"
       id="path235" />
    <path
       fill="#000"
       fill-opacity="1"
       d="m 368.82279,491.45521 v -4.16487 h 3.70211 c 3.21846,0 3.70376,0.27205 3.71475,2.08243 0.007,1.14534 0.26377,3.01954 0.57071,4.16488 0.51975,1.93944 0.26466,2.08243 -3.71475,2.08243 h -4.27282 z"
       id="path237" />
    <path
       fill="#000"
       fill-opacity="1"
       d="m 368.82279,418.38046 v -4.20681 h 4.20681 4.20682 l -0.62749,3.47073 c -0.34511,1.9089 -0.67635,3.5196 -0.73608,3.57933 -0.0597,0.0597 -1.67043,0.39096 -3.57933,0.73608 l -3.47073,0.62748 z"
       id="path239" />
    <path
       fill="#000"
       fill-opacity="1"
       d="m 369.19129,337.90572 c -0.27441,-0.7151 -0.36546,-2.69342 -0.20233,-4.39626 0.28125,-2.93593 0.47772,-3.09047 3.79853,-2.98773 1.92607,0.0596 3.70995,0.31634 3.96419,0.57058 0.25424,0.25424 0.18696,2.1838 -0.1495,4.28792 -0.57801,3.61471 -0.78546,3.82567 -3.76185,3.82567 -1.85143,0 -3.3558,-0.53602 -3.64904,-1.30018 z"
       id="path241" />
    <path
       fill="#000"
       fill-opacity="1"
       d="m 368.82279,256.37117 v -4.16487 h 4.28057 4.28056 l -0.57845,2.89227 c -0.31815,1.59075 -0.57846,3.46495 -0.57846,4.16488 0,0.86768 -1.17794,1.2726 -3.70211,1.2726 h -3.70211 z"
       id="path243" />
</svg>
