<?xml version="1.0" encoding="UTF-8" standalone="no"?>
<!-- Created with Inkscape (http://www.inkscape.org/) -->

<svg
   version="1.1"
   id="svg2"
   width="734.66669"
   height="774.66669"
   viewBox="0 0 734.66669 774.66669"
   xmlns="http://www.w3.org/2000/svg"
   xmlns:svg="http://www.w3.org/2000/svg">
    <path
       style="display:inline;fill:#000000;stroke-width:6"
       d="m 62.934678,707.97249 c -14.152594,-3.44884 -27.153081,-6.91811 -28.88997,-7.7095 l -3.157979,-1.43886 -0.748616,-31.07872 C 29.03491,621.94601 29.010204,622.40607 34.730277,582.23532 48.874564,482.90327 62.697322,438.258 106.18255,351.45604 c 31.06127,-62.00219 60.64402,-100.51921 81.08491,-105.57331 2.16377,-0.535 27.23172,-11.56162 55.70656,-24.50358 l 51.77243,-23.53084 2.9076,-5.87678 2.9076,-5.87678 12.91376,-13.16902 12.91376,-13.16903 3.13876,1.98214 c 1.72631,1.09018 7.33875,3.02 12.47208,4.28853 l 9.33333,2.30638 14,0.008 14.00001,0.008 8.52029,-2.19526 c 4.68616,-1.20741 11.13053,-3.34991 14.32083,-4.76113 l 5.80054,-2.56586 8.34584,9.30761 c 6.9625,7.76486 17.31294,21.81875 18.65982,25.3364 0.50824,1.32738 111.27229,51.10183 117.93557,52.99715 l 5.5829,1.58801 6.4171,5.08426 c 49.61649,39.31091 114.76761,203.00252 135.27284,339.87175 l 2.94445,19.65383 -0.31111,42.66667 -0.3111,42.66667 -1.58898,1.48937 c -1.49448,1.40099 -51.62729,13.84413 -55.77657,13.84413 h -1.92386 l -7.83484,-17.66666 c -4.30916,-9.71667 -11.08868,-24.26667 -15.06558,-32.33334 -16.32212,-33.10733 -25.38547,-58.96385 -41.77967,-119.19167 -7.27736,-26.73506 -13.52638,-48.90401 -13.88668,-49.26432 -0.36032,-0.36032 -0.65791,5.59488 -0.66132,13.23376 -0.0144,32.36006 -4.5082,81.50303 -8.76191,95.8187 l -2.15815,7.26312 -4.28024,4.28024 -4.28024,4.28024 -6.43658,23.12331 c -3.54011,12.71781 -6.94075,24.47329 -7.55696,26.12329 l -1.12039,3 h -61.28764 -61.28766 l -0.82404,1.33333 -0.82404,1.33334 h -36.98798 -36.98798 l -1.31969,-1.3197 -1.3197,-1.31969 -61.22581,-0.34697 -61.22582,-0.34698 -8.75726,-27.33333 c -4.81651,-15.03333 -9.76051,-28.83333 -10.98668,-30.66667 -6.74127,-10.07935 -9.98611,-37.05383 -13.39264,-111.33333 l -0.30574,-6.66667 -4.27072,13.33333 c -2.34889,7.33334 -12.00488,37.64431 -21.45775,67.35772 l -17.18703,54.02438 -5.60291,11.97563 c -3.0816,6.58658 -7.05316,14.07561 -8.8257,16.64228 -1.77254,2.56666 -8.09097,15.76666 -14.04097,29.33333 -5.949994,13.56667 -11.22244,25.02136 -11.716547,25.45488 -0.494106,0.43352 -12.47777,-2.03356 -26.630365,-5.48241 z m 34.019356,-22.17768 c 10.321406,-23.81496 10.425886,-24.45926 3.967276,-24.46571 -8.499646,-0.008 -51.395572,-8.93572 -61.419197,-12.78215 l -2.168778,-0.83224 v 24.14266 c 0,13.27846 0.15,24.17134 0.333333,24.2064 0.183333,0.0351 10.833334,2.6817 23.666667,5.88144 12.833334,3.19972 23.933334,5.86945 24.666668,5.93273 l 1.333333,0.11507 9.620698,-22.19819 z m 571.712656,16.86104 c 9.53333,-2.24768 19.58333,-4.68787 22.33333,-5.42266 l 5,-1.33596 v -24.10412 -24.1041 l -3,0.81926 c -1.65,0.45062 -14.1,2.94911 -27.66667,5.55222 -13.56666,2.6031 -27.81666,5.34696 -31.66666,6.09742 -3.85,0.75048 -7,1.90763 -7,2.57144 0,1.115 16.01726,37.57147 18.89281,43.00142 l 1.2696,2.39741 2.25212,-0.69283 c 1.23868,-0.38105 10.05213,-2.53184 19.58547,-4.7795 z M 329.33334,642.00002 v -23.33333 h -66.66666 -66.66667 l -0.001,1.66666 c -8.9e-4,0.91667 3.10234,11.41667 6.89607,23.33334 l 6.89768,21.66666 h 59.7706 59.7706 v -23.33333 z m 21.33334,0.66667 v -22.66667 h -8 -8 v 22.66667 22.66666 h 8 8 z m 50.66667,0 v -22.66667 h -22 -22.00001 v 22.66667 22.66666 h 22.00001 22 z M 367.54,660.22837 c -1.21367,-1.34108 -2.20666,-3.64808 -2.20666,-5.12668 v -2.68836 l 2.55671,-2.3138 2.55672,-2.3138 3.0654,0.44048 3.06539,0.44048 2.01115,3.59481 2.01114,3.59481 -3.199,3.40519 c -3.77805,4.02155 -6.82596,4.3204 -9.86085,0.96687 z m 9.54449,-5.22835 0.41782,-4.33333 h -4.75115 -4.75115 v 4.75114 4.75115 l 4.33334,-0.41781 4.33333,-0.41782 z M 367.54,633.5617 c -6.56032,-7.24907 2.86901,-16.26563 9.56093,-9.14241 3.53923,3.76734 3.67198,6.46797 0.46076,9.37408 -3.19885,2.89493 -7.27749,2.80064 -10.02169,-0.23167 z m 9.54449,-4.56168 -0.41781,-4.33333 -4.33333,-0.41782 -4.33334,-0.41781 v 4.75115 4.75114 h 4.75115 4.75115 z m 150.97111,30.66667 c 0.82044,-3.11667 3.54356,-12.84771 6.05139,-21.62455 2.50784,-8.77683 4.55969,-16.72683 4.55969,-17.66667 v -1.70878 h -66 -66 v 23.33333 23.33333 h 59.94861 59.94861 z m -409.99258,-16 5.94812,-12.33334 13.38804,-42 c 22.53372,-70.69116 35.70701,-113.74054 36.51653,-119.33334 0.42458,-2.93333 1.96038,-18.53333 3.41288,-34.66666 3.58372,-39.80488 4.68822,-48.39899 10.8812,-84.66667 l 5.35042,-31.33334 0.73584,-20.07069 0.73584,-20.07069 -1.56502,-8.98698 c -0.86074,-4.94284 -2.55405,-11.06103 -3.76288,-13.59597 l -2.19788,-4.609 h -2.27304 c -1.25017,0 -5.81717,2.60904 -10.1489,5.79788 l -7.87586,5.79788 -8.34989,10.3795 C 122.4461,319.23841 75.784785,416.59991 58.841309,482.66668 48.666912,522.33915 34.666668,609.23101 34.666668,632.70545 v 8.52076 l 9,2.78588 c 15.372435,4.75842 50.473366,11.42604 62.057452,11.78816 l 6.39079,0.19977 z m 514.60367,9.08194 c 4.4,-1.03325 20,-3.73782 34.66666,-6.01016 14.66667,-2.27234 27.7941,-4.4831 29.17207,-4.91278 l 2.50542,-0.78127 -0.92391,-12.85553 C 691.91921,542.3694 654.92417,414.27956 610.23563,324.01681 l -9.56349,-19.31652 -10.31219,-15.58553 -10.31218,-15.58553 -8.45665,-8.45664 -8.45664,-8.45664 -5.49553,-2.47814 -5.49553,-2.47814 -1.99938,0.76724 -1.99938,0.76723 -2.20498,7.0696 -2.20498,7.0696 -0.70239,16.76215 -0.70239,16.76215 1.5703,13.90452 c 0.86366,7.64748 3.61729,25.90452 6.11918,40.57118 5.47779,32.1121 7.6247,47.85666 11.95176,87.64937 l 3.29658,30.31602 2.80057,11.01731 c 20.03916,78.83304 36.10983,131.18527 49.38178,160.86741 l 4.24029,9.48324 1.48816,-0.0197 c 0.81848,-0.0107 5.08815,-0.86509 9.48815,-1.89834 z M 350.66668,425.57684 V 240.48699 l -7.66667,-2.40421 c -15.26001,-4.78545 -28.58483,-14.06601 -39.97189,-27.83993 -2.53544,-3.0669 -5.07811,-6.0703 -5.65038,-6.67422 l -1.04049,-1.09805 -50.50195,22.89761 c -27.77608,12.5937 -51.016,23.38186 -51.64428,23.97371 l -1.14232,1.07608 2.77132,7.40704 2.77133,7.40703 1.54515,12.04847 1.54516,12.04848 -1.48993,15.66884 c -0.81946,8.61786 -3.5481,28.56884 -6.06363,44.3355 -5.04075,31.59391 -8.61095,60.52389 -12.83448,104.00001 l -2.78485,28.66666 1.3971,36.66667 c 1.86975,49.0708 4.76219,76.59487 9.28275,88.33334 l 1.41205,3.66667 h 80.03301 80.033 z M 218.80166,556.90262 c -2.27424,-3.97496 -4.13499,-7.82668 -4.13499,-8.55938 0,-1.38542 82.86095,-55.04835 84.8627,-54.95931 1.07123,0.0476 11.13731,13.70479 11.13731,15.11053 0,0.35984 -18.45,12.18626 -41,26.28096 -22.55001,14.09469 -42.28926,26.46544 -43.86502,27.49056 l -2.86501,1.86384 z m 48.18483,-21.9026 c 21.973,-13.75 40.24539,-25.72707 40.60531,-26.61571 l 0.65441,-1.61572 -3.78977,-5.42283 -3.78976,-5.42284 -2.68004,0.45916 c -1.47402,0.25253 -20.22402,11.71898 -41.66667,25.48099 l -38.98663,25.02184 0.005,2.22423 c 0.003,1.22332 1.19392,4.17421 2.64707,6.55754 l 2.64208,4.33334 h 2.20405 c 1.21223,0 20.18195,-11.25 42.15497,-25 z m 282.96289,68.66666 c 3.43045,-11.865 5.90052,-38.52633 7.5661,-81.66666 l 1.59582,-41.33334 -2.29418,-27.18605 c -2.96652,-35.15328 -6.35756,-61.54291 -12.78316,-99.48062 -2.85674,-16.86667 -5.86337,-38.16667 -6.6814,-47.33333 l -1.4873,-16.66667 1.31754,-11.46184 c 0.72464,-6.30402 2.58998,-15.239 4.14518,-19.85554 l 2.82762,-8.3937 -1.07778,-1.00839 c -1.70711,-1.59716 -107.49417,-49.37255 -108.43885,-48.97297 -0.46698,0.1975 -4.33737,4.5591 -8.60086,9.69244 -4.26351,5.13333 -10.51623,12.2328 -13.89496,15.77658 l -6.14314,6.44326 -6,3.04085 c -3.3,1.67247 -9.3,3.83125 -13.33333,4.79731 l -7.33333,1.75645 -11,0.0261 -11.00001,0.0261 v 184.4 184.40001 h 95.2961 95.29608 l 2.02386,-7 z M 367.54,574.89503 c -6.69019,-7.39256 2.90285,-16.2296 9.72961,-8.96285 l 3.06778,3.26549 -1.04482,2.40117 -1.04481,2.40118 -0.79637,-4 -0.79638,-4 -4.32749,-0.41782 -4.32751,-0.41781 v 4.75115 4.75114 h 4.0787 4.07868 l -0.82404,1.33334 c -1.31378,2.12572 -5.39303,1.54734 -7.79335,-1.10499 z m 97.413,-38.05709 c -22.57585,-14.15256 -41.69055,-26.37548 -42.47712,-27.16206 l -1.43011,-1.4301 5.14379,-7.40563 c 2.82908,-4.0731 5.637,-7.42839 6.2398,-7.45622 2.10163,-0.0969 84.90379,53.71189 84.87866,55.1583 -0.0139,0.80179 -1.81504,4.30779 -4.00246,7.79112 l -3.9771,6.33333 -1.66423,-0.0484 c -0.91532,-0.0267 -20.13537,-11.62777 -42.71123,-25.78034 z m 47.81778,17.66385 3.47088,-5.49823 -1.7875,-1.62604 c -3.94709,-3.59058 -79.79111,-51.37751 -81.54272,-51.37751 h -1.88209 l -3.772,5.44301 -3.772,5.443 1.25733,1.88917 c 1.85449,2.7864 79.5263,51.1198 82.24062,51.17647 l 2.3166,0.0484 3.47088,-5.49823 z m -145.33793,-58.39182 -2.3138,-2.55672 0.44048,-3.0654 0.44048,-3.06538 3.59482,-2.01115 3.59481,-2.01115 3.40519,3.199 c 5.34485,5.02124 2.91592,12.06751 -4.15982,12.06751 h -2.68836 z m 9.65164,-4.44329 -0.41781,-4.33333 -4.33333,-0.41782 -4.33334,-0.41781 v 4.75115 4.75114 h 4.75115 4.75115 z M 367.54,422.89503 c -2.89494,-3.19886 -2.80064,-7.2775 0.23167,-10.0217 7.24906,-6.56032 16.26562,2.86902 9.14241,9.56094 -3.76735,3.53922 -6.46797,3.67197 -9.37408,0.46076 z m 9.54449,-5.22835 0.41782,-4.33333 h -4.75115 -4.75115 v 4.75114 4.75115 l 4.33334,-0.41781 4.33333,-0.41782 z m -8.7878,-77.0756 -2.96335,-2.07562 v -3.05108 -3.05106 l 2.33334,-2.00386 c 1.28333,-1.1021 3.01281,-2.38693 3.84328,-2.85514 l 1.50996,-0.85131 3.49004,2.74528 3.49005,2.74527 v 2.47312 2.47312 l -3.51314,2.76344 c -4.2094,3.31112 -4.41971,3.32877 -8.19018,0.68784 z m 8.78439,-5.54532 0.4144,-4.28759 -3.33863,-0.83793 c -4.45978,-1.11934 -6.15684,0.14938 -6.15684,4.6029 0,4.66808 1.04638,5.69887 5.28344,5.20475 l 3.38323,-0.39455 z M 367.54,261.56169 c -1.21367,-1.34108 -2.20666,-3.64808 -2.20666,-5.12668 v -2.68836 l 2.55671,-2.3138 2.55672,-2.3138 3.0654,0.44048 3.06539,0.44048 2.01115,3.59481 2.01114,3.59481 -3.199,3.40519 c -3.77805,4.02155 -6.82596,4.3204 -9.86085,0.96687 z m 9.54449,-5.22835 0.41782,-4.33333 h -4.75115 -4.75115 v 4.75114 4.75115 l 4.33334,-0.41781 4.33333,-0.41782 z m 8.95036,-21.78595 c 4.32187,-0.79894 10.67938,-2.88236 14.12782,-4.62981 l 6.26986,-3.17717 11.44234,-13.70354 11.44232,-13.70353 0.008,-2.39955 c 0.012,-3.75316 -3.69899,-10.14846 -11.61362,-20.01082 l -7.28441,-9.07706 -2.43769,0.41039 -2.43771,0.41037 -22.77591,32.21603 c -12.52668,17.71881 -22.77584,32.86881 -22.77584,33.66667 v 1.45064 h 9.08846 c 4.99865,0 12.62452,-0.65368 16.94638,-1.45262 z m -36.92373,-2.3645 c -0.24444,-0.63276 -5.52786,-15.03276 -11.74092,-32 l -11.29647,-30.84955 h -1.64004 c -2.03841,0 -14.04715,11.90252 -19.23688,19.06675 l -3.86347,5.33336 v 3.68021 3.68021 l 5.10486,6.45307 c 9.10705,11.51228 30.93262,25.54676 40.00625,25.72521 l 3.11112,0.0612 -0.44445,-1.15045 z m 27.55556,-30.4142 c 11,-15.82515 20.21052,-29.68282 20.46783,-30.79484 l 0.46781,-2.02187 -3.13448,0.91019 c -1.72397,0.50061 -7.33449,1.84604 -12.46783,2.98986 l -9.33333,2.07967 -12,-0.72712 c -6.6,-0.39992 -15.53539,-1.67417 -19.85642,-2.83167 -10.22102,-2.73794 -10.41372,-5.33076 2.16182,29.08942 l 11.02793,30.18425 1.33333,-0.0524 c 0.73334,-0.0288 10.33334,-13.00031 21.33334,-28.82544 z"
       id="path118" />
</svg>
