<?xml version="1.0" encoding="UTF-8" standalone="no"?>
<!-- Created with Inkscape (http://www.inkscape.org/) -->

<svg
   version="1.1"
   id="svg2"
   width="734.66669"
   height="774.66669"
   viewBox="0 0 734.66669 774.66669"
   xmlns="http://www.w3.org/2000/svg"
   xmlns:svg="http://www.w3.org/2000/svg">
  <defs
     id="defs1241" />
  <g
     id="layer5">
    <path
       fill="#00f"
       d="m 367.73995,650.50036 9.63143,-0.0631 0.3575,0.42059 -0.8622,8.72717 -8.68512,0.90426 -0.37852,-0.25235 z"
       id="path1314" />
    <path
       fill="#00f"
       d="m 367.82407,623.6459 9.1057,0.88324 0.82014,8.93746 -9.90482,0.10515 z"
       id="path1316" />
    <path
       fill="#00f"
       d="m 375.89933,574.83682 -8.11732,0.0631 0.0631,-9.86276 9.08468,0.75706 1.32484,8.15938 z"
       id="path1318" />
    <path
       fill="#00f"
       d="m 368.03211,486.35257 -0.19331,0.17844 0.0149,9.63575 9.94801,-0.0297 -0.99628,-8.98147 z"
       id="path1320" />
    <path
       fill="#00f"
       d="m 367.76098,413.12125 10.03099,0.0631 -0.88323,9.02158 -9.16879,0.77809 z"
       id="path1322" />
    <path
       fill="#00f"
       d="m 370.35182,329.13223 -3.12269,2.73607 0.26766,6.66176 4.66917,2.61711 4.7584,-1.78439 0.86245,-8.71381 z"
       id="path1324" />
  </g>
</svg>
