<?xml version="1.0" encoding="UTF-8" standalone="no"?>
<!-- Created with Inkscape (http://www.inkscape.org/) -->

<svg
   version="1.1"
   id="svg2"
   width="734.66669"
   height="774.66669"
   viewBox="0 0 734.66669 774.66669"
   xml:space="preserve"
   xmlns="http://www.w3.org/2000/svg"
   xmlns:svg="http://www.w3.org/2000/svg"><defs
   id="defs3535" />
   <path
   fill="#000"
   fill-opacity="1"
   d="m 340.56444,266.25845 c -11.46541,-21.21825 -22.11258,-40.78982 -23.66036,-43.49237 -2.52631,-4.41116 -2.5161,-5.54714 0.0999,-11.10634 1.6027,-3.40592 5.09457,-11.14765 7.75971,-17.20384 6.50679,-14.78584 13.11555,-23.0612 21.0716,-26.38545 9.23824,-3.85998 28.84856,-3.54829 40.10981,0.63751 9.23005,3.43082 9.2844,3.50005 19.93896,25.39967 l 10.68368,21.95948 -25.28592,41.90193 c -13.90726,23.04607 -26.31759,43.01931 -27.57852,44.38499 -1.86155,2.01619 -6.21206,-4.77042 -23.13881,-36.09558 z"
   id="path2908" />
    <path
   fill="#000"
   fill-opacity="1"
   d="m 190.27444,609.80707 c -0.90833,-1.76474 -2.88879,-8.4488 -3.74555,-12.64119 -3.07189,-15.03186 -5.03443,-38.8225 -6.73525,-81.64695 -1.47457,-37.12805 -1.64795,-30.84403 1.79382,-65.01832 4.57816,-45.45788 6.8245,-63.65559 12.31025,-99.72561 3.62513,-23.83608 5.31601,-36.49865 6.68781,-50.08319 l 1.13211,-11.21103 -1.57043,-12.15855 -1.57044,-12.15854 -2.79373,-7.39608 c -2.2324,-5.91002 -2.67771,-7.51211 -2.21628,-7.97353 0.70474,-0.70474 22.52452,-10.88366 52.62362,-24.54889 12.34422,-5.60437 28.48311,-12.93805 35.8642,-16.29705 7.38108,-3.359 13.65712,-6.20648 13.94676,-6.32773 0.28963,-0.12125 2.7187,2.34386 5.39793,5.47802 2.67923,3.13416 6.34683,7.15059 8.15021,8.92541 1.80339,1.77481 3.27889,3.36529 3.27889,3.5344 0,0.27965 10.04607,18.88649 30.36202,56.23509 l 7.58462,13.94346 V 450.67685 610.6169 h -80.04187 c -75.76304,0 -80.06414,-0.0433 -80.45869,-0.80983 z m 58.51419,-61.92973 c 47.26653,-29.59777 61.72591,-38.87182 61.72591,-39.59017 0,-1.06689 -7.58917,-11.63385 -9.90525,-13.79181 l -1.20714,-1.12474 -1.96371,1.09338 c -10.94025,6.09142 -80.40757,51.21135 -82.21664,53.40079 -0.57543,0.69641 -0.52785,1.06694 0.38096,2.96691 2.42595,5.07172 7.21339,13.05807 7.71282,12.86642 0.29528,-0.11331 11.75815,-7.23266 25.47305,-15.82078 z"
   id="path2987" />
    <path
   fill="#000"
   fill-opacity="1"
   d="m 357.2946,456.52086 0.0409,-153.8733 2.32558,-7.57603 c 0.64425,-2.09874 1.07946,0.85416 1.53601,0.69414 0.45655,-0.16002 -1.40771,1.03111 14.29301,-11.28851 59.73736,-46.87311 36.82041,-40.8915 42.06638,-39.21232 4.47046,1.43094 0.39387,-19.27749 6.87256,-10.04128 2.19239,3.12554 4.42069,6.80193 4.82452,6.80193 0.40383,0 7.79649,-1.46067 16.42812,-3.24595 26.52012,-5.48512 51.99891,-6.12948 69.29086,-1.75235 7.50098,1.89873 28.85766,12.47145 28.51258,14.11527 -0.14433,0.68749 -1.2744,4.74216 -2.51128,9.01039 -1.23689,4.26822 -2.9227,12.63288 -3.74625,18.58813 -2.07144,14.97893 -1.01483,25.93655 7.92773,82.21482 5.49603,34.58825 7.70566,51.2974 10.09738,76.35604 3.91107,40.97716 3.96931,42.36687 2.90118,69.23255 -2.1487,54.04454 -4.28432,80.08395 -7.76834,94.71895 l -2.06147,8.65942 -95.53519,0.2357 -95.53519,0.2357 z m 18.24402,118.92599 c 0.26225,-0.79867 -0.79038,-1.15691 -3.39936,-1.15691 h -3.77923 v -4.73558 c 0,-4.45932 0.12148,-4.70304 2.08243,-4.17752 1.14534,0.30694 2.99503,0.56377 4.11041,0.57072 1.64028,0.0102 2.18059,0.76461 2.82628,3.94612 0.78916,3.88838 0.81243,3.90765 2.02905,1.68109 1.14192,-2.08986 0.98904,-2.47388 -2.11855,-5.32178 -3.84036,-3.51943 -7.14546,-3.92801 -9.85515,-1.21833 -2.59694,2.59694 -2.38367,6.95575 0.48046,9.81988 2.46031,2.46031 6.89709,2.80502 7.62366,0.59231 z M 513.0557,556.7078 c 1.81846,-3.05265 3.42896,-6.28043 3.57891,-7.17284 0.19903,-1.18464 -3.72416,-4.32066 -14.53583,-11.6193 -27.85957,-18.80714 -67.7568,-44.14663 -69.50925,-44.14663 -1.56355,0 -11.60931,13.84143 -10.89021,15.00496 1.73047,2.79995 83.60971,53.48409 86.40251,53.48409 1.02905,0 2.88884,-2.08369 4.95387,-5.55028 z M 377.6153,496.54561 c 2.71459,-2.71458 2.30115,-6.01473 -1.23721,-9.87576 l -3.08827,-3.36988 -3.85319,2.1656 c -3.37459,1.89663 -3.85319,2.56814 -3.85319,5.40627 0,6.50764 7.6096,10.09604 12.03186,5.67377 z m -3.40988,-72.29948 c 5.34045,-2.73113 6.66476,-7.82727 2.98919,-11.50284 -2.90374,-2.90375 -5.20368,-2.87112 -8.76357,0.12434 -3.59085,3.0215 -3.81138,6.90506 -0.57585,10.1406 2.54794,2.54794 3.44619,2.72304 6.35023,1.2379 z m 2.66599,-84.70333 c 4.51601,-3.1296 4.58315,-5.6908 0.24892,-9.4963 -3.96172,-3.47844 -4.50833,-3.51156 -8.44156,-0.51154 -3.87396,2.95481 -4.34165,7.87174 -1.01289,10.64871 2.85207,2.37928 5.07028,2.22485 9.20553,-0.64087 z"
   id="path2991" />
    <path
   fill="#000"
   fill-opacity="1"
   d="m 368.61398,495.14768 -0.72958,-0.83094 0.0643,-3.15555 0.0643,-3.15555 0.9502,-0.6674 0.95019,-0.66739 2.50595,0.25221 c 2.06178,0.2075 2.60338,0.34373 3.05559,0.76856 1.10186,1.03515 1.39705,1.82826 1.6591,4.45774 0.23443,2.35227 0.22096,2.58905 -0.17773,3.12365 -0.42376,0.56823 -0.4949,0.57958 -4.02204,0.64203 l -3.59066,0.0636 z"
   id="path2993" />
    <path
   fill="#000"
   fill-opacity="1"
   d="m 368.61538,421.8012 c -0.71781,-0.81754 -0.71812,-0.81907 -0.71812,-3.59159 v -2.7737 l 0.96081,-1.04235 0.9608,-1.04235 3.12119,0.0642 3.12118,0.0641 0.6444,0.80984 0.6444,0.80984 -0.27755,2.72014 c -0.26996,2.64576 -0.29955,2.74195 -1.08212,3.51764 -0.76607,0.75932 -0.91927,0.80909 -3.20076,1.03981 -3.3825,0.34206 -3.36662,0.34425 -4.17423,-0.57557 z"
   id="path2995" />
    <path
   fill="#000"
   fill-opacity="1"
   d="m 369.86401,339.57917 c -0.6287,-0.27573 -1.18763,-0.92949 -1.50233,-1.7572 -0.32648,-0.85872 -0.35548,-5.11522 -0.0404,-5.92928 0.12839,-0.33172 0.75022,-0.98248 1.38184,-1.44613 1.29862,-0.95328 2.29259,-1.07415 4.38006,-0.53267 1.09808,0.28484 2.831,1.47146 3.1458,2.15409 0.13262,0.28756 -0.37804,5.79317 -0.55053,5.93556 -0.0574,0.0474 -0.62237,0.4365 -1.25548,0.86471 -1.05129,0.71105 -1.32214,0.78443 -3.12365,0.84622 -1.08491,0.0372 -2.1808,-0.0237 -2.43532,-0.1353 z"
   id="path2997" />
    <path
   fill="#000"
   fill-opacity="1"
   d="m 367.96278,628.59626 v -4.66293 l 0.53174,-10e-4 c 0.61358,-10e-4 8.02998,0.68443 8.11347,0.75026 0.0594,0.0469 0.83067,7.59081 0.83919,8.20867 l 0.005,0.36813 h -4.74474 -4.74474 z"
   id="path2999" />
    <path
   fill="#000"
   fill-opacity="1"
   d="m 368.00117,655.38768 0.0434,-4.70383 4.70384,-0.0434 4.70384,-0.0434 -0.006,0.45244 c -0.0162,1.1811 -0.78449,8.09662 -0.91221,8.21075 -0.12787,0.11427 -7.2461,0.83674 -8.20545,0.83282 l -0.37064,-0.002 z"
   id="path3001" />
    <path
   fill="#000"
   fill-opacity="1"
   d="m 334.42237,642.66687 v -22.57842 h 8.18059 8.18059 v 22.57842 22.57842 h -8.18059 -8.18059 z"
   id="path3003" />
    <path
   fill="#000"
   fill-opacity="1"
   d="m 357.32802,642.66687 v -22.57842 h 21.92397 21.92397 v 22.57842 22.57842 h -21.92397 -21.92397 z m 16.8845,19.0348 c 0.97198,-0.50921 2.79377,-1.99372 4.04843,-3.29892 l 2.28119,-2.37308 -1.85889,-3.55043 c -1.89249,-3.6146 -2.47068,-4.03255 -6.02604,-4.3559 -2.69635,-0.24523 -7.47583,3.42778 -7.47583,5.74514 0,2.48079 1.61997,5.77614 3.60841,7.34025 2.11468,1.6634 3.02977,1.74659 5.42273,0.49294 z m 3.05335,-27.93763 c 3.29646,-2.89432 3.22644,-5.71756 -0.22745,-9.17145 -2.0317,-2.0317 -3.0238,-2.5408 -4.95138,-2.5408 -3.12903,0 -4.68615,0.87852 -5.97514,3.37114 -1.49111,2.88349 -0.75014,5.89374 2.05754,8.35891 3.10142,2.72309 5.98116,2.71745 9.09643,-0.0178 z"
   id="path3005" />
       </svg>
