<?xml version="1.0" encoding="UTF-8" standalone="no"?>
<!-- Created with Inkscape (http://www.inkscape.org/) -->

<svg
   version="1.1"
   id="svg2"
   width="734.66669"
   height="774.66669"
   viewBox="0 0 734.66669 774.66669"
   xmlns="http://www.w3.org/2000/svg"
   xmlns:svg="http://www.w3.org/2000/svg">
    <path
       fill="#000"
       fill-opacity="1"
       d="m 220.42269,554.95999 c -1.35351,-2.48683 -2.45032,-5.29812 -2.43737,-6.24731 0.0368,-2.6953 79.20917,-52.85944 81.83562,-51.85157 0.72559,0.27843 2.78995,2.69011 4.58748,5.35927 2.45549,3.6462 3.0185,5.15392 2.26401,6.06302 -3.37698,4.06902 -79.75611,51.1981 -82.97353,51.1981 -0.44841,0 -1.92271,-2.03468 -3.27621,-4.52151 z"
       id="path249" />
    <path
       fill="#000"
       fill-opacity="1"
       d="m 488.21586,548.55848 c -27.20793,-16.45425 -57.13662,-35.46236 -60.86535,-38.65641 l -3.31573,-2.84028 3.1678,-4.51947 c 1.74229,-2.48571 3.45034,-4.9323 3.79567,-5.43685 0.40728,-0.59509 1.47358,-0.53205 3.03512,0.17944 5.10726,2.32702 73.38311,45.41632 78.92579,49.81054 l 2.4718,1.95964 -3.15953,5.2132 c -1.73774,2.86726 -3.80039,5.2113 -4.58366,5.20898 -0.78326,-0.002 -9.54562,-4.91578 -19.47191,-10.91879 z"
       id="path251" />
</svg>
