<?xml version="1.0" encoding="UTF-8" standalone="no"?>
<!-- Created with Inkscape (http://www.inkscape.org/) -->

<svg
   version="1.1"
   id="svg2"
   width="734.66669"
   height="774.66669"
   viewBox="0 0 734.66669 774.66669"
   xmlns="http://www.w3.org/2000/svg"
   xmlns:svg="http://www.w3.org/2000/svg">
    <path
       fill="#000"
       fill-opacity="1"
       d="m 102.73357,655.13715 c -18.951023,-2.1969 -45.146346,-7.50472 -61.860207,-12.53442 l -6.328549,-1.90444 0.616491,-9.8346 c 1.874855,-29.90871 11.320093,-90.77863 20.483217,-132.00426 9.128435,-41.06957 25.244335,-84.72713 49.710428,-134.66428 18.45528,-37.66863 36.96755,-68.30698 55.19378,-91.34733 6.1325,-7.75229 8.96196,-10.4387 15.84072,-15.03982 4.60604,-3.08094 8.92078,-5.6017 9.5883,-5.6017 1.81472,0 4.79536,7.73614 6.84354,17.76212 1.65822,8.11715 1.74669,10.699 1.00235,29.25256 -0.72762,18.13676 -1.36597,23.60622 -5.87028,50.2975 -5.81438,34.45441 -7.77437,49.77784 -11.67735,91.29497 l -2.80892,29.87916 -5.10039,17.32276 c -5.75912,19.56001 -17.24288,56.39581 -33.63878,107.90122 -8.57277,26.93015 -12.51676,37.85882 -17.10913,47.40881 -6.61465,13.75544 -5.53166,12.89606 -14.88522,11.81175 z"
       id="path221" />
    <path
       fill="#000"
       fill-opacity="1"
       d="m 616.60895,641.62208 c -13.56015,-32.3958 -26.75818,-75.14284 -45.07769,-146.002 -5.36561,-20.75396 -5.79298,-23.25439 -9.33315,-54.60613 -4.37094,-38.70903 -6.05551,-51.07399 -11.60041,-85.14855 -7.01265,-43.09425 -7.91869,-51.84944 -7.27922,-70.3401 0.47011,-13.59336 0.94123,-17.48623 2.93102,-24.21922 2.80354,-9.48651 3.61164,-9.96621 11.20031,-6.64874 8.66539,3.78817 18.82019,14.61058 31.66838,33.75034 11.14283,16.59932 15.0332,23.69376 26.7078,48.70409 43.10827,92.35023 76.20013,211.20062 82.06752,294.74784 0.62558,8.90785 0.61314,8.98359 -1.55856,9.49514 -1.20405,0.28362 -14.6838,2.57775 -29.955,5.09808 -15.27121,2.52034 -30.8126,5.22369 -34.53642,6.00746 -3.72382,0.78377 -7.52003,1.42503 -8.43602,1.42503 -1.26151,0 -2.91043,-2.97434 -6.79856,-12.26324 z"
       id="path223" />
</svg>
