<?xml version="1.0" encoding="UTF-8" standalone="no"?>
<!-- Created with Inkscape (http://www.inkscape.org/) -->

<svg
   version="1.1"
   id="svg2"
   width="551"
   height="580"
   viewBox="0 0 551 580"
   xmlns="http://www.w3.org/2000/svg"
   xmlns:svg="http://www.w3.org/2000/svg">
    <path
       fill="#000"
       fill-opacity="1"
       d="m 64.346717,394.12369 c -33.953481,-6.88355 -36.996873,-7.52835 -37.760545,-8.00033 -0.964771,-0.59626 -0.985729,-3.76649 -0.06904,-10.444 0.389253,-2.83548 1.362821,-10.56477 2.163486,-17.17622 1.647689,-13.60571 4.488652,-30.85601 7.802412,-47.37616 7.656202,-38.1686 18.807515,-74.53028 35.997736,-117.37972 10.598514,-26.41854 19.670658,-46.02424 26.311947,-56.86247 1.569107,-2.5607 3.488107,-5.76793 4.264457,-7.12716 4.38541,-7.67809 13.93626,-19.7709 19.95267,-25.26308 5.15529,-4.706099 11.05031,-8.446779 14.35218,-9.10715 2.22468,-0.444937 2.3406,-0.345343 4.1188,3.538755 3.10576,6.783875 4.00766,13.958985 3.51951,27.999515 -0.47709,13.72268 -1.3493,20.85114 -4.97478,40.65864 -4.25513,23.24748 -5.90899,35.80515 -7.82266,59.39697 -1.60877,19.83291 -3.07378,31.82502 -4.66471,38.18376 -2.26354,9.04713 -10.29751,37.77741 -14.43437,51.6188 -3.76362,12.59255 -6.23056,19.8399 -18.593324,54.62322 -3.450584,9.70842 -10.58994,24.81587 -12.093325,25.59046 -0.656178,0.33808 -7.945945,-0.82125 -18.07044,-2.87383 z"
       id="path1233" />
    <path
       fill="#000"
       fill-opacity="1"
       d="m 466.10951,395.76563 c -2.77398,-3.06522 -12.99767,-27.77691 -21.41806,-51.76964 -1.29887,-3.70093 -6.65582,-24.06561 -11.90435,-45.25483 -10.05816,-40.60657 -9.52658,-37.74586 -13.53162,-72.82054 -2.09168,-18.31816 -4.92329,-37.95733 -8.71692,-60.45763 -3.65867,-21.69993 -4.49765,-31.02874 -4.10174,-45.60839 0.25835,-9.51389 0.68457,-14.14211 1.56284,-16.97056 1.48594,-4.785473 3.18639,-7.778178 4.41956,-7.778178 2.22634,0 8.10681,3.810392 13.15242,8.522438 9.82126,9.17198 17.97774,21.12578 29.16485,42.7428 25.16759,48.63176 55.61329,141.70404 66.73237,204.00031 1.63371,9.15309 3.35637,34.42552 2.411,35.37089 -0.36669,0.36669 -3.83837,1.44733 -7.71485,2.40142 -10.08617,2.48243 -13.57756,3.17618 -39.27659,7.80438 -7.78214,1.40151 -9.36975,1.37463 -10.77891,-0.18247 z"
       id="path1235" />
</svg>
