<?xml version="1.0" encoding="UTF-8" standalone="no"?>
<!-- Created with Inkscape (http://www.inkscape.org/) -->

<svg
   version="1.1"
   id="svg2"
   width="551"
   height="580"
   viewBox="0 0 551 580"
   xml:space="preserve"
   xmlns="http://www.w3.org/2000/svg"
   xmlns:svg="http://www.w3.org/2000/svg"><defs
   id="defs9" />
     <g
   id="layer1"><path
     fill="#000"
     fill-opacity="1"
     d="m 156.30288,403.22764 c -0.15229,-0.48614 -1.54837,-4.86136 -3.1024,-9.72272 -3.67112,-11.48411 -7.18293,-23.01736 -7.18293,-23.58968 0,-0.24857 57.75295,-0.45195 128.33988,-0.45195 109.30042,0 128.33988,0.1463 128.33988,0.98618 0,0.5424 -0.60248,3.00843 -1.33885,5.48008 -0.73637,2.47164 -2.50939,8.78957 -3.94005,14.03984 -1.43065,5.25027 -2.92113,10.58008 -3.31218,11.84404 l -0.71098,2.29809 H 274.9875 c -94.10711,0 -118.46456,-0.18139 -118.68462,-0.88388 z"
     id="path253" />
     <path
     id="path847"
     d="m 274.35742,369.46289 c -70.58686,0 -128.33984,0.20456 -128.33984,0.45313 0,0.57232 3.51248,12.10574 7.18359,23.58984 1.55403,4.86135 2.94927,9.23652 3.10156,9.72266 0.22006,0.70248 24.57854,0.88281 118.68555,0.88281 h 118.40625 l 0.71094,-2.29883 c 0.39105,-1.26396 1.88185,-6.59349 3.3125,-11.84375 1.43066,-5.25026 3.20504,-11.56742 3.94141,-14.03906 0.73636,-2.47165 1.33789,-4.93807 1.33789,-5.48047 0,-0.83988 -19.03954,-0.98633 -128.33985,-0.98633 z" />
     <path
     id="path849"
     fill="#00f"
     d="m 146.77539,372.55078 c 0.56097,2.03371 1.60086,5.49004 3.24023,10.76953 h 249.26954 c 0.76101,-2.71602 1.68658,-6.0895 2.07422,-7.39062 0.35924,-1.20581 0.68077,-2.39848 0.92187,-3.37891 z" />
     <path
     id="path851"
     fill="#00f"
     d="m 152.47461,391.18555 c 0.26508,0.83487 0.45847,1.48167 0.72656,2.32031 1.35077,4.22552 2.29628,7.19494 2.69531,8.45117 h 238.16407 l 0.0449,-0.14453 c 0.35088,-1.13412 1.68892,-5.94062 2.97265,-10.62695 z" />
     </g><g
   id="layer2">
   <path
     id="path250"
     d="m 27.445311,392.46875 c -0.166405,-0.003 -0.274255,0.008 -0.316401,0.0332 -0.336962,0.20824 -0.613284,7.95524 -0.613287,17.21485 l 5e-6,16.83593 4.066403,1.08984 c 2.236221,0.59968 7.088579,1.80273 10.783207,2.67383 3.69463,0.8711 10.059035,2.44777 14.142578,3.50195 1.08662,0.28052 2.124147,0.53814 3.089845,0.77344 l 4.994135,0.99024 c 0.49816,-0.52593 2.483329,-4.64394 4.599611,-9.56641 2.253241,-5.24101 5.550989,-12.78459 7.328121,-16.76367 1.777145,-3.97907 3.012343,-7.36914 2.746105,-7.53321 -0.266249,-0.16404 -4.619981,-0.97482 -9.675788,-1.80077 -14.669488,-2.39654 -21.288139,-3.61353 -31.384766,-5.7715 -4.554361,-0.9734 -8.594972,-1.66042 -9.759765,-1.67773 z" />
     <path
     id="rect134"
     d="m 105.63194,56.289346 -0.003,26.066322 c 1.46713,9.048973 3.21525,19.331752 5.32918,30.890922 l 10.05331,54.97236 11.39966,1.59279 c 6.26917,0.87705 19.81397,2.45954 30.10027,3.51781 10.28631,1.05827 28.05108,3.12976 39.47474,4.59782 3.03981,0.39066 5.93618,0.73028 8.62934,1.03175 l 13.7925,0.81906 c 1.00276,-1.95807 3.79123,-16.36377 6.4459,-33.45954 2.82649,-18.20206 7.03904,-44.42742 9.36055,-58.278906 0.86416,-5.155947 1.51242,-9.746359 2.02747,-13.828772 l -0.003,-12.238259 C 239.37738,61.589621 228.60249,61.136529 216.32337,60.912486 176.11595,60.178752 157.89386,59.40464 129.9165,57.239308 119.59028,56.440132 110.36477,56.10881 105.63194,56.289346 Z"
     transform="matrix(0.36606664,0.05419635,-0.06694599,0.29635044,-6.5210771,370.14259)" />
     <path
     id="rect398"
     fill="#00f"
     d="m 106.67495,78.038683 c -0.47703,0 -0.86246,0.3793 -0.86246,0.85633 l -10e-4,4.574083 c 1.27664,7.824681 2.76583,16.531624 4.5191,26.227934 l 126.34847,1e-4 c 1.30006,-8.0435 2.62172,-16.204649 3.5356,-21.657396 0.57841,-3.451052 1.09146,-6.762101 1.52081,-9.801531 -0.14493,-0.110906 -0.3094,-0.203892 -0.50681,-0.203892 z"
     transform="matrix(0.36606664,0.05419635,-0.06694599,0.29635044,-6.5210771,370.14259)" />
     <path
     id="rect402"
     fill="#00f"
     d="m 114.53637,132.81216 5.79056,31.66332 107.45598,0.002 c 0.9746,-5.32277 2.01899,-11.38345 3.07104,-18.15851 0.62024,-3.99426 1.41548,-8.95423 2.13458,-13.50565 z"
     transform="matrix(0.36606664,0.05419635,-0.06694599,0.29635044,-6.5210771,370.14259)" />
     </g><g
   id="layer3">
   <path
     fill="#000"
     d="m 484.91082,434.34034 c -0.38014,-0.48614 -1.98074,-3.74767 -3.55689,-7.24785 -1.57616,-3.50017 -4.77667,-10.57836 -7.11226,-15.72931 -2.33559,-5.15094 -4.03548,-9.49538 -3.77754,-9.6543 0.25794,-0.15893 4.60556,-0.98704 9.66137,-1.84025 9.04645,-1.52666 27.19318,-5.17576 36.63666,-7.36723 2.64926,-0.61479 5.13111,-1.1178 5.51521,-1.1178 0.78594,0 0.59162,34.21677 -0.19881,35.00503 -0.49178,0.49043 -6.17736,1.95391 -24.41387,6.28417 -12.21818,2.90121 -11.829,2.85033 -12.75387,1.66754 z"
     id="path247" />
     <path
     id="path886"
     d="m 520.67736,392.83162 1.7461,7.72461 c 0.0687,2.76118 0.11718,5.90323 0.11718,9.44336 v 16.83593 l -4.0664,1.08985 c -2.23622,0.59968 -7.08858,1.80273 -10.7832,2.67383 -3.69463,0.8711 -10.05904,2.44777 -14.14258,3.50195 -1.08662,0.28052 -2.12415,0.53814 -3.08985,0.77344 l -4.99414,0.99023 c -0.49816,-0.52593 -2.48333,-4.64394 -4.59961,-9.56641 -2.25324,-5.241 -5.55099,-12.78459 -7.32812,-16.76367 -0.66151,-1.48113 -1.20613,-2.80637 -1.66797,-3.98828 l -0.81836,-3.62695 c 1.02204,-0.26864 4.93604,-0.98687 9.41601,-1.71875 14.66948,-2.39654 21.28815,-3.61352 31.38477,-5.77149 3.72658,-0.79648 7.08155,-1.39465 8.82617,-1.59765 z"
    />
     <path
     id="path888"
     fill="#00f"
     d="m 521.75158,399.33357 c 0.17463,-0.0258 0.34111,0.0657 0.37305,0.20703 l 0.30664,1.35547 c 0.0565,2.38804 0.0942,5.04905 0.10156,8.01758 l -46.25195,6.84766 c -1.01439,-2.31324 -2.04456,-4.66017 -2.74414,-6.22657 -0.44277,-0.99137 -0.85225,-1.9448 -1.21289,-2.82226 0.0456,-0.0407 0.0996,-0.0772 0.17187,-0.0879 z" />
     <path
     id="path890"
     fill="#00f"
     d="m 522.54064,415.99178 v 9.69726 l -39.33593,5.82422 c -0.71311,-1.52459 -1.50116,-3.26407 -2.33985,-5.21485 -0.49445,-1.15008 -1.11761,-2.57687 -1.68555,-3.88671 z" />
     </g><g
   id="layer4">
     </g></svg>
