<?xml version="1.0" encoding="UTF-8" standalone="no"?>
<!-- Created with Inkscape (http://www.inkscape.org/) -->

<svg
   version="1.1"
   id="svg2"
   width="551"
   height="580"
   viewBox="0 0 551 580"
   xml:space="preserve"
   xmlns="http://www.w3.org/2000/svg"
   xmlns:svg="http://www.w3.org/2000/svg"><defs
   id="defs9" />
    <g
   id="layer1"><path
     fill="#000"
     d="m 156.30288,403.22764 c -0.15229,-0.48614 -1.54837,-4.86136 -3.1024,-9.72272 -3.67112,-11.48411 -7.18293,-23.01736 -7.18293,-23.58968 0,-0.24857 57.75295,-0.45195 128.33988,-0.45195 109.30042,0 128.33988,0.1463 128.33988,0.98618 0,0.5424 -0.60248,3.00843 -1.33885,5.48008 -0.73637,2.47164 -2.50939,8.78957 -3.94005,14.03984 -1.43065,5.25027 -2.92113,10.58008 -3.31218,11.84404 l -0.71098,2.29809 H 274.9875 c -94.10711,0 -118.46456,-0.18139 -118.68462,-0.88388 z"
     id="path253" />
     <path
     id="path1680"
     fill="#00f"
     d="m 150.79492,385.81055 c 0.82271,2.63041 1.51725,4.91431 2.40625,7.69531 0.67525,2.11231 0.82113,2.57502 1.34766,4.22461 h 240.69922 c 0.66267,-2.34231 1.23238,-4.3211 2.16992,-7.76172 0.42376,-1.55512 0.71997,-2.54344 1.16797,-4.1582 z" />
     <path
     id="path1682"
     fill="#0ff"
     d="m 151.5332,388.17188 c 0.59138,1.87835 1.05176,3.40633 1.66797,5.33398 0.30061,0.94038 0.31868,1.00149 0.59961,1.88086 h 242.10156 c 0.56853,-2.03823 0.86116,-3.01618 1.51563,-5.41797 0.1831,-0.67193 0.31248,-1.10027 0.50391,-1.79687 z" />
     </g><g
   id="layer2">
   <path
     id="path250"
     d="m 27.445311,392.46875 c -0.166405,-0.003 -0.274255,0.008 -0.316401,0.0332 -0.336962,0.20824 -0.613284,7.95524 -0.613287,17.21485 l 5e-6,16.83593 4.066403,1.08984 c 2.236221,0.59968 7.088579,1.80273 10.783207,2.67383 3.69463,0.8711 10.059035,2.44777 14.142578,3.50195 1.08662,0.28052 2.124147,0.53814 3.089845,0.77344 l 4.994135,0.99024 c 0.49816,-0.52593 2.483329,-4.64394 4.599611,-9.56641 2.253241,-5.24101 5.550989,-12.78459 7.328121,-16.76367 1.777145,-3.97907 3.012343,-7.36914 2.746105,-7.53321 -0.266249,-0.16404 -4.619981,-0.97482 -9.675788,-1.80077 -14.669488,-2.39654 -21.288139,-3.61353 -31.384766,-5.7715 -4.554361,-0.9734 -8.594972,-1.66042 -9.759765,-1.67773 z" />
     <path
     id="path1650"
     fill="#00f"
     d="m 26.541016,406.25586 c -0.0091,1.15379 -0.02539,2.24083 -0.02539,3.46094 v 11.15625 l 39.802734,9.35351 c 0.591642,-1.29067 1.21539,-2.68122 1.873047,-4.21094 1.153867,-2.68387 2.568566,-5.94324 3.925782,-9.04687 z" />
     <path
     id="path1652"
     fill="#0ff"
     d="m 26.519531,409.14844 c -2.56e-4,0.19889 -0.0039,0.36799 -0.0039,0.56836 v 8.27929 l 40.966797,9.62891 c 0.237881,-0.54065 0.465571,-1.0432 0.708984,-1.60938 0.816552,-1.89928 1.81634,-4.19312 2.785156,-6.41796 z" />
     </g><g
   id="layer3">
   <path
     fill="#000"
     d="m 484.91082,434.34034 c -0.38014,-0.48614 -1.98074,-3.74767 -3.55689,-7.24785 -1.57616,-3.50017 -4.77667,-10.57836 -7.11226,-15.72931 -2.33559,-5.15094 -4.03548,-9.49538 -3.77754,-9.6543 0.25794,-0.15893 4.60556,-0.98704 9.66137,-1.84025 9.04645,-1.52666 27.19318,-5.17576 36.63666,-7.36723 2.64926,-0.61479 5.13111,-1.1178 5.51521,-1.1178 0.78594,0 0.59162,34.21677 -0.19881,35.00503 -0.49178,0.49043 -6.17736,1.95391 -24.41387,6.28417 -12.21818,2.90121 -11.829,2.85033 -12.75387,1.66754 z"
     id="path247" />
     <path
     id="path1693"
     fill="#00f"
     d="m 522.76758,403.79883 -47.08594,10.74805 c 2.06076,4.55071 4.41475,9.75322 5.67188,12.54492 0.13988,0.31064 0.27466,0.59723 0.41406,0.90234 l 40.83398,-9.31641 c 0.12351,-4.39624 0.18236,-9.85685 0.16602,-14.8789 z" />
     <path
     id="path1695"
     fill="#0ff"
     d="m 522.76953,406.74023 -45.88281,10.47071 c 1.36355,3.01369 2.69368,5.9542 3.67969,8.14062 l 42.10937,-9.61133 c 0.0562,-2.86781 0.0866,-5.929 0.0937,-9 z" />
     </g><g
   id="layer4">
     </g></svg>
