<?xml version="1.0" encoding="UTF-8" standalone="no"?>
<!-- Created with Inkscape (http://www.inkscape.org/) -->

<svg
   version="1.1"
   id="svg2"
   width="551"
   height="580"
   viewBox="0 0 551 580"
   xml:space="preserve"
   xmlns="http://www.w3.org/2000/svg"
   xmlns:svg="http://www.w3.org/2000/svg"><defs
   id="defs9" />
    <g
   id="layer1"></g><g
   id="layer2">
   <path
     id="path406"
     d="m 27.445311,392.46875 c -0.166405,-0.003 -0.274255,0.008 -0.316401,0.0332 -0.336962,0.20824 -0.613284,7.95524 -0.613287,17.21485 l 5e-6,16.83593 4.066403,1.08984 c 2.236221,0.59968 7.088579,1.80273 10.783207,2.67383 3.69463,0.8711 10.059035,2.44777 14.142578,3.50195 1.08662,0.28052 2.124147,0.53814 3.089845,0.77344 l 4.994135,0.99024 c 0.49816,-0.52593 2.483329,-4.64394 4.599611,-9.56641 2.253241,-5.24101 5.550989,-12.78459 7.328121,-16.76367 1.777145,-3.97907 3.012343,-7.36914 2.746105,-7.53321 -0.266249,-0.16404 -4.619981,-0.97482 -9.675788,-1.80077 -14.669488,-2.39654 -21.288139,-3.61353 -31.384766,-5.7715 -4.554361,-0.9734 -8.594972,-1.66042 -9.759765,-1.67773 z" />
     <path
     id="rect134-6"
     fill="#00f"
     d="m 28.625,392.71875 -1.945312,5.62695 c -0.100058,3.06047 -0.164062,7.00997 -0.164063,11.3711 v 1.3164 l 44.966797,7.39649 c 1.530626,-3.50848 3.021158,-6.90297 4.037109,-9.17774 1.777143,-3.97906 3.012332,-7.36913 2.746094,-7.5332 -0.266249,-0.16404 -4.619979,-0.97483 -9.675781,-1.80078 -14.669474,-2.39654 -21.288149,-3.61352 -31.384766,-5.77149 -0.146293,-0.0313 -0.27672,-0.0553 -0.421875,-0.0859 z" />
     <path
     id="rect566-1"
     d="m 28.638672,392.71875 -1.958984,5.66797 c -0.0049,0.14922 -0.0071,0.34434 -0.01172,0.49805 l 49.787109,8.1875 c 1.238165,-2.95172 2.025565,-5.22101 1.810547,-5.35352 -0.266249,-0.16404 -4.619979,-0.97483 -9.675781,-1.80078 -14.669474,-2.39654 -21.288149,-3.61352 -31.384766,-5.77149 -0.165296,-0.0353 -0.312732,-0.0631 -0.476562,-0.0976 z" />
     <path
     id="rect595-5"
     fill="#0ff"
     d="m 26.667969,398.88477 c -0.05077,1.67271 -0.08824,3.55861 -0.113281,5.66015 l 47.589843,7.82617 c 0.449066,-1.01695 1.024537,-2.33443 1.375,-3.11914 0.341892,-0.7655 0.640603,-1.47656 0.935547,-2.17968 z" />
     <path
     id="rect334"
     fill="#00f"
     d="m 26.515625,411.03906 v 15.51367 l 4.066406,1.08985 c 2.236219,0.59968 7.088579,1.80273 10.783203,2.67383 3.694627,0.8711 10.05904,2.44777 14.142578,3.50195 1.086619,0.28052 2.124147,0.53814 3.089844,0.77344 l 4.994141,0.99023 c 0.498159,-0.52593 2.483329,-4.64394 4.599609,-9.56641 0.964387,-2.24315 2.143115,-4.95333 3.289063,-7.58007 z" />
     <path
     id="rect336"
     d="m 26.515625,411.03711 v 6.49023 l 42.337891,6.96289 c 0.825538,-1.91296 1.711379,-3.95796 2.626953,-6.05664 z" />
     <path
     id="rect338"
     fill="#0ff"
     d="m 26.515625,417.52734 v 5.67969 l 40.007813,6.57813 c 0.530873,-1.16774 1.089894,-2.42494 1.667968,-3.76954 0.194081,-0.45142 0.454169,-1.04354 0.66211,-1.52539 z" />
     </g><g
   id="layer3">
   <path
     fill="#000"
     d="m 484.91082,434.34034 c -0.38014,-0.48614 -1.98074,-3.74767 -3.55689,-7.24785 -1.57616,-3.50017 -4.77667,-10.57836 -7.11226,-15.72931 -2.33559,-5.15094 -4.03548,-9.49538 -3.77754,-9.6543 0.25794,-0.15893 4.60556,-0.98704 9.66137,-1.84025 9.04645,-1.52666 27.19318,-5.17576 36.63666,-7.36723 2.64926,-0.61479 5.13111,-1.1178 5.51521,-1.1178 0.78594,0 0.59162,34.21677 -0.19881,35.00503 -0.49178,0.49043 -6.17736,1.95391 -24.41387,6.28417 -12.21818,2.90121 -11.829,2.85033 -12.75387,1.66754 z"
     id="path1253" />
     <path
     id="path1257"
     fill="#00f"
     d="m 522.27734,391.38281 c -0.3841,0 -2.86636,0.50435 -5.51562,1.11914 -9.44347,2.19147 -27.59028,5.84053 -36.63672,7.36719 -5.0558,0.85321 -9.40222,1.68091 -9.66016,1.83984 -0.25794,0.15892 1.44176,4.50337 3.77735,9.6543 0.98086,2.16321 1.88475,4.17022 2.98633,6.60547 l 45.51953,-7.48437 c 0.0839,-9.26099 -0.0486,-19.10157 -0.47071,-19.10157 z" />
     <path
     id="path1259"
     d="m 522.27734,391.38281 c -0.3841,0 -2.86636,0.50435 -5.51562,1.11914 -9.44347,2.19147 -27.59028,5.84053 -36.63672,7.36719 -5.0558,0.85321 -9.40222,1.68091 -9.66016,1.83984 -0.15441,0.0951 0.443,1.78414 1.40821,4.1543 l 50.82812,-8.35742 c -0.0773,-3.59818 -0.21372,-6.12305 -0.42383,-6.12305 z" />
     <path
     id="path1261"
     fill="#0ff"
     d="m 522.70117,397.50586 -50.82812,8.35742 c 0.64712,1.58907 1.43173,3.43263 2.36914,5.5 0.0232,0.0511 0.047,0.10475 0.0703,0.15625 l 48.45508,-7.96875 c -0.008,-2.20715 -0.0278,-4.25084 -0.0664,-6.04492 z" />
     <path
     id="path1263"
     fill="#00f"
     d="m 522.74805,410.49023 -45.51563,7.48633 c 1.52002,3.36032 3.20766,7.08678 4.1211,9.11524 1.57614,3.50017 3.1765,6.7619 3.55664,7.24804 0.92487,1.18279 0.53573,1.23324 12.7539,-1.66796 18.23649,-4.33026 23.92229,-5.79278 24.41406,-6.28321 0.36578,-0.36476 0.59752,-7.92021 0.66993,-15.89844 z" />
     <path
     id="path1265"
     d="m 522.74805,410.48828 -45.51758,7.48633 c 1.07389,2.37405 2.06987,4.5729 2.91211,6.43945 l 42.49023,-6.98437 c 0.0527,-2.17579 0.0929,-4.48326 0.11524,-6.94141 z" />
     <path
     id="path1267"
     fill="#0ff"
     d="m 522.63281,417.42969 -42.49023,6.98437 c 0.35023,0.77617 0.94259,2.08182 1.21094,2.67774 0.46807,1.03946 0.9274,2.0261 1.36718,2.95703 l 39.69532,-6.52539 c 0.0909,-1.55006 0.15931,-3.71834 0.21679,-6.09375 z" />
     </g><g
   id="layer4">
   <path
     fill="#000"
     d="m 156.30288,403.22764 c -0.15229,-0.48614 -1.54837,-4.86136 -3.1024,-9.72272 -3.67112,-11.48411 -7.18293,-23.01736 -7.18293,-23.58968 0,-0.24857 57.75295,-0.45195 128.33988,-0.45195 109.30042,0 128.33988,0.1463 128.33988,0.98618 0,0.5424 -0.60248,3.00843 -1.33885,5.48008 -0.73637,2.47164 -2.50939,8.78957 -3.94005,14.03984 -1.43065,5.25027 -2.92113,10.58008 -3.31218,11.84404 l -0.71098,2.29809 H 274.9875 c -94.10711,0 -118.46456,-0.18139 -118.68462,-0.88388 z"
     id="path1249" />
     <path
     id="path1294"
     fill="#00f"
     d="m 215.70703,369.54883 c -38.95142,0.0778 -69.68945,0.19904 -69.68945,0.36719 0,0.45398 2.38278,8.26713 5.1289,17.01953 h 247.12305 c 1.18707,-4.29777 2.51257,-9.06823 3.08985,-11.00586 0.73636,-2.47165 1.33789,-4.93807 1.33789,-5.48047 0,-0.55701 -11.11345,-0.79386 -48.63672,-0.90039 z" />
     <path
     id="path1296"
     d="m 215.70703,369.54883 c -38.95142,0.0778 -69.68945,0.19904 -69.68945,0.36719 0,0.21097 0.84633,3.0394 1.63281,5.67773 h 253.80078 c 0.68724,-2.34694 1.2461,-4.62844 1.2461,-5.14453 0,-0.55701 -11.11345,-0.79386 -48.63672,-0.90039 z" />
     <path
     id="path1298"
     fill="#0ff"
     d="m 147.65039,375.59375 c 0.49955,1.67579 0.89745,2.99779 1.60352,5.28906 h 250.71484 c 0.45731,-1.61376 1.13083,-4.0811 1.39063,-4.95312 0.0357,-0.1199 0.0568,-0.21629 0.0918,-0.33594 z" />
     <path
     id="path1300"
     fill="#00f"
     d="m 151.14844,386.93945 c 0.71538,2.28004 1.29416,4.19343 2.05273,6.56641 1.55403,4.86135 2.94927,9.23652 3.10156,9.72266 0.22006,0.70248 24.57854,0.88281 118.68555,0.88281 h 118.40625 l 0.71094,-2.29883 c 0.39105,-1.26396 1.88185,-6.59349 3.3125,-11.84375 0.30868,-1.1328 0.5229,-1.84645 0.84961,-3.0293 z" />
     <path
     id="path1302"
     d="m 151.14648,386.9375 c 0.65884,2.0998 1.19512,3.86167 1.89258,6.04688 h 243.53516 c 0.3529,-1.27873 0.47947,-1.67878 0.84375,-3.01563 0.30891,-1.13367 0.5246,-1.8475 0.85156,-3.03125 z" />
     <path
     id="path1304"
     fill="#0ff"
     d="m 153.03906,392.98438 c 0.0601,0.18833 0.1019,0.33312 0.16211,0.52148 0.76206,2.38389 0.96343,3.01876 1.52149,4.76758 H 395.0957 c 0.42182,-1.48422 0.85961,-3.04647 1.47852,-5.28906 z" />
     </g></svg>
