<?xml version="1.0" encoding="UTF-8" standalone="no"?>
<!-- Created with Inkscape (http://www.inkscape.org/) -->

<svg
   version="1.1"
   id="svg2"
   width="551"
   height="580"
   viewBox="0 0 551 580"
   xml:space="preserve"
   xmlns="http://www.w3.org/2000/svg"
   xmlns:svg="http://www.w3.org/2000/svg"><defs
   id="defs9" />
<g
   id="layer1"></g><g
   id="layer2">
   <path
     id="path406"
     d="m 27.445311,392.46875 c -0.166405,-0.003 -0.274255,0.008 -0.316401,0.0332 -0.336962,0.20824 -0.613284,7.95524 -0.613287,17.21485 l 5e-6,16.83593 4.066403,1.08984 c 2.236221,0.59968 7.088579,1.80273 10.783207,2.67383 3.69463,0.8711 10.059035,2.44777 14.142578,3.50195 1.08662,0.28052 2.124147,0.53814 3.089845,0.77344 l 4.994135,0.99024 c 0.49816,-0.52593 2.483329,-4.64394 4.599611,-9.56641 2.253241,-5.24101 5.550989,-12.78459 7.328121,-16.76367 1.777145,-3.97907 3.012343,-7.36914 2.746105,-7.53321 -0.266249,-0.16404 -4.619981,-0.97482 -9.675788,-1.80077 -14.669488,-2.39654 -21.288139,-3.61353 -31.384766,-5.7715 -4.554361,-0.9734 -8.594972,-1.66042 -9.759765,-1.67773 z" />
     <path
     id="path745"
     d="m 27,392.97266 c -0.275786,1.80771 -0.484372,8.69775 -0.484375,16.74414 v 16.08398 l 38.144531,7.88672 c 0.892225,-1.7564 2.162237,-4.48755 3.53125,-7.67188 2.253239,-5.241 5.550995,-12.78459 7.328125,-16.76367 1.023892,-2.29251 1.855336,-4.3665 2.335938,-5.76367 z" />
     <path
     id="path747"
     fill="#00f"
     d="m 26.515625,418.73633 v 2.34961 l 40.1875,8.30859 c 0.303586,-0.67232 0.62692,-1.42026 0.947266,-2.15234 z" />
     <path
     id="path749"
     d="m 26.515625,414.03516 v 4.69922 l 41.136719,8.50585 c 0.182278,-0.41657 0.353867,-0.79384 0.539062,-1.22461 0.392861,-0.91378 0.897075,-2.0652 1.339844,-3.08789 z" />
     <path
     id="path751"
     fill="#00f"
     d="m 26.515625,411.68164 v 2.34961 l 43.015625,8.89453 c 0.309193,-0.71415 0.613284,-1.41476 0.935547,-2.15625 z" />
     <path
     id="path753"
     d="m 26.535156,406.98438 c -0.0057,0.92375 -0.01953,1.76914 -0.01953,2.73242 v 1.96289 l 43.953125,9.08789 c 0.656835,-1.51129 1.222336,-2.81945 1.875,-4.31055 z" />
     <path
     id="path755"
     fill="#00f"
     d="m 26.552734,404.63477 c -0.0088,0.75515 -0.01264,1.554 -0.01758,2.34765 l 45.808594,9.47266 c 0.358332,-0.81866 0.612408,-1.38361 0.951172,-2.1543 z" />
     <path
     id="path757"
     d="m 26.640625,399.95117 c -0.03777,1.44753 -0.06776,2.96297 -0.08789,4.6836 l 46.742188,9.66406 c 0.677261,-1.54077 1.377208,-3.13755 1.898437,-4.3086 z" />
     <path
     id="path759"
     fill="#00f"
     d="m 26.699219,397.60938 c -0.02445,0.67347 -0.03839,1.56395 -0.05859,2.33789 l 48.554687,10.03906 c 0.08884,-0.19959 0.241685,-0.54958 0.324219,-0.73438 0.222716,-0.49866 0.405571,-0.94494 0.609375,-1.41992 z" />
     <path
     id="path761"
     d="m 27,392.96875 c -0.115263,0.75308 -0.219256,2.39378 -0.300781,4.63867 l 49.43164,10.22266 c 0.733195,-1.70886 1.350723,-3.25083 1.726563,-4.34375 z" />
     </g><g
   id="layer3">
   <path
     fill="#000"
     d="m 484.91082,434.34034 c -0.38014,-0.48614 -1.98074,-3.74767 -3.55689,-7.24785 -1.57616,-3.50017 -4.77667,-10.57836 -7.11226,-15.72931 -2.33559,-5.15094 -4.03548,-9.49538 -3.77754,-9.6543 0.25794,-0.15893 4.60556,-0.98704 9.66137,-1.84025 9.04645,-1.52666 27.19318,-5.17576 36.63666,-7.36723 2.64926,-0.61479 5.13111,-1.1178 5.51521,-1.1178 0.78594,0 0.59162,34.21677 -0.19881,35.00503 -0.49178,0.49043 -6.17736,1.95391 -24.41387,6.28417 -12.21818,2.90121 -11.829,2.85033 -12.75387,1.66754 z"
     id="path1253" />
     <path
     id="path919"
     d="m 522.35547,391.51367 -11.61719,2.32813 c -8.01519,1.73513 -18.33401,3.80279 -25.91601,5.1914 l -14.3711,2.87891 c 0.13317,0.91264 1.70752,4.85619 3.79102,9.45117 2.33559,5.15095 5.53517,12.22835 7.11133,15.72852 0.86673,1.92477 1.72002,3.72538 2.39453,5.08398 l 38.61133,-7.73437 c 0.521,-7.0468 0.59434,-31.01873 -0.004,-32.92774 z" />
     <path
     id="path921"
     fill="#00f"
     d="m 522.63477,417.32227 -41.90235,8.39453 c 0.16093,0.35693 0.48333,1.06906 0.6211,1.375 0.12055,0.2677 0.23714,0.51356 0.35742,0.77734 l 40.86523,-8.18555 c 0.0231,-0.73069 0.0394,-1.55678 0.0586,-2.36132 z" />
     <path
     id="path923"
     d="m 522.72266,412.60352 -43.94141,8.80078 c 0.66473,1.47119 1.44452,3.19111 1.94922,4.31054 l 41.9043,-8.39453 c 0.0361,-1.51152 0.0662,-3.04429 0.0879,-4.71679 z" />
     <path
     id="path925"
     fill="#00f"
     d="m 522.75,410.24414 -44.94336,9.00391 c 0.35303,0.78075 0.64235,1.41893 0.97461,2.15429 l 43.94141,-8.80273 c 0.0101,-0.78258 0.0205,-1.55856 0.0273,-2.35547 z" />
     <path
     id="path927"
     d="m 522.76953,405.53906 -46.91015,9.39844 c 0.71222,1.57299 1.2413,2.7473 1.94726,4.30859 l 44.94336,-9.0039 c 0.0138,-1.59756 0.0193,-3.12842 0.0195,-4.70313 z" />
     <path
     id="path929"
     fill="#00f"
     d="m 522.76758,403.18555 -47.88477,9.5957 c 0.33852,0.74705 0.61845,1.36769 0.97461,2.1543 l 46.91211,-9.39844 c 9e-5,-0.78904 10e-4,-1.58849 -0.002,-2.35156 z" />
     <path
     id="path931"
     d="m 522.71484,398.49414 -49.75195,9.96875 c 0.40256,0.93095 0.81655,1.87985 1.2793,2.90039 0.21029,0.46378 0.41812,0.92501 0.64062,1.41602 l 47.88477,-9.59375 c -0.008,-1.70561 -0.0268,-3.2246 -0.0527,-4.69141 z" />
     <path
     id="path933"
     fill="#00f"
     d="m 522.66992,396.15039 -50.61914,10.14258 c 0.28355,0.68794 0.57003,1.3774 0.91016,2.16406 l 49.7539,-9.9668 c -0.0141,-0.79939 -0.0252,-1.64604 -0.0449,-2.33984 z" />
     <path
     id="path935"
     d="m 522.35352,391.50977 -11.39454,2.2832 c -8.10761,1.75826 -18.66056,3.87443 -26.32617,5.27539 l -14.18164,2.8418 c 0.0773,0.53592 0.70624,2.21798 1.59766,4.38086 l 50.62109,-10.14258 c -0.0696,-2.44125 -0.17337,-4.18855 -0.3164,-4.63867 z" />
     </g><g
   id="layer4">
   <path
     fill="#000"
     d="m 156.30288,403.22764 c -0.15229,-0.48614 -1.54837,-4.86136 -3.1024,-9.72272 -3.67112,-11.48411 -7.18293,-23.01736 -7.18293,-23.58968 0,-0.24857 57.75295,-0.45195 128.33988,-0.45195 109.30042,0 128.33988,0.1463 128.33988,0.98618 0,0.5424 -0.60248,3.00843 -1.33885,5.48008 -0.73637,2.47164 -2.50939,8.78957 -3.94005,14.03984 -1.43065,5.25027 -2.92113,10.58008 -3.31218,11.84404 l -0.71098,2.29809 H 274.9875 c -94.10711,0 -118.46456,-0.18139 -118.68462,-0.88388 z"
     id="path1249" />
     <path
     id="path811"
     d="m 274.35742,369.46289 c -70.58686,0 -128.33984,0.20456 -128.33984,0.45313 0,0.57232 3.51248,12.10574 7.18359,23.58984 1.55403,4.86135 2.94927,9.23652 3.10156,9.72266 0.22006,0.70248 24.57854,0.88281 118.68555,0.88281 h 118.40625 l 0.71094,-2.29883 c 0.39105,-1.26396 1.88185,-6.59349 3.3125,-11.84375 1.43066,-5.25026 3.20504,-11.56742 3.94141,-14.03906 0.73636,-2.47165 1.33789,-4.93807 1.33789,-5.48047 0,-0.83988 -19.03954,-0.98633 -128.33985,-0.98633 z" />
     <path
     id="path813"
     fill="#00f"
     d="m 154.60547,397.9082 c 0.3328,1.04276 0.66208,2.07259 0.86914,2.72266 h 238.96094 c 0.13767,-0.46757 0.53415,-1.91942 0.76172,-2.72266 z" />
     <path
     id="path815"
     d="m 152.87305,392.45898 c 0.1205,0.37813 0.20716,0.66847 0.32812,1.04688 0.70337,2.20029 0.86632,2.71479 1.4043,4.40039 h 240.5918 c 0.45539,-1.6074 0.87744,-3.10145 1.52343,-5.44727 z" />
     <path
     id="path817"
     fill="#00f"
     d="m 152.02148,389.73242 c 0.30725,0.97166 0.53824,1.73945 0.85157,2.72266 h 243.84961 c 0.29488,-1.07083 0.39498,-1.38416 0.69531,-2.48633 0.0241,-0.0884 0.0421,-0.14736 0.0664,-0.23633 z" />
     <path
     id="path819"
     d="m 150.31641,384.2832 c 0.56508,1.81467 1.09032,3.50314 1.70507,5.44727 h 245.4629 c 0.55945,-2.05065 0.95435,-3.38729 1.52929,-5.44727 z" />
     <path
     id="path821"
     fill="#00f"
     d="m 149.46484,381.55664 c 0.26367,0.85374 0.56916,1.81578 0.85157,2.72266 h 248.69921 c 0.28733,-1.02945 0.50269,-1.79853 0.76368,-2.72266 z" />
     <path
     id="path823"
     d="m 147.79883,376.10742 c 0.50633,1.68775 0.98122,3.2362 1.66406,5.44727 H 399.7793 c 0.52214,-1.84886 1.23347,-4.45072 1.52929,-5.44727 z" />
     <path
     id="path825"
     fill="#00f"
     d="m 147.01367,373.37891 c 0.24919,0.87404 0.38017,1.37911 0.78321,2.72265 h 253.51367 c 0.009,-0.0314 0.0398,-0.14159 0.0488,-0.17187 0.27123,-0.9104 0.48578,-1.73776 0.69726,-2.55078 z" />
     <path
     id="path827"
     d="m 274.35742,369.46289 c -70.58686,0 -128.33984,0.20456 -128.33984,0.45313 0,0.12852 0.67791,2.34965 0.99414,3.45898 h 255.04492 c 0.36217,-1.39263 0.64063,-2.58345 0.64063,-2.92578 0,-0.83988 -19.03954,-0.98633 -128.33985,-0.98633 z" />
     </g></svg>
