<?xml version="1.0" encoding="UTF-8" standalone="no"?>
<!-- Created with Inkscape (http://www.inkscape.org/) -->

<svg
   version="1.1"
   id="svg2"
   width="551"
   height="580"
   viewBox="0 0 551 580"
   xml:space="preserve"
   xmlns="http://www.w3.org/2000/svg"
   xmlns:svg="http://www.w3.org/2000/svg"><defs
   id="defs9" />
    <g
   id="layer1">
   <path
     fill="#000"
     d="m 156.30288,403.22764 c -0.15229,-0.48614 -1.54837,-4.86136 -3.1024,-9.72272 -3.67112,-11.48411 -7.18293,-23.01736 -7.18293,-23.58968 0,-0.24857 57.75295,-0.45195 128.33988,-0.45195 109.30042,0 128.33988,0.1463 128.33988,0.98618 0,0.5424 -0.60248,3.00843 -1.33885,5.48008 -0.73637,2.47164 -2.50939,8.78957 -3.94005,14.03984 -1.43065,5.25027 -2.92113,10.58008 -3.31218,11.84404 l -0.71098,2.29809 H 274.9875 c -94.10711,0 -118.46456,-0.18139 -118.68462,-0.88388 z"
     id="path253" />
     <path
     id="path1475"
     fill="#00f"
     d="m 274.35742,369.46289 c -70.58686,0 -128.33984,0.20456 -128.33984,0.45313 0,0.57232 3.51248,12.10574 7.18359,23.58984 1.55403,4.86135 2.94927,9.23652 3.10156,9.72266 0.22006,0.70248 24.57854,0.88281 118.68555,0.88281 h 118.40625 l 0.71094,-2.29883 c 0.39105,-1.26396 1.88185,-6.59349 3.3125,-11.84375 1.43066,-5.25026 3.20504,-11.56742 3.94141,-14.03906 0.73636,-2.47165 1.33789,-4.93807 1.33789,-5.48047 0,-0.83988 -19.03954,-0.98633 -128.33985,-0.98633 z" />
     <path
     id="path1477"
     d="m 149.1582,380.57812 c 1.17869,3.82887 2.47479,8.00896 3.92188,12.54102 h 243.45703 c 0.36719,-1.32976 0.50032,-1.75387 0.88086,-3.15039 0.95696,-3.5119 1.7861,-6.39399 2.63672,-9.39063 z" />
     <path
     id="path1479"
     fill="#0ff"
     d="m 153.08008,393.11914 c 0.0446,0.13977 0.0764,0.24695 0.12109,0.38672 0.30625,0.95803 0.32566,1.02179 0.61133,1.91602 h 242.08008 c 0.2411,-0.86422 0.37612,-1.33069 0.64453,-2.30274 z" />
     <path
     id="path1481"
     fill="#0ff"
     d="m 148.43555,378.26953 c 0.19963,0.6539 0.50566,1.6037 0.72265,2.30859 h 250.89649 c 0.20912,-0.73671 0.47682,-1.71376 0.64843,-2.30859 z" />
     </g><g
   id="layer2">
   <path
     id="path250"
     d="m 27.445311,392.46875 c -0.166405,-0.003 -0.274255,0.008 -0.316401,0.0332 -0.336962,0.20824 -0.613284,7.95524 -0.613287,17.21485 l 5e-6,16.83593 4.066403,1.08984 c 2.236221,0.59968 7.088579,1.80273 10.783207,2.67383 3.69463,0.8711 10.059035,2.44777 14.142578,3.50195 1.08662,0.28052 2.124147,0.53814 3.089845,0.77344 l 4.994135,0.99024 c 0.49816,-0.52593 2.483329,-4.64394 4.599611,-9.56641 2.253241,-5.24101 5.550989,-12.78459 7.328121,-16.76367 1.777145,-3.97907 3.012343,-7.36914 2.746105,-7.53321 -0.266249,-0.16404 -4.619981,-0.97482 -9.675788,-1.80077 -14.669488,-2.39654 -21.288139,-3.61353 -31.384766,-5.7715 -4.554361,-0.9734 -8.594972,-1.66042 -9.759765,-1.67773 z" />
     <path
     id="path1373"
     fill="#00f"
     d="m 27.445312,392.46875 c -0.166404,-0.003 -0.27426,0.008 -0.316406,0.0332 -0.336961,0.20824 -0.613278,7.95525 -0.613281,17.21485 v 16.83593 l 4.066406,1.08985 c 2.236219,0.59968 7.088579,1.80273 10.783203,2.67383 3.694627,0.8711 10.05904,2.44777 14.142578,3.50195 1.086619,0.28052 2.124147,0.53814 3.089844,0.77344 l 4.994141,0.99023 c 0.498159,-0.52593 2.483329,-4.64394 4.599609,-9.56641 2.253239,-5.241 5.550995,-12.78459 7.328125,-16.76367 1.777143,-3.97906 3.012332,-7.36913 2.746094,-7.5332 -0.266249,-0.16404 -4.619979,-0.97483 -9.675781,-1.80078 -14.669474,-2.39654 -21.288149,-3.61352 -31.384766,-5.77149 -4.554356,-0.97339 -8.594974,-1.66042 -9.759766,-1.67773 z" />
     <path
     id="path1375"
     d="m 26.568359,402.99219 c -0.03291,2.07941 -0.05273,4.34233 -0.05273,6.72461 v 8.61914 l 41.017578,9.17383 c 0.221343,-0.5039 0.43222,-0.96851 0.658203,-1.49415 1.645297,-3.82693 3.686812,-8.49797 5.447266,-12.49609 z" />
     <path
     id="path1377"
     fill="#0ff"
     d="m 26.515625,418.33594 v 2.81836 l 39.875,8.91797 c 0.366235,-0.8013 0.746802,-1.66343 1.142578,-2.56446 z" />
     <path
     id="path1379"
     fill="#0ff"
     d="m 26.636719,400.18164 c -0.02345,0.92941 -0.05183,1.76575 -0.06836,2.81055 l 47.070313,10.52539 c 0.392115,-0.89052 0.79754,-1.81187 1.134766,-2.57227 z" />
     </g><g
   id="layer3">
   <path
     fill="#000"
     d="m 484.91082,434.34034 c -0.38014,-0.48614 -1.98074,-3.74767 -3.55689,-7.24785 -1.57616,-3.50017 -4.77667,-10.57836 -7.11226,-15.72931 -2.33559,-5.15094 -4.03548,-9.49538 -3.77754,-9.6543 0.25794,-0.15893 4.60556,-0.98704 9.66137,-1.84025 9.04645,-1.52666 27.19318,-5.17576 36.63666,-7.36723 2.64926,-0.61479 5.13111,-1.1178 5.51521,-1.1178 0.78594,0 0.59162,34.21677 -0.19881,35.00503 -0.49178,0.49043 -6.17736,1.95391 -24.41387,6.28417 -12.21818,2.90121 -11.829,2.85033 -12.75387,1.66754 z"
     id="path247" />
     <path
     id="path1448"
     fill="#00f"
     d="m 522.27734,391.38281 c -0.3841,0 -2.86636,0.50435 -5.51562,1.11914 -9.44347,2.19147 -27.59028,5.84053 -36.63672,7.36719 -5.0558,0.85321 -9.40222,1.68091 -9.66016,1.83984 -0.25794,0.15892 1.44176,4.50337 3.77735,9.6543 2.33559,5.15095 5.53517,12.22835 7.11133,15.72852 1.57614,3.50017 3.1765,6.7619 3.55664,7.24804 0.92487,1.18279 0.53573,1.23324 12.7539,-1.66796 18.23649,-4.33026 23.92229,-5.79278 24.41406,-6.28321 0.79043,-0.78826 0.98516,-35.00586 0.19922,-35.00586 z" />
     <path
     id="path1450"
     d="m 522.76562,402.15625 -47.85937,10.67578 c 2.24426,4.95275 5.01829,11.08645 6.44727,14.25977 0.0421,0.0935 0.0829,0.17835 0.125,0.27148 l 41.13476,-9.17578 c 0.1274,-4.80695 0.18745,-10.81417 0.15234,-16.03125 z" />
     <path
     id="path1452"
     fill="#0ff"
     d="m 522.61328,418.1875 -41.13672,9.17383 c 0.42196,0.93293 0.83556,1.82163 1.23242,2.66211 l 39.82032,-8.88282 c 0.0335,-0.87464 0.057,-1.93531 0.084,-2.95312 z" />
     <path
     id="path1454"
     fill="#0ff"
     d="m 522.72461,399.2207 -49.01563,10.9336 c 0.18347,0.41248 0.34032,0.78359 0.53321,1.20898 0.2181,0.481 0.4329,0.95862 0.66406,1.46875 l 47.85937,-10.67578 c -0.007,-1.07298 -0.0263,-1.96235 -0.041,-2.93555 z" />
     </g><g
   id="layer4">
     </g></svg>
